<?xml version="1.0" encoding="UTF-8"?>
<svg width="88px" height="70px" viewBox="0 0 88 70" version="1.1" xmlns="http://www.w3.org/2000/svg" xmlns:xlink="http://www.w3.org/1999/xlink">
    <!-- Generator: sketchtool 60.1 (101010) - https://sketch.com -->
    <title>CD1CF233-961D-4F9B-9FFD-5DEBFA962959</title>
    <desc>Created with sketchtool.</desc>
    <g id="Page-1" stroke="none" stroke-width="1" fill="none" fill-rule="evenodd">
        <g id="01-00-Index" transform="translate(-776.000000, -3723.000000)">
            <g id="Partners" transform="translate(0.000000, 3628.000000)">
                <g id="logo-NRT" transform="translate(740.000000, 90.000000)">
                    <rect id="Rectangle-Copy-15" x="0" y="0" width="160" height="80"></rect>
                    <g id="Group-42" transform="translate(36.000000, 5.000000)">
                        <polygon id="Fill-1" fill="#00533D" points="40.8875305 0 38.28125 3.53323749 40.1293488 5.46875 76.3331422 5.46875 78.75 2.12946469 76.6177671 0"></polygon>
                        <polygon id="Fill-2" fill="#E52744" points="9.59343471 0 7.65625 1.88730053 21.8972161 1.88730053 23.3980076 3.28125 38.8984948 3.28125 41.5625 0"></polygon>
                        <polygon id="Fill-3" fill="#00533D" points="45.3114779 7.65625 42.65625 11.1721278 44.5390571 13.125 71.9127523 13.125 74.375 9.80481392 72.2022226 7.65625"></polygon>
                        <polygon id="Fill-4" fill="#E52744" points="45.9375 6.5625 13.968965 6.5625 12.03125 8.43082572 26.2719252 8.43082572 27.725086 9.84375 43.2734554 9.84375"></polygon>
                        <polygon id="Fill-5" fill="#00533D" points="50.6709889 14.21875 48.125 17.7514863 49.9167122 19.6875 67.5955905 19.6875 70 16.3963269 67.8782612 14.21875"></polygon>
                        <polygon id="Fill-6" fill="#E52744" points="50.3125 14.21875 18.3434634 14.21875 16.40625 16.1067838 30.6464236 16.1067838 32.1482404 17.5 47.6966099 17.5"></polygon>
                        <polygon id="Fill-7" fill="#00533D" points="55.2035983 20.78125 52.5 24.2971278 54.4171062 26.25 63.1178975 26.25 65.625 22.9298139 63.4625286 20.78125"></polygon>
                        <polygon id="Fill-8" fill="#E52744" points="54.6875 20.78125 22.715716 20.78125 20.78125 22.6953518 35.0017289 22.6953518 36.500915 24.0625 51.9791474 24.0625"></polygon>
                        <polygon id="Fill-9" fill="#E52744" points="60.15625 27.34375 28.1876863 27.34375 26.25 29.2120757 40.4904645 29.2120757 41.9922592 30.625 57.4922448 30.625"></polygon>
                        <polygon id="Fill-10" fill="#00533D" points="59.0753275 31.71875 61.25 28.5249456 60.1426037 27.34375 57.96875 30.493605"></polygon>
                        <polygon id="Fill-11" fill="#E52744" points="55.2673544 37.1875 56.875 35.1823179 55.5513734 33.90625 33.6099249 33.90625 31.71875 35.8208237 45.6209913 35.8208237 47.0396173 37.1875"></polygon>
                        <polygon id="Fill-12" fill="#E52744" points="51.2235177 39.375 37.9847261 39.375 36.09375 41.3161829 49.5690359 41.3161829 50.9400181 42.65625 52.5 40.6691219"></polygon>
                        <polygon id="Fill-13" fill="#E52744" points="47.03125 48.125 45.0932257 45.9375 41.3130243 45.9375 39.375 48.125"></polygon>
                        <polygon id="Fill-14" fill="#00533D" points="4.00745469 54.6875 4.00745469 54.7324332 4.14904361 54.8232358 4.24327348 54.9131023 4.33750335 55.0034369 4.38437416 55.1396407 4.43173322 55.4101763 4.43173322 55.7265812 4.43173322 58.7094932 1.41442449 55.0488382 1.32019463 54.9131023 1.22596476 54.8232358 1.1786057 54.6875 0 54.6875 0 54.7324332 0.141588921 54.8232358 0.235818789 54.9131023 0.283177841 55.0034369 0.376919471 55.1396407 0.424278524 55.4101763 0.424278524 55.7265812 0.424278524 58.8452291 0.424278524 59.161634 0.376919471 59.4331056 0.283177841 59.5683734 0.235818789 59.659176 0.141588921 59.7495105 0 59.8398451 0 59.8852464 1.41442449 59.8852464 1.41442449 59.8398451 1.27283557 59.7495105 1.1786057 59.659176 1.13124665 59.5683734 1.03750502 59.4331056 0.990145969 59.161634 0.990145969 58.8452291 0.990145969 55.8173838 3.81899496 59.2070353 4.10168456 59.5234402 4.33750335 59.7949118 4.62019295 59.9755809 4.99760066 60.15625 4.99760066 55.7265812 5.04495971 55.4101763 5.09134229 55.1396407 5.13870134 55.0034369 5.1860604 54.9131023 5.32764932 54.8232358 5.46875 54.7324332 5.46875 54.6875"></polygon>
                        <path d="M9.2437159,58.5533564 L8.02050857,58.5533564 L8.63235581,57.294194 L9.2437159,58.5533564 Z M9.43175175,58.9350166 L9.76105807,59.6216887 L9.85507599,59.8129139 L9.90232853,59.9650248 L9.85507599,60.0033489 L9.85507599,60.0796019 L9.66704014,60.1179259 L9.66704014,60.15625 L10.9375,60.15625 L10.9375,60.1179259 L10.7022116,60.0033489 L10.5609412,59.8129139 L10.4196707,59.6600128 L10.3256528,59.4312538 L9.05568005,56.875 L8.06776111,56.875 L8.16177903,56.9133241 L8.20854443,56.9508579 L8.25579696,57.027506 L8.25579696,57.065435 L8.20854443,57.2183361 L8.16177903,57.3325181 L7.1270947,59.4312538 L7.03258963,59.6600128 L6.93905885,59.8129139 L6.75053585,60.0033489 L6.65651793,60.0796019 L6.5625,60.1179259 L6.5625,60.15625 L7.69120226,60.15625 L7.69120226,60.1179259 L7.50316641,60.0796019 L7.45640101,60.0033489 L7.45640101,59.9650248 L7.45640101,59.8129139 L7.55041894,59.6216887 L7.87972525,58.9350166 L9.43175175,58.9350166 Z" id="Fill-15" fill="#00533D"></path>
                        <polygon id="Fill-16" fill="#00533D" points="12.8676765 57.2522539 13.4467794 57.2522539 13.5911803 57.2522539 13.7840481 57.2901355 13.9294484 57.3651177 13.9774155 57.4404904 14.0253826 57.4404904 14.21875 56.875 14.0738494 56.9128816 13.9294484 56.9128816 11.5650697 56.9128816 11.3717023 56.9128816 11.1303677 56.875 10.9375 57.4404904 11.0824006 57.3651177 11.2752684 57.3272361 11.4681361 57.2522539 11.7094706 57.2522539 12.2406064 57.2522539 12.2406064 59.4771148 12.2406064 59.6657418 12.2406064 59.8539782 12.1436729 60.0051141 12.047239 60.0804868 11.9508052 60.1183684 11.9508052 60.15625 13.2054448 60.15625 13.2054448 60.1183684 13.0125771 60.0051141 12.9161432 59.8918598 12.9161432 59.7032329 12.8676765 59.5146059"></polygon>
                        <polygon id="Fill-17" fill="#00533D" points="15.5749456 59.4694951 15.5749456 59.659953 15.530978 59.8508061 15.4874637 60.0037256 15.3999819 60.0799878 15.3125 60.1183165 15.3125 60.15625 16.40625 60.15625 16.40625 60.1183165 16.3192214 60.0799878 16.2317395 60.0037256 16.187772 59.8508061 16.1438044 59.659953 16.1438044 59.4694951 16.1438044 57.5613597 16.1438044 57.3705067 16.187772 57.1800488 16.2317395 56.9891957 16.3192214 56.9129335 16.40625 56.875 15.3125 56.875 15.3999819 56.9129335 15.4874637 56.9891957 15.5749456 57.1800488 15.5749456 57.3705067 15.5749456 57.5613597"></polygon>
                        <path d="M18.59375,56.21875 L18.9580974,56.2675849 L19.2318298,56.3647512 L19.5050903,56.5590837 L19.7335154,56.8017477 L19.8699097,57.0454186 L20.0067759,57.3852488 L20.0520833,57.7255826 L20.0978627,58.0170814 L20.0520833,58.40625 L20.0067759,58.6982523 L19.8699097,58.9897512 L19.687736,59.2324151 L19.5050903,59.4272512 L19.2318298,59.5732523 L18.9580974,59.6699151 L18.6395294,59.71875 L18.2747101,59.6699151 L17.9556702,59.5244174 L17.7281891,59.3784163 L17.500236,59.1357523 L17.3175903,58.84375 L17.1811961,58.5522512 L17.1354167,58.2119174 L17.0896373,57.8715837 L17.1354167,57.5307465 L17.1811961,57.2392477 L17.3175903,56.9477488 L17.500236,56.7050849 L17.7281891,56.5102488 L17.9556702,56.3647512 L18.2747101,56.2675849 L18.59375,56.21875 Z M18.6395294,55.78125 L18.1836232,55.78125 L17.7734965,55.9272512 L17.4086772,56.1215837 L17.0443298,56.4130826 L16.8163768,56.7050849 L16.5884237,57.09375 L16.4515574,57.4829186 L16.40625,57.9204186 L16.4515574,58.40625 L16.5884237,58.84375 L16.8163768,59.2324151 L17.0443298,59.5244174 L17.4086772,59.8164197 L17.7734965,60.0107523 L18.1383158,60.1079186 L18.59375,60.15625 L19.0038768,60.1079186 L19.4140035,59.9624209 L19.7788228,59.8164197 L20.1436421,59.5244174 L20.4169026,59.1845872 L20.5990763,58.7949151 L20.7359426,58.40625 L20.78125,58.1630826 L20.78125,57.9204186 L20.7359426,57.4829186 L20.6448557,57.09375 L20.4169026,56.7050849 L20.1889496,56.4130826 L19.8699097,56.1215837 L19.5050903,55.9272512 L19.0949636,55.78125 L18.6395294,55.78125 Z" id="Fill-18" fill="#00533D"></path>
                        <polygon id="Fill-19" fill="#00533D" points="23.6100799 56.6557465 25.269648 59.4272512 25.4582974 59.6699151 25.6090607 59.8647512 25.759824 60.0102488 25.9859689 60.15625 25.9859689 56.6074151 26.023855 56.3642477 26.023855 56.1210803 26.0996273 55.9267477 26.25 55.78125 25.3829157 55.78125 25.533679 55.9267477 25.6090607 56.1210803 25.6465562 56.3642477 25.6465562 56.6074151 25.6465562 58.9897512 23.8366154 56.0727488 23.7608432 55.9267477 23.7233477 55.8779128 23.7233477 55.78125 23.0066361 55.78125 23.1199039 55.9267477 23.1952855 56.1210803 23.2331716 56.3642477 23.2331716 56.6074151 23.2331716 59.1352488 23.2331716 59.3784163 23.1952855 59.5727488 23.1199039 59.7675849 22.96875 59.913586 22.96875 59.9619174 23.8366154 59.9619174 23.8366154 59.913586 23.7233477 59.7675849 23.6100799 59.5727488 23.6100799 59.3784163 23.6100799 59.1352488"></polygon>
                        <path d="M30.0252645,58.5533564 L28.8019209,58.5533564 L29.4138363,57.294194 L30.0252645,58.5533564 Z M30.2133213,58.9350166 L30.5426643,59.6216887 L30.6366927,59.8129139 L30.6839504,59.9650248 L30.6366927,60.0033489 L30.6366927,60.0796019 L30.4486359,60.1179259 L30.4486359,60.15625 L31.71875,60.15625 L31.71875,60.1179259 L31.4839226,60.0033489 L31.3426364,59.8129139 L31.2013502,59.6600128 L31.1073218,59.4312538 L29.8372077,56.875 L28.8491787,56.875 L28.9432071,56.9133241 L28.9899777,56.9508579 L29.0372355,57.027506 L29.0372355,57.065435 L28.9899777,57.2183361 L28.9432071,57.3325181 L27.9084076,59.4312538 L27.813892,59.6600128 L27.7198636,59.8129139 L27.5318068,60.0033489 L27.4377784,60.0796019 L27.34375,60.1179259 L27.34375,60.15625 L28.472578,60.15625 L28.472578,60.1179259 L28.2845212,60.0796019 L28.2377506,60.0033489 L28.2377506,59.9650248 L28.2377506,59.8129139 L28.3312918,59.6216887 L28.6611219,58.9350166 L30.2133213,58.9350166 Z" id="Fill-20" fill="#00533D"></path>
                        <polygon id="Fill-21" fill="#00533D" points="32.7944875 59.7366104 32.7944875 57.5613597 32.7944875 57.3709018 32.7944875 57.1800488 32.9020055 56.9891957 32.9560431 56.9129335 33.0635611 56.875 31.71875 56.875 31.8797485 56.9129335 31.9337861 56.9891957 32.0413041 57.1800488 32.0413041 57.3709018 32.0413041 57.5613597 32.0413041 59.4694951 32.0413041 59.6603482 32.0413041 59.8508061 31.9337861 60.0037256 31.8797485 60.0799878 31.71875 60.1183165 31.71875 60.15625 34.6234083 60.15625 35 59.4694951 34.9465195 59.4694951 34.7314834 59.6220195 34.4083722 59.7366104 34.0858181 59.774939 33.7092264 59.774939"></polygon>
                        <polygon id="Fill-22" fill="#00533D" points="36.0220835 59.7366104 36.0220835 57.5613597 36.0220835 57.3709018 36.0761119 57.1800488 36.1836117 56.9891957 36.2370831 56.9129335 36.3451398 56.875 35 56.875 35.1074998 56.9129335 35.2155566 56.9891957 35.3230564 57.1800488 35.3230564 57.3709018 35.3230564 57.5613597 35.3230564 59.4694951 35.3230564 59.6603482 35.3230564 59.8508061 35.2155566 60.0037256 35.1074998 60.0799878 35 60.1183165 35 60.15625 37.9047222 60.15625 38.28125 59.4694951 38.2272216 59.4694951 37.9587506 59.6220195 37.6897227 59.7366104 37.3666663 59.774939 36.9901386 59.774939"></polygon>
                        <polygon id="Fill-23" fill="#00533D" points="41.3272341 58.7062575 42.65625 56.875 41.7009929 56.875 41.8257226 56.951253 41.8670124 56.989182 41.9087323 57.0658301 41.9087323 57.1420831 41.8670124 57.2945891 41.8257226 57.3708421 41.1194947 58.3245974 40.2472473 56.989182 40.2059575 56.951253 40.0812279 56.9133241 39.8734885 56.875 39.375 56.875 39.5414496 56.989182 39.6657491 57.103759 39.8734885 57.3708421 40.7874558 58.7062575 40.7874558 59.4695778 40.7874558 59.6600128 40.7457358 59.8129139 40.7040159 60.0033489 40.6210062 60.079997 40.5797164 60.1179259 40.5797164 60.15625 41.6179832 60.15625 41.6179832 60.1179259 41.4519637 60.0033489 41.368954 59.8504478 41.3272341 59.6983368 41.3272341 59.5071117"></polygon>
                        <polygon id="Fill-24" fill="#00533D" points="47.03125 54.6875 47.03125 54.7352685 47.1588138 54.7825445 47.2437098 54.9248649 47.2863777 55.0676778 47.3286057 55.2104908 47.3708338 55.5433926 47.3708338 55.8762945 47.3708338 59.0147315 47.3708338 59.3003574 47.3286057 59.6332592 47.2863777 59.8233482 47.2437098 59.9183926 47.1588138 60.0612055 47.03125 60.108974 47.03125 60.15625 48.4331327 60.15625 48.4331327 60.108974 48.3055688 60.0612055 48.2633408 59.9183926 48.178005 59.8233482 48.1357769 59.6332592 48.093109 59.3003574 48.093109 59.0147315 48.093109 55.3055352 48.6029245 55.2104908 48.8153843 55.2104908 48.9851762 55.2582592 49.155408 55.3533037 49.2825319 55.4483482 49.4100958 55.5911611 49.4954316 55.7334815 49.5376596 55.9240629 49.5798876 56.1141518 49.5376596 56.3997777 49.4527637 56.6371426 49.3251998 56.827724 49.155408 56.9700445 48.9429482 57.1128574 48.7304884 57.2079018 48.3055688 57.3034388 48.9851762 58.4922332 49.8776832 59.7283037 50.0470352 59.9183926 50.259495 60.0612055 50.4719548 60.108974 50.7266426 60.15625 51.40625 60.15625 51.1093342 59.9183926 50.7693105 59.6332592 50.4719548 59.3003574 50.217267 59.0147315 49.155408 57.4930352 49.3678677 57.3979908 49.5798876 57.3034388 49.7923474 57.1601334 49.9621393 56.9700445 50.1323711 56.7799555 50.217267 56.5425906 50.3021629 56.3042408 50.344391 56.0191074 50.3021629 55.7334815 50.217267 55.4961166 50.0897031 55.3055352 49.9194714 55.0676778 49.7074515 54.9248649 49.4527637 54.7825445 49.155408 54.7352685 48.7731563 54.6875"></polygon>
                        <polygon id="Fill-25" fill="#00533D" points="52.4454446 58.5718616 52.9925084 58.5718616 53.3204069 58.5718616 53.4846393 58.6472343 53.5939388 58.6851159 53.5939388 58.1946077 53.4297064 58.1946077 53.265474 58.1946077 52.4454446 58.1946077 52.4454446 57.2901355 52.828276 57.2522539 53.1567408 57.2522539 53.4297064 57.2522539 53.6488717 57.2901355 53.8125378 57.3651177 54.0317031 57.4408809 54.0317031 56.875 53.8674707 56.9128816 53.7032383 56.9128816 51.40625 56.9128816 51.5155495 56.9507632 51.6254153 57.0257454 51.6797819 57.2143723 51.6797819 57.4029993 51.6797819 57.5912357 51.6797819 59.4771148 51.6797819 59.6657418 51.6797819 59.8539782 51.6254153 60.0051141 51.5155495 60.0804868 51.40625 60.1183684 51.40625 60.15625 54.3596015 60.15625 54.6875 59.5146059 54.3596015 59.6657418 54.0317031 59.7411145 53.7032383 59.7789961 53.3204069 59.7789961 52.4454446 59.7411145"></polygon>
                        <polygon id="Fill-26" fill="#00533D" points="57.666512 55.9272512 57.1487728 55.8300849 56.673508 55.78125 56.2416116 55.8300849 55.8530837 55.9272512 55.5079243 56.1215837 55.2490547 56.3647512 54.9901851 56.7050849 54.8171583 57.0454186 54.6875 57.4829186 54.6875 57.96875 54.6875 58.4550849 54.8171583 58.8925849 54.9901851 59.2324151 55.2490547 59.5732523 55.5512928 59.8164197 55.9398206 60.0107523 56.3283485 60.1079186 56.8031663 60.15625 57.2784312 60.1079186 57.4939322 60.0595872 57.666512 59.9624209 57.96875 59.2324151 57.666512 59.3784163 57.3642739 59.5249209 57.0620359 59.5732523 56.7602449 59.6220872 56.4146384 59.5732523 56.1553217 59.476086 55.8964522 59.3300849 55.7238725 59.0869174 55.5512928 58.84375 55.4216344 58.5522512 55.3353446 58.2119174 55.2919761 57.8715837 55.3353446 57.53125 55.4216344 57.2392477 55.5079243 56.9477488 55.6809511 56.7050849 55.8530837 56.5590837 56.1124004 56.4130826 56.3283485 56.3159163 56.6305866 56.3159163 56.8899033 56.3159163 57.1916942 56.4130826 57.4510109 56.5102488 57.666512 56.65625"></polygon>
                        <path d="M61.250236,56.21875 L61.614544,56.2675849 L61.888247,56.3647512 L62.161478,56.5590837 L62.3889346,56.8017477 L62.5257861,57.0454186 L62.6626375,57.3852488 L62.7537145,57.7255826 L62.7537145,58.0170814 L62.7537145,58.40625 L62.6626375,58.6982523 L62.5257861,58.9897512 L62.343632,59.2324151 L62.161478,59.4272512 L61.888247,59.5732523 L61.614544,59.6699151 L61.2955385,59.71875 L60.9307585,59.6699151 L60.6575275,59.5244174 L60.3842965,59.3784163 L60.156368,59.1357523 L59.9742139,58.84375 L59.8373625,58.5522512 L59.791588,58.2119174 L59.7458136,57.8715837 L59.791588,57.5307465 L59.8373625,57.2392477 L59.9742139,56.9477488 L60.156368,56.7050849 L60.3842965,56.5102488 L60.611753,56.3647512 L60.9307585,56.2675849 L61.250236,56.21875 Z M61.2955385,55.78125 L60.8401534,55.78125 L60.4300709,55.9272512 L60.065291,56.1215837 L59.700511,56.4130826 L59.4725825,56.7050849 L59.2451259,57.09375 L59.1082745,57.4829186 L59.0625,57.9204186 L59.1082745,58.40625 L59.2451259,58.84375 L59.4725825,59.2324151 L59.700511,59.5244174 L60.065291,59.8164197 L60.4300709,60.0107523 L60.794379,60.1079186 L61.250236,60.15625 L61.6598466,60.1079186 L62.0699291,59.9624209 L62.434709,59.8164197 L62.7990171,59.5244174 L63.07272,59.1845872 L63.2548741,58.7949151 L63.3917255,58.40625 L63.4375,58.1630826 L63.4375,57.9204186 L63.3917255,57.4829186 L63.3006485,57.09375 L63.1184945,56.7050849 L62.8447916,56.4130826 L62.5257861,56.1215837 L62.161478,55.9272512 L61.7513955,55.78125 L61.2955385,55.78125 Z" id="Fill-27" fill="#00533D"></path>
                        <polygon id="Fill-28" fill="#00533D" points="67.4217594 55.8784163 67.0310189 55.78125 66.6402783 55.78125 66.171875 55.78125 65.7811344 55.9272512 65.4296297 56.1210803 65.1173609 56.3647512 64.9612264 56.5102488 64.8439234 56.7050849 64.7658561 56.8505826 64.6877889 57.0449151 64.6097217 57.2880826 64.5704859 57.4829186 64.53125 57.7255826 64.53125 57.9682465 64.5704859 58.4545814 64.6877889 58.8920814 64.8439234 59.2324151 65.078125 59.5732523 65.351967 59.8159163 65.7423031 60.0107523 66.1326391 60.1074151 66.6018514 60.15625 66.9141203 60.15625 67.2267936 60.1074151 67.8125 59.9619174 67.8125 59.8159163 67.7732641 59.6699151 67.7732641 58.2119174 67.8125 58.0659163 67.8125 57.9204186 67.0310189 57.9204186 67.1094906 58.0170814 67.1875578 58.0659163 67.2267936 58.2602488 67.265625 58.4545814 67.265625 58.6494174 67.265625 59.5732523 66.9141203 59.6699151 66.5626156 59.71875 66.2891781 59.6699151 65.9765047 59.5732523 65.7423031 59.4272512 65.5469328 59.1840837 65.351967 58.9409163 65.2346639 58.6005826 65.1173609 58.2602488 65.1173609 57.9204186 65.1173609 57.5307465 65.2346639 57.1904128 65.351967 56.9477488 65.5081014 56.7050849 65.7030672 56.461414 65.9376734 56.3159163 66.2111109 56.2670814 66.5233797 56.21875 66.7575814 56.21875 66.9921875 56.3159163 67.2267936 56.4130826 67.4217594 56.6074151"></polygon>
                        <polygon id="Fill-29" fill="#00533D" points="69.5096938 56.6557465 71.207148 59.4272512 71.3579113 59.6699151 71.5086746 59.8647512 71.6977146 60.0102488 71.9238595 60.15625 71.9238595 56.6074151 71.9238595 56.3642477 71.961355 56.1210803 72.0371273 55.9267477 72.1875 55.78125 71.3204157 55.78125 71.4707884 55.9267477 71.5465607 56.1210803 71.5844468 56.3642477 71.5844468 56.6074151 71.5844468 58.9897512 69.7737249 56.0727488 69.6983432 55.9267477 69.6608477 55.8779128 69.6229616 55.78125 68.90625 55.78125 69.0574039 55.9267477 69.1327855 56.1210803 69.1702811 56.3642477 69.1702811 56.6074151 69.1702811 59.1352488 69.1702811 59.3784163 69.1327855 59.5727488 69.0574039 59.7675849 68.90625 59.913586 68.90625 59.9619174 69.7737249 59.9619174 69.7737249 59.913586 69.6229616 59.7675849 69.5475799 59.5727488 69.5096938 59.3784163 69.5096938 59.1352488"></polygon>
                        <polygon id="Fill-30" fill="#00533D" points="74.6373369 59.4694951 74.6373369 59.659953 74.6373369 59.8508061 74.5498913 60.0037256 74.5059419 60.0799878 74.375 60.1183165 74.375 60.15625 75.46875 60.15625 75.46875 60.1183165 75.3813044 60.0799878 75.337355 60.0037256 75.2503625 59.8508061 75.2503625 59.659953 75.2503625 59.4694951 75.2503625 57.5613597 75.2503625 57.3705067 75.2503625 57.1800488 75.337355 56.9891957 75.3813044 56.9129335 75.46875 56.875 74.375 56.875 74.5059419 56.9129335 74.5498913 56.9891957 74.6373369 57.1800488 74.6373369 57.3705067 74.6373369 57.5613597"></polygon>
                        <polygon id="Fill-31" fill="#00533D" points="79.4206458 55.9272512 78.9443795 55.78125 78.4149511 55.78125 78.097623 55.78125 77.7802948 55.8300849 77.5150326 55.9272512 77.2508665 56.023914 76.9861523 56.1699151 76.8277622 56.3647512 76.7214381 56.6079186 76.6688241 56.8505826 76.7214381 57.09375 76.7746002 57.3369174 76.8798282 57.4829186 77.0387663 57.6284163 77.2508665 57.7744174 77.4092565 57.8715837 77.8855228 58.1147512 78.3091751 58.2607523 78.6791173 58.4550849 78.8386034 58.601086 78.9443795 58.6982523 78.9975415 58.8925849 79.0496075 59.038586 78.9975415 59.1845872 78.9443795 59.3300849 78.8386034 59.4272512 78.7322793 59.5249209 78.4149511 59.6704186 78.097623 59.71875 77.6739707 59.6704186 77.2508665 59.5732523 76.8798282 59.3784163 76.5625 59.1845872 76.7214381 59.9624209 77.0387663 60.0595872 77.3560945 60.1079186 77.9918469 60.15625 78.3617891 60.1079186 78.7322793 60.0595872 79.0496075 59.913586 79.3148697 59.7675849 79.5258738 59.5732523 79.6848119 59.3300849 79.791136 59.0869174 79.84375 58.84375 79.84375 58.6494174 79.7379739 58.4550849 79.6321979 58.3090837 79.4738078 58.1630826 79.1027695 57.9204186 78.6791173 57.7255826 78.203399 57.53125 77.8329088 57.3369174 77.6739707 57.2392477 77.5681946 57.09375 77.5150326 56.9477488 77.4624186 56.8017477 77.5150326 56.65625 77.5681946 56.5102488 77.6739707 56.4130826 77.7802948 56.3647512 78.0444609 56.2675849 78.3617891 56.21875 78.6791173 56.2675849 78.9443795 56.3159163 79.2085456 56.4619174 79.4206458 56.6079186"></polygon>
                        <polygon id="Fill-32" fill="#00533D" points="80.8829446 58.5718616 81.4300084 58.5718616 81.7579069 58.5718616 81.9221393 58.6472343 82.0314388 58.6851159 82.0314388 58.1946077 81.8672064 58.1946077 81.7035403 58.1946077 80.8829446 58.1946077 80.8829446 57.2901355 81.2663423 57.2522539 81.5942408 57.2522539 81.8672064 57.2522539 82.0863717 57.2901355 82.2500378 57.3651177 82.4692031 57.4408809 82.4692031 56.875 82.3049707 56.9128816 82.1407383 56.9128816 79.84375 56.9128816 79.9530495 56.9507632 80.0629153 57.0257454 80.1172819 57.2143723 80.1722148 57.4029993 80.1722148 57.5912357 80.1722148 59.4771148 80.1722148 59.6657418 80.1172819 59.8539782 80.0629153 60.0051141 79.9530495 60.0804868 79.84375 60.1183684 79.84375 60.15625 82.7971015 60.15625 83.125 59.5146059 82.8520344 59.6657418 82.4692031 59.7411145 82.1407383 59.7789961 81.8128398 59.7789961 80.8829446 59.7411145"></polygon>
                        <path d="M84.21875,56.875 L84.3007175,56.9133241 L84.3419137,56.9895771 L84.4238812,57.0658301 L84.4238812,57.1420831 L84.4650773,57.3708421 L84.4238812,57.5616722 L84.4238812,59.4312538 L84.4238812,59.6604079 L84.4238812,59.8129139 L84.3419137,60.0033489 L84.3007175,60.079997 L84.21875,60.1179259 L84.21875,60.15625 L85.489884,60.15625 L85.9005711,60.1179259 L86.3104088,60.0416729 L86.638279,59.8887718 L86.9661492,59.6983368 L87.1712804,59.4312538 L87.3356402,59.1637756 L87.4583792,58.8208346 L87.5,58.4774985 L87.4583792,58.1341624 L87.3764116,57.8291504 L87.2129012,57.5237432 L86.9661492,57.2945891 L86.6790504,57.1041541 L86.3511803,56.9895771 L85.982114,56.9133241 L85.5315048,56.875 L84.21875,56.875 Z M84.997654,57.2945891 L85.2444061,57.2570552 L85.4491126,57.2183361 L85.7769828,57.2570552 L86.0640815,57.2945891 L86.3104088,57.4091662 L86.5155401,57.5616722 L86.6790504,57.7525023 L86.8026388,57.9812613 L86.8846064,58.2483444 L86.8846064,58.5537515 L86.8434102,58.8587635 L86.7614427,59.0879177 L86.638279,59.3166767 L86.4335725,59.4691827 L86.2284413,59.6216887 L85.9409178,59.6983368 L85.6542438,59.7745899 L85.4083412,59.7745899 L84.997654,59.7745899 L84.997654,57.2945891 Z" id="Fill-33" fill="#00533D"></path>
                        <polygon id="Fill-34" fill="#00533D" points="31.5265845 64.5786091 31.3344191 64.5786091 28.2094902 64.5786091 27.9690345 64.5786091 27.8251593 64.5786091 27.6802885 64.53125 27.632496 64.53125 27.34375 65.5209077 27.5847036 65.379807 27.8251593 65.2855772 28.1134075 65.1913473 28.3538632 65.1913473 29.122525 65.1913473 29.122525 68.8687533 29.122525 69.151443 29.0747326 69.4810034 29.0269401 69.6230805 28.9786499 69.7641812 28.8825671 69.9057701 28.7381941 70 30.3725962 70 30.228721 69.8584111 30.1326383 69.7641812 30.0365555 69.6699513 29.9882652 69.5283624 29.939975 69.2456728 29.939975 68.9161124 29.939975 65.1913473 30.7091346 65.1913473 30.9013001 65.1913473 31.1422536 65.2382181 31.3344191 65.332448 31.3822115 65.4266779 31.4305018 65.5209077 31.4787921 65.5209077 31.71875 64.53125"></polygon>
                        <polygon id="Fill-35" fill="#00533D" points="34.1163743 65.625 32.8125 65.625 32.9384003 65.7012622 32.9810932 65.7771292 33.0647363 65.9300488 33.0647363 66.1209018 33.0647363 66.3117549 33.0647363 68.2194951 33.0647363 68.4103482 33.0647363 68.6012012 32.9810932 68.7916591 32.9384003 68.8683165 32.8125 68.90625 33.864138 68.90625 33.7800592 68.8683165 33.7382377 68.7916591 33.6537233 68.6012012 33.6537233 68.4103482 33.6537233 68.2194951 33.6537233 65.9679823 33.990474 65.9300488 34.1163743 65.9300488 34.2845318 65.9679823 34.4108678 66.0067061 34.4949466 66.0829683 34.579461 66.1588354 34.6631041 66.2350975 34.7057969 66.3496884 34.7057969 66.5022128 34.7057969 66.6551323 34.6212825 66.8072616 34.5372038 66.9222476 34.4108678 66.9985098 34.2845318 67.0747719 34.1163743 67.1510341 33.7800592 67.1889677 34.2845318 67.9140512 34.915776 68.6770683 35.0839336 68.7916591 35.2102695 68.8683165 35.378427 68.90625 35.5888418 68.90625 36.09375 68.90625 35.5888418 68.6012012 35.378427 68.4103482 35.2102695 68.2194951 34.4108678 67.3039537 34.579461 67.265625 34.7476185 67.1889677 34.8739545 67.1131006 34.9998548 66.9985098 35.1261908 66.8839189 35.2102695 66.7317896 35.2520911 66.5788701 35.2520911 66.4263457 35.2520911 66.2738214 35.2102695 66.1209018 35.1261908 65.9679823 34.9998548 65.8537866 34.8316973 65.7771292 34.6212825 65.7012622 34.4108678 65.625"></polygon>
                        <path d="M37.6295312,65.625 L37.722565,65.6629335 L37.7693229,65.7012622 L37.8160809,65.7771292 L37.8160809,65.8154579 L37.7693229,65.9679823 L37.722565,66.1209018 L36.6987109,68.1811665 L36.6056771,68.4103482 L36.4658853,68.6012012 L36.3260935,68.7533305 L36.2335418,68.8299878 L36.09375,68.90625 L37.21112,68.90625 L37.0708462,68.8299878 L37.0245703,68.7533305 L37.0245703,68.7153969 L37.0245703,68.5628726 L37.1176041,68.3720195 L37.3971876,67.6856598 L38.9797268,67.6856598 L39.3055862,68.3720195 L39.39862,68.6012012 L39.39862,68.7153969 L39.39862,68.7916591 L39.3518621,68.8299878 L39.2120703,68.90625 L40.46875,68.90625 L40.2364065,68.7533305 L40.0966147,68.6012012 L39.9568229,68.4103482 L39.8642712,68.1811665 L38.6075914,65.625 L37.6295312,65.625 Z M38.1882162,66.0446396 L38.7936591,67.3039537 L37.5832553,67.3039537 L38.1882162,66.0446396 Z" id="Fill-36" fill="#00533D"></path>
                        <polygon id="Fill-37" fill="#00533D" points="40.46875 65.625 40.6005435 65.7012622 40.6435688 65.7771292 40.7314312 65.9300488 40.7314312 66.1209018 40.7314312 66.3117549 40.7314312 68.2194951 40.7314312 68.4103482 40.7314312 68.6012012 40.6435688 68.7916591 40.6005435 68.8683165 40.46875 68.90625 41.5625 68.90625 41.4746377 68.8683165 41.4311594 68.7916591 41.34375 68.6012012 41.34375 68.4103482 41.34375 68.2194951 41.34375 66.3117549 41.34375 66.1209018 41.34375 65.9300488 41.4311594 65.7771292 41.4746377 65.7012622 41.5625 65.625"></polygon>
                        <polygon id="Fill-38" fill="#00533D" points="46.1637751 65.625 46.3145384 65.8188291 46.3903107 65.9648303 46.3903107 66.2085012 46.4281968 66.4516686 46.4281968 68.8335012 44.6174749 65.9164988 44.5420932 65.8188291 44.5045977 65.7221663 44.4667116 65.625 43.75 65.625 43.9011539 65.8188291 43.976145 65.9648303 44.0140311 66.2085012 44.0140311 66.4516686 44.0140311 68.9795023 44.0140311 69.2221663 43.976145 69.4170023 43.9011539 69.6108314 43.75 69.8056674 44.6174749 69.8056674 44.4667116 69.6108314 44.3909393 69.4170023 44.3534438 69.2221663 44.3534438 68.9795023 44.3534438 66.5 46.050898 69.2704977 46.2012707 69.5136651 46.3524246 69.757336 46.541074 69.9033372 46.7668284 70 46.7668284 66.4516686 46.7668284 66.2085012 46.805105 65.9648303 46.8804867 65.8188291 47.03125 65.625"></polygon>
                        <polygon id="Fill-39" fill="#00533D" points="48.125 65.625 48.2563406 65.7012622 48.2998188 65.7771292 48.3876812 65.9300488 48.3876812 66.1209018 48.3876812 66.3117549 48.3876812 68.2194951 48.3876812 68.4103482 48.3876812 68.6012012 48.2998188 68.7916591 48.2128623 68.8683165 48.125 68.90625 49.21875 68.90625 49.1308877 68.8683165 49.0869565 68.7916591 48.9995471 68.6012012 48.9560688 68.4103482 48.9560688 68.2194951 48.9560688 66.3117549 48.9560688 66.1209018 48.9995471 65.9300488 49.0869565 65.7771292 49.1308877 65.7012622 49.21875 65.625"></polygon>
                        <polygon id="Fill-40" fill="#00533D" points="52.7266657 65.625 52.877429 65.8188291 52.9528107 65.9648303 52.9528107 66.2085012 52.9528107 66.4516686 52.9528107 68.8335012 51.1424793 65.9164988 51.1045932 65.8188291 51.0292116 65.7221663 51.0292116 65.625 50.3125 65.625 50.4257678 65.8188291 50.5390355 65.9648303 50.5769216 66.2085012 50.5769216 66.4516686 50.5769216 68.9795023 50.5769216 69.2221663 50.5390355 69.4170023 50.4257678 69.6108314 50.3125 69.8056674 51.1424793 69.8056674 51.0292116 69.6108314 50.9538299 69.4170023 50.9163344 69.2221663 50.9163344 68.9795023 50.9163344 66.5 52.613398 69.2704977 52.7641613 69.5136651 52.9149246 69.757336 53.1039646 69.9033372 53.3297189 70 53.3297189 66.4516686 53.3297189 66.2085012 53.3679956 65.9648303 53.4433773 65.8188291 53.59375 65.625"></polygon>
                        <polygon id="Fill-41" fill="#00533D" points="57.4611109 65.6733259 57.0315389 65.770481 56.6800342 65.9652946 56.3673609 66.208434 56.2500578 66.353915 56.1331592 66.5487286 55.9373844 66.8885197 55.8593172 67.1321626 55.8204859 67.3747986 55.78125 67.5691088 55.78125 67.8122483 55.8204859 68.2985272 55.8985531 68.7359769 56.0939234 69.0762714 56.328125 69.416566 56.6407984 69.659202 56.9923031 69.8540156 57.3826391 69.9511708 57.8514469 70 58.1641203 70 58.4763891 69.9511708 59.0625 69.8051864 59.0625 69.659202 59.0625 69.5137211 59.0625 68.0548844 59.0625 67.9094034 59.0625 67.8122483 59.0625 67.7639224 58.2814234 67.7639224 58.2814234 67.8122483 58.3594906 67.8610776 58.4371533 67.9094034 58.5152205 68.1037136 58.5152205 68.2985272 58.5152205 68.5411633 58.5152205 69.416566 58.1641203 69.5137211 57.8122111 69.5625503 57.5003467 69.5137211 57.2657406 69.416566 56.9923031 69.2705816 56.7969328 69.0279456 56.6015625 68.7848061 56.4842594 68.4440082 56.4065967 68.1525429 56.3673609 67.7639224 56.4065967 67.3747986 56.4454281 67.0345041 56.6015625 66.7913646 56.7581014 66.5487286 56.9530672 66.353915 57.2265047 66.208434 57.4611109 66.1107755 57.7733797 66.0619463 58.0079859 66.1107755 58.2814234 66.1596048 58.4763891 66.2567599 58.6717594 66.4510701 58.7109953 66.4510701 58.7109953 65.7221551 58.2814234 65.6733259 57.8906828 65.625"></polygon>
                    </g>
                </g>
            </g>
        </g>
    </g>
</svg>