<?xml version="1.0" encoding="UTF-8"?>
<svg width="122px" height="70px" viewBox="0 0 122 70" version="1.1" xmlns="http://www.w3.org/2000/svg" xmlns:xlink="http://www.w3.org/1999/xlink">
    <!-- Generator: sketchtool 60.1 (101010) - https://sketch.com -->
    <title>B46B126A-FA3F-4AB5-9037-41BD5304BD71</title>
    <desc>Created with sketchtool.</desc>
    <defs>
        <linearGradient x1="65.6426717%" y1="-11.3283741%" x2="29.7938401%" y2="44.5956259%" id="linearGradient-1">
            <stop stop-color="#00A9A4" offset="0%"></stop>
            <stop stop-color="#00A9A6" offset="59%"></stop>
            <stop stop-color="#00A9AD" offset="81%"></stop>
            <stop stop-color="#01AAB8" offset="96%"></stop>
            <stop stop-color="#01AABD" offset="100%"></stop>
        </linearGradient>
        <linearGradient x1="11.027617%" y1="-0.355843469%" x2="103.956602%" y2="94.1525648%" id="linearGradient-2">
            <stop stop-color="#F58020" offset="0%"></stop>
            <stop stop-color="#F58325" offset="11%"></stop>
            <stop stop-color="#F68C35" offset="25%"></stop>
            <stop stop-color="#F79A4E" offset="41%"></stop>
            <stop stop-color="#F9AE71" offset="57%"></stop>
            <stop stop-color="#FBC89F" offset="75%"></stop>
            <stop stop-color="#FEE7D5" offset="92%"></stop>
            <stop stop-color="#FFF6EF" offset="100%"></stop>
        </linearGradient>
        <linearGradient x1="15.2419198%" y1="-3.7053886%" x2="85.9978797%" y2="88.8853368%" id="linearGradient-3">
            <stop stop-color="#F58020" offset="0%"></stop>
            <stop stop-color="#FFF6EF" offset="100%"></stop>
        </linearGradient>
        <linearGradient x1="28.2919141%" y1="1.51322997%" x2="80.9210174%" y2="95.9203618%" id="linearGradient-4">
            <stop stop-color="#EF3B24" offset="0%"></stop>
            <stop stop-color="#EF3F29" offset="13%"></stop>
            <stop stop-color="#F04A39" offset="28%"></stop>
            <stop stop-color="#F25D52" offset="45%"></stop>
            <stop stop-color="#F47775" offset="64%"></stop>
            <stop stop-color="#F698A1" offset="83%"></stop>
            <stop stop-color="#F9BBD0" offset="100%"></stop>
        </linearGradient>
        <linearGradient x1="0.0157979581%" y1="49.9688406%" x2="99.9808168%" y2="49.9688406%" id="linearGradient-5">
            <stop stop-color="#00A54F" offset="0%"></stop>
            <stop stop-color="#00A88F" offset="100%"></stop>
        </linearGradient>
        <linearGradient x1="-2.91398305%" y1="-22.6795451%" x2="344.013983%" y2="402.872161%" id="linearGradient-6">
            <stop stop-color="#EF3B24" offset="0%"></stop>
            <stop stop-color="#F9BBD0" offset="100%"></stop>
        </linearGradient>
        <linearGradient x1="15.2790412%" y1="40.2738731%" x2="115.924401%" y2="67.7825982%" id="linearGradient-7">
            <stop stop-color="#EF3B24" offset="0%"></stop>
            <stop stop-color="#F9BBD0" offset="100%"></stop>
        </linearGradient>
        <linearGradient x1="6.59766441%" y1="34.6301511%" x2="109.743884%" y2="69.8572085%" id="linearGradient-8">
            <stop stop-color="#1E5840" offset="0%"></stop>
            <stop stop-color="#019683" offset="100%"></stop>
        </linearGradient>
        <linearGradient x1="37.8866261%" y1="1.3324187%" x2="69.3293748%" y2="98.4618902%" id="linearGradient-9">
            <stop stop-color="#964534" offset="0%"></stop>
            <stop stop-color="#984A3A" offset="15%"></stop>
            <stop stop-color="#9F5749" offset="34%"></stop>
            <stop stop-color="#AA6D64" offset="56%"></stop>
            <stop stop-color="#BA8C88" offset="79%"></stop>
            <stop stop-color="#CBAEB0" offset="100%"></stop>
        </linearGradient>
        <linearGradient x1="-4.70964114%" y1="15.037317%" x2="64.9822118%" y2="50.4837506%" id="linearGradient-10">
            <stop stop-color="#2C4A3E" offset="0%"></stop>
            <stop stop-color="#2B4C40" offset="39%"></stop>
            <stop stop-color="#285247" offset="56%"></stop>
            <stop stop-color="#225D54" offset="69%"></stop>
            <stop stop-color="#1A6D66" offset="80%"></stop>
            <stop stop-color="#0F817E" offset="90%"></stop>
            <stop stop-color="#029A9A" offset="99%"></stop>
            <stop stop-color="#009E9F" offset="100%"></stop>
        </linearGradient>
    </defs>
    <g id="Page-1" stroke="none" stroke-width="1" fill="none" fill-rule="evenodd">
        <g id="01-00-Index" transform="translate(-1160.000000, -3723.000000)">
            <g id="Partners" transform="translate(0.000000, 3628.000000)">
                <g id="logo-Velg" transform="translate(1140.000000, 90.000000)">
                    <rect id="Rectangle-Copy-16" x="0" y="0" width="160" height="80"></rect>
                    <g id="Velg-logo" transform="translate(19.000000, 5.000000)">
                        <g id="Group" transform="translate(71.521739, 66.449275) scale(-1, 1) rotate(-180.000000) translate(-71.521739, -66.449275) translate(52.753623, 62.898551)" fill="#000000" fill-rule="nonzero">
                            <path d="M0.0616105571,6.01534527 C-0.138623753,5.45957967 0.138623753,5.24708106 1.09358739,5.24708106 L1.94073255,5.24708106 L1.86371935,2.90959635 C1.81751143,1.5692205 1.83291407,0.441343267 1.92532991,0.294228845 C2.0793563,-0.0163460469 2.5876434,-0.0817302346 2.75707243,0.196152563 C2.81868299,0.294228845 2.84948826,1.47114422 2.83408562,2.81152007 L2.80328035,5.24708106 L3.41938592,5.24708106 C4.22032316,5.24708106 4.5129733,5.37784944 4.5129733,5.73746247 C4.5129733,6.26053597 4.1587126,6.35861225 2.1563695,6.35861225 C0.261844867,6.3749583 0.184831671,6.35861225 0.0616105571,6.01534527 Z" id="Path"></path>
                            <path d="M5.68357389,6.26053597 C5.65276861,6.19515178 5.59115805,4.83842989 5.57575541,3.23651729 C5.5295475,0.245190704 5.59115805,-0.0653841877 6.14565307,0.0490381408 C6.39209529,0.0980762816 6.45370585,0.294228845 6.51531641,1.40576004 C6.57692697,2.50094518 6.63853752,2.71344379 6.86957711,2.76248193 C7.27004573,2.84421217 7.68591699,2.38652285 8.13259353,1.35672189 C8.54846479,0.408651173 8.88732285,0.0326920939 9.33399939,0.0163460469 C9.9655076,0.0163460469 9.70366274,0.915378628 8.70249118,2.20671633 L8.33282784,2.69709774 L8.79490702,3.10574892 C9.42641523,3.67786056 9.64205218,4.20093406 9.5342337,4.82208384 C9.42641523,5.45957967 8.94893341,5.94996108 8.22500937,6.21149783 C7.63970907,6.40765039 5.806795,6.45668854 5.68357389,6.26053597 Z M8.42524368,4.93650617 C8.67168591,4.65862337 8.68708854,4.57689314 8.50225687,4.16824197 C8.30202256,3.74324475 8.19420409,3.69420661 7.39326685,3.64516846 L6.51531641,3.59613032 L6.51531641,4.41343267 C6.51531641,4.90381408 6.5923296,5.24708106 6.71555072,5.31246525 C7.05440878,5.47592572 8.13259353,5.23073502 8.42524368,4.93650617 Z" id="Shape"></path>
                            <path d="M12.72258,6.19515178 C12.6455668,6.08072946 12.3529167,5.3288113 12.0756692,4.51150895 C11.7984217,3.71055265 11.3363425,2.51729123 11.059095,1.8797954 C10.4891973,0.588457689 10.4737947,-0.0326920939 11.0282897,0.0490381408 C11.3517451,0.0980762816 11.5057715,0.343266985 11.9370454,1.40576004 C12.1372797,1.8797954 12.168085,1.89614144 13.2154645,1.89614144 C14.2782466,1.89614144 14.2782466,1.89614144 14.3706624,1.40576004 C14.5246888,0.621149783 14.986768,-7.71605002e-15 15.3564313,0.0490381408 C15.8185105,0.114422328 15.8339132,0.604803736 15.4026393,1.55287446 C15.0329759,2.35383076 14.6171047,3.39997776 14.1088176,4.83842989 C13.7083489,5.99899922 13.5235173,6.30957411 13.2000618,6.35861225 C13.0152302,6.39130435 12.8149959,6.30957411 12.72258,6.19515178 Z M13.5697252,3.82497498 C13.9547912,3.00767263 13.8623753,2.79517402 13.1230487,2.79517402 C12.6301642,2.79517402 12.5223457,2.86055821 12.5223457,3.10574892 C12.5223457,3.46536195 12.9998275,4.42977872 13.1692566,4.42977872 C13.2308671,4.42977872 13.4156988,4.15189592 13.5697252,3.82497498 Z" id="Shape"></path>
                            <path d="M16.9737085,6.35861225 C16.9737085,6.32592016 16.9583058,4.98554431 16.9429032,3.38363171 C16.9120979,0.261536751 17.0045137,-0.245190704 17.5590088,0.114422328 C17.805451,0.277882798 17.8362563,0.572111642 17.8362563,3.30190148 L17.8362563,6.30957411 L17.420385,6.35861225 C17.1739428,6.39130435 16.9891111,6.39130435 16.9737085,6.35861225 Z" id="Path"></path>
                            <path d="M19.5459492,6.26053597 C19.4227281,6.04803736 19.4073255,0.392305126 19.5151439,0.196152563 C19.6537677,-0.0163460469 19.9156126,-0.0326920939 20.2082627,0.163460469 C20.3776917,0.277882798 20.4238997,0.719226065 20.3930944,2.1249861 C20.3776917,3.28555543 20.4238997,3.93939731 20.5163155,3.93939731 C20.6549393,3.93939731 21.7639293,2.04325587 22.3800348,0.751918159 C22.5648665,0.375959079 22.7188929,0.261536751 23.0731536,0.261536751 L23.5352328,0.261536751 L23.5352328,3.28555543 L23.5352328,6.30957411 L23.0731536,6.30957411 L22.6110744,6.30957411 L22.672685,4.47881686 C22.7034903,3.25286334 22.672685,2.63171355 22.5648665,2.63171355 C22.3646322,2.63171355 21.6869161,3.66151451 21.0092,5.00189036 C20.7319524,5.54130991 20.4238997,6.08072946 20.3468865,6.19515178 C20.1620548,6.42399644 19.6691703,6.45668854 19.5459492,6.26053597 Z" id="Path"></path>
                            <path d="M25.1217046,6.19515178 C25.0908994,6.08072946 25.0754967,4.70766151 25.0754967,3.15478706 C25.106302,0.915378628 25.1525099,0.277882798 25.3219389,0.163460469 C25.5991865,-0.0163460469 25.876434,-0.0163460469 25.9996551,0.179806516 C26.1228762,0.392305126 26.1228762,5.99899922 25.9996551,6.21149783 C25.8610313,6.45668854 25.1987178,6.44034249 25.1217046,6.19515178 Z" id="Path"></path>
                            <path d="M27.8633744,6.26053597 C27.8325691,6.19515178 27.7709586,4.83842989 27.755556,3.23651729 C27.709348,0.245190704 27.7709586,-0.0653841877 28.3254536,0.0490381408 C28.5872985,0.0980762816 28.6181038,0.294228845 28.6643117,2.02690982 C28.6951169,3.31824753 28.7567275,3.93939731 28.864546,3.90670522 C29.033975,3.84132103 29.9889386,2.1249861 30.4510178,1.0788391 C30.7898759,0.326920939 31.2365524,-0.0490381408 31.5754105,0.147114422 C31.8218527,0.294228845 31.852658,0.572111642 31.852658,3.31824753 L31.852658,6.30957411 L31.3905788,6.30957411 L30.9284996,6.30957411 L30.9747076,4.47881686 C31.0055128,3.4490159 30.9593049,2.61536751 30.8822917,2.56632937 C30.7282653,2.46825309 30.0505492,3.41632381 29.6808859,4.26631825 C29.2650146,5.21438897 28.4640774,6.39130435 28.2176351,6.39130435 C28.0636087,6.39130435 27.9095823,6.34226621 27.8633744,6.26053597 Z" id="Path"></path>
                            <path d="M34.3324829,6.06438341 C33.5007404,5.49227177 33.2388955,4.83842989 33.2388955,3.28555543 C33.2388955,1.65095074 33.5315457,0.948070722 34.455704,0.408651173 C35.0256017,0.0653841877 35.4722782,0.0653841877 36.2578128,0.42499722 C36.4118392,0.474035361 36.5658656,0.457689314 36.6274762,0.359613032 C36.7815026,0.0653841877 37.4284134,0.147114422 37.490024,0.474035361 C37.5208292,0.621149783 37.5362319,1.38941399 37.5054266,2.19037029 L37.4592187,3.61247637 L36.3810339,3.61247637 C35.5492914,3.61247637 35.2874466,3.54709218 35.2104334,3.35093962 C35.0872122,3.00767263 35.3336545,2.77882798 35.9651627,2.6480596 C36.6428788,2.50094518 36.719892,1.97787168 36.1499944,1.50383632 C35.2874466,0.784610252 34.3478856,1.29133771 34.1784565,2.56632937 C34.0398328,3.64516846 34.2092618,4.47881686 34.6559383,5.00189036 C35.1180175,5.52496386 35.6417073,5.49227177 36.3964366,4.88746803 C36.8585158,4.527855 36.8739184,4.527855 37.1665685,4.83842989 C37.443816,5.14900478 37.443816,5.18169688 37.1819712,5.50861781 C36.5196577,6.3749583 35.1796281,6.63649505 34.3324829,6.06438341 Z" id="Path"></path>
                        </g>
                        <polygon id="Path" points="0 0 59.8550725 0 59.8550725 59.8550725 0 59.8550725"></polygon>
                        <path d="M6.08695652,1.01449275 L36.7537628,21.0208737 C39.0282048,22.4907935 42.0353531,22.057554 43.8060597,19.9841935 L56.8115942,4.69702846 L29.8235835,54.7826087 L6.08695652,1.01449275 Z" id="Path" fill="url(#linearGradient-1)" fill-rule="nonzero"></path>
                        <path d="M1.01449275,26.71587 L30.4347826,54.7826087 L9.03117352,25.3623188 C6.61688356,25.7512703 3.39783028,26.2802443 1.01449275,26.71587 Z" id="Path" fill="url(#linearGradient-2)" fill-rule="nonzero"></path>
                        <polygon id="Path" fill="#00ACD2" fill-rule="nonzero" points="6.08695652 0 10.5604298 10.3096943 36.5217391 20.2898551"></polygon>
                        <path d="M9.70288875,17.668248 C7.49818595,17.5175797 5.24818105,17.3518446 3.04347826,17.2463768 L8.43442961,24.2825848 C9.98980212,24.0565824 12.6173246,24.5085872 14.2028986,24.2825848 L9.70288875,17.668248 Z" id="Path" fill="#EE5BA1" fill-rule="nonzero"></path>
                        <path d="M8.11594203,26.1092588 L30.4347826,54.7826087 L12.9773179,25.3623188 C11.3465049,25.5909739 9.74675501,25.8348727 8.11594203,26.1092588 Z" id="Path" fill="url(#linearGradient-3)" fill-rule="nonzero"></path>
                        <path d="M8.11594203,26.1833502 L30.4347826,54.7826087 L13.5364538,25.3623188 C11.9056408,25.5903831 9.74675501,25.9096731 8.11594203,26.1833502 Z" id="Path" fill="url(#linearGradient-4)" fill-rule="nonzero"></path>
                        <path d="M10.5162473,10.8458002 L3.04347826,8.11594203 L9.09213355,18.3154122 C10.7459431,18.435406 13.5788576,19.1553686 15.2173913,19.2753623 C15.2326671,19.2753623 10.5162473,10.8458002 10.5162473,10.8458002 Z" id="Path" fill="#8DC73F" fill-rule="nonzero"></path>
                        <path d="M22.4851062,19.4959042 C28.209004,20.0252048 33.8871107,20.6280193 39.5652174,21.3043478 C38.7867673,21.1867255 37.9930534,20.9220752 37.3367132,20.510397 L37.290922,20.4662886 L11.1594203,11.1594203 L14.7311326,18.8489813 C17.3107025,19.0401176 19.9055362,19.2606595 22.4851062,19.4959042 Z" id="Path" fill="url(#linearGradient-5)" fill-rule="nonzero"></path>
                        <path d="M17.2463768,23.7902423 L15.0046057,18.663569 C13.3796979,18.5396615 11.75479,18.3847771 10.1449275,18.2608696 L13.5752886,24.3478261 C14.7638787,24.1464764 16.0126505,23.991592 17.2463768,23.7902423 Z" id="Path" fill="url(#linearGradient-6)" fill-rule="nonzero"></path>
                        <path d="M17.2463768,24.2902512 L14.0672507,18.65976 C12.4165507,18.5370245 10.7658506,18.3836051 9.13043478,18.2608696 L12.615246,24.2902512 C13.8227026,24.090806 15.9930675,24.4896964 17.2463768,24.2902512 Z" id="Path" fill="#965738" fill-rule="nonzero"></path>
                        <path d="M14.2028986,19.2753623 L16.5255694,24.3478261 C17.6011687,24.1945794 18.7235331,24.0719821 19.7991324,23.9187355 C26.6424378,23.0605543 33.2051522,22.3402951 39.5652174,21.8345812 C33.7663344,21.1296467 27.9206862,20.5013354 22.1218033,19.9496475 C19.4873645,19.7044529 16.8373373,19.474583 14.2028986,19.2753623 Z" id="Path" fill="url(#linearGradient-7)" fill-rule="nonzero"></path>
                        <path d="M14.2028986,19.2753623 L16.5255694,24.3478261 C17.6011687,24.1945794 18.7235331,24.0719821 19.7991324,23.9187355 C26.6424378,23.0605543 33.2051522,22.3402951 39.5652174,21.8345812 C33.7663344,21.1296467 27.9206862,20.5013354 22.1218033,19.9496475 C19.4873645,19.7044529 16.8373373,19.474583 14.2028986,19.2753623 Z" id="Path" fill="url(#linearGradient-8)" fill-rule="nonzero"></path>
                        <path d="M13.1884058,24.9354896 L30.4347826,54.7826087 L17.2851875,24.3478261 C16.0269998,24.533404 14.4465934,24.7344468 13.1884058,24.9354896 Z" id="Path" fill="url(#linearGradient-9)" fill-rule="nonzero"></path>
                        <path d="M20.4175247,23.2365324 C19.330274,23.3898804 17.9410092,23.7119112 17.2463768,23.8192548 L30.504795,53.7681159 L39.5652174,21.3043478 C33.4041301,21.8564006 27.0467337,22.3624489 20.4175247,23.2365324 Z" id="Path" fill="url(#linearGradient-10)" fill-rule="nonzero"></path>
                        <polygon id="Path" fill="#000000" fill-rule="nonzero" points="93.3333333 39.5415787 93.3333333 59.8550725 94.8550725 59.8550725 96.3768116 59.8550725 96.3007246 39.6834107 96.1865942 19.5590263 94.7789855 19.4171943 93.3333333 19.2753623"></polygon>
                        <path d="M119.052933,31.0267401 C119.052933,31.3533796 118.770677,32.0066585 118.488421,32.4266236 C117.923909,33.1732281 117.735739,33.1732281 115.759947,32.1933096 C112.717854,30.6534379 107.872459,30.7001006 104.971495,32.2866352 C100.047695,34.9930765 98.8716288,42.8013153 102.760489,46.8920858 L104.265855,48.4786204 L102.94866,50.1118177 C101.960764,51.2783873 101.584423,52.2583057 101.584423,53.5026465 C101.584423,57.2667776 105.143984,58.2933588 112.46696,56.6601614 C115.556095,55.9602197 115.979479,55.9602197 117.437802,56.6134986 C120.856236,58.246696 119.789935,62.2441409 115.273839,64.5306172 C113.015791,65.6971868 112.278789,65.8371751 109.315101,65.6971868 C104.955814,65.5105357 103.356363,64.4839545 103.168192,61.6997418 C103.027064,60.0665445 102.838894,59.739905 101.568742,59.31994 C100.769016,59.0399633 100.063376,58.8066494 99.969291,58.8066494 C99.8752057,58.8066494 99.687035,59.5532539 99.4988643,60.4398467 C99.3106937,61.5597535 99.4518217,62.8196486 100.016334,64.2039778 C101.1924,67.2681671 103.858152,68.6680505 108.923079,68.9480272 C113.658707,69.1813411 116.622395,68.3414111 119.429275,65.9771635 C121.969579,63.8306755 122.753623,62.2130324 122.753623,59.31994 C122.753623,57.3601031 122.51841,56.7068242 121.342343,55.4158206 C119.131338,52.8960304 116.7008,52.4916196 111.494745,53.7359604 C109.189654,54.249251 106.806159,54.6225533 106.241647,54.5292277 C104.642196,54.2959138 104.548111,52.4760653 106.053476,50.9517478 C107.1825,49.7851783 107.558841,49.6918527 109.754166,49.8785038 C116.983056,50.48512 120.871916,46.4876751 120.260362,39.0371843 C120.025148,36.750708 120.119234,35.5530299 120.448532,35.5530299 C120.918959,35.5530299 122.706581,32.0688756 122.753623,30.9956316 C122.753623,30.6689921 122.047983,30.4356782 120.871916,30.4356782 C119.711531,30.4201239 119.052933,30.6067751 119.052933,31.0267401 Z M115.164073,36.097429 C116.575353,37.4973125 117.186907,41.3547691 116.293097,43.5479198 C115.587457,45.3677683 113.156919,46.7054347 110.569572,46.7054347 C106.445498,46.7054347 103.764066,43.5945826 104.375621,39.4882578 C104.89309,35.8174523 106.680712,34.5108945 110.992956,34.7442084 C113.423494,34.8375339 114.129134,35.0708478 115.164073,36.097429 Z" id="Shape" fill="#000000" fill-rule="nonzero"></path>
                        <path d="M76.3277674,31.7108141 C70.9570259,33.1787815 68.3096916,37.2827765 68.0054003,44.7962441 C67.5489633,54.7563241 71.6416813,59.9021024 79.979263,59.8547486 C83.3873256,59.8073948 86.5823843,58.6235501 88.2103428,56.7451832 C88.9862856,55.8454612 88.9862856,55.7981074 87.8451932,54.6142627 L86.7041008,53.3830643 L84.7414219,54.7089703 C80.5117728,57.6291206 74.6389507,56.3663529 72.5849844,52.0571582 C71.9916163,50.9206673 71.5351794,49.2632847 71.5351794,48.4267012 L71.5351794,46.8640262 L80.4052708,46.8640262 L89.2753623,46.8640262 L89.2753623,43.6123994 C89.2753623,38.4666212 87.5409019,34.646749 84.2697704,32.7525974 C82.2918769,31.6161065 78.5034502,31.0952149 76.3277674,31.7108141 Z M82.2918769,35.814809 C83.93505,36.6198234 85.6542958,39.682035 85.6542958,41.8129555 L85.6542958,43.0915077 L78.5490939,43.0915077 L71.443892,43.0915077 L71.7633979,41.5288328 C72.4024096,38.5139749 73.8630078,36.5251159 76.0843344,35.5780401 C77.8340093,34.8677333 80.5574165,34.9624409 82.2918769,35.814809 Z" id="Shape" fill="#000000" fill-rule="nonzero"></path>
                        <path d="M45.7109459,34.3723061 L44.6376812,36.3183032 L48.9618494,47.6020693 L53.3326814,58.8405797 L55.1059015,58.8405797 L56.9257852,58.8405797 L61.7632541,46.4254199 C64.4230842,39.6068875 66.7407139,33.6482142 66.880705,33.1956567 C67.1140234,32.4715648 66.880705,32.3810533 65.1541486,32.5168205 L63.1476101,32.6525878 L60.4722254,39.6521432 C58.9789874,43.4837964 57.2213219,48.0395416 56.5680303,49.7140042 C55.868075,51.4337225 55.1681197,52.6405424 54.981465,52.4142637 C54.7948102,52.2332407 52.9749265,47.8132628 51.0306062,42.5786815 C49.0240677,37.3441001 47.2664022,32.969378 47.1264111,32.788355 C46.9242018,32.6224173 46.3175739,33.3465092 45.7109459,34.3723061 Z" id="Path" fill="#000000" fill-rule="nonzero"></path>
                    </g>
                </g>
            </g>
        </g>
    </g>
</svg>