<?xml version="1.0" encoding="UTF-8"?>
<svg width="150px" height="66px" viewBox="0 0 150 66" version="1.1" xmlns="http://www.w3.org/2000/svg" xmlns:xlink="http://www.w3.org/1999/xlink">
    <!-- Generator: sketchtool 60.1 (101010) - https://sketch.com -->
    <title>FB924A57-40FF-479E-87A3-9FDA49197C5B</title>
    <desc>Created with sketchtool.</desc>
    <g id="Page-1" stroke="none" stroke-width="1" fill="none" fill-rule="evenodd">
        <g id="01-00-Index" transform="translate(-945.000000, -3727.000000)">
            <g id="Partners" transform="translate(0.000000, 3628.000000)">
                <g id="logo-AHN" transform="translate(940.000000, 90.000000)">
                    <rect id="Rectangle-Copy-14" x="0" y="0" width="160" height="80"></rect>
                    <g id="AHN-logo" transform="translate(5.000000, 9.000000)" fill-rule="nonzero">
                        <g id="Group" transform="translate(75.000000, 32.738095) scale(-1, 1) rotate(-180.000000) translate(-75.000000, -32.738095) ">
                            <path d="M17.2879617,62.1681002 C16.1935705,60.3512216 15.2188782,58.7400274 15.1333789,58.5686238 C14.7913817,58.0201321 13.628591,56.2203939 12.8077975,54.9691473 C12.3461012,54.2835328 11.9699042,53.7007604 11.9699042,53.6664797 C11.9699042,53.5979182 9.18262654,49.4328098 6.58344733,45.5933682 C5.55745554,44.0850162 3.84746922,41.6853652 2.7872777,40.262715 C1.72708618,38.8400648 0.85499316,37.5716779 0.85499316,37.4688357 C0.85499316,37.3317128 1.72708618,37.2802917 4.05266758,37.3145724 L7.26744186,37.3659935 L8.12243502,39.3371354 C9.23392613,41.9253303 11.0636115,45.0105959 11.627907,45.2677013 C11.8673051,45.3876839 13.2352941,45.5762279 14.6716826,45.6962104 C16.7920657,45.8676141 18.1087551,45.8676141 21.7681259,45.6962104 C26.1627907,45.4733857 26.9151847,45.3534031 27.2058824,44.8220519 C27.2913817,44.6849289 27.8043776,43.79363 28.3344733,42.85091 C29.3262654,41.154014 30.6087551,38.6343805 30.9336525,37.7430815 L31.121751,37.2802917 L36.6792066,37.2802917 C39.7400821,37.2802917 42.2366621,37.3488532 42.2366621,37.434555 C42.2366621,37.5545375 40.9199726,39.4913987 40.4069767,40.1084518 C40.2359781,40.3141361 35.2770178,47.8044752 34.1655267,49.535652 C33.7380301,50.2041262 32.9856361,51.3868113 32.4555404,52.1924084 C31.9425445,52.9980055 31.3440492,53.9578659 31.121751,54.3349539 C30.8994528,54.7120419 30.6771546,55.0548492 30.625855,55.1062703 C30.5574555,55.1576913 30.4377565,55.3462354 30.3180575,55.5347794 C28.9842681,57.780167 28.129275,59.1513962 28.0437756,59.2199576 C27.9753762,59.2713787 27.872777,59.425642 27.8043776,59.5627649 C27.6675787,59.8541511 27.4452804,60.2140987 26.7954856,61.2425206 C26.5389877,61.6367489 26.1627907,62.253802 25.9746922,62.6137497 C25.7865937,62.956557 25.4787962,63.4879083 25.2906977,63.7621541 C25.119699,64.0535403 24.8974008,64.4306283 24.8119015,64.6191723 C24.4870041,65.3562079 24.2134063,65.4247694 21.6997264,65.4590501 L19.2886457,65.4761905 L17.2879617,62.1681002 Z M20.4514364,55.8604463 C21.0157319,54.9691473 21.5800274,54.0435677 21.7168263,53.820743 C22.7086183,52.2438295 24.7948016,48.7129145 24.7948016,48.6100723 C24.7948016,48.3015457 17.6128591,48.1301421 14.8255814,48.3529668 C13.8679891,48.4386687 13.5088919,48.5415108 13.5088919,48.7129145 C13.5088919,48.8500374 13.9192886,49.587073 14.4151847,50.3583894 C15.2017784,51.5753553 15.5437756,52.1238469 16.501368,53.7007604 C17.9035568,56.0147095 19.0150479,57.5059212 19.3399453,57.5059212 C19.3912449,57.5059212 19.9042408,56.7688856 20.4514364,55.8604463 Z" id="Shape" fill="#004C6E"></path>
                            <path d="M83.9603283,65.3047868 C83.874829,65.2019447 83.9261286,64.3620668 84.0458276,63.4193468 C84.1997264,62.390925 84.3023256,60.2655198 84.3023256,58.0715532 L84.3023256,54.4206557 L83.8406293,54.3006731 C83.5670315,54.2149713 79.2407661,54.1635502 74.1963064,54.1635502 C63.372093,54.1635502 64.2954856,53.9750062 64.2954856,56.2032536 C64.2954856,56.9745699 64.4151847,59.1342558 64.5519836,61.0196958 C64.6887825,62.9051359 64.8084815,64.653453 64.8084815,64.9276988 L64.8084815,65.3904887 L59.7298222,65.3562079 C54.753762,65.3047868 54.6340629,65.3047868 54.6682627,64.9619796 C54.6853625,64.7734356 54.7879617,63.7792944 54.8905609,62.7337322 C55.0957592,60.7625904 55.0102599,40.5026801 54.8050616,38.3601346 L54.6853625,37.2802917 L59.746922,37.2802917 L64.8084815,37.2802917 L64.8084815,37.9316255 C64.8084815,38.2744328 64.6887825,40.0398903 64.5519836,41.8224882 C64.2099863,46.1418599 64.2099863,50.1869858 64.5348837,50.4612316 C64.9452804,50.8040389 68.1600547,50.9754425 74.3844049,50.9754425 C80.369357,50.9754425 83.874829,50.8040389 84.1826265,50.4955123 C84.4220246,50.2555472 84.3194254,41.2397158 84.0629275,39.2514336 C83.9261286,38.3087135 83.8577291,37.4859761 83.9090287,37.4174146 C83.9432285,37.3317128 86.25171,37.2802917 89.0389877,37.2802917 L94.1005472,37.2802917 L93.9808482,38.9600474 C93.3823529,47.8730366 93.3823529,54.2492521 93.9808482,63.6250312 L94.1005472,65.3733483 L89.0902873,65.4247694 C85.8413133,65.4590501 84.0458276,65.407629 83.9603283,65.3047868 Z" id="Path" fill="#004C6E"></path>
                            <path d="M113.902189,65.4419097 L111.114911,65.3733483 L111.21751,64.7391548 C111.747606,61.6710297 111.730506,41.1025929 111.21751,37.9316255 L111.114911,37.2802917 L113.79959,37.2802917 L116.484268,37.2802917 L116.381669,38.3601346 C116.176471,40.3484169 116.073871,56.5117801 116.26197,56.7003241 C116.450068,56.8888681 120.109439,54.4892172 128.334473,48.7471952 C129.753762,47.7530541 131.378249,46.6046497 131.959644,46.193281 C132.54104,45.7647719 133.840629,44.8391922 134.832421,44.1364373 C135.824213,43.4336824 138.303694,41.5996634 140.355677,40.074171 L144.066347,37.2802917 L146.956224,37.2802917 L149.829001,37.2802917 L149.726402,38.5315383 C149.658003,39.2000125 149.572503,44.0850162 149.538304,49.3642483 C149.469904,58.0544129 149.538304,60.6254675 149.880301,64.2420843 L150,65.3904887 L147.315321,65.3904887 L144.613543,65.3904887 L144.733242,64.4991897 C144.921341,63.1622413 145.126539,51.986724 145.04104,48.9871603 C144.98974,47.1874221 144.904241,46.3646846 144.767442,46.3132635 C144.647743,46.2618424 143.946648,46.6389304 143.194254,47.1531414 C142.45896,47.6673523 139.99658,49.3299676 137.739398,50.85546 C133.242134,53.872164 132.267442,54.5406382 127.821477,57.6773249 C126.402189,58.671466 121.853625,61.9966966 121.409029,62.3566442 C121.27223,62.4766268 120.844733,62.8022937 120.468536,63.0765395 C120.092339,63.3507853 119.271546,63.9849788 118.655951,64.4820494 C118.023256,64.9791199 117.339261,65.407629 117.116963,65.4247694 C116.894665,65.4590501 115.441176,65.4590501 113.902189,65.4419097 Z" id="Path" fill="#004C6E"></path>
                            <path d="M0.393296854,29.1043381 C0.273597811,29.0700573 0.170998632,28.7615308 0.170998632,28.4358639 L0.170998632,27.8530915 L74.7777018,27.8873722 L149.367305,27.9387933 L149.418605,28.3330217 C149.452804,28.5558464 149.384405,28.8472326 149.281806,28.9843555 C149.093707,29.1900399 139.363885,29.2243206 74.8290014,29.2071803 C34.0116279,29.2071803 0.495896033,29.1557592 0.393296854,29.1043381 Z" id="Path" fill="#000000"></path>
                            <path d="M3.60807114,20.4998753 C3.40287278,20.2256295 3.24897401,19.9513837 3.24897401,19.8999626 C3.24897401,19.8485415 2.51367989,18.3059088 1.624487,16.4718898 C0.735294118,14.6378709 0,13.0095363 0,12.855273 C0,12.6324483 0.170998632,12.5981675 1.07729138,12.6324483 L2.1374829,12.6838694 L2.58207934,13.5408876 L3.00957592,14.3979058 L4.71956224,14.4493269 C5.64295486,14.4836076 6.56634747,14.4664672 6.75444596,14.4150461 C6.95964432,14.363625 7.250342,13.986537 7.48974008,13.4551857 L7.88303694,12.5981675 L9.01162791,12.5981675 C10.123119,12.5981675 10.123119,12.5981675 10.0205198,13.043817 C9.91792066,13.4037646 9.14842681,15.06638 7.04514364,19.4543131 C6.34404925,20.9112441 6.24145007,20.9969459 5.04445964,20.9969459 C4.03556772,20.9969459 3.93296854,20.9626652 3.60807114,20.4998753 Z M5.66005472,17.4831713 C6.37824897,15.8891174 6.36114911,15.8548367 5.04445964,15.8548367 C4.2749658,15.8548367 3.89876881,15.9233982 3.83036936,16.0776614 C3.79616963,16.197644 3.9500684,16.6775742 4.20656635,17.140364 C4.44596443,17.6202942 4.71956224,18.1345051 4.80506156,18.3059088 C4.90766074,18.460172 5.01025992,18.5972949 5.06155951,18.5972949 C5.1128591,18.5972949 5.36935705,18.1002244 5.66005472,17.4831713 Z" id="Shape" fill="#000000"></path>
                            <path d="M48.1532148,20.7398404 C47.999316,20.3113313 48.0335157,13.0609574 48.2045144,12.8038519 C48.2900137,12.6495886 48.6320109,12.5981675 49.2647059,12.6324483 L50.1880985,12.6838694 L50.1880985,16.7975567 L50.1880985,20.9112441 L49.2305062,20.9626652 C48.4610123,20.9969459 48.2387141,20.9626652 48.1532148,20.7398404 Z" id="Path" fill="#000000"></path>
                            <path d="M52.0519836,20.5684368 C51.8638851,19.8142608 52.0519836,19.6257168 53.0779754,19.6257168 C54.0697674,19.6257168 54.2920657,19.8485415 54.0184679,20.6198579 C53.8987688,20.9455248 53.74487,20.9969459 53.0266758,20.9969459 C52.2400821,20.9969459 52.1545828,20.9626652 52.0519836,20.5684368 Z" id="Path" fill="#000000"></path>
                            <path d="M78.0437756,20.7741212 C78.0095759,20.6541386 77.9924761,18.7858389 78.0095759,16.6261531 L78.0608755,12.6838694 L79.1381669,12.6324483 L80.1983584,12.5810272 L80.1983584,14.2093618 C80.1983584,15.6491523 80.2325581,15.8719771 80.5232558,16.0262403 C80.8823529,16.2147843 83.9261286,16.2662054 84.370725,16.0948018 C84.5930233,16.0091 84.6443228,15.7005734 84.6443228,14.5693094 C84.6443228,13.7808527 84.6956224,13.0266766 84.746922,12.8724134 C84.9008208,12.478185 86.7818057,12.478185 86.9357045,12.8724134 C86.9870041,13.0266766 87.0383037,14.7921341 87.0383037,16.7975567 C87.0383037,18.8029793 86.9870041,20.5684368 86.9357045,20.7227001 C86.8502052,20.9283844 86.5766074,20.9969508 85.8242134,20.9969508 C84.6614227,20.9969508 84.6785226,21.0140863 84.6101231,19.025804 L84.5588235,17.8259786 L82.4897401,17.7745575 C80.0786594,17.7231364 80.1983584,17.6031538 80.1983584,19.7628397 L80.1983584,20.9969508 L79.1723666,20.9969508 C78.4883721,20.9969508 78.1121751,20.9283844 78.0437756,20.7741212 Z" id="Path" fill="#000000"></path>
                            <path d="M28.8303694,20.2084892 C28.7790698,20.0542259 28.7277702,19.6771379 28.7277702,19.351471 C28.7277702,18.8544004 28.6593707,18.7515582 28.2660739,18.6658564 C27.4281806,18.4944528 27.3597811,18.4430317 27.3597811,18.083084 C27.3597811,17.7231364 27.4281806,17.6717153 28.2660739,17.5003116 L28.7277702,17.3974695 L28.7277702,15.4263276 C28.7277702,13.1980803 28.8474692,12.9409748 30.0444596,12.6153079 C31.4295486,12.2210795 32.4897401,12.4610446 32.4897401,13.1809399 C32.4897401,13.6780105 32.2161423,13.9179756 31.5492476,14.0036774 L31.0362517,14.0550985 L31.0362517,15.7691349 L31.0362517,17.4831713 L31.7202462,17.5688731 C32.3187415,17.6374346 32.4042408,17.705996 32.4042408,18.083084 C32.4042408,18.460172 32.3187415,18.5287335 31.7202462,18.5972949 C31.1046512,18.6658564 31.0362517,18.7344179 30.9849521,19.1972077 C30.8823529,20.4484543 30.8481532,20.482735 29.8563611,20.482735 C29.1723666,20.482735 28.9158687,20.4141735 28.8303694,20.2084892 Z" id="Path" fill="#000000"></path>
                            <path d="M129.394665,20.3627524 C129.326265,20.3113313 129.274966,19.9685241 129.274966,19.6257168 C129.274966,18.9229619 129.069767,18.6658564 128.419973,18.5630142 C128.129275,18.5287335 127.975376,18.3916106 127.941176,18.1173647 C127.889877,17.7402767 127.958276,17.6888556 128.813269,17.5003116 L129.274966,17.3974695 L129.274966,15.4263276 C129.274966,13.1980803 129.394665,12.9409748 130.591655,12.6153079 C132.010944,12.2210795 133.036936,12.4953254 133.036936,13.2666417 C133.036936,13.6780105 132.729138,13.9179756 132.096443,14.0036774 L131.583447,14.0550985 L131.583447,15.7691349 L131.583447,17.4831713 L132.267442,17.5688731 C132.865937,17.6374346 132.951436,17.705996 132.951436,18.083084 C132.951436,18.460172 132.865937,18.5287335 132.267442,18.5972949 C131.839945,18.648716 131.566347,18.7858389 131.549248,18.9401022 C131.532148,19.0772251 131.480848,19.4885939 131.412449,19.8485415 L131.30985,20.482735 L130.403557,20.482735 C129.907661,20.482735 129.445964,20.4313139 129.394665,20.3627524 Z" id="Path" fill="#000000"></path>
                            <path d="M37.1580027,18.7001371 C36.7647059,18.5972949 36.3372093,18.4087509 36.2175103,18.3059088 C35.9439124,18.0145226 35.619015,18.0316629 35.499316,18.3401895 C35.4309166,18.5287335 35.1402189,18.5972949 34.4562244,18.5972949 L33.5157319,18.5972949 L33.5157319,15.5977312 L33.5157319,12.5810272 L34.5075239,12.6324483 L35.4822161,12.6838694 L35.5677155,14.4321865 C35.6532148,16.0433807 35.6874145,16.2319247 36.0978112,16.6432934 C36.4227086,16.9689604 36.7989056,17.1232236 37.4658003,17.1917851 C38.3891929,17.3117676 38.3891929,17.3117676 38.4404925,17.9459611 C38.5088919,18.7515582 38.1668947,18.9572426 37.1580027,18.7001371 Z" id="Path" fill="#000000"></path>
                            <path d="M21.8023256,18.6658564 C21.6142271,18.6144353 21.3064295,18.5458738 21.1012312,18.5115931 C20.9131327,18.460172 20.5369357,18.2202069 20.2975376,17.9802418 C19.6819425,17.3803291 19.6819425,16.574732 20.2633379,16.0262403 C20.6908345,15.632012 22.5547196,15.0320992 23.4439124,15.0149589 C23.7004104,14.9978185 24.0937073,14.8264149 24.3502052,14.6378709 C24.7948016,14.2950636 24.7948016,14.2607828 24.5212038,13.9522563 C23.9056088,13.2666417 22.0759234,13.4551857 21.7852257,14.2265021 C21.6997264,14.4150461 21.4090287,14.4836076 20.6737346,14.4836076 C19.8187415,14.4836076 19.6648427,14.4321865 19.6648427,14.175081 C19.6648427,13.7637123 20.4514364,13.043817 21.2722298,12.7010097 C22.2298222,12.3067814 24.504104,12.3410621 25.4445964,12.7695712 C27.0348837,13.4894665 27.3255814,14.7578534 26.128591,15.6662927 C25.8378933,15.8891174 23.3071135,16.5404513 22.7428181,16.5404513 C22.3837209,16.5404513 21.9733242,17.1232236 22.1443228,17.3974695 C22.3495212,17.7231364 23.9398085,17.5860135 24.4015048,17.2260658 C24.880301,16.8661182 26.2311902,16.7461356 26.4192886,17.0546622 C26.624487,17.3803291 26.3166895,17.89454 25.7181943,18.271628 C25.2393981,18.5630142 24.7948016,18.648716 23.6320109,18.7001371 C22.8112175,18.7344179 21.9904241,18.7172775 21.8023256,18.6658564 Z" id="Path" fill="#000000"></path>
                            <path d="M41.2106703,18.6144353 C40.4582763,18.460172 39.7913817,18.0316629 39.500684,17.5003116 C39.1928865,16.9175393 39.3980848,16.7118549 40.2701778,16.7118549 C40.8173735,16.7118549 41.1422709,16.8318374 41.5184679,17.140364 C41.8946648,17.4660309 42.2195622,17.5688731 42.8009576,17.5688731 C43.8269494,17.5688731 44.1176471,17.4317502 44.1176471,16.9861007 C44.1176471,16.4718898 43.6046512,16.2662054 41.9630643,16.1119422 C39.6887825,15.9062578 38.7824897,15.1692221 39.1073871,13.8151334 C39.3980848,12.5810272 41.6894665,11.9982548 43.4336525,12.7010097 C43.9124487,12.8895537 44.1860465,12.9238345 44.3399453,12.8038519 C44.5280438,12.6495886 45.5882353,12.5124657 46.1354309,12.5810272 C46.2893297,12.5981675 46.3406293,13.232361 46.3406293,15.1006607 L46.3406293,17.6031538 L45.8276334,18.083084 C45.502736,18.3916106 45.0581395,18.5801546 44.5280438,18.6658564 C43.5533516,18.7858389 42.0143639,18.7686986 41.2106703,18.6144353 Z M44.254446,14.9635378 C44.3399453,14.5007479 43.4165527,13.6265894 42.7154583,13.5066068 C41.621067,13.3352032 40.748974,14.2265021 41.4500684,14.8092745 C41.7407661,15.0492396 43.006156,15.3234854 43.6901505,15.2892047 C44.0150479,15.2720643 44.2202462,15.1520818 44.254446,14.9635378 Z" id="Shape" fill="#000000"></path>
                            <path d="M57.6436389,18.6144353 C56.6176471,18.3401895 55.7626539,17.517452 55.9678523,16.9861007 C56.0533516,16.7975567 56.2927497,16.7118549 56.8570451,16.7118549 C57.4726402,16.7118549 57.7291382,16.7975567 58.0540356,17.1575044 C58.4131327,17.5345924 58.5670315,17.5860135 59.4391245,17.5345924 C60.1402189,17.5003116 60.4651163,17.3974695 60.6019152,17.1917851 C60.9439124,16.6432934 60.379617,16.3519073 58.4815321,16.1119422 C57.0964432,15.9233982 56.6347469,15.7862752 56.1559508,15.4263276 C55.6429549,15.0320992 55.5745554,14.877836 55.5745554,14.2265021 C55.5745554,13.5237472 55.6429549,13.420905 56.2927497,12.9409748 C56.9083447,12.478185 57.130643,12.4267639 58.2079343,12.4267639 C58.9603283,12.4267639 59.6101231,12.5296061 59.9179207,12.6838694 C60.3454172,12.9238345 60.5164159,12.9238345 61.0294118,12.7181501 C61.5595075,12.5296061 62.7051984,12.4610446 62.8248974,12.6324483 C62.8590971,12.6495886 62.8419973,13.8665545 62.7906977,15.2892047 L62.7222982,17.9116804 L62.123803,18.2887684 C61.627907,18.5801546 61.2004104,18.6658564 59.8666211,18.7001371 C58.9603283,18.7344179 57.9685363,18.6829968 57.6436389,18.6144353 Z M60.7045144,14.8606956 C60.7045144,13.7637123 59.0116279,13.0780977 58.1053352,13.797993 C57.5923393,14.1922214 57.5581395,14.2779232 57.7804378,14.6378709 C57.9514364,14.9121167 59.3365253,15.3063451 60.1573187,15.3234854 C60.6532148,15.3406258 60.7045144,15.2892047 60.7045144,14.8606956 Z" id="Shape" fill="#000000"></path>
                            <path d="M67.5615595,18.4944528 C66.9630643,18.2887684 66.7236662,18.271628 66.4329685,18.4258913 C66.24487,18.5287335 65.7318741,18.5972949 65.3043776,18.5630142 L64.5519836,18.5115931 L64.5519836,15.5977312 L64.5519836,12.6838694 L65.5779754,12.6838694 L66.6039672,12.6838694 L66.6894665,14.6721516 C66.7920657,16.9175393 66.9630643,17.3117676 67.9719562,17.5003116 C69.2373461,17.7231364 69.6477428,17.0546622 69.6819425,14.7235727 C69.6990424,13.7637123 69.7674419,12.9066941 69.8358413,12.7867115 C69.9042408,12.6838694 70.3659371,12.5981675 70.8960328,12.5981675 L71.8194254,12.5981675 L71.8194254,14.7749938 C71.8194254,17.1232236 71.6655267,17.8259786 71.0328317,18.3059088 C70.4343365,18.7515582 68.5362517,18.8544004 67.5615595,18.4944528 Z" id="Path" fill="#000000"></path>
                            <path d="M91.24487,18.648716 C89.5519836,18.3573298 88.3378933,16.5404513 88.7653899,14.929257 C89.0389877,13.8836948 89.500684,13.3523436 90.5437756,12.8724134 C92.4418605,11.9639741 95.0752394,12.4267639 96.1525308,13.8665545 C96.5629275,14.3979058 96.6313269,14.6550112 96.6313269,15.5977312 C96.6313269,16.9003989 96.3064295,17.5003116 95.2120383,18.1859262 C94.6648427,18.5287335 94.2715458,18.6315757 93.1429549,18.6829968 C92.373461,18.7172775 91.5184679,18.7001371 91.24487,18.648716 Z M93.9808482,16.9861007 C94.4767442,16.4890302 94.5622435,16.2833458 94.5622435,15.632012 C94.5622435,14.2779232 93.3652531,13.3694839 92.0998632,13.797993 C91.1935705,14.0893792 90.9028728,14.5350287 90.9028728,15.632012 C90.9028728,16.4890302 90.9541724,16.6261531 91.4500684,17.0718025 C92.253762,17.8088382 93.1942544,17.7745575 93.9808482,16.9861007 Z" id="Shape" fill="#000000"></path>
                            <path d="M101.487688,18.648716 C101.29959,18.5972949 101.008892,18.4430317 100.854993,18.2887684 C100.581395,18.0488033 100.512996,18.0659437 100.222298,18.3230491 C99.9829001,18.5287335 99.6751026,18.5972949 99.0766074,18.5630142 L98.2387141,18.5115931 L98.2387141,15.5977312 L98.2387141,12.6838694 L99.2305062,12.6324483 C99.9316005,12.5981675 100.205198,12.6495886 100.222298,12.8038519 C100.222298,12.9238345 100.239398,13.8151334 100.256498,14.7921341 C100.290698,16.5575916 100.290698,16.574732 100.854993,17.0718025 C101.624487,17.7574171 102.393981,17.7231364 102.821477,16.9861007 C102.941176,16.7975567 103.060876,15.7348542 103.112175,14.6550112 L103.197674,12.6838694 L104.121067,12.6324483 C104.753762,12.5981675 105.095759,12.6495886 105.181259,12.8038519 C105.266758,12.9238345 105.335157,13.8836948 105.335157,14.9463974 C105.335157,16.8146971 105.352257,16.8661182 105.779754,17.2089255 C106.036252,17.4146098 106.412449,17.5688731 106.617647,17.5688731 C106.822845,17.5688731 107.199042,17.4146098 107.45554,17.2089255 C107.883037,16.8661182 107.900137,16.7975567 107.900137,14.9978185 C107.900137,13.9693967 107.951436,13.0266766 108.002736,12.8724134 C108.088235,12.666729 108.344733,12.5981675 109.028728,12.5981675 C110.157319,12.5981675 110.174419,12.6324483 110.088919,15.4948891 L110.03762,17.5688731 L109.473324,18.1173647 C108.943228,18.6658564 108.874829,18.6829968 107.50684,18.6829968 C106.412449,18.6829968 105.984952,18.6144353 105.540356,18.3401895 C104.99316,18.0145226 104.95896,18.0145226 104.428865,18.3230491 C103.881669,18.6315757 102.154583,18.83726 101.487688,18.648716 Z" id="Path" fill="#000000"></path>
                            <path d="M113.936389,18.6144353 C113.218194,18.4258913 112.226402,17.6717153 111.816005,16.9861007 C111.405609,16.3004862 111.371409,14.8264149 111.781806,14.175081 C113.081395,12.0839566 117.014364,11.7754301 118.570451,13.6437297 C118.80985,13.9351159 118.980848,14.2436425 118.912449,14.3293443 C118.72435,14.6378709 117.49316,14.4836076 116.638167,14.0379581 C115.988372,13.6951508 115.646375,13.609449 115.184679,13.6951508 C114.449384,13.8322737 113.71409,14.3979058 113.71409,14.8264149 C113.71409,15.1349414 113.885089,15.1692221 116.415869,15.2035029 L119.100547,15.254924 L119.151847,15.8891174 C119.220246,16.6775742 118.604651,17.7231364 117.732558,18.2544877 C117.065663,18.6658564 114.94528,18.8715408 113.936389,18.6144353 Z M116.415869,17.2946273 C116.621067,17.1575044 116.792066,16.8832585 116.792066,16.6947145 C116.792066,16.386188 116.689466,16.3519073 115.304378,16.4033283 C113.628591,16.4547494 113.354993,16.6775742 114.261286,17.2260658 C114.928181,17.6374346 115.885773,17.6717153 116.415869,17.2946273 Z" id="Shape" fill="#000000"></path>
                            <path d="M122.007524,18.6144353 C121.27223,18.4258913 120.810534,18.1002244 120.485636,17.5345924 C119.887141,16.5404513 120.707934,15.7005734 122.691518,15.2720643 C124.692202,14.8264149 124.863201,14.7749938 125.068399,14.4321865 C125.222298,14.175081 125.188098,14.0722388 124.914501,13.8665545 C124.127907,13.2837821 123.307114,13.3523436 122.46922,14.0550985 C122.075923,14.3979058 121.768126,14.4836076 121.084131,14.4836076 C120.348837,14.4836076 120.212038,14.4321865 120.212038,14.175081 C120.212038,14.0036774 120.417237,13.6608701 120.690834,13.4037646 C121.426129,12.7010097 122.281122,12.4267639 123.80301,12.4267639 C126.333789,12.4267639 127.855677,13.5751683 127.291382,15.06638 C127.120383,15.5291698 126.162791,15.9576789 124.658003,16.2662054 C122.930917,16.6261531 122.691518,16.7289953 122.691518,17.1575044 C122.691518,17.6545749 124.333105,17.7231364 124.9487,17.2432062 C125.410397,16.8661182 126.778386,16.7461356 126.966484,17.0546622 C127.171683,17.3803291 126.863885,17.89454 126.24829,18.271628 C125.769494,18.5630142 125.341997,18.6658564 124.076607,18.7001371 C123.221614,18.7344179 122.298222,18.7001371 122.007524,18.6144353 Z" id="Path" fill="#000000"></path>
                            <path d="M135.807114,18.6315757 C135.00342,18.460172 134.028728,17.6202942 134.097127,17.1746447 C134.148427,16.8489778 134.268126,16.7975567 135.02052,16.7461356 C135.807114,16.6947145 135.926813,16.7461356 136.183311,17.140364 C136.456908,17.5517327 136.559508,17.5860135 137.5342,17.5345924 C138.508892,17.4831713 138.594391,17.4488906 138.645691,17.0718025 C138.679891,16.8489778 138.628591,16.5918724 138.543092,16.5061705 C138.440492,16.4033283 137.585499,16.2319247 136.627907,16.1119422 C135.242818,15.9233982 134.781122,15.7862752 134.302326,15.4263276 C133.293434,14.6550112 133.396033,13.609449 134.558824,12.8209923 C135.294118,12.3239217 137.140903,12.2725006 138.081395,12.7181501 C138.628591,12.9752555 138.73119,12.9923959 139.158687,12.7524308 C139.449384,12.5810272 139.876881,12.5124657 140.355677,12.5638868 L141.073871,12.6324483 L141.073871,14.8264149 C141.073871,17.3117676 140.937073,17.89454 140.201778,18.3230491 C139.637483,18.6658564 136.867305,18.8544004 135.807114,18.6315757 Z M138.74829,15.0835203 C138.902189,14.6550112 138.560192,14.0036774 138.012996,13.7122912 C137.294802,13.3523436 136.730506,13.3866243 136.183311,13.8494141 C135.772914,14.2093618 135.755814,14.2779232 135.961012,14.6035901 C136.320109,15.1863625 138.560192,15.5634505 138.74829,15.0835203 Z" id="Shape" fill="#000000"></path>
                            <path d="M11.0636115,18.4944528 C10.995212,18.4258913 10.9439124,17.5003116 10.9439124,16.4376091 C10.9439124,14.0036774 11.2004104,13.2495014 12.1751026,12.7524308 C12.9616963,12.3410621 14.5519836,12.3582024 15.5266758,12.7867115 C16.005472,12.9923959 16.1422709,12.9923959 16.4671683,12.7867115 C16.9459644,12.478185 17.5957592,12.4096235 17.9890561,12.6153079 C18.2797538,12.7695712 18.2968536,13.0266766 18.2626539,15.6491523 L18.2113543,18.5115931 L17.2879617,18.5630142 C16.6552668,18.5972949 16.3132695,18.5458738 16.2277702,18.3916106 C16.1422709,18.271628 16.0738714,17.3117676 16.0738714,16.2662054 C16.0738714,14.9463974 16.005472,14.2950636 15.8515732,14.175081 C15.253078,13.6780105 13.6627907,13.7294316 13.4062927,14.2779232 C13.3207934,14.4321865 13.2181943,15.4606083 13.1668947,16.5404513 L13.0813953,18.5115931 L12.1409029,18.5630142 C11.6108071,18.5972949 11.1320109,18.5630142 11.0636115,18.4944528 Z" id="Path" fill="#000000"></path>
                            <path d="M52.0519836,18.3744702 C52.0177839,18.2544877 52.000684,16.9175393 52.0177839,15.4263276 L52.0690834,12.6838694 L53.0437756,12.6324483 C54.2065663,12.5638868 54.1381669,12.3410621 54.0697674,15.9919596 L54.0184679,18.5972949 L53.0779754,18.5972949 C52.4794802,18.5972949 52.120383,18.5115931 52.0519836,18.3744702 Z" id="Path" fill="#000000"></path>
                            <path d="M141.928865,18.4430317 C141.928865,18.3573298 142.116963,17.9116804 142.339261,17.4488906 C143.655951,14.7921341 144.493844,12.9581152 144.493844,12.7181501 C144.493844,12.0839566 144.288646,11.912553 143.536252,11.912553 C142.715458,11.912553 142.44186,11.6383072 142.578659,10.9526926 C142.664159,10.455622 143.160055,10.3013588 144.322845,10.4042009 C145.519836,10.5241835 146.20383,11.1069559 146.939124,12.6324483 C147.264022,13.3180628 148.016416,14.8606956 148.580711,16.0776614 C149.162107,17.2774869 149.589603,18.3401895 149.538304,18.4258913 C149.487004,18.5287335 149.025308,18.5972949 148.512312,18.5972949 C147.606019,18.5972949 147.606019,18.5972949 147.264022,17.8773997 C147.093023,17.4660309 146.802326,16.7975567 146.631327,16.3690476 C146.20383,15.2377836 146.101231,15.0835203 145.810534,15.0320992 C145.656635,14.9978185 145.502736,15.1349414 145.434337,15.3749065 C145.383037,15.5977312 145.212038,16.0091 145.092339,16.2833458 C144.95554,16.574732 144.681943,17.2089255 144.459644,17.705996 L144.066347,18.5972949 L143.006156,18.5972949 C142.407661,18.5972949 141.928865,18.5287335 141.928865,18.4430317 Z" id="Path" fill="#000000"></path>
                            <path d="M45.3317373,8.24451508 C45.1949384,8.09025181 45.1436389,6.83900524 45.1778386,4.096547 L45.2291382,0.17140364 L46.25513,0.17140364 L47.2811218,0.17140364 L47.3324213,2.70817751 C47.3666211,4.55933682 47.4350205,5.22781102 47.5889193,5.21067066 C47.6915185,5.21067066 48.7004104,4.0451259 49.8119015,2.63961606 L51.8296854,0.068561456 L52.9753762,0.119982548 L54.121067,0.17140364 L54.1723666,4.18224882 C54.2236662,8.53590127 54.2236662,8.48448018 53.2660739,8.48448018 C51.9493844,8.48448018 51.9835841,8.55304164 51.9835841,5.8105834 C51.9835841,4.473635 51.9151847,3.32523062 51.8467852,3.27380952 C51.7783858,3.2395288 50.8036936,4.33651209 49.6751026,5.74202194 C48.5465116,7.14753179 47.4692202,8.3302169 47.2811218,8.381638 C46.6313269,8.570182 45.5198358,8.48448018 45.3317373,8.24451508 Z" id="Path" fill="#000000"></path>
                            <path d="M98.1532148,8.36449763 C98.0164159,8.31307654 97.8625171,8.21023436 97.8112175,8.12453254 C97.7599179,8.05597108 97.7428181,6.22195213 97.7770178,4.0451259 L97.8283174,0.08570182 L98.7346101,0.08570182 C99.7948016,0.08570182 100.085499,0.325666916 100.0171,1.14840439 C99.8974008,2.63961606 100.666895,2.94814261 101.538988,1.76545749 C102.735978,0.137122912 102.821477,0.08570182 104.035568,0.08570182 C105.06156,0.08570182 105.557456,0.274245824 105.181259,0.51421092 C104.907661,0.668474196 102.428181,3.68517826 102.428181,3.83944154 C102.428181,3.92514336 102.975376,4.42221391 103.625171,4.9535652 C104.292066,5.50205684 104.787962,5.9991274 104.736662,6.10196958 C104.599863,6.30765395 103.266074,6.30765395 102.735978,6.10196958 C102.51368,6.01626776 101.915185,5.58775866 101.402189,5.15924956 C100.889193,4.73074046 100.376197,4.37079282 100.256498,4.37079282 C100.085499,4.37079282 100.0342,4.81644228 100.0342,6.25623286 C100.0342,7.93598853 100,8.1416729 99.7093023,8.31307654 C99.3502052,8.50162054 98.5807114,8.51876091 98.1532148,8.36449763 Z" id="Path" fill="#000000"></path>
                            <path d="M65.6121751,7.76458489 C65.4582763,7.64460234 65.3214774,7.23323361 65.2872777,6.8561456 C65.2359781,6.2390925 65.1846785,6.17053104 64.7229822,6.08482922 C64.3125855,6.01626776 64.2099863,5.91342558 64.2099863,5.5706183 C64.2099863,5.22781102 64.3125855,5.12496884 64.7229822,5.05640738 L65.2359781,4.97070556 L65.2872777,2.9995637 C65.3385773,1.13126402 65.3556772,1.01128148 65.8002736,0.548491648 C66.2277702,0.102842184 66.3132695,0.068561456 67.629959,0.119982548 L68.997948,0.17140364 L68.997948,0.68561456 C68.997948,1.06270257 68.9124487,1.21696584 68.6559508,1.25124657 C68.4678523,1.2855273 68.1429549,1.38836948 67.9377565,1.49121167 C67.5786594,1.67975567 67.5444596,1.79973822 67.5444596,3.17096734 C67.5444596,4.78216156 67.6812585,5.05640738 68.4165527,5.05640738 C68.7414501,5.05640738 68.9295486,5.15924956 68.997948,5.39921466 C69.1518468,5.87914485 69.0150479,6.03340813 68.2284542,6.15339068 C67.5615595,6.25623286 67.5444596,6.29051359 67.5444596,6.90756669 C67.5444596,7.26751434 67.4589603,7.64460234 67.3392613,7.76458489 C67.0656635,8.03883072 65.9712722,8.02169035 65.6121751,7.76458489 Z" id="Path" fill="#000000"></path>
                            <path d="M57.9685363,5.98198704 C56.0875513,5.15924956 55.3009576,3.56519571 56.002052,1.9540015 C56.6689466,0.4285091 57.4726402,0 59.7640219,0 C61.1491108,0.017140364 61.5766074,0.068561456 61.9870041,0.34280728 C62.7564979,0.822737472 63.0984952,1.23410621 63.0984952,1.62833458 C63.0984952,2.1425455 62.0212038,2.09112441 61.1320109,1.54263276 C60.123119,0.925579656 59.1142271,0.959860384 58.4473324,1.62833458 C57.6094391,2.48535278 57.7975376,2.5710546 60.6532148,2.62247569 C63.5943912,2.67389678 63.6969904,2.70817751 63.4062927,3.80516081 C63.2181943,4.61075792 62.4658003,5.45063575 61.5253078,5.93056594 C60.7387141,6.32479432 58.8406293,6.35907504 57.9685363,5.98198704 Z M60.3454172,4.86786338 C60.9439124,4.66217901 61.3543092,4.096547 61.0807114,3.82230117 C60.995212,3.73659935 60.3283174,3.68517826 59.5759234,3.71945899 C58.2763338,3.77088008 58.2250342,3.78802044 58.2250342,4.18224882 C58.2250342,4.50791573 58.3618331,4.64503864 58.8235294,4.81644228 C59.5930233,5.09068811 59.6956224,5.09068811 60.3454172,4.86786338 Z" id="Shape" fill="#000000"></path>
                            <path d="M84.3878249,5.94770631 C83.4302326,5.53633757 83.3276334,5.45063575 82.746238,4.67931937 C82.3529412,4.11368736 82.250342,3.80516081 82.250342,3.08526552 C82.250342,2.00542259 82.6778386,1.2855273 83.7722298,0.51421092 C84.4733242,0.017140364 84.5759234,0 86.2346101,0 C88.6627907,0 89.620383,0.548491648 90.1846785,2.19396659 C90.9199726,4.37079282 89.0389877,6.27337322 86.1833105,6.2390925 C85.5506156,6.2390925 84.7811218,6.11910995 84.3878249,5.94770631 Z M87.3632011,4.66217901 C88.4062927,4.14796809 88.372093,2.09112441 87.3290014,1.45693094 C85.4651163,0.308526552 83.498632,2.48535278 84.746922,4.285091 C85.2428181,4.98784592 86.3543092,5.1421092 87.3632011,4.66217901 Z" id="Shape" fill="#000000"></path>
                            <path d="M91.9459644,6.03340813 C91.6723666,5.84486412 91.6552668,5.50205684 91.6894665,2.9995637 L91.7407661,0.17140364 L92.7667579,0.17140364 L93.7927497,0.17140364 L93.8953488,1.88544004 C93.9466484,2.82816006 94.0492476,3.71945899 94.1176471,3.87372226 C94.3057456,4.30223136 95.1778386,4.7136001 95.8960328,4.7136001 C96.6655267,4.7136001 96.9049248,5.05640738 96.7168263,5.84486412 C96.6313269,6.1876714 96.494528,6.25623286 96.0157319,6.25623286 C95.6908345,6.25623286 95.0752394,6.08482922 94.6477428,5.87914485 L93.878249,5.50205684 L93.6046512,5.87914485 C93.3139535,6.30765395 92.4247606,6.39335577 91.9459644,6.03340813 Z" id="Path" fill="#000000"></path>
                            <path d="M69.5109439,5.91342558 C69.4425445,5.8105834 69.4767442,5.63917976 69.5622435,5.51919721 C69.6477428,5.39921466 69.8871409,4.93642483 70.0752394,4.45649464 C71.0499316,2.02256295 71.6997264,0.497070556 71.8536252,0.308526552 C71.9562244,0.17140364 72.4350205,0.08570182 73.0335157,0.08570182 C74.0082079,0.08570182 74.0595075,0.102842184 74.2818057,0.651333832 C74.623803,1.45693094 74.9145007,2.3310895 75.0512996,2.89672152 C75.2735978,3.8565819 75.7694938,3.53091498 76.1114911,2.22824732 C76.3166895,1.40550985 76.7099863,0.4285091 76.8980848,0.239965096 C76.9835841,0.154263276 77.5136799,0.08570182 78.0779754,0.119982548 L79.0697674,0.17140364 L79.6511628,1.54263276 C79.9760602,2.29680878 80.3351573,3.15382698 80.4548564,3.4280728 C80.5574555,3.71945899 80.7968536,4.23366991 80.9507524,4.59361755 C81.1046512,4.9535652 81.2243502,5.43349539 81.2243502,5.67346048 C81.2243502,6.08482922 81.1901505,6.10196958 80.249658,6.05054849 L79.2749658,5.9991274 L78.6422709,4.19938918 C78.3002736,3.20524807 77.9753762,2.39965096 77.9069767,2.39965096 C77.7701778,2.39965096 77.376881,3.37665171 77.1374829,4.285091 C77.0519836,4.57647719 76.880985,5.09068811 76.7270862,5.45063575 C76.4534884,6.06768886 76.4363885,6.08482922 75.5300958,6.08482922 C74.9829001,6.08482922 74.5212038,5.9991274 74.4357045,5.87914485 C74.2989056,5.69060085 73.8372093,4.33651209 73.4268126,2.84530042 C73.3242134,2.45107205 73.3242134,2.45107205 72.9822161,2.77673897 C72.7941176,2.96528297 72.5889193,3.37665171 72.50342,3.70231862 C72.4179207,4.02798554 72.2127223,4.67931937 72.0417237,5.1421092 L71.7168263,5.9991274 L70.6737346,6.05054849 C70.0410397,6.08482922 69.5793434,6.03340813 69.5109439,5.91342558 Z" id="Path" fill="#000000"></path>
                        </g>
                    </g>
                </g>
            </g>
        </g>
    </g>
</svg>