<?xml version="1.0" encoding="UTF-8"?>
<svg width="143px" height="70px" viewBox="0 0 143 70" version="1.1" xmlns="http://www.w3.org/2000/svg" xmlns:xlink="http://www.w3.org/1999/xlink">
    <!-- Generator: sketchtool 60.1 (101010) - https://sketch.com -->
    <title>AF23A169-7B99-42B2-800E-AA9DB4939BE3</title>
    <desc>Created with sketchtool.</desc>
    <g id="Page-1" stroke="none" stroke-width="1" fill="none" fill-rule="evenodd">
        <g id="01-00-Index" transform="translate(-549.000000, -3723.000000)">
            <g id="Partners" transform="translate(0.000000, 3628.000000)">
                <g id="logo-AQF" transform="translate(540.000000, 90.000000)">
                    <rect id="Rectangle-Copy-13" x="0" y="0" width="160" height="80"></rect>
                    <g id="aqf-logo" transform="translate(9.000000, 5.000000)" fill-rule="nonzero">
                        <g id="Group" transform="translate(71.400000, 35.000000) scale(-1, 1) rotate(-180.000000) translate(-71.400000, -35.000000) ">
                            <path d="M7.89615745,54.67582 C7.89615745,54.6491228 6.51767573,51.6056445 4.81799438,47.9080854 C3.13169634,44.2105263 1.7398313,41.1270023 1.7398313,41.0736079 C1.7398313,41.0202136 1.9673477,40.9668192 2.24839738,40.9668192 L2.77034677,40.9668192 L3.8543955,43.342868 L4.93844424,45.7055683 L8.27089035,45.745614 L11.6033365,45.7723112 L12.7141518,43.3695652 L13.8249672,40.9668192 L14.3469166,40.9668192 C14.8019494,40.9668192 14.868866,41.006865 14.8019494,41.2070938 C14.7484161,41.3272311 13.3431678,44.4241037 11.670253,48.0682685 C8.73930647,54.4889397 8.61885661,54.7158658 8.27089035,54.7158658 C8.05675726,54.7158658 7.89615745,54.7025172 7.89615745,54.67582 Z M9.7430553,49.8436308 C10.4925211,48.2017544 11.1081537,46.8001526 11.1081537,46.7467582 C11.1081537,46.6533181 5.48716026,46.6533181 5.42024367,46.7467582 C5.3667104,46.8135011 8.20397376,52.8470633 8.28427366,52.8470633 C8.32442362,52.8470633 8.98020619,51.4988558 9.7430553,49.8436308 Z" id="Shape" fill="#000000"></path>
                            <polygon id="Path" fill="#000000" points="56.8791003 47.8413425 56.8791003 40.9668192 57.3475164 40.9668192 57.8159325 40.9668192 57.8159325 47.8413425 57.8159325 54.7158658 57.3475164 54.7158658 56.8791003 54.7158658"></polygon>
                            <path d="M35.3721087,52.5133486 C35.1178257,52.1395881 35.0642924,51.8592677 35.0642924,51.0450038 L35.0642924,50.0438596 L33.8597938,50.0438596 L32.6552952,50.0438596 L32.6552952,49.643402 L32.6552952,49.2429443 L33.8597938,49.2429443 L35.0642924,49.2429443 L35.0642924,45.8257056 C35.0642924,42.0480549 35.1178257,41.7677346 35.9074414,41.2070938 C36.4561575,40.8199847 37.5134396,40.7398932 38.3967385,41.0335622 C39.0391378,41.2471396 39.0792877,41.2738368 39.0792877,41.7276888 C39.0792877,42.1147979 39.0391378,42.1815408 38.8517713,42.1014493 C37.6338894,41.6342487 36.6702905,41.7009916 36.2955576,42.2749809 C36.0948079,42.5819985 36.0680412,43.0091533 36.0680412,45.9057971 C36.0680412,48.7090008 36.0948079,49.1762014 36.268791,49.18955 C36.3758575,49.2028986 36.9379569,49.2162471 37.5134396,49.2295957 L38.543955,49.2429443 L38.543955,49.643402 L38.543955,50.0438596 L37.2725398,50.0438596 L36.0011246,50.0438596 L36.0011246,51.5122044 C36.0011246,53.1407323 35.8940581,53.3142639 35.3721087,52.5133486 Z" id="Path" fill="#000000"></path>
                            <path d="M28.1852671,49.9771167 C27.168135,49.6167048 26.4989691,48.7223494 26.4989691,47.7078566 C26.4989691,46.5331808 27.127985,45.8390542 28.814283,45.1716247 C29.4566823,44.9313501 30.1526148,44.5976354 30.3667479,44.4508009 C30.8886973,44.0770404 31.129597,43.4763539 30.9689972,42.8756674 C30.7950141,42.1815408 30.286448,41.8611747 29.2693158,41.7944317 C28.4395501,41.7410374 28.1183505,41.8344775 26.539119,42.5286041 C26.4186692,42.5686499 26.3651359,42.4485126 26.3651359,42.1147979 C26.3651359,41.6475973 26.4052858,41.6075515 27.0878351,41.2871854 C29.4834489,40.1926011 31.9861293,41.2204424 31.9861293,43.2894737 C31.9861293,44.5709382 31.3035801,45.3051106 29.5102156,45.97254 C28.2254171,46.4530892 27.7034677,46.8001526 27.4893346,47.3340961 C27.3287348,47.7078566 27.3287348,47.8413425 27.4893346,48.2418002 C27.5964011,48.4954233 27.8908341,48.8291381 28.1317338,48.9759725 C28.7607498,49.3764302 30.0589316,49.2963387 31.0091471,48.8157895 L31.6916963,48.4553776 L31.7452296,48.9225782 C31.8121462,49.4698703 31.6515464,49.6167048 30.6076476,49.9637681 C29.8314152,50.2173913 28.8811996,50.2307399 28.1852671,49.9771167 Z" id="Path" fill="#000000"></path>
                            <path d="M44.0980319,49.9904653 C43.5493158,49.7501907 42.88015,49.1762014 42.2779007,48.4153318 L41.7693346,47.761251 L41.7291846,48.8691838 L41.6890347,49.9771167 L41.2206186,49.9771167 L40.7522024,49.9771167 L40.7120525,45.4652937 L40.6852858,40.9534706 L41.1804686,40.9935164 L41.6890347,41.0335622 L41.7559513,43.9836003 L41.8228679,46.9336384 L42.4251172,47.6678108 C43.6965323,49.2295957 44.5932146,49.5232647 45.70403,48.7356979 C46.0386129,48.5087719 46.3598126,48.3085431 46.4133458,48.3085431 C46.5739456,48.3085431 47.0022118,49.1495042 46.8817619,49.2295957 C45.6237301,50.1639969 44.9411809,50.3508772 44.0980319,49.9904653 Z" id="Path" fill="#000000"></path>
                            <path d="M49.1301593,49.9237223 C48.0059606,49.4965675 47.7784442,49.3096873 47.7784442,48.7757437 C47.7784442,48.3218917 47.939044,48.1617086 48.1130272,48.442029 C48.1665604,48.5221205 48.4342268,48.6956522 48.7286598,48.8558352 C49.959925,49.4832189 51.4454733,49.416476 52.1012559,48.7090008 C52.4224555,48.3485889 52.4626054,48.2017544 52.4626054,47.3741419 C52.4626054,46.3196034 52.6232052,46.4530892 50.9101406,46.1861175 C48.6082099,45.8390542 47.2564948,44.7311213 47.2430551,43.182685 C47.2297282,41.0869565 49.5985754,40.1659039 51.6997563,41.4206712 C52.4893721,41.9012204 52.5964386,41.9012204 52.5964386,41.4340198 C52.5964386,40.6998474 53.3994377,40.6731503 54.4031865,41.3672769 C54.8983693,41.7009916 55.0054358,41.8611747 55.0054358,42.1815408 L55.0054358,42.5953471 L54.4433365,42.1815408 C54.1355201,41.9546148 53.8143205,41.7677346 53.7206373,41.7677346 C53.6001874,41.7677346 53.5466542,42.6086957 53.5065042,45.1449275 C53.4663543,48.2551487 53.4395876,48.5488177 53.1853046,48.9759725 C52.569672,50.0305111 50.6424742,50.4843631 49.1301593,49.9237223 Z M52.4626054,44.1838291 L52.4626054,42.7154844 L52.020956,42.3817696 C50.6424742,41.3272311 48.9160262,41.4073227 48.3806935,42.5286041 C48.1130272,43.0758963 48.233477,43.7433257 48.7018932,44.3306636 C49.2372259,44.9980931 50.7093908,45.5587338 52.1012559,45.6254767 L52.4626054,45.6388253 L52.4626054,44.1838291 Z" id="Shape" fill="#000000"></path>
                            <path d="M66.3946392,49.9237223 C65.3908903,49.5633105 64.9893908,49.2429443 64.9358575,48.7090008 C64.9090909,48.4820748 64.9358575,48.2951945 65.0027741,48.3218917 C65.0563074,48.3485889 65.5113402,48.5755149 66.006523,48.8291381 C66.7158388,49.1762014 67.0504217,49.2696415 67.692821,49.2696415 C69.1382193,49.2696415 69.7270853,48.668955 69.7270853,47.1872616 L69.7270853,46.4530892 L69.2319025,46.3729977 C67.4519213,46.0926773 66.9299719,45.9591915 66.2072727,45.585431 C65.7522399,45.358505 65.2169072,44.9446987 64.9760075,44.6643783 C64.6146579,44.1971777 64.574508,44.0503432 64.574508,43.1960336 C64.574508,42.3951182 64.6280412,42.1548436 64.8957076,41.7810831 C65.2972071,41.2204424 66.1269728,40.8466819 66.9433552,40.8333333 C67.6259044,40.8333333 68.790253,41.2204424 69.3255858,41.6342487 L69.6601687,41.8878719 L69.7940019,41.3939741 C70.008135,40.6464531 70.5300843,40.6464531 71.6408997,41.3806255 C72.0959325,41.6742944 72.2699157,41.8745233 72.2699157,42.1147979 C72.2699157,42.5152555 72.1360825,42.5152555 71.5204499,42.1014493 C71.2394002,41.914569 70.9583505,41.7810831 70.8780506,41.8077803 C70.7843674,41.8344775 70.7040675,43.0225019 70.6639175,45.3184592 C70.5970009,48.4286804 70.5702343,48.8157895 70.3427179,49.1495042 C69.7270853,50.0572082 67.8132709,50.4309687 66.3946392,49.9237223 Z M69.7270853,44.1838291 L69.7270853,42.728833 L68.9910028,42.2349352 C68.4289035,41.8478261 68.0943205,41.7143402 67.5456045,41.6609458 C65.2436739,41.4740656 64.6815745,43.7166285 66.7158388,44.9713959 C67.1976382,45.2650648 68.5493533,45.6121281 69.2988191,45.6254767 L69.7270853,45.6388253 L69.7270853,44.1838291 Z" id="Shape" fill="#000000"></path>
                            <path d="M76.6997938,50.0305111 C76.4588941,49.9504195 75.9637113,49.6033562 75.6023618,49.2429443 L74.9465792,48.5888635 L74.9465792,49.3230359 L74.9465792,50.0572082 L74.4513964,50.0171625 L73.9428304,49.9771167 L73.9428304,45.5053394 L73.9428304,41.0335622 L74.4513964,40.9935164 L74.9465792,40.9534706 L74.9465792,44.1971777 L74.9465792,47.4542334 L75.3480787,48.0015256 C75.8298782,48.6556064 76.9139269,49.2429443 77.6500094,49.2429443 C78.225492,49.2429443 79.0151078,48.9492754 79.403224,48.6022121 C79.5504405,48.4820748 79.7913402,48.1350114 79.95194,47.8413425 C80.2062231,47.3474447 80.2329897,47.0804729 80.2731396,44.1437834 L80.3266729,40.9668192 L80.7817057,40.9668192 L81.2367385,40.9668192 L81.2367385,44.0770404 C81.2367385,47.8413425 81.1430553,48.3218917 80.1794564,49.2429443 C79.8181068,49.5900076 79.3363074,49.9237223 79.0151078,50.0171625 C78.3727085,50.2040427 77.3421931,50.2040427 76.6997938,50.0305111 Z" id="Path" fill="#000000"></path>
                            <path d="M16.5150141,49.8436308 C16.3544142,49.4431732 16.555164,43.4630053 16.7425305,42.9023646 C17.0101968,42.1281465 17.987179,41.1937452 18.7634114,40.9801678 C20.0883599,40.6064073 21.5872915,41.0335622 22.4438238,42.0080092 L22.8854733,42.5019069 L22.8854733,41.7410374 L22.8854733,40.9668192 L23.3538894,40.9668192 L23.8223055,40.9668192 L23.8223055,45.5053394 L23.8223055,50.0438596 L23.3538894,50.0438596 L22.8854733,50.0438596 L22.8854733,46.8935927 C22.8854733,43.3695652 22.8453233,43.1559878 21.9620244,42.4218154 C20.7709091,41.4340198 19.0444611,41.4473684 18.1477788,42.4485126 C17.8801125,42.728833 17.6525961,42.9824561 17.6392127,43.0091533 C17.6258294,43.0225019 17.5856795,44.5976354 17.5455295,46.5064836 L17.4652296,49.9771167 L17.0235801,50.0171625 C16.7291471,50.0438596 16.5685473,49.9904653 16.5150141,49.8436308 Z" id="Path" fill="#000000"></path>
                            <polygon id="Path" fill="#000000" points="61.0279288 45.5053394 61.0279288 40.9668192 61.4963449 40.9668192 61.964761 40.9668192 61.964761 45.5053394 61.964761 50.0438596 61.4963449 50.0438596 61.0279288 50.0438596"></polygon>
                            <path d="M6.22324274,34.546148 C3.11831303,34.0655988 0.910065604,32.2368421 0.200749766,29.5537757 C-0.0669165886,28.5259344 -0.0535332709,26.6704805 0.214133083,25.7360793 C0.869915651,23.4935164 2.55621368,21.7715484 4.77784442,21.0507246 C5.27302718,20.8905416 6.03587629,20.5301297 6.47752577,20.2364607 C8.16382381,19.1151793 10.2382381,18.2608696 11.7773196,18.0739893 L12.5134021,17.9938978 L13.3833177,18.8882532 L14.2532334,19.7692601 L13.6376007,19.7025172 C12.7676851,19.5823799 11.5364199,19.8093059 10.1980881,20.3299008 L9.07388941,20.7570557 L9.64937207,20.9305873 C11.3892034,21.4511823 13.2093346,22.9328757 13.9454171,24.414569 C15.9261481,28.4191457 13.8785005,33.1578947 9.63598875,34.3459191 C8.65900656,34.6128909 7.21360825,34.706331 6.22324274,34.546148 Z M9.87688847,32.2101449 C11.7237863,31.2757437 12.6338519,29.7273074 12.6338519,27.5514874 C12.6338519,26.4836003 12.593702,26.2566743 12.2189691,25.455759 C11.1081537,23.1064073 8.69915651,21.9984744 5.9689597,22.5991609 C3.73394564,23.1064073 2.23501406,24.7883295 2.04764761,27.0575896 C1.87366448,29.1399695 2.83726336,31.1155606 4.48341143,32.0900076 C5.38009372,32.6239512 6.35707591,32.82418 7.68202437,32.7707857 C8.73930647,32.7307399 8.98020619,32.6639969 9.87688847,32.2101449 Z" id="Shape" fill="#000000"></path>
                            <path d="M46.0118463,34.4927536 C45.5701968,34.3459191 45.2222306,34.092296 44.7805811,33.6117468 C44.0578819,32.8108314 43.7634489,31.9698703 43.7634489,30.6617086 L43.7634489,29.7540046 L43.094283,29.7540046 L42.4251172,29.7540046 L42.4251172,28.9530892 L42.4251172,28.1521739 L43.094283,28.1521739 L43.7634489,28.1521739 L43.7634489,24.481312 L43.7634489,20.81045 L44.6333646,20.81045 L45.5032802,20.81045 L45.5032802,24.481312 L45.5032802,28.1521739 L46.3062793,28.1521739 L47.1092784,28.1521739 L47.1092784,28.9530892 L47.1092784,29.7540046 L46.3062793,29.7540046 L45.5032802,29.7540046 L45.5166635,30.4614798 C45.5434302,32.1300534 46.1590628,32.8642258 47.5107779,32.8108314 L48.2468604,32.7707857 L48.2870103,33.5850496 C48.3003936,34.0389016 48.273627,34.4393593 48.2200937,34.4660564 C47.9122774,34.6529367 46.587329,34.6662853 46.0118463,34.4927536 Z" id="Path" fill="#000000"></path>
                            <polygon id="Path" fill="#000000" points="34.7966261 27.6182304 34.7966261 20.81045 35.6665417 20.81045 36.5364574 20.81045 36.5364574 27.6182304 36.5364574 34.4260107 35.6665417 34.4260107 34.7966261 34.4260107"></polygon>
                            <path d="M39.681537,33.4782609 C39.2666542,33.2379863 39.0792877,32.9443173 39.0792877,32.4904653 C39.0792877,31.7562929 39.8689035,31.2890923 40.6183693,31.5694127 C40.9261856,31.68955 41.2340019,32.370328 41.1403187,32.7440885 C40.9797188,33.3714722 40.2034864,33.7585812 39.681537,33.4782609 Z" id="Path" fill="#000000"></path>
                            <path d="M49.9197751,33.5316552 C49.1970759,33.2646834 48.9963261,32.2768879 49.5450422,31.7562929 C50.2008247,31.1422578 51.2581068,31.5827613 51.2581068,32.4771167 C51.2581068,33.2112891 50.548791,33.7719298 49.9197751,33.5316552 Z" id="Path" fill="#000000"></path>
                            <path d="M78.3325586,33.4916095 C77.2351265,33.051106 77.5697095,31.4893211 78.7608247,31.4893211 C79.8181068,31.4893211 80.1526898,32.9443173 79.2158575,33.4248665 C78.7875914,33.6517925 78.7474414,33.6517925 78.3325586,33.4916095 Z" id="Path" fill="#000000"></path>
                            <path d="M71.5070665,30.0209764 C70.5970009,29.1533181 69.8609185,28.3790999 69.8609185,28.2990084 C69.8609185,28.2055683 70.1553515,28.1521739 70.5836176,28.1521739 L71.3063168,28.1521739 L71.35985,25.389016 C71.4,22.8661327 71.4267666,22.5591152 71.694433,22.078566 C72.0156326,21.4645309 72.283299,21.1975591 72.9256982,20.877193 C73.5547142,20.5568268 74.812746,20.5701754 75.7495783,20.9038902 L76.4856607,21.1575133 L76.5258107,21.9851259 C76.5525773,22.4389779 76.539194,22.8127384 76.5124274,22.8127384 C76.4722774,22.8127384 76.1912277,22.6926011 75.8700281,22.5457666 C75.2142455,22.2520976 74.0632802,22.1987033 73.7286973,22.4523265 C73.2602812,22.7993898 73.2067479,23.1731503 73.2067479,25.6693364 L73.2067479,28.1521739 L74.6119963,28.1521739 L76.0172446,28.1521739 L76.0172446,28.9530892 L76.0172446,29.7540046 L74.6119963,29.7540046 L73.2201312,29.7540046 L73.1799813,30.6750572 L73.1398313,31.5961098 L71.5070665,30.0209764 Z" id="Path" fill="#000000"></path>
                            <path d="M28.011284,29.8874905 C27.3555014,29.7540046 26.6863355,29.4336384 26.2714527,29.0465294 C26.0037863,28.8196034 25.9636364,28.6327231 25.9636364,27.858505 C25.9636364,27.3646072 26.0037863,26.9508009 26.0439363,26.9508009 C26.0840862,26.9508009 26.3651359,27.1643783 26.6595689,27.4046529 C28.1049672,28.6460717 30.0187816,28.539283 30.3801312,27.2177727 C30.6210309,26.3234172 30.5674977,26.2566743 29.108716,25.7360793 C26.4588191,24.8016781 25.8298032,24.2410374 25.8298032,22.7860412 C25.8298032,20.9038902 27.7837676,20.0495805 29.7243486,21.0640732 C30.3265979,21.3710908 30.5139644,21.4244851 30.5139644,21.2776506 C30.5139644,20.9439359 31.169747,20.6235698 31.8389128,20.6369184 C32.2805623,20.6369184 32.6419119,20.7570557 33.0300281,20.9973303 C33.5118276,21.3043478 33.5921275,21.4111365 33.5921275,21.8115942 C33.5921275,22.3455378 33.5787441,22.3455378 33.0434114,22.0652174 C32.2939456,21.6914569 32.2537957,21.8382914 32.2537957,24.8817696 C32.2537957,27.7116705 32.1868791,28.1655225 31.6381631,28.8996949 C31.0359138,29.7139588 29.3629991,30.1678108 28.011284,29.8874905 Z M30.5139644,23.8806255 C30.5139644,22.7326468 30.5005811,22.6926011 30.1124649,22.3588863 C29.2693158,21.6514111 28.1049672,21.7982456 27.7436176,22.6392067 C27.5294845,23.1598017 27.6097844,23.5469108 28.0246673,23.9874142 C28.4529335,24.4679634 30.1526148,25.2688787 30.4202812,25.1220442 C30.4738144,25.0953471 30.5139644,24.5347063 30.5139644,23.8806255 Z" id="Shape" fill="#000000"></path>
                            <path d="M56.3973008,29.8874905 C55.5273852,29.7006102 54.550403,29.1533181 54.0150703,28.539283 C53.2656045,27.6582761 52.9577882,26.7105263 52.9444049,25.2154844 C52.9310216,24.02746 52.9711715,23.8672769 53.372671,23.0396644 C54.0418369,21.6781083 55.099119,20.9305873 56.7185005,20.6636156 C57.4813496,20.5434783 58.9535145,20.6903127 59.7966635,20.9572845 C60.2249297,21.0907704 60.2249297,21.104119 60.2249297,21.9584287 C60.2249297,22.4256293 60.1847798,22.8127384 60.1446298,22.8127384 C60.1044799,22.8127384 59.649447,22.6792525 59.1274977,22.532418 C57.4813496,22.0251716 56.0359513,22.4122807 55.2329522,23.5736079 C54.9117526,24.0141114 54.8314527,24.2944317 54.7779194,25.0419527 C54.7110028,26.2700229 55.099119,27.2044241 55.9155014,27.8051106 C56.4508341,28.1788711 56.5980506,28.2189169 57.5214995,28.2189169 C58.3780319,28.2189169 58.6724649,28.1521739 59.2613308,27.858505 L59.9706467,27.4847445 L59.9304967,28.4591915 L59.8903468,29.4202899 L59.2077976,29.6472159 C58.3512652,29.9275362 57.1066167,30.0343249 56.3973008,29.8874905 Z" id="Path" fill="#000000"></path>
                            <path d="M64.0124086,29.8874905 C63.3566261,29.7540046 62.6874602,29.4202899 62.2725773,29.0465294 C62.004911,28.8062548 61.964761,28.6327231 61.964761,27.8051106 L61.964761,26.8306636 L62.4064105,27.2311213 C63.3700094,28.1388253 64.6949578,28.4858886 65.6184067,28.1121281 C66.1671228,27.8718535 66.3812559,27.4847445 66.3812559,26.7105263 L66.3812559,26.2166285 L65.2838238,25.8295195 C62.4331771,24.8283753 61.5498782,23.960717 61.8309278,22.4122807 C62.1387441,20.7704043 63.7848922,20.1563692 65.5648735,21.0240275 L66.3544892,21.4244851 L66.6756888,21.037376 C66.9433552,20.7036613 67.0771884,20.650267 67.652671,20.6369184 C68.0943205,20.6369184 68.5225867,20.7303585 68.8973196,20.9305873 C69.419269,21.1975591 69.4594189,21.2509535 69.4594189,21.7448513 C69.4594189,22.0385202 69.4326523,22.2787948 69.419269,22.2787948 C69.3925023,22.2787948 69.1783693,22.1853547 68.9374695,22.0652174 C68.6965698,21.9450801 68.4556701,21.9050343 68.3887535,21.9584287 C68.3218369,22.0251716 68.2549203,23.4000763 68.2281537,25.0152555 C68.1880037,27.9385965 68.1880037,27.9519451 67.8266542,28.5793288 C67.1976382,29.6205187 65.5247235,30.2078566 64.0124086,29.8874905 Z M66.220656,22.4389779 C65.9797563,22.1586575 65.2704405,21.8783371 64.8020244,21.8783371 C63.9588754,21.8783371 63.3700094,22.8127384 63.7045923,23.6270023 C63.8919588,24.0541571 64.4540581,24.4412662 65.5648735,24.8951182 L66.3143393,25.2021358 L66.3544892,23.9206712 C66.3812559,23.0396644 66.3411059,22.5858124 66.220656,22.4389779 Z" id="Shape" fill="#000000"></path>
                            <path d="M85.425717,29.8874905 C82.9899531,29.3802441 81.4776382,27.3646072 81.678388,24.9218154 C81.9192877,22.0518688 84.3416682,20.2231121 87.2592315,20.6903127 C88.9455295,20.9572845 90.1098782,21.7715484 90.8058107,23.1731503 C91.1671603,23.8672769 91.1939269,24.0808543 91.2073102,25.2822273 C91.2073102,26.4035088 91.1537769,26.7238749 90.8861106,27.3245614 C90.4846111,28.2189169 89.3737957,29.2467582 88.4235801,29.5938215 C87.5804311,29.9141876 86.2019494,30.0476735 85.425717,29.8874905 Z M87.7677976,28.0320366 C88.9589128,27.4180015 89.4540956,26.5369947 89.3737957,25.16209 C89.3202624,23.9874142 88.9856795,23.2932876 88.209447,22.7459954 C87.6741143,22.3722349 87.5536645,22.3455378 86.4696157,22.3455378 C85.4123336,22.3455378 85.2383505,22.3855835 84.7297844,22.7192982 C83.953552,23.2398932 83.5119025,24.1742944 83.5119025,25.3489703 C83.5252858,26.4969489 83.9000187,27.271167 84.7699344,27.858505 C85.3454171,28.2322654 85.5194002,28.2856598 86.3491659,28.2856598 C86.9915651,28.2856598 87.4198313,28.2055683 87.7677976,28.0320366 Z" id="Shape" fill="#000000"></path>
                            <path d="M97.09597,29.9008391 C96.5606373,29.7673532 95.9450047,29.4336384 95.4364386,29.0064836 L95.0215558,28.6594203 L95.0215558,29.2067124 L95.0215558,29.7540046 L94.1516401,29.7540046 L93.2817245,29.7540046 L93.2817245,25.2822273 L93.2817245,20.81045 L94.1516401,20.81045 L95.0215558,20.81045 L95.0215558,24.0808543 L95.0215558,27.3512586 L95.6907216,27.8718535 C96.7346204,28.6994661 97.7249859,28.7528604 98.4075351,28.0453852 C98.9830178,27.4446987 99.0365511,27.110984 99.0365511,23.8672769 L99.0365511,20.7971014 L99.9466167,20.8371472 L100.843299,20.877193 L100.829916,24.1475973 C100.829916,27.271167 100.816532,27.4446987 100.508716,28.1254767 C100.107216,29.0331808 99.3443674,29.6872616 98.4744517,29.8741419 C97.7517526,30.0343249 97.6714527,30.0343249 97.09597,29.9008391 Z" id="Path" fill="#000000"></path>
                            <path d="M105.059044,29.9008391 C103.934845,29.673913 103.118463,28.9130435 102.98463,27.9652937 C102.78388,26.6838291 103.386129,25.8962624 105.500694,24.641495 C106.210009,24.2143402 106.892559,23.7204424 107.013008,23.5469108 C107.320825,23.0663616 107.026392,22.532418 106.317076,22.2921434 C105.80851,22.1186117 105.68806,22.1186117 104.871678,22.3855835 C104.376495,22.5457666 103.747479,22.826087 103.453046,23.0129672 L102.917713,23.3466819 L102.917713,22.3588863 L102.917713,21.3710908 L103.573496,21.0907704 C103.934845,20.9439359 104.644161,20.7570557 105.139344,20.6903127 C107.427891,20.356598 108.940206,21.3844394 108.940206,23.2532418 C108.940206,23.9073227 108.886673,24.0408085 108.404873,24.5747521 C108.123824,24.9084668 107.253908,25.5758963 106.491059,26.0831426 C104.630778,27.2845156 104.376495,27.7784134 105.40701,28.2723112 C105.88881,28.5125858 106.865792,28.3257056 107.869541,27.8318078 L108.538707,27.4980931 L108.538707,28.3924485 L108.538707,29.286804 L107.963224,29.51373 C107.387741,29.7540046 106.129709,30.0343249 105.741593,30.0076278 C105.621143,29.9942792 105.313327,29.9542334 105.059044,29.9008391 Z" id="Path" fill="#000000"></path>
                            <path d="M16.4614808,26.5770404 C16.4614808,23.1197559 16.555164,22.5057208 17.1841799,21.6914569 C17.9737957,20.6369184 19.673477,20.3299008 20.9582755,20.9839817 C21.3196251,21.1708619 21.7077413,21.4244851 21.8014246,21.5312738 C22.0824742,21.8649886 22.2163074,21.784897 22.2163074,21.2776506 L22.2163074,20.81045 L23.0862231,20.81045 L23.9427554,20.81045 L23.9829053,25.2822273 L24.0230553,29.7540046 L23.126373,29.7540046 L22.2163074,29.7540046 L22.2163074,26.5102975 L22.2163074,23.2665904 L21.8549578,22.9195271 C21.2794752,22.3855835 20.6906092,22.1453089 19.9545267,22.1453089 C19.1381443,22.1453089 18.5492784,22.5858124 18.3351453,23.3199847 C18.2682287,23.5869565 18.2013121,25.1487414 18.2013121,26.7906178 L18.2013121,29.7540046 L17.3313964,29.7540046 L16.4614808,29.7540046 L16.4614808,26.5770404 Z" id="Path" fill="#000000"></path>
                            <polygon id="Path" fill="#000000" points="39.2131209 25.2822273 39.2131209 20.81045 40.0830366 20.81045 40.9529522 20.81045 40.9529522 25.2822273 40.9529522 29.7540046 40.0830366 29.7540046 39.2131209 29.7540046"></polygon>
                            <polygon id="Path" fill="#000000" points="49.3844424 25.2822273 49.3844424 20.81045 50.254358 20.81045 51.1242737 20.81045 51.1242737 25.2822273 51.1242737 29.7540046 50.254358 29.7540046 49.3844424 29.7540046"></polygon>
                            <path d="M77.8909091,29.5537757 C77.8909091,29.446987 77.8909091,27.5781846 77.8909091,25.4157132 C77.8909091,23.2532418 77.8909091,21.331045 77.8909091,21.1441648 C77.8909091,20.8237986 77.9176757,20.81045 78.7608247,20.81045 L79.6307404,20.81045 L79.6307404,25.2822273 L79.6307404,29.7540046 L78.7608247,29.7540046 C78.0782755,29.7540046 77.8909091,29.7139588 77.8909091,29.5537757 Z" id="Path" fill="#000000"></path>
                            <polygon id="Path" fill="#000000" points="3.21199625 7.06140351 3.21199625 0.253623188 3.74732896 0.253623188 4.28266167 0.253623188 4.28266167 3.5907704 4.28266167 6.92791762 6.95932521 6.92791762 9.63598875 6.92791762 9.63598875 7.39511823 9.63598875 7.86231884 6.95932521 7.86231884 4.28266167 7.86231884 4.28266167 10.4385965 4.28266167 13.0015256 7.22699157 12.9614798 10.1713215 12.921434 10.1713215 13.4019832 10.1713215 13.8691838 6.69165886 13.8691838 3.21199625 13.8691838"></polygon>
                            <polygon id="Path" fill="#000000" points="85.5194002 7.06140351 85.5194002 0.253623188 86.0547329 0.253623188 86.5900656 0.253623188 86.5900656 7.06140351 86.5900656 13.8691838 86.0547329 13.8691838 85.5194002 13.8691838"></polygon>
                            <path d="M15.417582,9.31731503 C14.7484161,9.18382914 13.9721837,8.59649123 13.2762512,7.70213577 L12.6472352,6.90122044 L12.6070853,8.04919908 L12.5669353,9.19717773 L12.1119025,9.19717773 L11.6434864,9.19717773 L11.6434864,4.72540046 L11.6434864,0.253623188 L12.1119025,0.253623188 L12.5803187,0.253623188 L12.5803187,3.04347826 L12.5803187,5.83333333 L13.1691846,6.62090008 C13.8918838,7.60869565 14.6413496,8.23607933 15.2302156,8.34286804 C15.7253983,8.43630816 16.5685473,8.12929062 16.9432802,7.71548436 C17.2510965,7.36842105 17.3581631,7.39511823 17.5990628,7.86231884 C17.8801125,8.3962624 17.8667291,8.40961098 17.2510965,8.85011442 C16.6086973,9.30396644 16.0332146,9.45080092 15.417582,9.31731503 Z" id="Path" fill="#000000"></path>
                            <path d="M20.8378257,9.30396644 C20.4764761,9.26392067 19.8608435,9.05034325 19.459344,8.86346301 C18.7901781,8.52974828 18.7366448,8.47635393 18.7366448,8.0358505 C18.7366448,7.78222731 18.7767948,7.59534706 18.8437113,7.62204424 C18.8972446,7.64874142 19.2585942,7.83562166 19.6600937,8.0358505 C21.0921087,8.78337147 22.7516401,8.60983982 23.2066729,7.6754386 C23.3271228,7.42181541 23.420806,6.87452326 23.420806,6.43401983 L23.420806,5.64645309 L22.3099906,5.49961861 C20.302493,5.21929825 18.830328,4.4317315 18.3752952,3.36384439 C18.1477788,2.78985507 18.1477788,1.8020595 18.4020619,1.33485889 C18.8570947,0.427154844 20.0214433,-0.106788711 21.105492,0.0533943555 C21.440075,0.093440122 22.0824742,0.333714722 22.5508903,0.58733791 L23.4074227,1.02784134 L23.4877226,0.640732265 C23.6081724,0.0800915332 23.969522,-0.0667429443 24.5851546,0.186880244 C25.3881537,0.520594966 25.9636364,1.02784134 25.9636364,1.40160183 C25.9636364,1.8020595 25.950253,1.8020595 25.3480037,1.38825324 C24.4245548,0.760869565 24.4379381,0.720823799 24.3576382,4.5518688 C24.2907216,7.76887872 24.2773383,7.99580473 24.009672,8.35621663 C23.420806,9.14378337 22.1895408,9.50419527 20.8378257,9.30396644 Z M23.3940394,3.36384439 L23.3538894,1.93554539 L22.7784067,1.49504195 C21.6542081,0.640732265 20.3694096,0.600686499 19.5797938,1.38825324 C18.2682287,2.69641495 20.1686598,4.75209764 22.7248735,4.77879481 L23.4341893,4.7921434 L23.3940394,3.36384439 Z" id="Shape" fill="#000000"></path>
                            <path d="M30.7950141,9.31731503 C30.0589316,9.18382914 29.6440487,8.91685736 29.0150328,8.22273074 L28.51985,7.66209001 L28.5064667,8.43630816 L28.5064667,9.19717773 L28.0380506,9.19717773 L27.5696345,9.19717773 L27.5696345,4.72540046 L27.5696345,0.253623188 L28.0380506,0.253623188 L28.5064667,0.253623188 L28.5064667,3.36384439 C28.5064667,6.75438596 28.4797001,6.62090008 29.3629991,7.56864989 C29.9384817,8.19603356 30.3935145,8.3962624 31.1965136,8.3962624 C32.1065792,8.3962624 32.9229616,7.92906178 33.2709278,7.23493516 C33.4984442,6.79443173 33.5252109,6.34057971 33.5653608,3.49733028 L33.6055108,0.253623188 L34.1274602,0.253623188 L34.6627929,0.253623188 L34.6627929,3.37719298 L34.6627929,6.48741419 L35.0107591,6.99466056 C35.6665417,7.95575896 36.4427741,8.42295957 37.4331396,8.42295957 C38.2629053,8.42295957 39.0123711,7.90236461 39.387104,7.08810069 C39.6413871,6.51411137 39.681537,6.16704805 39.721687,3.36384439 L39.7752202,0.253623188 L40.230253,0.253623188 L40.6852858,0.253623188 L40.6852858,3.25705568 C40.6852858,4.9122807 40.6183693,6.55415713 40.5380694,6.92791762 C40.01612,9.37070938 36.9647235,10.2116705 35.2516589,8.36956522 C35.0241425,8.12929062 34.7430928,7.7955759 34.6360262,7.63539283 C34.4486598,7.34172387 34.4352765,7.34172387 33.9802437,8.0358505 C33.2843112,9.09038902 32.1199625,9.55758963 30.7950141,9.31731503 Z" id="Path" fill="#000000"></path>
                            <path d="M46.4534958,9.30396644 C45.155314,9.1037376 44.1381818,8.31617086 43.4823993,6.98131198 C43.2013496,6.40732265 43.1611996,6.14035088 43.1611996,4.7921434 C43.1611996,3.45728452 43.2013496,3.17696415 43.4690159,2.64302059 C43.9641987,1.64187643 44.6333646,0.974446987 45.6103468,0.493897788 C46.4267291,0.093440122 46.6007123,0.0533943555 47.6446111,0.0667429443 C48.862493,0.093440122 49.5450422,0.280320366 50.4417245,0.840961098 C50.9369072,1.16132723 50.9904405,1.24141876 50.9904405,1.72196796 L50.9904405,2.25591152 L50.294508,1.8020595 C47.6579944,0.0800915332 44.7002812,1.10793288 44.2050984,3.92448513 C43.9909653,5.13920671 43.723299,5.05911518 47.6713777,5.05911518 L51.1644236,5.05911518 L51.097507,5.83333333 C50.9770572,7.15484363 50.1472915,8.3962624 48.9963261,8.99694889 C48.4342268,9.27726926 47.2832615,9.42410374 46.4534958,9.30396644 Z M48.7018932,8.06254767 C49.1836926,7.74218154 49.7725586,6.86117468 49.9866917,6.16704805 L50.0669916,5.86003051 L47.1895783,5.86003051 C43.8705155,5.86003051 43.977582,5.80663616 44.7404311,7.06140351 C45.0750141,7.62204424 45.3292971,7.87566743 45.9047798,8.16933638 C46.547179,8.50305111 46.7479288,8.54309687 47.4170947,8.48970252 C47.9658107,8.43630816 48.3539269,8.31617086 48.7018932,8.06254767 Z" id="Shape" fill="#000000"></path>
                            <path d="M71.0921837,9.31731503 C69.5798688,9.11708619 68.4155201,8.24942792 67.7329709,6.79443173 C67.4251546,6.15369947 67.3850047,5.88672769 67.3850047,4.72540046 C67.3850047,3.61746758 67.438538,3.28375286 67.692821,2.73646072 C68.6162699,0.720823799 70.6237676,-0.320366133 72.7517151,0.1201373 C74.2506467,0.427154844 75.3079288,1.201373 75.9369447,2.42944317 C76.3919775,3.32379863 76.5258107,4.17810831 76.3919775,5.35278413 C76.1109278,8.0358505 73.9160637,9.69107551 71.0921837,9.31731503 Z M73.2870478,8.19603356 C73.969597,7.9157132 74.7592127,7.11479786 75.0937957,6.3539283 C75.7228116,4.95232647 75.4149953,3.00343249 74.3710965,1.97559115 C73.6617807,1.25476735 72.9792315,0.987795576 71.8684161,0.987795576 C70.7308341,0.987795576 70.2356514,1.18802441 69.419269,1.96224256 C68.2013871,3.13691838 68.0274039,5.61975591 69.0579194,7.0747521 C69.967985,8.32951945 71.7881162,8.82341724 73.2870478,8.19603356 Z" id="Shape" fill="#000000"></path>
                            <path d="M82.2538707,9.31731503 C81.6516214,9.14378337 80.9556888,8.59649123 80.2999063,7.78222731 L79.697657,7.02135774 L79.657507,8.11594203 L79.6173571,9.19717773 L79.0954077,9.19717773 L78.560075,9.19717773 L78.560075,4.72540046 L78.560075,0.253623188 L79.0954077,0.253623188 L79.6307404,0.253623188 L79.6307404,3.09687262 L79.6307404,5.95347063 L80.0456232,6.54080854 C80.6880225,7.435164 81.1162887,7.86231884 81.6917713,8.1559878 C82.3609372,8.50305111 82.9631865,8.40961098 83.7394189,7.86231884 L84.3149016,7.44851259 L84.5825679,7.88901602 L84.8502343,8.32951945 L84.4888847,8.63653699 C83.7126523,9.27726926 82.9364199,9.51754386 82.2538707,9.31731503 Z" id="Path" fill="#000000"></path>
                            <path d="M52.3287723,9.06369184 C52.3287723,8.98360031 52.7570384,7.9157132 53.2656045,6.68764302 C53.7875539,5.45957285 54.6440862,3.45728452 55.1526523,2.22921434 C56.0894845,0.0400457666 56.3170009,-0.293668955 56.5846673,0.226926011 C56.6515839,0.34706331 57.2672165,1.9221968 57.9497657,3.72425629 C58.6323149,5.52631579 59.2345642,7.03470633 59.2747142,7.10144928 C59.3282474,7.15484363 59.98403,5.59305873 60.7201125,3.63081617 C61.6301781,1.24141876 62.1387441,0.0400457666 62.2859606,0.0133485889 C62.4197938,-0.0133485889 62.5937769,0.173531655 62.7677601,0.547292143 C63.2361762,1.53508772 66.3812559,8.98360031 66.3812559,9.09038902 C66.3812559,9.14378337 66.1805061,9.19717773 65.9262231,9.19717773 L65.4711903,9.19717773 L63.9588754,5.65980168 C63.1291097,3.7109077 62.4064105,2.12242563 62.3662605,2.12242563 C62.3127273,2.12242563 61.6837113,3.7109077 60.9476289,5.65980168 C59.7832802,8.75667429 59.5825305,9.19717773 59.3416307,9.19717773 C59.0873477,9.19717773 58.8865979,8.74332571 57.668716,5.59305873 C56.9058669,3.61746758 56.2500843,2.0423341 56.1965511,2.09572845 C56.1564011,2.14912281 55.4604686,3.76430206 54.6574695,5.68649886 L53.1986879,9.19717773 L52.7704217,9.19717773 C52.529522,9.19717773 52.3287723,9.13043478 52.3287723,9.06369184 Z" id="Path" fill="#000000"></path>
                            <path d="M89.1998126,7.11479786 C87.8748641,5.96681922 86.7774321,4.99237223 86.7640487,4.95232647 C86.7506654,4.89893211 87.9685473,3.84439359 89.4808622,2.58962624 L92.2244424,0.320366133 L92.9872915,0.280320366 C93.4423243,0.253623188 93.6966073,0.293668955 93.6163074,0.360411899 C93.5493908,0.427154844 92.291359,1.45499619 90.8459606,2.65636918 C89.387179,3.85774218 88.1960637,4.89893211 88.209447,4.97902365 C88.209447,5.05911518 89.0392127,5.83333333 90.0429616,6.70099161 C91.0467104,7.56864989 92.1039925,8.47635393 92.3984255,8.72997712 L92.9069916,9.19717773 L92.2645923,9.19717773 C91.6088097,9.18382914 91.5820431,9.17048055 89.1998126,7.11479786 Z" id="Path" fill="#000000"></path>
                            <path d="M108.193417,69.2725019 C96.3879925,66.1836384 89.645477,57.8688024 89.1676926,45.812357 L88.9910328,41.2231121 L96.9206485,41.2231121 L104.831528,41.2231121 L104.848926,44.0476735 C104.883723,48.8665141 107.166917,52.414569 110.954396,53.5265065 L112.476079,53.9683448 L112.54701,57.0745614 L112.617942,60.180778 L110.848667,59.9872235 C108.352679,59.6868802 105.132652,57.9742563 103.060915,55.8558352 L101.29164,54.0377574 L102.247209,53.3142639 L103.202778,52.5907704 L101.627561,51.5495805 C99.7686186,50.3321892 98.229537,48.460717 96.6543205,45.5293669 C95.5394902,43.428299 95.5033552,43.3935927 95.2557638,44.3640351 C94.8315127,46.0232647 95.3440937,51.3186499 96.1577994,53.9323036 C97.09597,56.9157132 96.9902418,56.7742182 97.963209,56.104119 C98.7059831,55.57418 98.7956514,55.6275744 99.9104817,57.0932494 C102.247209,60.1300534 106.848394,62.7770786 110.530144,63.1481693 L112.617942,63.3777651 L112.617942,66.6788711 C112.617942,70.5619756 112.777203,70.4551869 108.193417,69.2725019 Z" id="Path" fill="#985C98"></path>
                            <path d="M117.185668,61.8667048 L117.239201,53.7988177 L118.814418,53.569222 C123.168011,52.9338291 126.513841,49.349733 126.513841,45.3251335 C126.513841,43.4536613 126.460307,43.4897025 130.142058,43.27746 L132.885638,43.1359649 L132.885638,44.9540427 C132.885638,48.555492 130.991899,53.3396262 128.726103,55.4754005 L127.912397,56.2349352 L127.363681,55.4580473 C126.638306,54.3995042 126.390714,54.4689169 125.700135,55.9172387 C124.957361,57.4710145 122.549702,60.1006865 120.991884,61.0537757 C120.318703,61.4595728 119.788724,61.9534706 119.788724,62.1310069 C119.788724,62.9426011 129.363149,61.4075133 131.116364,60.3302822 C131.540615,60.0659802 131.505818,59.8884439 130.851374,59.1823036 L130.055067,58.3520214 L131.275625,57.1693364 C133.930875,54.609077 136.266264,48.3432494 136.018673,44.4414569 L135.912945,42.8529748 L137.860217,42.6233791 C138.921515,42.4992372 140.461934,42.3764302 141.294377,42.359077 L142.798662,42.3243707 L142.781263,44.1784897 C142.710332,58.2305492 133.596292,68.0804729 119.153016,69.7036613 L117.134812,69.9332571 L117.185668,61.8667048 Z" id="Path" fill="#F19E14"></path>
                            <path d="M125.947726,38.9004577 C124.903828,34.5755149 121.028019,31.7683066 115.912915,31.6454996 L114.124903,31.6107933 L114.124903,28.680778 L114.124903,25.7334096 L116.337166,25.7334096 C122.354306,25.7507628 129.274819,29.08791 126.832364,30.7991991 C126.106988,31.3117849 126.124386,31.3638444 127.964592,32.2822273 C129.008491,32.8121663 130.850036,34.2418002 132.070594,35.4591915 L134.300255,37.6657132 L134.300255,36.3588863 C134.300255,34.2765065 133.609676,31.0448131 132.636709,28.5566362 C131.50448,25.6973684 131.539276,25.7494279 130.760367,26.7212052 L130.087187,27.5154462 L127.821391,25.9616705 C124.724491,23.8606026 121.785515,22.9075133 117.573784,22.6605645 L114.122227,22.4483219 L114.122227,19.0938215 L114.122227,15.7393211 L117.927104,15.9515637 C129.749927,16.5869565 138.704705,23.9487033 141.590148,35.4044622 C142.315524,38.2997712 143.077035,37.9113272 135.183554,38.7763158 C131.484405,39.1821129 127.944517,39.58791 127.32487,39.6946987 C126.301046,39.8535469 126.159183,39.7827994 125.947726,38.9004577 Z" id="Path" fill="#009BAA"></path>
                        </g>
                    </g>
                </g>
            </g>
        </g>
    </g>
</svg>