<?xml version="1.0" encoding="UTF-8"?>
<svg width="100px" height="70px" viewBox="0 0 100 70" version="1.1" xmlns="http://www.w3.org/2000/svg" xmlns:xlink="http://www.w3.org/1999/xlink">
    <!-- Generator: sketchtool 60.1 (101010) - https://sketch.com -->
    <title>04B6B612-C174-431B-8A4E-7599EA6DF506</title>
    <desc>Created with sketchtool.</desc>
    <g id="Page-1" stroke="none" stroke-width="1" fill="none" fill-rule="evenodd">
        <g id="01-00-Index" transform="translate(-370.000000, -3723.000000)">
            <g id="Partners" transform="translate(0.000000, 3628.000000)">
                <g id="logo-AFU" transform="translate(340.000000, 90.000000)">
                    <rect id="Rectangle" x="0" y="0" width="160" height="80"></rect>
                    <g id="afu-logo" transform="translate(30.000000, 5.000000)" fill-rule="nonzero">
                        <g id="Group" transform="translate(49.583333, 35.000000) scale(-1, 1) rotate(-180.000000) translate(-49.583333, -35.000000) ">
                            <path d="M85.5052216,69.779805 C85.5052216,69.6366782 85.406066,69.5375904 85.2077547,69.4935514 C83.4119357,69.1082101 82.111895,67.7099717 81.924601,65.9594212 C81.814428,64.9355143 82.1229123,63.9996854 83.0373477,62.6234665 C83.4560049,61.9849009 83.8305929,61.3903743 83.8636448,61.2912866 C83.907714,61.2032086 84.359423,60.4985845 84.8772359,59.7389116 C85.3840314,58.9792388 85.8247232,58.3076439 85.8467578,58.2636049 C85.9238788,58.0984586 91.1460764,50.2595156 91.4545606,49.8521548 C91.8842351,49.2906574 92.0605118,48.5419943 91.8952524,48.0355458 C91.8181313,47.804341 91.3223531,46.9786096 90.7935229,46.1748978 C90.2646928,45.3821957 89.8129837,44.6885813 89.7909492,44.6225228 C89.7689146,44.567474 89.4053439,43.994967 88.9866867,43.3564014 C86.342536,39.3378421 85.7145502,38.3799937 85.3069103,37.7414281 C85.0645299,37.3450771 84.8111321,36.9817553 84.7670629,36.9156968 C84.7119764,36.860648 84.469596,36.4863165 84.2382328,36.1009751 C83.9958523,35.7156338 83.6653335,35.2532243 83.5110914,35.0550488 C83.3568492,34.867883 83.1475206,34.5596099 83.048365,34.3724442 C82.8941229,34.0641711 82.8941229,34.0091224 83.0373477,33.7889273 C83.235659,33.5136835 83.8966967,33.4696445 84.2272155,33.7228688 C84.3484057,33.8109468 84.5356997,33.8880151 84.65689,33.8880151 C84.8882532,33.8880151 85.7696367,34.1522491 86.3645706,34.3944637 C86.5628819,34.4825417 86.8383143,34.5486002 86.9705218,34.5486002 C87.1027293,34.5486002 87.4332482,34.6146587 87.7086805,34.7027367 C88.2044588,34.8568732 88.8214272,35.0330293 90.0773988,35.3853413 C91.4104914,35.7486631 91.4655779,35.7927021 92.7766359,37.8845549 C93.228345,38.6001887 93.6800541,39.3048128 93.7681924,39.4479396 C93.8563308,39.5800566 94.087694,39.9653979 94.2860053,40.2956905 C94.4843166,40.625983 94.7377143,41.0113243 94.8699219,41.1544511 C94.9911121,41.2865681 95.0902677,41.4517144 95.0902677,41.4957534 C95.0902677,41.5397924 95.3106136,41.9031142 95.586046,42.2994652 C95.8614784,42.706826 96.0818242,43.0591381 96.0818242,43.0921673 C96.0818242,43.1362064 96.5665852,43.9178987 97.6793319,45.6134004 C98.3513869,46.6483171 98.5937674,47.1547656 98.6708884,47.6832337 C98.7369922,48.0905945 98.7920787,48.200692 98.9573381,48.200692 C99.1115802,48.200692 99.1666667,48.2777603 99.1666667,48.4759358 C99.1666667,48.6741114 99.1115802,48.7511796 98.9573381,48.7511796 C98.7369922,48.7511796 98.6268192,49.0264234 98.6158019,49.576911 C98.6047847,49.7640768 98.5166463,50.0833595 98.3954561,50.2925448 C98.2852831,50.5017301 98.1420583,50.7879836 98.0759545,50.9201007 C98.0098508,51.0522177 97.7674703,51.4595785 97.5140725,51.8118905 C97.271692,52.1752123 97.0733807,52.4944951 97.0733807,52.5275244 C97.0733807,52.5605536 96.9301559,52.8027682 96.7648965,53.0670022 C96.5886198,53.3312362 96.3462393,53.7165775 96.2360664,53.9257628 C96.1258934,54.1349481 95.8174092,54.6193772 95.5640114,55.0047185 C95.2995963,55.3900598 95.0902677,55.7423718 95.0902677,55.7864108 C95.0902677,55.8414596 94.9911121,55.9955961 94.8809392,56.1387229 C94.7707662,56.2928594 94.5834722,56.5681032 94.4732993,56.755269 C93.8783654,57.7571563 92.55629,59.9260774 92.0605118,60.69676 C91.7520276,61.1811891 91.4545606,61.6546084 91.4215087,61.7426864 C91.3774395,61.8307644 91.2562493,62.0399497 91.1460764,62.1940862 C90.9697997,62.46933 90.1545199,63.7684807 89.8901048,64.2198805 C89.8129837,64.3409877 89.6146724,64.6492608 89.449413,64.9024851 C89.2841536,65.1557093 89.1409288,65.3979239 89.1409288,65.4529726 C89.1409288,65.5080214 88.997704,65.7502359 88.81041,65.9924505 C88.6341332,66.2236552 88.4798911,66.4658698 88.4798911,66.5209185 C88.4798911,66.5759673 88.4137874,66.7080843 88.325649,66.7961623 C88.2375106,66.8952501 88.0832685,67.1484744 87.9620783,67.3576596 C87.5544384,68.1173325 86.6840721,69.3944637 86.4857608,69.5375904 C86.3645706,69.6146587 86.2764322,69.7577855 86.2764322,69.8458635 C86.2764322,69.9449512 86.155242,70 85.8908269,70 C85.5823427,70 85.5052216,69.955961 85.5052216,69.779805 Z" id="Path" fill="#FDAD02"></path>
                            <path d="M49.588842,64.2969487 C49.4676517,64.1318025 49.1261156,63.6143441 48.839666,63.1409248 C48.2226975,62.1390374 46.4048439,59.1994338 46.1734807,58.8251022 C45.6005814,57.9333124 44.9836129,56.9204152 44.7522498,56.5240642 C44.6090249,56.2818496 44.4547828,56.0506449 44.4217309,56.0176156 C44.3556272,55.9735766 43.3640707,54.3771626 42.8242232,53.4523435 C42.7140503,53.2651777 42.5267563,52.9899339 42.4165833,52.8357974 C42.3064104,52.6926707 42.2072547,52.5385341 42.2072547,52.4834854 C42.2072547,52.4394464 41.9979262,52.0871343 41.7335111,51.701793 C41.017387,50.6558666 40.5546606,49.6099402 40.5546606,49.0154137 C40.5546606,48.5419943 41.0063697,47.4189997 41.3699404,46.9896194 C41.4911306,46.8464926 42.030978,45.9767222 42.9233789,44.5124253 C43.1767767,44.0940547 44.5980076,41.8150362 44.8514054,41.4296949 C45.0056475,41.1874803 45.7988927,39.9323687 46.0963597,39.4479396 C46.1624634,39.3268323 46.5039996,38.809374 46.8345184,38.2919157 C47.1650372,37.7744574 47.5286079,37.1799308 47.6497982,36.9707455 C47.7599711,36.7615602 48.0133689,36.3431897 48.2116802,36.0349166 C48.4099915,35.7376534 48.7845795,35.1431268 49.0379773,34.7137465 C49.8312225,33.3925763 50.1397067,33.2934885 51.3626264,34.0311419 C52.5194423,34.7137465 53.0262378,35.1981755 53.4228604,36.0239069 C53.742362,36.6734822 53.7754138,36.8496383 53.7754138,37.7414281 C53.7754138,38.6111985 53.7313447,38.809374 53.444895,39.4369299 C53.257601,39.8222712 53.0372551,40.1966027 52.9491168,40.273671 C52.8609784,40.3507392 52.7838573,40.449827 52.7838573,40.493866 C52.7838573,40.537905 52.4092693,41.1324316 51.9575603,41.8150362 C51.5058512,42.4976408 51.1312632,43.0701478 51.1312632,43.0921673 C51.1312632,43.1141869 50.9109173,43.4444794 50.6575195,43.8298207 C50.3931045,44.2041522 50.150724,44.567474 50.1286894,44.6225228 C50.1066548,44.6885813 49.6439285,45.4042152 49.104081,46.2189368 C47.7159019,48.3217993 47.6718328,48.4208871 47.7489538,49.1915697 C47.8040403,49.7860963 47.8921786,49.973262 49.1371329,51.8449198 C49.8642743,52.9569047 50.5363293,53.9477823 50.6134504,54.0358603 C50.7015887,54.1239383 50.8007444,54.2780749 50.8448135,54.3661529 C50.9880384,54.6854357 51.7923009,55.9185278 51.9134911,56.0176156 C51.946543,56.0506449 52.0677332,56.2268009 52.1668889,56.4029569 C52.2660445,56.5901227 52.4974077,56.931425 52.6847017,57.1736395 C52.8609784,57.415854 53.1914972,57.9883611 53.4118431,58.4397609 C53.7864311,59.2214533 53.8084657,59.3315508 53.819483,60.3664674 C53.819483,61.3903743 53.7974484,61.5004718 53.4999815,62.0289399 C53.3126875,62.337213 53.0482724,62.733564 52.8940303,62.90972 C52.5745288,63.2730418 51.7482317,63.9446367 51.6160241,63.9446367 C51.5609377,63.9446367 51.3185572,64.0987732 51.087194,64.2749292 C50.4922601,64.726329 49.9083435,64.726329 49.588842,64.2969487 Z" id="Path" fill="#FDAD02"></path>
                            <path d="M10.3782913,33.5136835 C10.2460838,33.315508 10.1469281,33.0402642 10.1469281,32.919157 C10.1469281,32.7870399 10.0808244,32.5228059 9.992686,32.3246304 C9.91556494,32.1264549 9.76132282,31.6860648 9.65114987,31.3557723 C9.55199422,31.0254797 9.4087694,30.5740799 9.32063104,30.3648946 C9.24350998,30.1557093 9.08926786,29.68229 8.99011221,29.3189682 C8.87993927,28.9556464 8.73671444,28.4822271 8.65959338,28.2730418 C8.58247232,28.0638566 8.4282302,27.5904372 8.32907455,27.2271154 C8.2189016,26.8637936 8.06465948,26.4013841 7.98753842,26.2032086 C7.89940007,26.005033 7.8332963,25.7738282 7.8332963,25.6747405 C7.8332963,25.5316137 7.35955264,23.9572193 7.04005111,23.0434099 C6.98496463,22.8672539 6.90784357,22.5920101 6.87479169,22.4378735 C6.84173981,22.283737 6.75360145,22.0084932 6.6654631,21.8103177 C6.57732474,21.6231519 6.51122098,21.3809374 6.51122098,21.2818496 C6.51122098,21.1827619 6.4561345,20.9955961 6.37901344,20.8634791 C6.31290968,20.7313621 6.21375403,20.4451085 6.16968485,20.2359232 C6.0705292,19.7625039 5.8722179,19.1789871 5.6739066,18.7716263 C5.34338777,18.1110412 5.57475095,17.9128657 6.55529015,18.0229632 L7.20531052,18.0890217 L7.35955264,18.6395093 C7.447691,18.9477823 7.59091582,19.4432211 7.66803688,19.7404844 C7.75617524,20.0487575 7.89940007,20.555206 7.98753842,20.8854986 C8.08669407,21.2047814 8.16381513,21.5460837 8.16381513,21.6231519 C8.16381513,21.7112299 8.2299189,21.7772885 8.30703996,21.7772885 C9.7833574,21.8103177 14.146206,21.7662787 14.223327,21.7222397 C14.2784135,21.6892104 14.3555346,21.4800252 14.3885865,21.2488204 C14.4326556,21.0286254 14.520794,20.6432841 14.597915,20.4010695 C14.7631745,19.9056307 15.0606414,18.7936458 15.1597971,18.342246 C15.2148835,18.078012 15.2589527,18.0559925 15.8979558,18.0119534 C16.7793393,17.9679144 16.9445987,18.078012 16.7903566,18.650519 C16.7242529,18.8817238 16.6030626,19.2560554 16.5259416,19.4652406 C16.4598378,19.6744259 16.3386476,20.026738 16.2615265,20.2359232 C16.1844054,20.4451085 16.0411806,20.9185278 15.9310077,21.2818496 C15.7326964,21.9534445 15.5123505,22.6910978 15.26997,23.4837999 C15.2038662,23.7260145 15.0496241,24.2214533 14.9504685,24.5847751 C14.8402955,24.9480969 14.708088,25.3994967 14.6419842,25.5756527 C14.5868978,25.7628185 14.4877421,26.1041208 14.4326556,26.3463353 C14.3665519,26.5885499 14.2784135,26.8307644 14.2123097,26.8858131 C14.1572233,26.9518717 14.1131541,27.1060082 14.1131541,27.2491349 C14.1131541,27.381252 14.0470503,27.6564958 13.958912,27.8546713 C13.8817909,28.0528468 13.7275488,28.5152564 13.6173758,28.8785782 C13.5182202,29.2419 13.3749954,29.6602705 13.3199089,29.814407 C13.2538051,29.9685436 13.1656668,30.2437874 13.1215976,30.4199434 C13.0334592,30.7282164 12.9563382,30.9814407 12.6258194,31.9062598 C12.5486983,32.1154451 12.3944562,32.5888644 12.2842832,32.9521862 C12.1741103,33.315508 12.0088509,33.6788298 11.9207125,33.7558981 C11.8325742,33.8219566 11.5020553,33.8880151 11.1825538,33.8880151 C10.6427064,33.8880151 10.5876199,33.8659956 10.3782913,33.5136835 Z M11.4800207,31.7741428 C11.4800207,31.6200063 11.6232456,30.8933627 11.788505,30.1226801 C11.8435915,29.8584461 11.9978336,29.3079585 12.1300411,28.8785782 C12.2622486,28.4602076 12.4054735,27.9317395 12.4605599,27.7225543 C12.5046291,27.513369 12.6037848,27.1940862 12.6588712,27.0069204 C12.724975,26.8307644 12.8461652,26.4344133 12.9343036,26.1261403 C13.474151,24.3095313 13.6063586,23.9131802 13.6944969,23.8251022 C13.7385661,23.7590437 13.7826353,23.5608682 13.7826353,23.3737024 L13.7826353,23.0434099 L11.2376403,23.0434099 L8.69264526,23.0434099 L8.75874903,23.4948097 C8.79180091,23.748034 8.89095656,24.1223655 8.97909492,24.3205411 C9.12231974,24.6618433 9.28757916,25.2013212 9.65114987,26.5114816 C9.94861682,27.557408 10.1689627,28.3501101 10.3342221,28.9336269 C10.4223605,29.2639195 10.5655853,29.7593583 10.6537237,30.0346021 C10.741862,30.3098459 10.8079658,30.6731677 10.8079658,30.8383139 C10.8079658,31.2566845 11.11645,31.9062598 11.3147613,31.9062598 C11.4028997,31.9062598 11.4690034,31.8402013 11.4800207,31.7741428 Z" id="Shape" fill="#3F3A36"></path>
                            <path d="M60.6832574,33.4145958 C60.4629115,33.271469 60.2535829,33.1283422 60.2205311,33.095313 C60.14341,33.0182447 60.1323927,18.1440705 60.2095138,18.0670022 C60.3086694,17.9679144 61.2010703,17.9569047 61.4654853,18.0449827 L61.7078658,18.1440705 L61.6858312,25.872916 L61.6527793,33.6127713 L61.377347,33.6347908 C61.2231048,33.6568103 60.9146206,33.5467128 60.6832574,33.4145958 Z" id="Path" fill="#3F3A36"></path>
                            <path d="M64.5172759,32.5778547 C64.1206533,32.4127084 64.0104803,32.1704939 64.0435322,31.5759673 C64.0765841,31.0474992 64.109636,30.9814407 64.4621894,30.7722554 C64.935933,30.5080214 65.3435729,30.5740799 65.7401955,30.970431 C66.0596971,31.2897137 66.092749,31.9502988 65.8062993,32.3026109 C65.5859534,32.5668449 64.858812,32.7209814 64.5172759,32.5778547 Z" id="Path" fill="#3F3A36"></path>
                            <path d="M87.763767,32.1704939 C87.5213865,32.0714061 87.1467985,31.9613086 86.9374699,31.9172696 C86.7281413,31.8732306 86.3755879,31.7851526 86.1662593,31.7190941 C85.1747028,31.410821 83.5882124,30.9814407 82.5305522,30.7392262 C81.550013,30.5080214 81.0432174,30.2327776 80.8228715,29.814407 C80.2720068,28.7354514 81.1093212,27.2161057 82.7949672,26.2362378 C83.2907455,25.960994 83.4670222,25.916955 84.2272155,25.916955 L85.0975818,25.9059453 L85.6264119,26.5114816 C85.9238788,26.8307644 86.1662593,27.1500472 86.1662593,27.1940862 C86.1662593,27.2491349 86.4967781,27.8326518 86.9154353,28.4932369 C87.3230752,29.1648317 87.7086805,29.7923875 87.763767,29.9024851 C87.8298708,30.0015728 88.1163204,30.4419629 88.4027701,30.8823529 C88.9866867,31.7411136 89.0197385,32.0493866 88.512943,32.2475621 C88.3697182,32.3026109 88.2375106,32.3466499 88.2264934,32.3466499 C88.2154761,32.3356401 88.0061475,32.2585719 87.763767,32.1704939 Z" id="Path" fill="#FDAD02"></path>
                            <path d="M37.5249046,31.5759673 C37.4037144,31.5209185 37.1833685,31.3777918 37.0401437,31.2676942 L36.7867459,31.058509 L36.7977632,25.784838 C36.8087805,22.8892734 36.8418324,20.2139037 36.8859016,19.8615917 C37.0401437,18.3532557 38.1308558,17.6486316 40.158038,17.7256999 C40.9843351,17.7477194 41.2377328,17.8027682 41.4250268,17.9679144 C41.8877532,18.386285 41.6013036,19.3661529 41.0614561,19.1789871 C40.9292486,19.1349481 40.4555049,19.0798993 40.0037959,19.0578798 C39.2766544,19.0138408 39.1334296,19.0358603 38.8690146,19.2450456 C38.2630634,19.7294747 38.2520461,19.7955332 38.2300115,23.748034 C38.2300115,25.7628185 38.2410288,27.425291 38.2630634,27.4473105 C38.2740807,27.46933 38.9130837,27.4473105 39.673277,27.3922617 C40.5766952,27.337213 41.094508,27.3482227 41.1936637,27.4142812 C41.3699404,27.5684177 41.3699404,28.5372759 41.1826464,28.6914124 C41.0834907,28.7684807 40.6097471,28.7794904 39.673277,28.7134319 C38.9130837,28.6583831 38.2740807,28.6363636 38.2520461,28.6693929 C38.2300115,28.6914124 38.1969596,29.374017 38.1969596,30.1667191 C38.1859423,31.542938 38.174925,31.631016 37.9655964,31.6530355 C37.8444062,31.6640453 37.6460949,31.631016 37.5249046,31.5759673 Z" id="Path" fill="#3F3A36"></path>
                            <path d="M30.6941821,28.9336269 C29.9229715,28.8565587 29.5373662,28.6914124 28.8983631,28.1849638 C28.2152909,27.645486 27.9729104,27.0949984 27.9729104,26.1041208 C27.9839277,25.5095942 28.0279969,25.2233407 28.1491871,25.0912237 C28.2483428,24.9811261 28.3254638,24.8490091 28.3254638,24.8049701 C28.3254638,24.7499214 28.5458097,24.4966971 28.8102248,24.2434728 C29.306003,23.7810632 29.5704181,23.6379365 31.4874273,22.8011953 C32.523053,22.3497955 32.9196756,22.0965712 33.2612117,21.6671909 C33.8120764,20.9625668 33.7129208,20.0927965 33.0078139,19.5753382 C32.2806725,19.0248506 30.6831648,18.8817238 29.306003,19.2450456 C28.5788616,19.4322114 28.4686887,19.4322114 28.2483428,19.2890846 C28.0610488,19.1679774 27.994945,19.0248506 27.994945,18.694558 C27.994945,18.4633533 28.0610488,18.2321485 28.1381698,18.1770997 C28.4136022,18.0009437 30.1763693,17.7146902 31.0687701,17.7146902 C31.9942229,17.7036804 32.8535718,17.8798364 33.6027478,18.2431582 C34.0985261,18.4853728 34.9358405,19.4212016 34.9358405,19.7404844 C34.9358405,19.8836112 34.9909269,20.0377477 35.0460134,20.070777 C35.2002555,20.1698647 35.1782209,20.9735766 35.0129615,21.5240642 C34.7485465,22.3938345 33.7790246,23.3186537 32.6222086,23.8030827 C30.4297671,24.7058824 29.9560234,24.9921359 29.5043143,25.6307015 C29.1737955,26.1041208 29.2619339,26.4674426 29.8458505,27.0509594 C30.3085768,27.513369 30.4407844,27.5794275 30.9696145,27.645486 C31.773877,27.733564 33.6688516,27.5794275 33.8781802,27.4032715 C33.9663186,27.3262032 34.1756472,27.2821642 34.3519239,27.3041837 C34.6383735,27.337213 34.6604081,27.381252 34.69346,27.865681 C34.7154946,28.1629443 34.6714254,28.4712174 34.6053216,28.5482856 C34.3409066,28.8675684 32.0933785,29.0877634 30.6941821,28.9336269 Z" id="Path" fill="#3F3A36"></path>
                            <path d="M53.0592897,28.9336269 C52.2329926,28.8455489 51.2524534,28.5152564 50.8007444,28.1739541 C50.5693812,28.0088078 50.525312,27.8766908 50.525312,27.4363007 C50.525312,26.9628814 50.5583639,26.8968229 50.7676925,26.8637936 C50.8999,26.8417741 51.3956783,27.0069204 51.8694219,27.2271154 C52.6847017,27.6124567 52.7838573,27.6344763 53.8966041,27.6344763 C55.0864719,27.645486 55.3619042,27.5684177 55.8797171,27.0619692 C56.2212532,26.7316766 56.4305818,26.0270525 56.3975299,25.3554577 L56.364478,24.6948726 L54.9873162,24.6728531 C54.0288116,24.6618433 53.4228604,24.5957848 53.0042032,24.4636678 C50.9549865,23.8140925 49.9964819,22.9443221 49.7100322,21.4800252 C49.5007036,20.3900598 49.7981706,19.4322114 50.5583639,18.7606165 C51.0431248,18.3312362 51.3956783,18.1770997 52.4863904,17.9128657 C53.5220161,17.6596414 54.9983335,17.6486316 56.2543051,17.8688267 C56.739066,17.9569047 57.2678962,18.0339729 57.4441729,18.0339729 C57.6094323,18.0339729 57.7526571,18.1000315 57.7526571,18.1770997 C57.7636744,18.2431582 57.7636744,20.2799623 57.7526571,22.7021076 L57.7306225,27.0949984 L57.3560345,27.6675055 C56.8051698,28.4932369 56.0229419,28.8785782 54.7669703,28.9556464 C54.2491575,28.9886757 53.4889642,28.9776659 53.0592897,28.9336269 Z M56.3754953,21.4690154 C56.3865126,19.7735137 56.3534607,19.3000944 56.2322705,19.1789871 C55.98989,18.9367726 53.2355664,18.9587921 52.5635115,19.2120164 C51.5939896,19.5753382 51.1312632,20.1368355 51.1312632,20.9625668 C51.1312632,21.8323372 51.7372144,22.6470588 52.7287709,23.0874489 C53.2465837,23.3296634 54.9762989,23.6269267 55.7034404,23.6049072 L56.364478,23.5938975 L56.3754953,21.4690154 Z" id="Shape" fill="#3F3A36"></path>
                            <path d="M71.182739,28.9336269 C70.510684,28.8565587 69.7945599,28.6253539 69.0343666,28.2620321 C68.7258823,28.1189053 68.7038477,28.0638566 68.7038477,27.5023592 C68.7038477,26.9518717 68.7258823,26.8968229 68.9572455,26.8637936 C69.1004703,26.8417741 69.3318335,26.9078327 69.4750583,26.9959107 C70.136096,27.4363007 70.995445,27.645486 72.0641225,27.645486 C73.1768692,27.645486 73.6616302,27.4913495 74.0692701,27.0179302 C74.3557197,26.6876376 74.6201348,25.7187795 74.5760656,25.1682919 L74.5430137,24.6948726 L73.1768692,24.6728531 C71.821742,24.6618433 71.2929119,24.5627556 70.136096,24.1113558 C69.4420064,23.8251022 68.3182424,22.9663416 68.3182424,22.6910978 C68.3182424,22.6360491 68.2631559,22.5369613 68.1860349,22.459893 C68.0207755,22.2947468 67.778395,21.4029569 67.7673777,20.9515571 C67.7673777,20.7754011 67.8334815,20.3570305 67.9106025,20.026738 C68.0648446,19.3221139 68.6487612,18.650519 69.4199719,18.2871972 C70.6208569,17.7256999 72.5819353,17.5605536 74.3226679,17.8688267 C74.8074288,17.9569047 75.3693108,18.0339729 75.5676221,18.0339729 L75.9202475,18.0339729 L75.9202475,22.4929223 C75.9202475,27.4142812 75.9422101,27.2711545 75.2150687,28.0308273 C74.4989446,28.8125197 72.9675406,29.153822 71.182739,28.9336269 Z M74.5209792,21.4690154 C74.5209792,19.9606795 74.47691,19.3111041 74.3777543,19.1899969 C74.2675814,19.0578798 73.9370625,19.0248506 72.7361775,19.0248506 C70.8412028,19.0358603 70.2021998,19.2120164 69.6733696,19.9056307 C68.8911417,20.8965083 69.3428508,22.3387858 70.6318742,22.9553319 C71.370033,23.3076439 72.9895752,23.6379365 73.8819761,23.615917 L74.5319964,23.5938975 L74.5209792,21.4690154 Z" id="Shape" fill="#3F3A36"></path>
                            <path d="M46.7133281,28.7354514 C46.0743251,28.4271784 45.5234604,27.9647688 45.2590453,27.4803397 C44.686146,26.4454231 44.686146,26.4344133 44.5319039,26.6986474 C44.4547828,26.8417741 44.4547828,27.1720667 44.5319039,27.7115445 C44.6200422,28.3060711 44.6090249,28.5482856 44.5098693,28.6693929 C44.3556272,28.8565587 43.5183128,28.8785782 43.3310188,28.6914124 C43.2318631,28.5923246 43.1988112,27.2381252 43.1988112,23.2966342 L43.1988112,18.0339729 L43.9700218,18.0339729 C44.3996963,18.0339729 44.7412325,18.0670022 44.7412325,18.122051 C44.7412325,18.16609 44.763267,19.7404844 44.7742843,21.6121422 C44.8073362,25.5426235 44.7963189,25.476565 45.8539792,26.5224913 C46.3387401,27.0069204 46.6141725,27.1830764 47.0879162,27.3262032 C47.793023,27.5353885 48.2447321,27.5463982 48.6744065,27.381252 C48.9388216,27.2821642 49.0049254,27.3041837 49.1591675,27.4913495 C49.3684961,27.7445738 49.3464615,28.5262661 49.1371329,28.7794904 C48.9498389,29.0106952 47.231141,28.9666562 46.7133281,28.7354514 Z" id="Path" fill="#3F3A36"></path>
                            <path d="M17.9692071,28.6583831 C17.7819131,28.4381881 17.8039477,21.7002202 17.9912417,20.7313621 C18.2005703,19.6744259 18.861608,18.7936458 19.8421472,18.2761875 C21.9354331,17.1531928 24.8770507,17.8247877 25.824538,19.6303869 C26.3203163,20.5882353 26.3313336,20.7093426 26.3533681,24.7389116 C26.3533681,26.8527839 26.3313336,28.6473734 26.2872644,28.7024221 C26.199126,28.8455489 25.2516387,28.8565587 25.0312928,28.7244416 C24.8990853,28.6363636 24.8770507,28.0858761 24.8990853,25.3004089 C24.9321372,21.6121422 24.8439988,20.7643913 24.3702552,20.070777 C23.7422694,19.1349481 22.3320557,18.782636 21.0650668,19.2340359 C20.35996,19.4762504 19.9413028,19.8505819 19.6218013,20.511167 C19.3904381,20.9845863 19.3794208,21.1167034 19.3904381,24.7939604 C19.4124727,28.4602076 19.4014554,28.5923246 19.1921268,28.7024221 C18.8726253,28.8785782 18.1234492,28.8455489 17.9692071,28.6583831 Z" id="Path" fill="#3F3A36"></path>
                            <path d="M64.3409991,28.6363636 C64.2087916,28.4712174 64.186757,27.5684177 64.2198089,23.2305757 L64.2418435,18.0229632 L64.9689849,18.0559925 L65.6961264,18.0890217 L65.6851091,23.3516829 C65.6851091,26.2472476 65.6520572,28.6583831 65.6190053,28.7244416 C65.4978151,28.9116074 64.5062586,28.8455489 64.3409991,28.6363636 Z" id="Path" fill="#3F3A36"></path>
                            <path d="M0.694089546,8.92890846 C0.429674481,8.8298207 0.0110172944,8.02610884 0.0110172944,7.62975779 C0.0110172944,7.42057251 0.0550864719,7.24441648 0.110172944,7.24441648 C0.165259416,7.24441648 0.264415065,7.07927021 0.330518831,6.89210444 C0.407639892,6.69392891 0.782227901,6.05536332 1.1788505,5.47184649 L1.89497463,4.4039006 L1.24495426,3.43504247 C0.88138355,2.89556464 0.495778247,2.2459893 0.385605303,1.98175527 C0.275432359,1.72853098 0.154242121,1.51934571 0.0991556494,1.51934571 C-0.0330518831,1.51934571 -0.0110172944,0.869770368 0.121190238,0.715633847 C0.187294004,0.638565587 0.341536126,0.44039006 0.462726364,0.275243787 C0.782227901,-0.143126769 1.06867755,-0.0770682605 1.50936933,0.528468072 C1.70768063,0.803711859 1.87294004,1.06794589 1.87294004,1.1119849 C1.88395734,1.16703366 2.18142429,1.65146272 2.544995,2.2019503 C2.90856571,2.74142812 3.20603266,3.20383768 3.20603266,3.23686694 C3.20603266,3.25888644 3.36027478,3.49009122 3.53655149,3.74331551 C3.7238455,3.98553004 3.86707033,4.29380308 3.86707033,4.4039006 C3.86707033,4.52500786 3.64672444,4.95438817 3.39332667,5.35073923 C2.28057994,7.05725071 1.55343851,8.22428437 1.55343851,8.32337213 C1.55343851,8.4885184 1.10172944,9.00597672 0.969521905,8.99496697 C0.892400844,8.99496697 0.771210606,8.96193772 0.694089546,8.92890846 Z" id="Path" fill="#FDAD02"></path>
                            <path d="M5.89425249,8.51053791 C5.86120061,8.4444794 5.86120061,6.56181189 5.8722179,4.32683234 L5.90526978,0.253224284 L6.30189238,0.22019503 C6.83072251,0.176156024 7.10615487,0.44039006 7.01801652,0.902799623 C6.90784357,1.54136521 6.90784357,3.83139352 7.00699922,3.93048128 C7.07310299,3.99653979 7.54684665,4.00754954 8.18584972,3.96351054 C9.43080398,3.86442277 9.65114987,3.91947153 9.72827093,4.32683234 C9.83844388,4.87731991 9.58504611,4.97640768 8.26297078,4.88832966 C7.42565641,4.84429066 7.0510684,4.85530041 6.99598193,4.94337842 C6.89682628,5.11953444 6.89682628,7.3324945 6.99598193,7.43158226 C7.04005111,7.48663102 7.71210606,7.51966027 8.47229937,7.51966027 L9.87149576,7.51966027 L9.90454764,7.94904058 C9.92658223,8.18024536 9.89353035,8.42245989 9.83844388,8.47750865 C9.69521905,8.62063542 5.94933896,8.65366467 5.89425249,8.51053791 Z" id="Path" fill="#3F3A36"></path>
                            <path d="M34.6493908,8.43346964 C34.583287,8.34539163 34.5722697,7.0352312 34.6163389,5.1525637 C34.69346,1.75055049 34.7265119,1.53035546 35.3324631,0.924819126 C35.817224,0.451399811 36.3240196,0.275243787 37.2604896,0.275243787 C38.2079769,0.264234036 38.6817205,0.44039006 39.2105507,0.979867883 C39.7724327,1.55237496 39.8385365,2.01478452 39.8385365,5.42780749 L39.8385365,8.51053791 L39.3537755,8.54356716 C39.0893604,8.56558666 38.8249454,8.53255741 38.7588416,8.4664989 C38.6927378,8.40044039 38.659686,7.21138723 38.6707033,5.21862221 L38.6927378,2.08084303 L38.285098,1.64045297 C37.9105099,1.21107266 37.8444062,1.18905316 37.2825242,1.18905316 C36.7206422,1.18905316 36.6325038,1.22208242 36.2579158,1.60742372 C35.7180684,2.14690154 35.6629819,2.52123309 35.7180684,5.86819755 L35.7621375,8.51053791 L35.255342,8.54356716 C34.9358405,8.56558666 34.7154946,8.52154766 34.6493908,8.43346964 Z" id="Path" fill="#FDAD02"></path>
                            <path d="M47.3964004,8.35640138 C47.2531756,8.23529412 47.0989335,8.1251966 47.043847,8.1031771 C46.9777432,8.0811576 46.933674,6.59484115 46.9446913,4.27178358 C46.9446913,0.066058509 46.933674,0.143126769 47.6497982,0.275243787 C47.8370922,0.308273042 48.0023516,0.352312048 48.0243862,0.363321799 C48.0464208,0.385341302 48.0684554,2.2239698 48.0684554,4.45894936 C48.0794727,8.38943064 48.0684554,8.51053791 47.8591268,8.54356716 C47.7489538,8.56558666 47.5396252,8.47750865 47.3964004,8.35640138 Z" id="Path" fill="#FDAD02"></path>
                            <path d="M75.1269303,8.23529412 C74.8294634,7.93803083 74.7964115,7.84995282 74.8625153,7.43158226 C74.9616709,6.72695816 74.9726882,5.52689525 74.8845499,5.38376848 C74.8294634,5.29569047 74.6862386,5.35073923 74.4218235,5.59295376 C74.2124949,5.76910978 73.9040107,5.94526581 73.7387512,5.98930481 C73.5734918,6.02233407 73.3751805,6.06637307 73.3090768,6.08839258 C73.055679,6.16546084 72.2293819,5.80213904 71.8547939,5.44982699 C71.3369811,4.95438817 71.0946006,4.32683234 71.0064622,3.22585719 C70.9403585,2.44416483 70.9623931,2.2019503 71.1276525,1.816609 C71.6013961,0.73765335 72.119209,0.330292545 73.1658519,0.231204781 C73.7387512,0.176156024 73.804855,0.198175527 74.3116506,0.583516829 C74.7303077,0.902799623 74.8735326,0.95784838 74.9396363,0.836741114 C74.9947228,0.759672853 75.038792,0.627555835 75.038792,0.550487575 C75.038792,0.473419314 75.1599822,0.363321799 75.3142243,0.308273042 C75.9201755,0.0770682605 75.8981409,-2.77555756e-16 75.9422101,4.30481283 C75.9642447,6.49575338 75.9532274,8.35640138 75.9311928,8.43346964 C75.8650891,8.67568418 75.4684665,8.57659641 75.1269303,8.23529412 Z M74.1243566,4.92135892 C75.1489649,4.28279333 75.226086,2.2239698 74.2455468,1.38722869 C74.0913047,1.25511167 73.8379069,1.18905316 73.4523016,1.18905316 C72.9675406,1.18905316 72.8353331,1.23309217 72.5819353,1.48631645 C71.6895345,2.42214533 71.7666556,4.09562756 72.7361775,4.85530041 C73.1878865,5.20761246 73.617561,5.22963196 74.1243566,4.92135892 Z" id="Shape" fill="#FDAD02"></path>
                            <path d="M49.2803577,7.99307958 C49.104081,7.81692356 49.104081,7.11229947 49.2803577,6.93614344 C49.4566344,6.75998742 50.1617413,6.75998742 50.338018,6.93614344 C50.5363293,7.13431897 50.4922601,7.7398553 50.2719142,7.93803083 C50.0295338,8.15822586 49.4676517,8.18024536 49.2803577,7.99307958 Z" id="Path" fill="#FDAD02"></path>
                            <path d="M60.5730845,7.92702108 C60.1323927,7.44259201 60.4849461,6.80402642 61.190053,6.80402642 C61.6197274,6.80402642 61.8180387,7.0132117 61.8180387,7.49764077 C61.8180387,8.05913809 60.9586898,8.35640138 60.5730845,7.92702108 Z" id="Path" fill="#FDAD02"></path>
                            <path d="M16.9776506,7.48663102 C16.878495,7.44259201 16.691201,7.32148474 16.5369589,7.22239698 L16.2725438,7.0352312 L16.3055957,4.15067631 C16.316613,2.5652721 16.3716994,1.15602391 16.4267859,1.02390689 C16.4818724,0.88078012 16.691201,0.66058509 16.8895123,0.51745832 C17.1979965,0.29726329 17.3852905,0.253224284 18.1344665,0.253224284 L19.0158501,0.253224284 L19.048902,0.73765335 L19.0819539,1.22208242 L18.5971929,1.16703366 C18.3217605,1.1340044 17.9581898,1.16703366 17.7708958,1.24410192 L17.440377,1.38722869 L17.3963078,3.08273042 C17.3632559,4.00754954 17.3852905,4.8112614 17.440377,4.87731991 C17.4844462,4.93236867 17.8369996,4.97640768 18.2115876,4.98741743 C18.8505907,4.98741743 18.8946599,4.99842718 18.9938155,5.29569047 C19.1590749,5.81314879 18.938729,5.95627556 18.112432,5.86819755 C17.5725845,5.81314879 17.4183424,5.82415854 17.4073251,5.94526581 C17.3963078,6.02233407 17.3852905,6.40767537 17.3742732,6.79301667 C17.3632559,7.49764077 17.2861349,7.61874803 16.9776506,7.48663102 Z" id="Path" fill="#3F3A36"></path>
                            <path d="M63.1841832,7.26643599 L62.8426471,6.9691727 L62.8646817,4.15067631 C62.8867163,1.04592639 62.9197682,0.858760617 63.5587712,0.495438817 C64.0104803,0.231204781 65.2664519,0.110097515 65.5088324,0.308273042 C65.7071437,0.473419314 65.7291782,0.869770368 65.5418842,1.05693614 C65.4647632,1.1340044 65.123227,1.18905316 64.7706736,1.18905316 C64.186757,1.18905316 64.1206533,1.21107266 64.0214976,1.4532872 C63.9443766,1.67348223 63.8782728,3.677257 63.9003074,4.86631016 C63.9113247,5.05347594 63.9774284,5.06448569 64.5282932,4.99842718 C65.2003481,4.92135892 65.5639188,5.08650519 65.5639188,5.48285624 C65.5639188,5.83516829 65.2774692,5.95627556 64.6274488,5.86819755 C63.9443766,5.79112929 63.9884457,5.71406103 63.9774284,6.80402642 C63.9664111,7.43158226 63.9443766,7.51966027 63.7460653,7.54167977 C63.624875,7.56369928 63.3714772,7.44259201 63.1841832,7.26643599 Z" id="Path" fill="#FDAD02"></path>
                            <path d="M27.5983224,5.93425606 C27.3559419,5.81314879 27.0915269,5.59295376 27.0254231,5.43881724 C26.8491464,5.04246618 26.5626967,5.06448569 26.5626967,5.47184649 C26.5626967,5.65901227 26.496593,5.81314879 26.38642,5.85718779 C26.1109877,5.95627556 25.5931748,5.93425606 25.5160538,5.81314879 C25.4830019,5.74709028 25.44995,4.53601762 25.44995,3.10474992 C25.44995,0.308273042 25.4719846,0.198164773 26.011832,0.198164773 C26.683887,0.198164773 26.6728697,0.176156024 26.6728697,2.12488204 L26.6728697,3.90846178 L27.0033885,4.35986159 C27.3339073,4.82227115 27.3779765,4.83328091 28.5458097,4.95438817 C28.8873459,4.99842718 29.118709,5.62598301 28.8653113,5.86819755 C28.6008962,6.14344133 28.0830834,6.16546084 27.5983224,5.93425606 Z" id="Path" fill="#3F3A36"></path>
                            <path d="M30.5840092,5.96728531 C30.0551791,5.76910978 29.6255046,5.37275873 29.228882,4.71217364 C28.9644669,4.26077383 28.931415,4.11764706 28.931415,3.06071092 C28.931415,1.78357974 29.0195534,1.56338471 29.7356775,0.902799623 C30.2865422,0.396351054 30.9696145,0.198175527 32.148465,0.198175527 C33.0739177,0.198175527 33.1730734,0.22019503 33.3273155,0.44039006 C33.75699,1.04592639 33.4485057,1.34318968 32.6111913,1.16703366 C31.663704,0.968858131 31.0467355,1.1119849 30.4628189,1.67348223 C30.0992482,2.02579427 29.978058,2.2239698 29.978058,2.47719409 L29.978058,2.81849638 L31.6857386,2.75243787 C33.7900418,2.68637936 33.7680073,2.67536961 33.6688516,3.76533501 C33.5586787,4.85530041 33.1069696,5.52689525 32.1925342,5.93425606 C31.6306521,6.17647059 31.1899604,6.18748034 30.5840092,5.96728531 Z M32.0162575,4.95438817 C32.4018628,4.63510538 32.6222086,4.23875433 32.6222086,3.86442277 L32.6222086,3.50110098 L31.5204792,3.47908147 C30.914528,3.46807172 30.3306114,3.45706197 30.2314558,3.45706197 C30.0772136,3.44605222 30.0221272,3.54513998 30.0000926,3.83139352 C29.978058,4.16168606 30.0441618,4.30481283 30.3967152,4.69015414 C30.7823205,5.09751494 30.8814761,5.1525637 31.3111506,5.1525637 C31.6086176,5.14155395 31.8840499,5.07549544 32.0162575,4.95438817 Z" id="Shape" fill="#3F3A36"></path>
                            <path d="M43.3420361,5.95627556 C43.077621,5.86819755 42.7691368,5.65901227 42.6369292,5.47184649 C42.3614969,5.08650519 42.2072547,5.06448569 42.2072547,5.41679774 C42.2072547,5.76910978 41.9648743,5.94526581 41.5351998,5.9012268 L41.1936637,5.86819755 L41.1716291,3.13777918 C41.1606118,0.594526581 41.1716291,0.396351054 41.3589231,0.286253539 C41.469096,0.231204781 41.6894419,0.198175527 41.8547013,0.22019503 L42.1521683,0.253224284 L42.1852202,2.10286254 C42.2072547,3.84240327 42.2292893,3.98553004 42.4716698,4.37087134 C42.6479465,4.64611513 42.9013443,4.85530041 43.1988112,4.97640768 C43.6284857,5.14155395 43.6725549,5.14155395 44.0691775,4.93236867 C44.7412325,4.60207612 44.8293708,4.21673482 44.763267,2.21296005 C44.7081806,0.374331551 44.7522498,0.198175527 45.2810799,0.198175527 C45.80991,0.198175527 45.8429619,0.319282793 45.8429619,2.47719409 C45.8429619,4.27178358 45.8209273,4.54702737 45.622616,4.91034917 C45.2810799,5.57093426 45.0497167,5.78011953 44.4878347,5.96728531 C43.8708662,6.17647059 43.93697,6.17647059 43.3420361,5.95627556 Z" id="Path" fill="#FDAD02"></path>
                            <path d="M53.7203274,5.98930481 C53.5440507,5.91223655 53.2245491,5.68103177 53.0152205,5.493866 L52.6296152,5.14155395 L52.5194423,5.50487575 C52.4092693,5.83516829 52.3541829,5.86819755 51.9685776,5.86819755 L51.5389031,5.86819755 L51.5278858,3.12676942 L51.5278858,0.374331551 L51.8033181,0.286253539 C51.9795949,0.231204781 52.210958,0.231204781 52.3762175,0.29726329 L52.6736844,0.418370557 L52.6736844,2.30103806 L52.6736844,4.19471532 L53.1033589,4.60207612 C53.632189,5.10852469 53.8966041,5.18559295 54.3372959,4.94337842 C54.9212125,4.62409563 55.0203681,4.17269582 54.9322298,2.15791129 L54.866126,0.418370557 L55.1525756,0.286253539 C55.3508869,0.198175527 55.5271636,0.187165775 55.7364922,0.264234036 L56.0339592,0.363321799 L56.0339592,2.23497955 C56.0339592,3.57816924 56.0780284,4.18370557 56.177184,4.35986159 C56.364478,4.67914439 56.9483946,5.04246618 57.2789135,5.04246618 C57.6975706,5.04246618 58.1492797,4.74520289 58.2374181,4.41491035 C58.2814872,4.24976408 58.3145391,3.28090595 58.3035218,2.26800881 L58.2814872,0.418370557 L58.5569196,0.29726329 C58.7001444,0.231204781 58.9535422,0.198175527 59.1188016,0.242214533 L59.4052513,0.319282793 L59.3721994,2.6093111 L59.3391475,4.89933941 L59.019646,5.30670022 C58.2814872,6.27555835 56.8712736,6.30858761 56.1992186,5.37275873 C55.8907344,4.94337842 55.6924231,4.95438817 55.4169907,5.41679774 C55.0974892,5.96728531 54.2822094,6.2425291 53.7203274,5.98930481 Z" id="Path" fill="#FDAD02"></path>
                            <path d="M67.3817724,5.96728531 C66.3351294,5.58194401 65.6740918,4.48096886 65.6740918,3.10474992 C65.6740918,2.45517458 65.7291782,2.1799308 65.9385068,1.76156024 C66.2580084,1.14501416 66.7978558,0.627555835 67.3266859,0.407360805 C67.8004296,0.22019503 69.9047328,0.198175527 70.0810095,0.374331551 C70.1471133,0.44039006 70.213217,0.638565587 70.2242343,0.814721611 L70.2462689,1.1340044 L69.0233493,1.1340044 C67.8555161,1.1340044 67.7894123,1.14501416 67.3927897,1.44227745 C66.9410806,1.79458949 66.5995445,2.38911607 66.6987001,2.66435986 C66.7537866,2.80748663 66.9631152,2.81849638 68.1309484,2.76344763 C68.8801244,2.73041837 69.6733696,2.73041837 69.8937155,2.77445738 L70.3013554,2.85152564 L70.3013554,3.677257 C70.3013554,4.92135892 69.9708366,5.47184649 68.9462282,5.91223655 C68.3292597,6.17647059 67.9987409,6.18748034 67.3817724,5.96728531 Z M68.9682628,4.8112614 C69.3208162,4.45894936 69.464041,4.10663731 69.3979373,3.75432526 C69.3648854,3.57816924 69.2106433,3.54513998 68.2080695,3.47908147 C67.5690664,3.44605222 66.9631152,3.43504247 66.8639596,3.46807172 C66.6215791,3.53413023 66.6105618,3.84240327 66.841925,4.30481283 C67.1393919,4.87731991 67.5360145,5.14155395 68.1199311,5.1525637 C68.5496056,5.1525637 68.6818131,5.09751494 68.9682628,4.8112614 Z" id="Shape" fill="#FDAD02"></path>
                            <path d="M10.4664297,5.8792073 C10.4443951,5.84617804 10.4223605,4.86631016 10.4333778,3.677257 C10.4443951,1.42025794 10.477447,1.24410192 11.0172944,0.748663102 C11.6342629,0.165146272 13.0885457,0.0110097515 13.9148428,0.429380308 C14.9835203,0.968858131 15.1267452,1.39823844 15.082676,3.94149103 L15.0496241,5.86819755 L14.4987594,5.86819755 L13.9478947,5.86819755 L13.9919639,3.98553004 C14.0250157,2.44416483 14.0029812,2.04781378 13.8597563,1.78357974 C13.6063586,1.29915068 13.4080473,1.16703366 12.8792171,1.16703366 C12.1961449,1.15602391 11.9537644,1.26612142 11.6893493,1.68449198 C11.4690034,2.03680403 11.4579861,2.2019503 11.4690034,3.85341302 C11.4800207,4.84429066 11.4800207,5.71406103 11.4800207,5.79112929 C11.4690034,5.91223655 10.5876199,5.98930481 10.4664297,5.8792073 Z" id="Path" fill="#3F3A36"></path>
                            <path d="M19.7319742,3.74331551 L19.7319742,1.55237496 L20.0624931,1.10097515 C20.6794615,0.253224284 22.1337444,-0.066058509 23.1803874,0.407360805 C24.2049957,0.88078012 24.3482206,1.24410192 24.3592379,3.677257 C24.3702552,4.75621265 24.3702552,5.71406103 24.3702552,5.79112929 C24.3592379,5.94526581 23.466837,5.97829506 23.3125949,5.82415854 C23.2464911,5.75810003 23.2244565,5.03145643 23.2575084,4.02956905 C23.3236122,1.99276502 23.3236122,1.97074552 22.9490242,1.51934571 C22.6735918,1.20006291 22.5854535,1.16703366 22.0676406,1.16703366 C21.6049143,1.16703366 21.4176203,1.22208242 21.219309,1.40924819 C20.7675999,1.82761875 20.6904788,2.27901856 20.734548,4.15067631 L20.7786172,5.86819755 L20.2608044,5.9012268 L19.7319742,5.93425606 L19.7319742,3.74331551 Z" id="Path" fill="#3F3A36"></path>
                            <path d="M49.3795134,5.82415854 C49.2583231,5.74709028 49.2252713,5.21862221 49.2362886,3.11575967 C49.2362886,1.67348223 49.2803577,0.462409563 49.3354442,0.418370557 C49.5117209,0.231204781 49.9744473,0.187165775 50.1617413,0.330292545 C50.338018,0.462409563 50.3600526,0.748663102 50.3600526,3.10474992 C50.3710699,5.1745832 50.3490353,5.75810003 50.2278451,5.82415854 C50.040551,5.94526581 49.5778247,5.94526581 49.3795134,5.82415854 Z" id="Path" fill="#FDAD02"></path>
                            <path d="M60.6612228,5.80213904 C60.6171536,5.73608053 60.5841018,4.51399811 60.5841018,3.09374017 C60.5841018,0.176156024 60.6061364,0.110097515 61.2781913,0.275243787 L61.641762,0.374331551 L61.6527793,3.12676942 L61.6527793,5.86819755 L61.190053,5.9012268 C60.9256379,5.9232463 60.705292,5.8792073 60.6612228,5.80213904 Z" id="Path" fill="#FDAD02"></path>
                        </g>
                    </g>
                </g>
            </g>
        </g>
    </g>
</svg>