<?xml version="1.0" encoding="UTF-8"?>
<svg width="240px" height="73px" viewBox="0 0 240 73" version="1.1" xmlns="http://www.w3.org/2000/svg" xmlns:xlink="http://www.w3.org/1999/xlink">
    <!-- Generator: sketchtool 60.1 (101010) - https://sketch.com -->
    <title>9077A09A-5291-4B51-8F8C-13B428C91D02</title>
    <desc>Created with sketchtool.</desc>
    <defs>
        <polygon id="path-1" points="0.312885246 0.380360656 15.2273115 0.380360656 15.2273115 7.37704918 0.312885246 7.37704918"></polygon>
        <polygon id="path-3" points="0 72.7868852 239.766393 72.7868852 239.766393 0.294590164 0 0.294590164"></polygon>
    </defs>
    <g id="Page-1" stroke="none" stroke-width="1" fill="none" fill-rule="evenodd">
        <g id="01-00-Index" transform="translate(-140.000000, -100.000000)">
            <g id="Header">
                <g id="Group-17" transform="translate(140.000000, 93.000000)">
                    <g id="Group-131" transform="translate(0.000000, 7.000000)">
                        <polygon id="Fill-1" fill="#FEFEFE" points="10.3649016 56.4580328 10.8522787 55.5718033 9.9537541 56.0340984"></polygon>
                        <g id="Group-130" transform="translate(0.000000, 0.197213)">
                            <path d="M12.9331475,57.0163279 L12.7433115,56.8751803 L12.3862623,57.3571475 L12.5500328,57.478623 C12.6783934,57.5740328 12.7851148,57.6187869 12.8706885,57.6123934 C12.9557705,57.606 13.024623,57.5681311 13.0762623,57.4982951 C13.1259344,57.4304262 13.1460984,57.3561639 13.1357705,57.2755082 C13.1259344,57.1953443 13.0580656,57.1082951 12.9331475,57.0163279" id="Fill-2" fill="#FEFEFE"></path>
                            <polygon id="Fill-4" fill="#FEFEFE" points="24.9569016 64.9305738 25.1398525 63.9361475 24.4326393 64.6581148"></polygon>
                            <path d="M25.5276885,66.3831639 L24.7560492,65.9818525 L24.8411311,65.5259508 L24.0045738,65.0907049 L23.6834262,65.4236557 L22.9304754,65.0321803 L25.0683443,63.1136557 L25.8719508,63.5316885 L25.5276885,66.3831639 Z M21.9099836,64.4970984 L23.1571967,62.1148033 L23.8949016,62.5013607 L22.6476885,64.8836557 L21.9099836,64.4970984 Z M20.794082,63.910377 L20.0598197,63.5218525 L21.0075246,61.7321803 L20.2580164,61.3357869 L20.5688361,60.7485738 L22.8011311,61.930377 L22.4908033,62.5170984 L21.7412951,62.1207049 L20.794082,63.910377 Z M18.3119508,62.587918 L18.1285082,60.8100492 L17.4262131,62.1093934 L16.7391639,61.7370984 L18.0173607,59.3720164 L18.6999836,59.7408689 L18.8834262,61.5310328 L19.5906393,60.2228361 L20.2796557,60.5951311 L19.0009672,62.9602131 L18.3119508,62.587918 Z M16.3432623,61.5211967 L14.3642459,60.415623 L15.6753934,58.0682459 L17.619,59.1541475 L17.3396557,59.6548033 L16.1219508,58.9751311 L15.913918,59.3484098 L17.0430984,59.9793934 L16.7755574,60.457918 L15.646377,59.8274262 L15.3876885,60.2902131 L16.6403115,60.9895574 L16.3432623,61.5211967 Z M13.1381803,59.7069344 L14.4837541,57.3787377 L15.2047377,57.7957869 L13.8586721,60.1234918 L13.1381803,59.7069344 Z M12.4280164,58.0657869 L12.0621148,57.7952951 L11.4685082,58.5969344 L10.7976885,58.1002131 L12.3980164,55.9397213 L13.5075246,56.7615246 C13.749,56.940541 13.8881803,57.1318525 13.9230984,57.3359508 C13.9585082,57.540541 13.8975246,57.7485738 13.7401475,57.960541 C13.5788361,58.1789016 13.386541,58.3008689 13.1647377,58.3264426 C12.9424426,58.3520164 12.6970328,58.265459 12.4280164,58.0657869 L12.4280164,58.0657869 Z M9.84260656,57.1948033 L10.0673607,56.7890656 L9.41080328,56.1123443 L9.00113115,56.3272623 L8.40998361,55.717918 L11.0435902,54.5715246 L11.6750656,55.2221803 L10.4480164,57.8193934 L9.84260656,57.1948033 Z M7.49670492,54.5857869 C7.21932787,54.2218525 7.09785246,53.9164426 7.13080328,53.6700492 C7.1642459,53.4231639 7.28178689,53.2082459 7.48391803,53.0252951 L8.00227869,53.6238197 C7.91031148,53.7157869 7.8532623,53.8023443 7.83211475,53.8849672 C7.79768852,54.0187377 7.82818033,54.1495574 7.92457377,54.2759508 C7.99686885,54.3698852 8.07408197,54.4259508 8.15719672,54.4431639 C8.24031148,54.460377 8.31113115,54.4470984 8.36965574,54.4028361 C8.4247377,54.360541 8.45572131,54.298082 8.46260656,54.2159508 C8.469,54.1343115 8.4247377,53.9897213 8.32883607,53.7831639 C8.17293443,53.4438197 8.10211475,53.1708689 8.11588525,52.9652951 C8.12916393,52.7587377 8.21916393,52.5915246 8.38637705,52.4641475 C8.49654098,52.3800492 8.62440984,52.3333279 8.77096721,52.3225082 C8.91752459,52.3111967 9.06703279,52.3485738 9.21998361,52.4341475 C9.37391803,52.5192295 9.53522951,52.6731639 9.70490164,52.8959508 C9.91293443,53.1693934 10.0211311,53.4162787 10.0285082,53.6370984 C10.036377,53.8584098 9.93998361,54.0669344 9.73883607,54.2626721 L9.22736066,53.668082 C9.31145902,53.5775902 9.3547377,53.4900492 9.35867213,53.403 C9.36162295,53.3169344 9.32768852,53.2274262 9.25637705,53.1339836 C9.19785246,53.0567705 9.13736066,53.0115246 9.07539344,52.9972623 C9.01293443,52.9834918 8.95883607,52.9943115 8.91211475,53.0297213 C8.87818033,53.0552951 8.8594918,53.0951311 8.85654098,53.1477541 C8.85211475,53.200377 8.88260656,53.2943115 8.94703279,53.4295574 C9.10490164,53.7659508 9.19932787,54.0207049 9.23129508,54.1943115 C9.26277049,54.367918 9.25293443,54.5189016 9.20178689,54.6477541 C9.15113115,54.7766066 9.06703279,54.8852951 8.95047541,54.9743115 C8.8132623,55.0790656 8.65785246,55.1370984 8.4847377,55.1493934 C8.31063934,55.1621803 8.14244262,55.1228361 7.97867213,55.0323443 C7.81539344,54.9418525 7.65408197,54.7928361 7.49670492,54.5857869 L7.49670492,54.5857869 Z M22.7185082,60.2311967 C20.2703115,58.9987377 17.7385082,57.7244754 15.5362131,56.2928361 C9.62572131,52.4513607 6.16195082,45.9728361 6.12752459,45.907918 L2.02539344,48.8498852 C2.19113115,49.1661148 5.37260656,56.2751311 12.5258852,60.9241475 C14.9829344,62.5220164 17.6529344,63.865623 20.2344098,65.1649672 C23.3396557,66.727918 25.6949016,67.7774262 27.6247377,69.395459 L29.8658852,65.1639836 L31.1185082,65.7900492 L31.4991639,65.335623 C29.0775246,63.305459 26.1178525,61.9421803 22.7185082,60.2311967 L22.7185082,60.2311967 Z" id="Fill-6" fill="#FEFEFE"></path>
                            <g id="Group-10" transform="translate(27.049180, 65.409836)">
                                <mask id="mask-2" fill="white">
                                    <use xlink:href="#path-1"></use>
                                </mask>
                                <g id="Clip-9"></g>
                                <path d="M12.0768197,5.1272459 C11.9607541,5.18478689 11.8146885,5.21331148 11.6381311,5.21331148 C11.3287869,5.21331148 11.1138689,5.14593443 10.9948525,5.01216393 C10.8758361,4.87790164 10.8079672,4.7077377 10.7922295,4.50118033 L11.3278033,4.46281967 C11.3391148,4.56118033 11.3627213,4.63544262 11.398623,4.68659016 C11.4566557,4.76921311 11.5392787,4.81101639 11.6469836,4.81101639 C11.7271475,4.81101639 11.7891148,4.78986885 11.8323934,4.74757377 C11.8761639,4.70527869 11.8978033,4.65609836 11.8978033,4.60003279 C11.8978033,4.54691803 11.8771475,4.49970492 11.8358361,4.45740984 C11.7945246,4.41560656 11.6981311,4.3762623 11.5476393,4.33888525 C11.3007541,4.27642623 11.1246885,4.19380328 11.0194426,4.09052459 C10.9137049,3.9872459 10.8605902,3.85544262 10.8605902,3.69511475 C10.8605902,3.58986885 10.8876393,3.49052459 10.9422295,3.39708197 C10.9963279,3.30363934 11.0779672,3.22986885 11.1866557,3.1762623 C11.2958361,3.12265574 11.4448525,3.09609836 11.6346885,3.09609836 C11.8673115,3.09609836 12.0448525,3.14478689 12.1668197,3.24216393 C12.2892787,3.33904918 12.3615738,3.49396721 12.3846885,3.70593443 L11.8545246,3.74134426 C11.8407541,3.64888525 11.8107541,3.582 11.7655082,3.54019672 C11.7202623,3.49790164 11.6578033,3.4772459 11.578623,3.4772459 C11.5132131,3.4772459 11.4640328,3.49298361 11.431082,3.52396721 C11.3976393,3.55544262 11.380918,3.59331148 11.380918,3.63757377 C11.380918,3.67052459 11.3946885,3.70003279 11.4222295,3.72560656 C11.4487869,3.75314754 11.5117377,3.7777377 11.611082,3.80134426 C11.8569836,3.86085246 12.0330492,3.92134426 12.1397705,3.98183607 C12.246,4.04281967 12.3232131,4.11855738 12.3719016,4.20904918 C12.4200984,4.29904918 12.4446885,4.40036066 12.4446885,4.512 C12.4446885,4.64331148 12.4122295,4.76429508 12.3473115,4.87544262 C12.2828852,4.98609836 12.1923934,5.07019672 12.0768197,5.1272459 L12.0768197,5.1272459 Z M10.568459,4.35068852 C10.568459,4.47167213 10.5517377,4.58577049 10.5182951,4.69347541 C10.4848525,4.80068852 10.4322295,4.89462295 10.3604262,4.97527869 C10.2891148,5.05544262 10.213377,5.1124918 10.1351803,5.14495082 C10.026,5.19019672 9.89468852,5.21331148 9.7412459,5.21331148 C9.65272131,5.21331148 9.55632787,5.20642623 9.45157377,5.19216393 C9.34632787,5.17839344 9.25927869,5.15036066 9.18845902,5.10904918 C9.11813115,5.0677377 9.05419672,5.00921311 8.99518033,4.9324918 C8.93714754,4.8562623 8.89681967,4.77757377 8.87567213,4.69691803 C8.8407541,4.56609836 8.82354098,4.45101639 8.82354098,4.35068852 L8.82354098,3.13052459 L9.38468852,3.13052459 L9.38468852,4.37970492 C9.38468852,4.49134426 9.41222951,4.57839344 9.46731148,4.64134426 C9.52239344,4.70429508 9.59911475,4.73577049 9.6964918,4.73577049 C9.79337705,4.73577049 9.86960656,4.70478689 9.92468852,4.64281967 C9.97977049,4.58085246 10.0073115,4.49331148 10.0073115,4.37970492 L10.0073115,3.13052459 L10.568459,3.13052459 L10.568459,4.35068852 Z M8.49304918,4.87544262 C8.42911475,4.98609836 8.33813115,5.07019672 8.22255738,5.1272459 C8.1064918,5.18478689 7.96042623,5.21331148 7.78386885,5.21331148 C7.47452459,5.21331148 7.26009836,5.14593443 7.14059016,5.01216393 C7.02157377,4.87790164 6.95370492,4.7077377 6.93796721,4.50118033 L7.47354098,4.46281967 C7.48534426,4.56118033 7.50845902,4.63544262 7.54436066,4.68659016 C7.60239344,4.76921311 7.68501639,4.81101639 7.79272131,4.81101639 C7.87288525,4.81101639 7.93485246,4.78986885 7.97813115,4.74757377 C8.02190164,4.70527869 8.04354098,4.65609836 8.04354098,4.60003279 C8.04354098,4.54691803 8.02288525,4.49970492 7.98157377,4.45740984 C7.9402623,4.41560656 7.84436066,4.3762623 7.69288525,4.33888525 C7.4464918,4.27642623 7.27091803,4.19380328 7.16518033,4.09052459 C7.05944262,3.9872459 7.00632787,3.85544262 7.00632787,3.69511475 C7.00632787,3.58986885 7.03337705,3.49052459 7.08796721,3.39708197 C7.14206557,3.30363934 7.22321311,3.22986885 7.33288525,3.1762623 C7.44108197,3.12265574 7.59059016,3.09609836 7.78042623,3.09609836 C8.01304918,3.09609836 8.19059016,3.14478689 8.31255738,3.24216393 C8.43501639,3.33904918 8.50731148,3.49396721 8.53042623,3.70593443 L8.0002623,3.74134426 C7.986,3.64888525 7.9564918,3.582 7.9112459,3.54019672 C7.866,3.49790164 7.80403279,3.4772459 7.72436066,3.4772459 C7.65895082,3.4772459 7.60977049,3.49298361 7.57681967,3.52396721 C7.54337705,3.55544262 7.52714754,3.59331148 7.52714754,3.63757377 C7.52714754,3.67052459 7.54042623,3.70003279 7.56796721,3.72560656 C7.59452459,3.75314754 7.65747541,3.7777377 7.75681967,3.80134426 C8.00272131,3.86085246 8.17878689,3.92134426 8.2855082,3.98183607 C8.3912459,4.04281967 8.46944262,4.11855738 8.51763934,4.20904918 C8.56583607,4.29904918 8.59042623,4.40036066 8.59042623,4.512 C8.59042623,4.64331148 8.55796721,4.76429508 8.49304918,4.87544262 L8.49304918,4.87544262 Z M6.27108197,5.17839344 L5.97009836,4.55281967 C5.93222951,4.47167213 5.89829508,4.41904918 5.86829508,4.39495082 C5.82796721,4.36298361 5.78222951,4.3472459 5.73059016,4.3472459 L5.68091803,4.3472459 L5.68091803,5.17839344 L5.11583607,5.17839344 L5.11583607,3.13052459 L6.05370492,3.13052459 C6.22731148,3.13052459 6.36059016,3.1477377 6.45206557,3.18118033 C6.54403279,3.21462295 6.61829508,3.27659016 6.67485246,3.36757377 C6.73091803,3.45806557 6.75895082,3.56872131 6.75895082,3.69954098 C6.75895082,3.81265574 6.73780328,3.91101639 6.69452459,3.99314754 C6.6517377,4.07577049 6.59222951,4.14216393 6.5164918,4.19380328 C6.46878689,4.2262623 6.40288525,4.25331148 6.31927869,4.27495082 C6.38616393,4.29954098 6.43534426,4.32511475 6.46583607,4.35019672 C6.4864918,4.36691803 6.516,4.40281967 6.55534426,4.45790164 C6.59518033,4.5124918 6.6212459,4.55527869 6.63452459,4.58478689 L6.90698361,5.17839344 L6.27108197,5.17839344 Z M4.74895082,4.72790164 C4.67714754,4.88085246 4.57337705,5.00036066 4.43813115,5.08544262 C4.30239344,5.17052459 4.13419672,5.21331148 3.93157377,5.21331148 C3.7264918,5.21331148 3.55632787,5.17642623 3.42206557,5.10265574 C3.28731148,5.02937705 3.17813115,4.91281967 3.09452459,4.75347541 C3.01091803,4.59462295 2.96911475,4.39544262 2.96911475,4.15593443 C2.96911475,3.8215082 3.0517377,3.56134426 3.21747541,3.37495082 C3.38321311,3.18904918 3.61386885,3.09609836 3.90944262,3.09609836 C4.21239344,3.09609836 4.446,3.18757377 4.60977049,3.37052459 C4.77403279,3.55347541 4.85567213,3.80970492 4.85567213,4.13921311 C4.85567213,4.37872131 4.8202623,4.57445902 4.74895082,4.72790164 L4.74895082,4.72790164 Z M12.1338689,0.380360656 C12.1338689,0.380360656 10.4032131,1.48495082 7.82518033,1.48495082 C5.24714754,1.48495082 3.22190164,0.453639344 3.22190164,0.453639344 L0.312885246,6.12511475 C0.312885246,6.12511475 3.5164918,7.3772459 7.82518033,7.3772459 C12.1338689,7.3772459 15.2273115,5.79363934 15.2273115,5.79363934 L12.1338689,0.380360656 Z" id="Fill-8" fill="#FEFEFE" mask="url(#mask-2)"></path>
                            </g>
                            <path d="M30.9574426,68.9848033 C30.8443279,68.9848033 30.7528525,69.0300492 30.684,69.1200492 C30.6151475,69.210541 30.5807213,69.3600492 30.5807213,69.5685738 C30.5807213,69.7751311 30.6151475,69.9236557 30.6835082,70.0141475 C30.7518689,70.1041475 30.8448197,70.1493934 30.9623607,70.1493934 C31.0828525,70.1493934 31.1767869,70.1051311 31.2431803,70.0170984 C31.3095738,69.9285738 31.3425246,69.7697213 31.3425246,69.540541 C31.3425246,69.3477541 31.3080984,69.2070984 31.2387541,69.118082 C31.1699016,69.0290656 31.0759672,68.9848033 30.9574426,68.9848033" id="Fill-11" fill="#FEFEFE"></path>
                            <path d="M32.9775246,68.9540656 L32.7301475,68.9540656 L32.7301475,69.3701311 L32.9671967,69.3701311 C32.9932623,69.3701311 33.0429344,69.3607869 33.1162131,69.3425902 C33.1535902,69.3337377 33.1845738,69.3125902 33.2076885,69.2781639 C33.2312951,69.2437377 33.2430984,69.2039016 33.2430984,69.1591475 C33.2430984,69.0932459 33.2249016,69.0425902 33.1875246,69.0071803 C33.1501475,68.9717705 33.0798197,68.9540656 32.9775246,68.9540656" id="Fill-13" fill="#FEFEFE"></path>
                            <path d="M44.9070984,63.7601311 C44.8367705,63.7443934 44.7339836,63.7709508 44.5997213,63.8407869 L44.275623,64.0084918 L44.5269344,64.4939016 L44.8377541,64.333082 C44.8716885,64.315377 44.9311967,64.2711148 45.0167705,64.1993115 C45.060541,64.1639016 45.0870984,64.1186557 45.0974262,64.0620984 C45.1077541,64.0060328 45.0993934,63.9519344 45.0723443,63.8998033 C45.0320164,63.8225902 44.9774262,63.7758689 44.9070984,63.7601311" id="Fill-15" fill="#FEFEFE"></path>
                            <path d="M47.735459,62.455918 C47.5908689,62.3998525 47.4408689,62.4116557 47.2859508,62.4923115 C47.1374262,62.5695246 47.045459,62.6841148 47.0100492,62.836082 C46.9746393,62.988541 47.020377,63.1857541 47.1467705,63.4291967 C47.2716885,63.6696885 47.4069344,63.8191967 47.5510328,63.8782131 C47.6951311,63.9367377 47.8441475,63.925918 47.9985738,63.8457541 C48.1564426,63.763623 48.2523443,63.6480492 48.2857869,63.5000164 C48.3187377,63.3519836 48.2661148,63.1444426 48.1274262,62.8773934 C48.010377,62.6526393 47.8795574,62.5124754 47.735459,62.455918" id="Fill-17" fill="#FEFEFE"></path>
                            <path d="M52.6911639,59.7164262 C52.6139508,59.6908525 52.5067377,59.714459 52.3700164,59.7872459 L52.1605082,59.8979016 L52.4418197,60.4280656 L52.6213279,60.3321639 C52.7629672,60.2579016 52.8490328,60.1801967 52.8805082,60.1010164 C52.9114918,60.0213443 52.9070656,59.9431475 52.8662459,59.8664262 C52.8269016,59.7916721 52.768377,59.742 52.6911639,59.7164262" id="Fill-19" fill="#FEFEFE"></path>
                            <path d="M57.3109672,56.674377 C57.2391639,56.6763443 57.1467049,56.7279836 57.0335902,56.8288033 L56.7611311,57.0722459 L57.1255574,57.479459 L57.3867049,57.2463443 C57.4147377,57.2207705 57.461459,57.1632295 57.5258852,57.0722459 C57.5598197,57.0274918 57.5750656,56.9768361 57.5706393,56.9197869 C57.5667049,56.8627377 57.5450656,56.812082 57.5057213,56.7683115 C57.4481803,56.7038852 57.3827705,56.6724098 57.3109672,56.674377" id="Fill-21" fill="#FEFEFE"></path>
                            <polygon id="Fill-23" fill="#FEFEFE" points="62.6441803 52.0257541 61.6777869 51.7272295 62.3117213 52.513623"></polygon>
                            <path d="M42.3265574,65.1192787 C42.2493443,65.0927213 42.1421311,65.1153443 42.0039344,65.1866557 L41.7939344,65.2948525 L42.0693443,65.8279672 L42.2498361,65.7345246 C42.392459,65.6612459 42.4795082,65.5850164 42.5114754,65.5058361 C42.5434426,65.4266557 42.54,65.348459 42.5001639,65.2712459 C42.4608197,65.1964918 42.4032787,65.1458361 42.3265574,65.1192787" id="Fill-25" fill="#FEFEFE"></path>
                            <path d="M62.9616393,49.5933934 C62.9995082,49.6140492 63.0427869,49.614541 63.0919672,49.5948689 C63.1416393,49.5771639 63.214918,49.5112623 63.3113115,49.3966721 C63.5522951,49.1133934 63.745082,48.922082 63.8901639,48.8217541 C64.0352459,48.7214262 64.1768852,48.6678197 64.315082,48.6609344 C64.4537705,48.6540492 64.587541,48.6855246 64.7163934,48.7548689 C64.8683607,48.8365082 64.9859016,48.9540492 65.0690164,49.107 C65.1521311,49.259459 65.1855738,49.4291311 65.1708197,49.6155246 C65.1560656,49.801918 65.0867213,50.0099508 64.9632787,50.2391311 C64.7468852,50.641918 64.5191803,50.879459 64.2811475,50.9507705 C64.0421311,51.0225738 63.7981967,51.004377 63.5478689,50.8961803 L63.8788525,50.1766721 C63.9998361,50.2224098 64.102623,50.2381475 64.1867213,50.2233934 C64.3234426,50.1997869 64.4291803,50.1176557 64.5044262,49.9779836 C64.5604918,49.8732295 64.5796721,49.7797869 64.5604918,49.6966721 C64.5418033,49.6140492 64.5004918,49.5550328 64.4360656,49.5201148 C64.3745902,49.4871639 64.3052459,49.4847049 64.2280328,49.5122459 C64.1503279,49.5402787 64.0377049,49.6406066 63.8891803,49.8132295 C63.6442623,50.0955246 63.4254098,50.2725738 63.2321311,50.3448689 C63.0383607,50.4186393 62.8490164,50.4053607 62.6640984,50.3060164 C62.5421311,50.2406066 62.4462295,50.1437213 62.3759016,50.0148689 C62.3055738,49.8860164 62.277541,49.7340492 62.2918033,49.5589672 C62.3060656,49.384377 62.3793443,49.1733934 62.5121311,48.927 C62.674918,48.6240492 62.854918,48.4238852 63.0531148,48.3255246 C63.2513115,48.2271639 63.4809836,48.2291311 63.742623,48.3309344 L63.4121311,49.0425738 C63.2955738,49.0032295 63.1972131,48.9997869 63.117541,49.0327377 C63.037377,49.0651967 62.9695082,49.1330656 62.9139344,49.2368361 C62.8681967,49.321918 62.8519672,49.3956885 62.8647541,49.4581475 C62.877541,49.5206066 62.91,49.5658525 62.9616393,49.5933934 L62.9616393,49.5933934 Z M63.6639344,52.349459 L63.2218033,52.2102787 L62.6906557,52.9902787 L62.9837705,53.3483115 L62.5062295,54.049623 L60.8522951,51.7007705 L61.3632787,50.9517541 L64.1537705,51.6299508 L63.6639344,52.349459 Z M61.3962295,55.3932295 L59.8298361,54.1106066 L59.2932787,54.7661803 L58.7793443,54.3456885 L60.3796721,52.3912623 L60.8931148,52.8117541 L60.3565574,53.4673279 L61.9229508,54.7504426 L61.3962295,55.3932295 Z M59.8736066,57.0771639 L57.9206557,55.2289672 L58.492623,54.624541 L60.4460656,56.4722459 L59.8736066,57.0771639 Z M58.8403279,58.0922459 L57.9614754,57.7750328 C57.8488525,57.7332295 57.7657377,57.7150328 57.7116393,57.7204426 C57.6393443,57.7297869 57.574918,57.7592951 57.5183607,57.8099508 L57.4632787,57.8586393 L58.1901639,58.6725738 L57.567541,59.2283115 L55.777377,57.2227377 L56.8101639,56.3001148 C57.0014754,56.129459 57.1627869,56.0148689 57.2936066,55.9573279 C57.4239344,55.9002787 57.5596721,55.8879836 57.7013115,55.921918 C57.842459,55.9553607 57.9703279,56.0360164 58.0844262,56.1633934 C58.1837705,56.274541 58.2457377,56.392082 58.2703279,56.5150328 C58.294918,56.6379836 58.2880328,56.761918 58.2496721,56.8863443 C58.225082,56.9655246 58.1763934,57.0565082 58.1031148,57.1597869 C58.1985246,57.1184754 58.2747541,57.0953607 58.3303279,57.0899508 C58.3681967,57.0860164 58.4321311,57.0914262 58.5236066,57.1066721 C58.615082,57.121918 58.6809836,57.1376557 58.7218033,57.1538852 L59.5406557,57.4671639 L58.8403279,58.0922459 Z M54.8916393,60.8783115 L53.5839344,58.5289672 L55.53,57.4460164 L55.8088525,57.9476557 L54.5906557,58.6258525 L54.7986885,58.9991311 L55.9283607,58.3701148 L56.1954098,58.849623 L55.0657377,59.4781475 L55.3234426,59.9414262 L56.5765574,59.2440492 L56.872623,59.7761803 L54.8916393,60.8783115 Z M53.6513115,60.1435574 C53.5790164,60.3550328 53.3945902,60.5389672 53.0985246,60.6963443 L52.6967213,60.9092951 L53.1639344,61.7906066 L52.4267213,62.1815902 L51.1672131,59.8061803 L52.387377,59.1589672 C52.6534426,59.0183115 52.8855738,58.9760164 53.0852459,59.032082 C53.2844262,59.0886393 53.4462295,59.2332295 53.5696721,59.4668361 C53.6970492,59.7063443 53.7240984,59.932082 53.6513115,60.1435574 L53.6513115,60.1435574 Z M51.48,62.6025738 C51.3634426,62.7486393 51.1898361,62.881918 50.9591803,63.0029016 C50.5539344,63.2148689 50.2327869,63.2837213 49.9952459,63.209459 C49.7572131,63.1351967 49.564918,62.9832295 49.4183607,62.7530656 L50.0960656,62.3429016 C50.1708197,62.4486393 50.2470492,62.5189672 50.3247541,62.554377 C50.4511475,62.6109344 50.5844262,62.6025738 50.7255738,62.5288033 C50.8303279,62.4737213 50.8986885,62.4068361 50.9296721,62.3276557 C50.9606557,62.2484754 50.9591803,62.1766721 50.9247541,62.1117541 C50.8927869,62.0497869 50.8367213,62.0089672 50.757541,61.9883115 C50.677377,61.9681475 50.527377,61.9878197 50.3080328,62.0478197 C49.9470492,62.1442131 49.6662295,62.1683115 49.4660656,62.1201148 C49.2644262,62.0724098 49.114918,61.9553607 49.0170492,61.7689672 C48.9531148,61.6465082 48.9280328,61.5127377 48.9418033,61.3666721 C48.9555738,61.2206066 49.017541,61.0789672 49.1277049,60.9422459 C49.237377,60.8050328 49.4163934,60.6717541 49.6642623,60.541918 C49.9686885,60.3825738 50.2303279,60.3176557 50.4496721,60.3471639 C50.6685246,60.3766721 50.8578689,60.507 51.0177049,60.7381475 L50.3454098,61.141918 C50.2701639,61.044541 50.1909836,60.987 50.1063934,60.9688033 C50.0213115,60.9510984 49.927377,60.9692951 49.8236066,61.0238852 C49.7380328,61.0686393 49.6829508,61.1207705 49.6583607,61.1792951 C49.6342623,61.2383115 49.6357377,61.2938852 49.6627869,61.3460164 C49.6829508,61.3838852 49.7183607,61.4084754 49.77,61.4202787 C49.8216393,61.4335574 49.9185246,61.4197869 50.0631148,61.3784754 C50.4211475,61.279623 50.6881967,61.2289672 50.8642623,61.227 C51.0408197,61.2250328 51.1883607,61.2599508 51.3068852,61.3317541 C51.4254098,61.4040492 51.5183607,61.5048689 51.5862295,61.6347049 C51.6663934,61.7876557 51.6983607,61.9504426 51.6811475,62.1235574 C51.6639344,62.2966721 51.5970492,62.4565082 51.48,62.6025738 L51.48,62.6025738 Z M48.895082,63.8910984 C48.7696721,64.0824098 48.5744262,64.2471639 48.3098361,64.3848689 C48.0408197,64.524541 47.7959016,64.5978197 47.5745902,64.6037213 C47.3542623,64.609623 47.1408197,64.5486393 46.9342623,64.4197869 C46.7286885,64.2914262 46.5531148,64.0878197 46.4080328,63.8089672 C46.2054098,63.419459 46.1562295,63.0599508 46.2604918,62.7299508 C46.3642623,62.4004426 46.6101639,62.134377 46.9972131,61.9332295 C47.3940984,61.7266721 47.7555738,61.6740492 48.0816393,61.7758525 C48.4067213,61.8771639 48.6693443,62.1201148 48.8695082,62.5037213 C49.0145902,62.7825738 49.0863934,63.0358525 49.0854198,63.2630656 C49.0844262,63.4902787 49.0209836,63.6997869 48.895082,63.8910984 L48.895082,63.8910984 Z M46.0362295,65.5135574 L45.2640984,64.9878197 C45.1647541,64.919459 45.0885246,64.8810984 45.034918,64.8732295 C44.962623,64.8638852 44.8927869,64.8766721 44.8259016,64.9110984 L44.7604918,64.9450328 L45.262623,65.914377 L44.5209836,66.2979836 L43.2845902,63.9102787 L44.5145902,63.2733934 C44.7427869,63.1553607 44.9267213,63.084541 45.0678689,63.0614262 C45.2085246,63.0378197 45.3432787,63.0599508 45.4716393,63.1278197 C45.6004918,63.1956885 45.7042623,63.3048689 45.7829508,63.4573279 C45.8513115,63.589623 45.8822951,63.7184754 45.8754098,63.8438852 C45.8690164,63.9692951 45.8311475,64.0878197 45.7637705,64.1984754 C45.7204918,64.2692951 45.6501639,64.3450328 45.5537705,64.4271639 C45.6565574,64.4109344 45.7357377,64.4074918 45.7908197,64.4158525 C45.8286885,64.4212623 45.8891803,64.4424098 45.9742623,64.4802787 C46.0588525,64.5176557 46.1188525,64.5491311 46.1542623,64.5747049 L46.8698361,65.0817541 L46.0362295,65.5135574 Z M43.2816393,65.5568361 C43.207377,65.7678197 43.0204918,65.9497869 42.7229508,66.1032295 L42.3186885,66.3122459 L42.7765574,67.1984754 L42.034918,67.5815902 L40.8014754,65.191918 L42.0290164,64.5589672 C42.2960656,64.4207705 42.5291803,64.3809344 42.7278689,64.439459 C42.9265574,64.4979836 43.0863934,64.644541 43.2078689,64.879623 C43.3322951,65.1206066 43.3568852,65.3463443 43.2816393,65.5568361 L43.2816393,65.5568361 Z M53.967541,56.2932295 C51.7652459,57.724377 49.2339344,58.9991311 46.7857377,60.2310984 C43.3859016,61.942082 40.4267213,63.3053607 38.0045902,65.3355246 L38.3857377,65.7899508 L39.6378689,65.1638852 L41.8790164,69.3953607 C43.8093443,67.7778197 46.1640984,66.7278197 49.2693443,65.1653607 C51.8513115,63.8655246 54.5208197,62.521918 56.9783607,60.924541 C64.1311475,56.2750328 67.312623,49.1660164 67.4783607,48.8497869 L63.3762295,45.9078197 C63.3418033,45.9727377 59.8780328,52.4512623 53.967541,56.2932295 L53.967541,56.2932295 Z" id="Fill-27" fill="#FEFEFE"></path>
                            <path d="M1.69396721,47.9292295 L6.11331148,44.578082 L7.9915082,46.9716885 C7.9915082,46.9716885 8.94855738,45.7195574 7.88085246,44.2834918 C6.81314754,42.8474262 5.56101639,41.9262787 5.56101639,41.9262787 L0.000196721311,46.3825082 L1.69396721,47.9292295 Z" id="Fill-29" fill="#FEFEFE"></path>
                            <path d="M84.6473607,52.5413115 L84.6473607,54.4229508 C84.6473607,56.6891803 83.5142459,57.9840984 81.3286721,57.9840984 C79.1435902,57.9840984 78.0104754,56.6891803 78.0104754,54.4229508 L78.0104754,47.0577049 C78.0104754,44.7909836 79.1435902,43.4960656 81.3286721,43.4960656 C83.5142459,43.4960656 84.6473607,44.7909836 84.6473607,47.0577049 L84.6473607,48.4337705 L82.5429344,48.4337705 L82.5429344,46.9160656 C82.5429344,45.9039344 82.0978525,45.5198361 81.3896557,45.5198361 C80.681459,45.5198361 80.236377,45.9039344 80.236377,46.9160656 L80.236377,54.565082 C80.236377,55.5762295 80.681459,55.9406557 81.3896557,55.9406557 C82.0978525,55.9406557 82.5429344,55.5762295 82.5429344,54.565082 L82.5429344,52.5413115 L84.6473607,52.5413115 Z" id="Fill-31" fill="#FEFEFE"></path>
                            <path d="M88.047,54.5649836 C88.047,55.576623 88.492082,55.9607213 89.2002787,55.9607213 C89.9084754,55.9607213 90.3535574,55.576623 90.3535574,54.5649836 L90.3535574,46.9159672 C90.3535574,45.9043279 89.9084754,45.5197377 89.2002787,45.5197377 C88.492082,45.5197377 88.047,45.9043279 88.047,46.9159672 L88.047,54.5649836 Z M85.8210984,47.0576066 C85.8210984,44.7908852 87.0147049,43.4959672 89.2002787,43.4959672 C91.3858525,43.4959672 92.579459,44.7908852 92.579459,47.0576066 L92.579459,54.4228525 C92.579459,56.689082 91.3858525,57.9844918 89.2002787,57.9844918 C87.0147049,57.9844918 85.8210984,56.689082 85.8210984,54.4228525 L85.8210984,47.0576066 Z" id="Fill-33" fill="#FEFEFE"></path>
                            <polygon id="Fill-35" fill="#FEFEFE" points="94.0166066 43.6583607 96.2425082 43.6583607 96.2425082 55.7990164 99.9049672 55.7990164 99.9049672 57.8222951 94.0166066 57.8222951"></polygon>
                            <polygon id="Fill-37" fill="#FEFEFE" points="100.876377 43.6583607 103.102279 43.6583607 103.102279 55.7990164 106.764738 55.7990164 106.764738 57.8222951 100.876377 57.8222951"></polygon>
                            <polygon id="Fill-39" fill="#FEFEFE" points="109.962 49.6272787 113.017574 49.6272787 113.017574 51.6505574 109.962 51.6505574 109.962 55.798918 113.806918 55.798918 113.806918 57.8226885 107.736098 57.8226885 107.736098 43.6582623 113.806918 43.6582623 113.806918 45.6820328 109.962 45.6820328"></polygon>
                            <path d="M118.521738,49.9310164 L121.637803,49.9310164 L121.637803,54.4226557 C121.637803,56.689377 120.504689,57.9842951 118.319115,57.9842951 C116.134033,57.9842951 115.000918,56.689377 115.000918,54.4226557 L115.000918,47.0574098 C115.000918,44.7911803 116.134033,43.4962623 118.319115,43.4962623 C120.504689,43.4962623 121.637803,44.7911803 121.637803,47.0574098 L121.637803,48.4339672 L119.533377,48.4339672 L119.533377,46.9162623 C119.533377,45.9041311 119.088295,45.5200328 118.380098,45.5200328 C117.671902,45.5200328 117.22682,45.9041311 117.22682,46.9162623 L117.22682,54.5647869 C117.22682,55.5764262 117.671902,55.9408525 118.380098,55.9408525 C119.088295,55.9408525 119.533377,55.5764262 119.533377,54.5647869 L119.533377,51.9542951 L118.521738,51.9542951 L118.521738,49.9310164 Z" id="Fill-41" fill="#FEFEFE"></path>
                            <polygon id="Fill-43" fill="#FEFEFE" points="125.300852 49.6272787 128.355934 49.6272787 128.355934 51.6505574 125.300852 51.6505574 125.300852 55.798918 129.145279 55.798918 129.145279 57.8226885 123.074951 57.8226885 123.074951 43.6582623 129.145279 43.6582623 129.145279 45.6820328 125.300852 45.6820328"></polygon>
                            <path d="M135.702197,54.5649836 C135.702197,55.576623 136.146787,55.9607213 136.854984,55.9607213 C137.563672,55.9607213 138.008754,55.576623 138.008754,54.5649836 L138.008754,46.9159672 C138.008754,45.9043279 137.563672,45.5197377 136.854984,45.5197377 C136.146787,45.5197377 135.702197,45.9043279 135.702197,46.9159672 L135.702197,54.5649836 Z M133.476295,47.0576066 C133.476295,44.7908852 134.669902,43.4959672 136.854984,43.4959672 C139.041049,43.4959672 140.234656,44.7908852 140.234656,47.0576066 L140.234656,54.4228525 C140.234656,56.689082 139.041049,57.9844918 136.854984,57.9844918 C134.669902,57.9844918 133.476295,56.689082 133.476295,54.4228525 L133.476295,47.0576066 Z" id="Fill-45" fill="#FEFEFE"></path>
                            <polygon id="Fill-47" fill="#FEFEFE" points="143.897852 49.9514262 146.770967 49.9514262 146.770967 51.9747049 143.897852 51.9747049 143.897852 57.8222459 141.671951 57.8222459 141.671951 43.6583115 147.560311 43.6583115 147.560311 45.6815902 143.897852 45.6815902"></polygon>
                            <polygon id="Fill-49" fill="#FEFEFE" points="156.483787 53.7149016 158.001492 43.6585082 161.097393 43.6585082 161.097393 57.8224426 158.993459 57.8224426 158.993459 47.6647377 157.455098 57.8224426 155.350672 57.8224426 153.691328 47.806377 153.691328 57.8224426 151.749197 57.8224426 151.749197 43.6585082 154.844607 43.6585082"></polygon>
                            <path d="M164.841295,53.3301639 L166.986541,53.3301639 L165.913918,46.167541 L164.841295,53.3301639 Z M169.920639,57.8222951 L167.674574,57.8222951 L167.289984,55.252623 L164.558016,55.252623 L164.173918,57.8222951 L162.129984,57.8222951 L164.396213,43.6583607 L167.653918,43.6583607 L169.920639,57.8222951 Z" id="Fill-51" fill="#FEFEFE"></path>
                            <polygon id="Fill-53" fill="#FEFEFE" points="172.935639 47.5632787 172.935639 57.8222951 170.932525 57.8222951 170.932525 43.6583607 173.724984 43.6583607 176.010885 52.1365574 176.010885 43.6583607 177.994328 43.6583607 177.994328 57.8222951 175.707934 57.8222951"></polygon>
                            <path d="M181.717721,53.3301639 L183.862967,53.3301639 L182.789852,46.167541 L181.717721,53.3301639 Z M186.797066,57.8222951 L184.550508,57.8222951 L184.16641,55.252623 L181.434443,55.252623 L181.050344,57.8222951 L179.00641,57.8222951 L181.272639,43.6583607 L184.530344,43.6583607 L186.797066,57.8222951 Z" id="Fill-55" fill="#FEFEFE"></path>
                            <path d="M191.147951,49.9310164 L194.264016,49.9310164 L194.264016,54.4226557 C194.264016,56.689377 193.130902,57.9842951 190.945328,57.9842951 C188.759754,57.9842951 187.627131,56.689377 187.627131,54.4226557 L187.627131,47.0574098 C187.627131,44.7911803 188.759754,43.4962623 190.945328,43.4962623 C193.130902,43.4962623 194.264016,44.7911803 194.264016,47.0574098 L194.264016,48.4339672 L192.15959,48.4339672 L192.15959,46.9162623 C192.15959,45.9041311 191.714508,45.5200328 191.00582,45.5200328 C190.297623,45.5200328 189.853033,45.9041311 189.853033,46.9162623 L189.853033,54.5647869 C189.853033,55.5764262 190.297623,55.9408525 191.00582,55.9408525 C191.714508,55.9408525 192.15959,55.5764262 192.15959,54.5647869 L192.15959,51.9542951 L191.147951,51.9542951 L191.147951,49.9310164 Z" id="Fill-57" fill="#FEFEFE"></path>
                            <polygon id="Fill-59" fill="#FEFEFE" points="197.92682 49.6272787 200.981902 49.6272787 200.981902 51.6505574 197.92682 51.6505574 197.92682 55.798918 201.771246 55.798918 201.771246 57.8226885 195.700918 57.8226885 195.700918 43.6582623 201.771246 43.6582623 201.771246 45.6820328 197.92682 45.6820328"></polygon>
                            <polygon id="Fill-61" fill="#FEFEFE" points="207.862574 53.7149016 209.380279 43.6585082 212.47618 43.6585082 212.47618 57.8224426 210.372246 57.8224426 210.372246 47.6647377 208.833885 57.8224426 206.729459 57.8224426 205.070115 47.806377 205.070115 57.8224426 203.127984 57.8224426 203.127984 43.6585082 206.223393 43.6585082"></polygon>
                            <polygon id="Fill-63" fill="#FEFEFE" points="216.321443 49.6272787 219.376525 49.6272787 219.376525 51.6505574 216.321443 51.6505574 216.321443 55.798918 220.165869 55.798918 220.165869 57.8226885 214.095541 57.8226885 214.095541 43.6582623 220.165869 43.6582623 220.165869 45.6820328 216.321443 45.6820328"></polygon>
                            <polygon id="Fill-65" fill="#FEFEFE" points="223.525082 47.5632787 223.525082 57.8222951 221.521967 57.8222951 221.521967 43.6583607 224.313934 43.6583607 226.600328 52.1365574 226.600328 43.6583607 228.58377 43.6583607 228.58377 57.8222951 226.297377 57.8222951"></polygon>
                            <polygon id="Fill-67" fill="#FEFEFE" points="229.535066 43.6583607 236.414902 43.6583607 236.414902 45.6816393 234.08818 45.6816393 234.08818 57.8222951 231.862279 57.8222951 231.862279 45.6816393 229.535066 45.6816393"></polygon>
                            <path d="M82.8023607,2.4295082 C87.4007213,2.4295082 89.7638361,5.17967213 89.7638361,9.99245902 L89.7638361,10.9377049 L85.2948197,10.9377049 L85.2948197,9.69196721 C85.2948197,7.54327869 84.4351475,6.72688525 82.9317049,6.72688525 C81.4272787,6.72688525 80.5680984,7.54327869 80.5680984,9.69196721 C80.5680984,15.8793443 89.8071148,17.04 89.8071148,25.6342623 C89.8071148,30.4470492 87.4007213,33.1972131 82.7595738,33.1972131 C78.118918,33.1972131 75.7120328,30.4470492 75.7120328,25.6342623 L75.7120328,23.7860656 L80.1810492,23.7860656 L80.1810492,25.9347541 C80.1810492,28.0834426 81.1267869,28.8565574 82.6307213,28.8565574 C84.1346557,28.8565574 85.0799016,28.0834426 85.0799016,25.9347541 C85.0799016,19.7468852 75.841377,18.5867213 75.841377,9.99245902 C75.841377,5.17967213 78.2044918,2.4295082 82.8023607,2.4295082" id="Fill-69" fill="#FEFEFE"></path>
                            <polygon id="Fill-71" fill="#FEFEFE" points="96.6386557 22.884 90.6657049 2.77318033 95.6073443 2.77318033 99.2171803 16.4807213 102.826525 2.77318033 107.338328 2.77318033 101.365869 22.884 101.365869 32.8533443 96.6386557 32.8533443"></polygon>
                            <path d="M113.955049,7.07040984 L113.955049,28.5563115 L116.619148,28.5563115 C118.123574,28.5563115 119.026033,27.7827049 119.026033,25.6340164 L119.026033,9.99221311 C119.026033,7.84401639 118.123574,7.07040984 116.619148,7.07040984 L113.955049,7.07040984 Z M109.228328,2.77352459 L116.705213,2.77352459 C121.432426,2.77352459 123.752262,5.39434426 123.752262,10.2071311 L123.752262,25.4190984 C123.752262,30.2318852 121.432426,32.8531967 116.705213,32.8531967 L109.228328,32.8531967 L109.228328,2.77352459 Z" id="Fill-73" fill="#FEFEFE"></path>
                            <polygon id="Fill-75" fill="#FEFEFE" points="130.970754 11.0668033 130.970754 32.8531967 126.716656 32.8531967 126.716656 2.77352459 132.646328 2.77352459 137.502393 20.7784426 137.502393 2.77352459 141.713213 2.77352459 141.713213 32.8531967 136.857639 32.8531967"></polygon>
                            <polygon id="Fill-77" fill="#FEFEFE" points="149.833623 15.4498033 156.321984 15.4498033 156.321984 19.7466885 149.833623 19.7466885 149.833623 28.5558689 157.998049 28.5558689 157.998049 32.8532459 145.10641 32.8532459 145.10641 2.77357377 157.998049 2.77357377 157.998049 7.07045902 149.833623 7.07045902"></polygon>
                            <polygon id="Fill-79" fill="#FEFEFE" points="165.345344 22.884 159.371902 2.77318033 164.314033 2.77318033 167.923377 16.4807213 171.533213 2.77318033 176.045016 2.77318033 170.072066 22.884 170.072066 32.8533443 165.345344 32.8533443"></polygon>
                            <path d="M198.302902,21.6376721 L198.302902,25.6340656 C198.302902,30.4468525 195.896016,33.1970164 191.255361,33.1970164 C186.614213,33.1970164 184.20782,30.4468525 184.20782,25.6340656 L184.20782,9.9922623 C184.20782,5.17947541 186.614213,2.42931148 191.255361,2.42931148 C195.896016,2.42931148 198.302902,5.17947541 198.302902,9.9922623 L198.302902,12.9145574 L193.833393,12.9145574 L193.833393,9.69177049 C193.833393,7.54308197 192.888148,6.72668852 191.384213,6.72668852 C189.880279,6.72668852 188.935033,7.54308197 188.935033,9.69177049 L188.935033,25.9350492 C188.935033,28.0832459 189.880279,28.8568525 191.384213,28.8568525 C192.888148,28.8568525 193.833393,28.0832459 193.833393,25.9350492 L193.833393,21.6376721 L198.302902,21.6376721 Z" id="Fill-81" fill="#FEFEFE"></path>
                            <mask id="mask-4" fill="white">
                                <use xlink:href="#path-3"></use>
                            </mask>
                            <g id="Clip-84"></g>
                            <polygon id="Fill-83" fill="#FEFEFE" mask="url(#mask-4)" points="201.18 32.8529508 205.907213 32.8529508 205.907213 2.77327869 201.18 2.77327869"></polygon>
                            <polygon id="Fill-85" fill="#FEFEFE" mask="url(#mask-4)" points="207.969197 2.77337705 222.579197 2.77337705 222.579197 7.0702623 217.637557 7.0702623 217.637557 32.8530492 212.910344 32.8530492 212.910344 7.0702623 207.969197 7.0702623"></polygon>
                            <polygon id="Fill-86" fill="#FEFEFE" mask="url(#mask-4)" points="229.06677 22.884 223.093328 2.77318033 228.035459 2.77318033 231.644803 16.4807213 235.254639 2.77318033 239.766443 2.77318033 233.793492 22.884 233.793492 32.8533443 229.06677 32.8533443"></polygon>
                            <polygon id="Fill-87" fill="#FEFEFE" mask="url(#mask-4)" points="77.7540984 38.2077049 234.518852 38.2077049 234.518852 37.0018033 77.7540984 37.0018033"></polygon>
                            <path d="M79.7136885,65.9485082 C80.2748361,65.9485082 80.5895902,65.6106393 80.5895902,65.0573607 C80.5895902,64.4730984 80.3363115,64.1657213 79.759918,64.1657213 L79.0143443,64.1657213 L79.0143443,65.9485082 L79.7136885,65.9485082 Z M78.1384426,63.5047377 L80.0746721,63.5047377 C80.8433607,63.5047377 81.4659836,63.8893279 81.4659836,64.9186721 C81.4659836,65.6258852 81.1507377,66.1712951 80.5512295,66.2637541 L80.5512295,66.279 C81.0971311,66.3326066 81.3813934,66.6326066 81.4118852,67.4008033 C81.4197541,67.7544098 81.4271311,68.1847377 81.4428689,68.5152295 C81.4581148,68.7842459 81.5889344,68.9145738 81.7040164,68.9912951 L80.712541,68.9912951 C80.6279508,68.891459 80.5895902,68.7227705 80.5664754,68.5073607 C80.5359836,68.1768689 80.5433607,67.8694918 80.5281148,67.4701475 C80.5128689,66.8706393 80.3284426,66.6094918 79.7289344,66.6094918 L79.0143443,66.6094918 L79.0143443,68.9912951 L78.1384426,68.9912951 L78.1384426,63.5047377 Z" id="Fill-88" fill="#FEFEFE" mask="url(#mask-4)"></path>
                            <polygon id="Fill-89" fill="#FEFEFE" mask="url(#mask-4)" points="83.0266721 64.242541 81.7204426 64.242541 81.7204426 63.5048361 85.1861803 63.5048361 85.1861803 64.242541 83.9025738 64.242541 83.9025738 68.9913934 83.0266721 68.9913934"></polygon>
                            <path d="M88.0762623,66.2251475 C88.0762623,64.3808852 87.6611803,64.0582623 87.1388852,64.0582623 C86.6160984,64.0582623 86.2010164,64.3808852 86.2010164,66.2251475 C86.2010164,68.1156393 86.6160984,68.4382623 87.1388852,68.4382623 C87.6611803,68.4382623 88.0762623,68.1156393 88.0762623,66.2251475 M85.3251148,66.2482623 C85.3251148,64.2884262 85.8783934,63.3972787 87.1388852,63.3972787 C88.3988852,63.3972787 88.9521639,64.2884262 88.9521639,66.2482623 C88.9521639,68.2076066 88.3988852,69.0992459 87.1388852,69.0992459 C85.8783934,69.0992459 85.3251148,68.2076066 85.3251148,66.2482623" id="Fill-90" fill="#FEFEFE" mask="url(#mask-4)"></path>
                            <path d="M94.9475902,67.0243279 L94.9475902,67.1394098 C94.9475902,68.1308852 94.5482459,69.0992459 93.2567705,69.0992459 C91.8738197,69.0992459 91.4434918,68.2076066 91.4434918,66.2482623 C91.4434918,64.288918 91.8738197,63.3972787 93.2646393,63.3972787 C94.8246393,63.3972787 94.9170984,64.5500656 94.9170984,65.1185902 L94.9170984,65.2184262 L94.0407049,65.2184262 L94.0407049,65.126459 C94.0407049,64.618918 93.8872623,64.0351475 93.2567705,64.0582623 C92.6115246,64.0582623 92.3193934,64.4576066 92.3193934,66.2251475 C92.3193934,67.9926885 92.6115246,68.4382623 93.2567705,68.4382623 C93.9870984,68.4382623 94.0716885,67.6238361 94.0716885,67.1162951 L94.0716885,67.0243279 L94.9475902,67.0243279 Z" id="Fill-91" fill="#FEFEFE" mask="url(#mask-4)"></path>
                            <path d="M98.1837049,66.2251475 C98.1837049,64.3808852 97.768623,64.0582623 97.2463279,64.0582623 C96.723541,64.0582623 96.308459,64.3808852 96.308459,66.2251475 C96.308459,68.1156393 96.723541,68.4382623 97.2463279,68.4382623 C97.768623,68.4382623 98.1837049,68.1156393 98.1837049,66.2251475 M95.4325574,66.2482623 C95.4325574,64.2884262 95.9858361,63.3972787 97.2463279,63.3972787 C98.5063279,63.3972787 99.0596066,64.2884262 99.0596066,66.2482623 C99.0596066,68.2076066 98.5063279,69.0992459 97.2463279,69.0992459 C95.9858361,69.0992459 95.4325574,68.2076066 95.4325574,66.2482623" id="Fill-92" fill="#FEFEFE" mask="url(#mask-4)"></path>
                            <path d="M100.712852,68.3306557 L101.435311,68.3306557 C102.15777,68.3306557 102.457279,67.8540984 102.457279,66.2483607 C102.457279,64.7036066 102.196131,64.1655738 101.435311,64.1655738 L100.712852,64.1655738 L100.712852,68.3306557 Z M99.8369508,63.5045902 L101.396951,63.5045902 C103.118262,63.5045902 103.33318,64.6268852 103.33318,66.2483607 C103.33318,67.8698361 103.118262,68.9916393 101.396951,68.9916393 L99.8369508,68.9916393 L99.8369508,63.5045902 Z" id="Fill-93" fill="#FEFEFE" mask="url(#mask-4)"></path>
                            <polygon id="Fill-94" fill="#FEFEFE" mask="url(#mask-4)" points="104.110328 63.5048361 107.076393 63.5048361 107.076393 64.242541 104.98623 64.242541 104.98623 65.7641803 106.953443 65.7641803 106.953443 66.5018852 104.98623 66.5018852 104.98623 68.2536885 107.137869 68.2536885 107.137869 68.9913934 104.110328 68.9913934"></polygon>
                            <path d="M107.838197,68.9916393 L108.838197,68.9916393 L108.838197,67.9770492 L107.838197,67.9770492 L107.838197,68.9916393 Z M107.838197,66.0718033 L108.838197,66.0718033 L108.838197,65.0572131 L107.838197,65.0572131 L107.838197,66.0718033 Z" id="Fill-95" fill="#FEFEFE" mask="url(#mask-4)"></path>
                            <path d="M112.864574,64.8265574 L112.849328,64.8265574 L111.627197,67.0701639 L112.864574,67.0701639 L112.864574,64.8265574 Z M110.920475,67.0165574 L112.803098,63.5508197 L113.694246,63.5508197 L113.694246,67.0701639 L114.286377,67.0701639 L114.286377,67.7695082 L113.694246,67.7695082 L113.694246,68.9916393 L112.864574,68.9916393 L112.864574,67.7695082 L110.920475,67.7695082 L110.920475,67.0165574 Z" id="Fill-96" fill="#FEFEFE" mask="url(#mask-4)"></path>
                            <path d="M114.694426,67.5238033 L115.524098,67.5238033 L115.524098,67.6698689 C115.524098,68.077082 115.747377,68.4380656 116.23918,68.4380656 C116.846066,68.4380656 117.015246,67.8390492 117.015246,67.2011803 C117.015246,66.5711803 116.846066,66.0405246 116.284918,66.0405246 C115.916066,66.0405246 115.647049,66.2406885 115.570328,66.5401967 L114.794262,66.5092131 L115.063279,63.6587213 L117.683607,63.6587213 L117.683607,64.3580656 L115.716393,64.3580656 L115.539836,65.7872459 L115.555082,65.8024918 C115.785738,65.5413443 116.11623,65.3800328 116.469344,65.3800328 C117.606885,65.3800328 117.891148,66.3405246 117.891148,67.1780656 C117.891148,68.269377 117.391475,69.0990492 116.216066,69.0990492 C115.247705,69.0990492 114.694426,68.5998689 114.694426,67.6388852 L114.694426,67.5238033 Z" id="Fill-97" fill="#FEFEFE" mask="url(#mask-4)"></path>
                            <path d="M121.572934,68.991541 L118.391459,68.991541 C118.391459,66.6249836 120.673918,66.6785902 120.673918,64.9877705 C120.673918,64.5421967 120.481623,64.1654754 119.997689,64.1654754 C119.344574,64.1654754 119.236869,64.7497377 119.236869,65.3030164 L118.407197,65.3030164 C118.407197,64.2195738 118.85277,63.5507213 120.012934,63.5507213 C121.127361,63.5507213 121.54982,64.2117049 121.54982,65.0035082 C121.54982,66.8094098 119.782279,66.9244918 119.367689,68.2538361 L121.572934,68.2538361 L121.572934,68.991541 Z" id="Fill-98" fill="#FEFEFE" mask="url(#mask-4)"></path>
                            <path d="M123.671754,68.4843443 C124.271262,68.4843443 124.424705,67.9079508 124.424705,66.3248361 C124.424705,64.7422131 124.271262,64.1658197 123.671754,64.1658197 C123.072246,64.1658197 122.918803,64.7422131 122.918803,66.3248361 C122.918803,67.9079508 123.072246,68.4843443 123.671754,68.4843443 M123.671754,63.5510656 C124.716836,63.5510656 125.301098,64.2115574 125.301098,66.3248361 C125.301098,68.4381148 124.716836,69.0990984 123.671754,69.0990984 C122.626672,69.0990984 122.04241,68.4381148 122.04241,66.3248361 C122.04241,64.2115574 122.626672,63.5510656 123.671754,63.5510656" id="Fill-99" fill="#FEFEFE" mask="url(#mask-4)"></path>
                            <path d="M126.585098,67.4777213 C126.585098,67.9542787 126.738541,68.4844426 127.330672,68.4844426 C127.876082,68.4844426 128.091492,68.0462459 128.091492,67.5082131 C128.091492,66.8398525 127.868213,66.4941148 127.207721,66.4941148 L126.869361,66.4941148 L126.869361,65.8793607 L127.184607,65.8793607 C127.768377,65.8793607 127.968541,65.4800164 127.968541,64.9493607 C127.968541,64.5578852 127.791492,64.165918 127.338049,64.165918 C126.800016,64.165918 126.646574,64.6267377 126.646574,65.118541 L125.816902,65.118541 C125.816902,64.1044426 126.347066,63.5511639 127.384279,63.5511639 C128.037393,63.5511639 128.844443,63.8506721 128.844443,64.9419836 C128.844443,65.5026393 128.513951,66.048541 127.975918,66.1331311 L127.975918,66.1557541 C128.537066,66.2019836 128.967393,66.6554262 128.967393,67.4162459 C128.967393,68.4923115 128.429361,69.0991967 127.307557,69.0991967 C126.323951,69.0991967 125.755426,68.6152623 125.755426,67.4777213 L126.585098,67.4777213 Z" id="Fill-100" fill="#FEFEFE" mask="url(#mask-4)"></path>
                            <polygon id="Fill-101" fill="#FEFEFE" mask="url(#mask-4)" points="133.33377 68.9916393 134.163443 68.9916393 134.163443 63.505082 133.33377 63.505082"></polygon>
                            <path d="M142.118459,67.0243279 L142.118459,67.1394098 C142.118459,68.1308852 141.719115,69.0992459 140.427639,69.0992459 C139.044689,69.0992459 138.614361,68.2076066 138.614361,66.2482623 C138.614361,64.288918 139.044689,63.3972787 140.435508,63.3972787 C141.995508,63.3972787 142.087967,64.5500656 142.087967,65.1185902 L142.087967,65.2184262 L141.211574,65.2184262 L141.211574,65.126459 C141.211574,64.618918 141.058131,64.0351475 140.427639,64.0582623 C139.782393,64.0582623 139.490262,64.4576066 139.490262,66.2251475 C139.490262,67.9926885 139.782393,68.4382623 140.427639,68.4382623 C141.157967,68.4382623 141.242557,67.6238361 141.242557,67.1162951 L141.242557,67.0243279 L142.118459,67.0243279 Z" id="Fill-102" fill="#FEFEFE" mask="url(#mask-4)"></path>
                            <path d="M144.309492,65.9485082 C144.870639,65.9485082 145.185393,65.6106393 145.185393,65.0573607 C145.185393,64.4730984 144.932115,64.1657213 144.355721,64.1657213 L143.610148,64.1657213 L143.610148,65.9485082 L144.309492,65.9485082 Z M142.734246,63.5047377 L144.670475,63.5047377 C145.439164,63.5047377 146.061787,63.8893279 146.061787,64.9186721 C146.061787,65.6258852 145.746541,66.1712951 145.147033,66.2637541 L145.147033,66.279 C145.692934,66.3326066 145.977197,66.6326066 146.007689,67.4008033 C146.015557,67.7544098 146.022934,68.1847377 146.038672,68.5152295 C146.053918,68.7842459 146.184738,68.9145738 146.29982,68.9912951 L145.308344,68.9912951 C145.223754,68.891459 145.185393,68.7227705 145.162279,68.5073607 C145.131787,68.1768689 145.139164,67.8694918 145.123918,67.4701475 C145.108672,66.8706393 144.924246,66.6094918 144.324738,66.6094918 L143.610148,66.6094918 L143.610148,68.9912951 L142.734246,68.9912951 L142.734246,63.5047377 Z" id="Fill-103" fill="#FEFEFE" mask="url(#mask-4)"></path>
                            <polygon id="Fill-104" fill="#FEFEFE" mask="url(#mask-4)" points="146.823443 68.9916393 147.699344 68.9916393 147.699344 63.505082 146.823443 63.505082"></polygon>
                            <path d="M151.941295,67.0243279 L151.941295,67.1394098 C151.941295,68.1308852 151.541951,69.0992459 150.250475,69.0992459 C148.867525,69.0992459 148.437197,68.2076066 148.437197,66.2482623 C148.437197,64.288918 148.867525,63.3972787 150.258344,63.3972787 C151.818344,63.3972787 151.910803,64.5500656 151.910803,65.1185902 L151.910803,65.2184262 L151.03441,65.2184262 L151.03441,65.126459 C151.03441,64.618918 150.880967,64.0351475 150.250475,64.0582623 C149.60523,64.0582623 149.313098,64.4576066 149.313098,66.2251475 C149.313098,67.9926885 149.60523,68.4382623 150.250475,68.4382623 C150.980803,68.4382623 151.065393,67.6238361 151.065393,67.1162951 L151.065393,67.0243279 L151.941295,67.0243279 Z" id="Fill-105" fill="#FEFEFE" mask="url(#mask-4)"></path>
                            <path d="M155.17741,66.2251475 C155.17741,64.3808852 154.762328,64.0582623 154.240033,64.0582623 C153.717246,64.0582623 153.302164,64.3808852 153.302164,66.2251475 C153.302164,68.1156393 153.717246,68.4382623 154.240033,68.4382623 C154.762328,68.4382623 155.17741,68.1156393 155.17741,66.2251475 M152.426262,66.2482623 C152.426262,64.2884262 152.979541,63.3972787 154.240033,63.3972787 C155.500033,63.3972787 156.053311,64.2884262 156.053311,66.2482623 C156.053311,68.2076066 155.500033,69.0992459 154.240033,69.0992459 C152.979541,69.0992459 152.426262,68.2076066 152.426262,66.2482623" id="Fill-106" fill="#FEFEFE" mask="url(#mask-4)"></path>
                            <path d="M157.506738,67.2932951 L157.506738,67.4314918 C157.506738,68.1003443 157.798869,68.4382131 158.405754,68.4382131 C158.959033,68.4382131 159.235918,68.0462459 159.235918,67.6390328 C159.235918,67.0626393 158.943787,66.8093607 158.451984,66.6632951 L157.852475,66.4557541 C157.053295,66.148377 156.707557,65.7332951 156.707557,64.9493607 C156.707557,63.9505082 157.383787,63.3972295 158.413623,63.3972295 C159.819689,63.3972295 159.965754,64.2731311 159.965754,64.8421475 L159.965754,64.9650984 L159.089852,64.9650984 L159.089852,64.8495246 C159.089852,64.3503443 158.867066,64.0582131 158.321164,64.0582131 C157.944934,64.0582131 157.583459,64.2657541 157.583459,64.8495246 C157.583459,65.3182131 157.821984,65.5567377 158.405754,65.7795246 L158.997393,65.9944426 C159.773459,66.2713279 160.11182,66.6937869 160.11182,67.4467377 C160.11182,68.6152623 159.404607,69.0991967 158.298049,69.0991967 C156.938213,69.0991967 156.630836,68.1923115 156.630836,67.4241148 L156.630836,67.2932951 L157.506738,67.2932951 Z" id="Fill-107" fill="#FEFEFE" mask="url(#mask-4)"></path>
                            <path d="M163.540475,66.0637869 L164.163098,66.0637869 C164.631787,66.0637869 165.039,65.8100164 165.039,65.118541 C165.039,64.5269016 164.800967,64.165918 164.101623,64.165918 L163.540475,64.165918 L163.540475,66.0637869 Z M162.664574,63.5049344 L164.401131,63.5049344 C165.454082,63.5049344 165.914902,64.165918 165.914902,65.1032951 C165.914902,66.0869016 165.338508,66.7247705 164.308672,66.7247705 L163.540475,66.7247705 L163.540475,68.9914918 L162.664574,68.9914918 L162.664574,63.5049344 Z" id="Fill-108" fill="#FEFEFE" mask="url(#mask-4)"></path>
                            <path d="M168.082918,65.9485082 C168.644066,65.9485082 168.95882,65.6106393 168.95882,65.0573607 C168.95882,64.4730984 168.705541,64.1657213 168.129148,64.1657213 L167.383574,64.1657213 L167.383574,65.9485082 L168.082918,65.9485082 Z M166.507672,63.5047377 L168.443902,63.5047377 C169.21259,63.5047377 169.835213,63.8893279 169.835213,64.9186721 C169.835213,65.6258852 169.519967,66.1712951 168.920459,66.2637541 L168.920459,66.279 C169.466361,66.3326066 169.750623,66.6326066 169.781115,67.4008033 C169.788984,67.7544098 169.796361,68.1847377 169.812098,68.5152295 C169.827344,68.7842459 169.958164,68.9145738 170.073246,68.9912951 L169.08177,68.9912951 C168.99718,68.891459 168.95882,68.7227705 168.935705,68.5073607 C168.905213,68.1768689 168.91259,67.8694918 168.897344,67.4701475 C168.882098,66.8706393 168.697672,66.6094918 168.098164,66.6094918 L167.383574,66.6094918 L167.383574,68.9912951 L166.507672,68.9912951 L166.507672,63.5047377 Z" id="Fill-109" fill="#FEFEFE" mask="url(#mask-4)"></path>
                            <path d="M173.255508,66.2251475 C173.255508,64.3808852 172.840426,64.0582623 172.318131,64.0582623 C171.795344,64.0582623 171.380262,64.3808852 171.380262,66.2251475 C171.380262,68.1156393 171.795344,68.4382623 172.318131,68.4382623 C172.840426,68.4382623 173.255508,68.1156393 173.255508,66.2251475 M170.504361,66.2482623 C170.504361,64.2884262 171.057639,63.3972787 172.318131,63.3972787 C173.578131,63.3972787 174.13141,64.2884262 174.13141,66.2482623 C174.13141,68.2076066 173.578131,69.0992459 172.318131,69.0992459 C171.057639,69.0992459 170.504361,68.2076066 170.504361,66.2482623" id="Fill-110" fill="#FEFEFE" mask="url(#mask-4)"></path>
                            <polygon id="Fill-111" fill="#FEFEFE" mask="url(#mask-4)" points="174.270787 63.5048361 175.200787 63.5048361 176.130295 67.8848361 176.146033 67.8848361 177.129148 63.5048361 178.059148 63.5048361 176.676197 68.9913934 175.56177 68.9913934"></polygon>
                            <polygon id="Fill-112" fill="#FEFEFE" mask="url(#mask-4)" points="178.428689 68.9916393 179.30459 68.9916393 179.30459 63.505082 178.428689 63.505082"></polygon>
                            <path d="M181.049459,68.3306557 L181.771918,68.3306557 C182.494377,68.3306557 182.793885,67.8540984 182.793885,66.2483607 C182.793885,64.7036066 182.532738,64.1655738 181.771918,64.1655738 L181.049459,64.1655738 L181.049459,68.3306557 Z M180.173557,63.5045902 L181.733557,63.5045902 C183.454869,63.5045902 183.669787,64.6268852 183.669787,66.2483607 C183.669787,67.8698361 183.454869,68.9916393 181.733557,68.9916393 L180.173557,68.9916393 L180.173557,63.5045902 Z" id="Fill-113" fill="#FEFEFE" mask="url(#mask-4)"></path>
                            <polygon id="Fill-114" fill="#FEFEFE" mask="url(#mask-4)" points="184.446934 63.5048361 187.413 63.5048361 187.413 64.242541 185.322836 64.242541 185.322836 65.7641803 187.290049 65.7641803 187.290049 66.5018852 185.322836 66.5018852 185.322836 68.2536885 187.474475 68.2536885 187.474475 68.9913934 184.446934 68.9913934"></polygon>
                            <path d="M189.719164,65.9485082 C190.280311,65.9485082 190.595066,65.6106393 190.595066,65.0573607 C190.595066,64.4730984 190.341787,64.1657213 189.765393,64.1657213 L189.01982,64.1657213 L189.01982,65.9485082 L189.719164,65.9485082 Z M188.143918,63.5047377 L190.080148,63.5047377 C190.848836,63.5047377 191.471459,63.8893279 191.471459,64.9186721 C191.471459,65.6258852 191.156213,66.1712951 190.556705,66.2637541 L190.556705,66.279 C191.102607,66.3326066 191.386869,66.6326066 191.417361,67.4008033 C191.42523,67.7544098 191.432607,68.1847377 191.448344,68.5152295 C191.46359,68.7842459 191.59441,68.9145738 191.709492,68.9912951 L190.718016,68.9912951 C190.633426,68.891459 190.595066,68.7227705 190.571951,68.5073607 C190.541459,68.1768689 190.548836,67.8694918 190.53359,67.4701475 C190.518344,66.8706393 190.333918,66.6094918 189.73441,66.6094918 L189.01982,66.6094918 L189.01982,68.9912951 L188.143918,68.9912951 L188.143918,63.5047377 Z" id="Fill-115" fill="#FEFEFE" mask="url(#mask-4)"></path>
                            <path d="M197.489557,67.0243279 L197.489557,67.1394098 C197.489557,68.1308852 197.090213,69.0992459 195.798738,69.0992459 C194.415787,69.0992459 193.985459,68.2076066 193.985459,66.2482623 C193.985459,64.288918 194.415787,63.3972787 195.806607,63.3972787 C197.366607,63.3972787 197.459066,64.5500656 197.459066,65.1185902 L197.459066,65.2184262 L196.582672,65.2184262 L196.582672,65.126459 C196.582672,64.618918 196.42923,64.0351475 195.798738,64.0582623 C195.153492,64.0582623 194.861361,64.4576066 194.861361,66.2251475 C194.861361,67.9926885 195.153492,68.4382623 195.798738,68.4382623 C196.529066,68.4382623 196.613656,67.6238361 196.613656,67.1162951 L196.613656,67.0243279 L197.489557,67.0243279 Z" id="Fill-116" fill="#FEFEFE" mask="url(#mask-4)"></path>
                            <path d="M200.725672,66.2251475 C200.725672,64.3808852 200.31059,64.0582623 199.788295,64.0582623 C199.265508,64.0582623 198.850426,64.3808852 198.850426,66.2251475 C198.850426,68.1156393 199.265508,68.4382623 199.788295,68.4382623 C200.31059,68.4382623 200.725672,68.1156393 200.725672,66.2251475 M197.974525,66.2482623 C197.974525,64.2884262 198.527803,63.3972787 199.788295,63.3972787 C201.048295,63.3972787 201.601574,64.2884262 201.601574,66.2482623 C201.601574,68.2076066 201.048295,69.0992459 199.788295,69.0992459 C198.527803,69.0992459 197.974525,68.2076066 197.974525,66.2482623" id="Fill-117" fill="#FEFEFE" mask="url(#mask-4)"></path>
                            <path d="M203.25477,68.3306557 L203.97723,68.3306557 C204.699689,68.3306557 204.999197,67.8540984 204.999197,66.2483607 C204.999197,64.7036066 204.738049,64.1655738 203.97723,64.1655738 L203.25477,64.1655738 L203.25477,68.3306557 Z M202.378869,63.5045902 L203.938869,63.5045902 C205.66018,63.5045902 205.875098,64.6268852 205.875098,66.2483607 C205.875098,67.8698361 205.66018,68.9916393 203.938869,68.9916393 L202.378869,68.9916393 L202.378869,63.5045902 Z" id="Fill-118" fill="#FEFEFE" mask="url(#mask-4)"></path>
                            <polygon id="Fill-119" fill="#FEFEFE" mask="url(#mask-4)" points="206.652246 63.5048361 209.618311 63.5048361 209.618311 64.242541 207.528148 64.242541 207.528148 65.7641803 209.495361 65.7641803 209.495361 66.5018852 207.528148 66.5018852 207.528148 68.2536885 209.679787 68.2536885 209.679787 68.9913934 206.652246 68.9913934"></polygon>
                            <path d="M210.380164,68.9916393 L211.380164,68.9916393 L211.380164,67.9770492 L210.380164,67.9770492 L210.380164,68.9916393 Z M210.380164,66.0718033 L211.380164,66.0718033 L211.380164,65.0572131 L210.380164,65.0572131 L210.380164,66.0718033 Z" id="Fill-120" fill="#FEFEFE" mask="url(#mask-4)"></path>
                            <path d="M215.145246,68.4843443 C215.744754,68.4843443 215.898197,67.9079508 215.898197,66.3248361 C215.898197,64.7422131 215.744754,64.1658197 215.145246,64.1658197 C214.545738,64.1658197 214.392295,64.7422131 214.392295,66.3248361 C214.392295,67.9079508 214.545738,68.4843443 215.145246,68.4843443 M215.145246,63.5510656 C216.190328,63.5510656 216.77459,64.2115574 216.77459,66.3248361 C216.77459,68.4381148 216.190328,69.0990984 215.145246,69.0990984 C214.100164,69.0990984 213.515902,68.4381148 213.515902,66.3248361 C213.515902,64.2115574 214.100164,63.5510656 215.145246,63.5510656" id="Fill-121" fill="#FEFEFE" mask="url(#mask-4)"></path>
                            <path d="M218.05859,67.4777213 C218.05859,67.9542787 218.212033,68.4844426 218.804164,68.4844426 C219.349574,68.4844426 219.564984,68.0462459 219.564984,67.5082131 C219.564984,66.8398525 219.341705,66.4941148 218.681213,66.4941148 L218.342852,66.4941148 L218.342852,65.8793607 L218.658098,65.8793607 C219.241869,65.8793607 219.442033,65.4800164 219.442033,64.9493607 C219.442033,64.5578852 219.264984,64.165918 218.811541,64.165918 C218.273508,64.165918 218.120066,64.6267377 218.120066,65.118541 L217.290393,65.118541 C217.290393,64.1044426 217.820557,63.5511639 218.85777,63.5511639 C219.510885,63.5511639 220.317934,63.8506721 220.317934,64.9419836 C220.317934,65.5026393 219.987443,66.048541 219.44941,66.1331311 L219.44941,66.1557541 C220.010557,66.2019836 220.440885,66.6554262 220.440885,67.4162459 C220.440885,68.4923115 219.902852,69.0991967 218.781049,69.0991967 C217.797443,69.0991967 217.228918,68.6152623 217.228918,67.4777213 L218.05859,67.4777213 Z" id="Fill-122" fill="#FEFEFE" mask="url(#mask-4)"></path>
                            <path d="M222.578016,68.4843443 C223.116049,68.4843443 223.300475,67.9541803 223.300475,67.3163115 C223.300475,66.5633607 223.077689,66.1404098 222.578016,66.1404098 C221.940148,66.1404098 221.825066,66.7015574 221.825066,67.3546721 C221.825066,67.9846721 222.063098,68.4843443 222.578016,68.4843443 L222.578016,68.4843443 Z M223.200639,64.872541 C223.200639,64.5577869 223.054574,64.1658197 222.616377,64.1658197 C221.794082,64.1658197 221.748344,65.2492623 221.748344,66.0405738 L221.770967,66.0563115 C221.986377,65.6643443 222.35523,65.479918 222.831787,65.479918 C223.576869,65.479918 224.176377,66.017459 224.176377,67.1009016 C224.176377,68.3535246 223.661459,69.0990984 222.508672,69.0990984 C221.133098,69.0990984 220.871951,68.0540164 220.871951,66.4940164 C220.871951,64.8651639 221.171951,63.5510656 222.608508,63.5510656 C223.561623,63.5510656 224.076541,63.9813934 224.076541,64.872541 L223.200639,64.872541 Z" id="Fill-123" fill="#FEFEFE" mask="url(#mask-4)"></path>
                            <path d="M227.804361,68.991541 L224.622885,68.991541 C224.622885,66.6249836 226.905344,66.6785902 226.905344,64.9877705 C226.905344,64.5421967 226.713049,64.1654754 226.229115,64.1654754 C225.576,64.1654754 225.468295,64.7497377 225.468295,65.3030164 L224.638623,65.3030164 C224.638623,64.2195738 225.084197,63.5507213 226.244361,63.5507213 C227.358787,63.5507213 227.781246,64.2117049 227.781246,65.0035082 C227.781246,66.8094098 226.013705,66.9244918 225.599115,68.2538361 L227.804361,68.2538361 L227.804361,68.991541 Z" id="Fill-124" fill="#FEFEFE" mask="url(#mask-4)"></path>
                            <path d="M229.90318,68.4843443 C230.502689,68.4843443 230.656131,67.9079508 230.656131,66.3248361 C230.656131,64.7422131 230.502689,64.1658197 229.90318,64.1658197 C229.303672,64.1658197 229.15023,64.7422131 229.15023,66.3248361 C229.15023,67.9079508 229.303672,68.4843443 229.90318,68.4843443 M229.90318,63.5510656 C230.948262,63.5510656 231.532525,64.2115574 231.532525,66.3248361 C231.532525,68.4381148 230.948262,69.0990984 229.90318,69.0990984 C228.858098,69.0990984 228.273836,68.4381148 228.273836,66.3248361 C228.273836,64.2115574 228.858098,63.5510656 229.90318,63.5510656" id="Fill-125" fill="#FEFEFE" mask="url(#mask-4)"></path>
                            <path d="M235.575246,67.0243279 L235.575246,67.1394098 C235.575246,68.1308852 235.175902,69.0992459 233.884426,69.0992459 C232.501475,69.0992459 232.071148,68.2076066 232.071148,66.2482623 C232.071148,64.288918 232.501475,63.3972787 233.892295,63.3972787 C235.452295,63.3972787 235.544754,64.5500656 235.544754,65.1185902 L235.544754,65.2184262 L234.668361,65.2184262 L234.668361,65.126459 C234.668361,64.618918 234.514918,64.0351475 233.884426,64.0582623 C233.23918,64.0582623 232.947049,64.4576066 232.947049,66.2251475 C232.947049,67.9926885 233.23918,68.4382623 233.884426,68.4382623 C234.614754,68.4382623 234.699344,67.6238361 234.699344,67.1162951 L234.699344,67.0243279 L235.575246,67.0243279 Z" id="Fill-126" fill="#FEFEFE" mask="url(#mask-4)"></path>
                            <path d="M67.8097869,47.9292295 L63.3909344,44.578082 L61.5122459,46.9716885 C61.5122459,46.9716885 60.5551967,45.7195574 61.6229016,44.2834918 C62.6910984,42.8474262 63.9432295,41.9262787 63.9432295,41.9262787 L69.5035574,46.3825082 L67.8097869,47.9292295 Z" id="Fill-127" fill="#FEFEFE" mask="url(#mask-4)"></path>
                            <path d="M45.1666721,36.724623 L36.3284754,36.724623 C36.3284754,36.724623 35.9689672,37.2774098 35.0851967,37.2774098 C34.201918,37.2774098 33.9255246,36.724623 33.9255246,36.724623 L24.7002787,36.724623 L24.7002787,23.7710164 C25.2363443,23.5108525 25.5737213,23.497082 25.7684754,23.5364262 L25.7684754,22.4564262 L25.8899508,22.3954426 C25.9361803,22.3718361 30.5984754,20.0524918 34.9671639,23.4872459 L35.0729016,23.5610164 L35.1761803,23.4823279 C39.7317541,20.1587213 43.7355246,22.3782295 43.7753607,22.4008525 L43.8865082,22.4642951 L43.8865082,23.5664262 C45.0373279,23.6933115 45.1666721,24.0474098 45.1666721,24.0474098 L45.1666721,36.724623 Z M31.3071639,44.2467541 L37.9858525,44.2467541 L38.3566721,44.719377 L38.3576557,44.719377 L38.3576557,44.7203607 L38.3576557,44.7208525 L38.3576557,45.6306885 L30.8925738,45.6306885 L30.8925738,44.719377 L30.9363443,44.719377 L31.3071639,44.2467541 Z M37.649459,42.6474098 L37.9779836,43.1913443 L37.9912623,43.1913443 L37.9912623,44.2442951 L31.2584754,44.2442951 L31.2584754,43.1913443 L31.2697869,43.1913443 L31.5983115,42.6474098 L37.649459,42.6474098 Z M32.1712623,40.2198689 L37.0784754,40.2198689 L37.0784754,39.6208525 L32.1712623,39.6208525 L32.1712623,40.2198689 Z M32.1702787,39.6203607 L32.4161803,39.3262623 L36.8335574,39.3262623 L37.079459,39.6203607 L32.1702787,39.6203607 Z M31.9032295,41.5147869 L31.9032295,40.6610164 L32.1761803,40.2213443 L37.0789672,40.2213443 L37.351918,40.6610164 L37.3548689,40.6610164 L37.3548689,41.5128197 L37.3573279,41.5128197 L37.6602787,41.9092131 L37.6504426,41.9092131 L37.6504426,42.646918 L31.5997869,42.646918 L31.5997869,41.9087213 L31.6032295,41.9087213 L31.9047049,41.5147869 L31.9032295,41.5147869 Z M30.0225738,48.372 L30.4833934,47.6008525 L30.472082,47.6008525 L30.472082,46.3034754 L30.4686393,46.3034754 L30.8847049,45.6316721 L38.3630656,45.6316721 L38.7791311,46.3034754 L38.7781475,46.3034754 L38.7781475,47.6008525 L38.7717541,47.6008525 L39.2325738,48.372 L39.2197869,48.372 L39.2197869,49.8547869 L39.2251967,49.8547869 L39.7371639,50.9549508 L39.7371639,53.0775738 L29.5125738,53.0775738 L29.5125738,50.9549508 L29.519459,50.9549508 L30.0304426,49.8567541 L30.0304426,48.372 L30.0225738,48.372 Z M26.9699508,57.9921639 L29.5022459,53.0785574 L39.742082,53.0785574 L42.329459,57.9921639 L26.9699508,57.9921639 Z M26.2563443,17.3672459 L27.214377,17.0259344 C27.3378197,16.9816721 27.4760164,17.0224918 27.5537213,17.1272459 C27.8532295,17.5300328 28.6706066,18.4880656 29.7771639,18.6611803 C29.7771639,18.6611803 28.6858525,19.2415082 27.4155246,18.6754426 C26.6222459,18.3223279 26.2814262,17.9308525 26.1373279,17.686918 C26.0665082,17.5674098 26.1260164,17.4134754 26.2563443,17.3672459 L26.2563443,17.3672459 Z M27.1253607,14.5049508 L27.1391311,14.5600328 C27.1391311,14.5600328 28.0366721,15.4162623 29.9010984,15.4300328 C31.7655246,15.4438033 32.8981475,15.8854426 34.0302787,17.4877377 C34.0302787,17.4877377 31.5447049,19.2828197 29.2661803,18.1088852 C26.9876557,16.9354426 27.1253607,14.5049508 27.1253607,14.5049508 L27.1253607,14.5049508 Z M27.691918,12.6956066 C27.691918,12.6956066 28.4237213,14.1179016 29.7215902,14.8364262 C29.7215902,14.8364262 27.1391311,15.0297049 27.691918,12.6956066 L27.691918,12.6956066 Z M28.4788033,10.969377 L30.4814262,12.1157705 C30.4814262,12.1157705 30.4258525,14.1597049 31.4758525,15.0710164 C31.4758525,15.0710164 28.0647049,14.6431475 28.4788033,10.969377 L28.4788033,10.969377 Z M32.1801148,9.27068852 L33.3673279,10.9005246 C33.3673279,10.9005246 31.3238852,12.5298689 32.4422459,15.3331475 C32.4422459,15.3331475 30.8124098,14.3805246 30.8955246,12.2815082 C30.9786393,10.1706885 32.1801148,9.27068852 32.1801148,9.27068852 L32.1801148,9.27068852 Z M33.2099508,5.83544262 C33.3289672,5.79806557 33.499623,5.75232787 33.7042131,5.71003279 C33.8876557,5.67216393 34.0991311,5.64068852 34.3253607,5.61659016 C34.3371639,5.5772459 34.349459,5.53740984 34.3666721,5.50052459 C34.2206066,5.33036066 34.0878197,5.16314754 33.9810984,5.01167213 C33.8615902,4.84052459 33.7686393,4.69052459 33.7076557,4.58134426 C33.6461803,4.47265574 33.6161803,4.40478689 33.6161803,4.40478689 C33.6161803,4.40478689 33.6855246,4.43085246 33.7976557,4.48593443 C33.9102787,4.54003279 34.0656885,4.62413115 34.2437213,4.73331148 C34.4006066,4.82970492 34.5742131,4.95216393 34.7522459,5.08691803 C34.8053607,5.05740984 34.8614262,5.03380328 34.9204426,5.01560656 C34.9440492,4.79232787 34.9755246,4.58281967 35.0129016,4.40134426 C35.0556885,4.1967541 35.1009344,4.02609836 35.1388033,3.90708197 C35.1756885,3.78757377 35.2042131,3.71921311 35.2042131,3.71921311 C35.2042131,3.71921311 35.2327377,3.78757377 35.269623,3.90708197 C35.3074918,4.02609836 35.3527377,4.1967541 35.3955246,4.40134426 C35.4333934,4.58577049 35.4653607,4.79921311 35.489459,5.02740984 C35.5253607,5.04019672 35.5592951,5.05544262 35.5927377,5.07265574 C35.7673279,4.92216393 35.9379836,4.78642623 36.0933934,4.6777377 C36.2640492,4.55822951 36.414541,4.46527869 36.5242131,4.40429508 C36.6329016,4.34281967 36.7007705,4.31331148 36.7007705,4.31331148 C36.7007705,4.31331148 36.6747049,4.38265574 36.6201148,4.49478689 C36.5655246,4.60790164 36.481918,4.76331148 36.3727377,4.94134426 C36.2704426,5.10806557 36.1406066,5.2924918 35.9955246,5.48232787 C36.0156885,5.52363934 36.0314262,5.56691803 36.0451967,5.61167213 C36.2856885,5.63577049 36.5104426,5.66921311 36.7042131,5.70904918 C36.9088033,5.75134426 37.079459,5.79757377 37.1984754,5.83495082 C37.3179836,5.87232787 37.3863443,5.90134426 37.3863443,5.90134426 C37.3863443,5.90134426 37.3179836,5.93036066 37.1984754,5.9672459 C37.079459,6.00511475 36.9088033,6.05085246 36.7042131,6.09314754 C36.5060164,6.13445902 36.274377,6.16839344 36.0274918,6.1924918 C36.019623,6.21314754 36.0112623,6.23281967 36.001918,6.25298361 C36.1656885,6.43986885 36.3112623,6.62380328 36.4278197,6.79003279 C36.5473279,6.96118033 36.6402787,7.11167213 36.7012623,7.22085246 C36.7627377,7.32954098 36.7922459,7.39740984 36.7922459,7.39740984 C36.7922459,7.39740984 36.7229016,7.37183607 36.6107705,7.3172459 C36.4976557,7.26265574 36.3422459,7.17904918 36.1642131,7.06986885 C35.989623,6.96216393 35.7958525,6.82691803 35.5971639,6.6724918 C35.5642131,6.68921311 35.5312623,6.70445902 35.4963443,6.7177377 C35.4722459,6.96757377 35.4378197,7.20118033 35.3965082,7.40134426 C35.3537213,7.60593443 35.3079836,7.77659016 35.2701148,7.89560656 C35.2332295,8.01511475 35.2042131,8.08298361 35.2042131,8.08298361 C35.2042131,8.08298361 35.1756885,8.01511475 35.1383115,7.89560656 C35.1004426,7.77659016 35.0547049,7.60593443 35.0124098,7.40134426 C34.9710984,7.20413115 34.9376557,6.97495082 34.9135574,6.72954098 C34.889459,6.72167213 34.8648689,6.7167541 34.8417541,6.70691803 C34.6578197,6.8667541 34.4778197,7.00986885 34.314541,7.12396721 C34.1433934,7.24396721 33.9933934,7.33691803 33.8842131,7.39790164 C33.7755246,7.45937705 33.7081475,7.48937705 33.7081475,7.48937705 C33.7081475,7.48937705 33.7337213,7.42003279 33.7888033,7.30790164 C33.8433934,7.19527869 33.927,7.03986885 34.0366721,6.86183607 C34.1379836,6.69708197 34.2663443,6.51413115 34.4099508,6.3267541 C34.3838852,6.2824918 34.3612623,6.2362623 34.3430656,6.18757377 C34.1104426,6.16347541 33.8925738,6.1315082 33.7042131,6.09216393 C33.499623,6.04986885 33.3289672,6.00462295 33.2099508,5.9667541 C33.0904426,5.92986885 33.0225738,5.90134426 33.0225738,5.90134426 C33.0225738,5.90134426 33.0904426,5.87281967 33.2099508,5.83544262 L33.2099508,5.83544262 Z M38.9714262,12.2815082 C39.0540492,14.3805246 37.4247049,15.3331475 37.4247049,15.3331475 C38.5435574,12.5298689 36.4991311,10.9005246 36.4991311,10.9005246 L37.6873279,9.27068852 C37.6873279,9.27068852 38.8878197,10.1706885 38.9714262,12.2815082 L38.9714262,12.2815082 Z M41.3881475,10.969377 C41.8022459,14.6431475 38.3915902,15.0710164 38.3915902,15.0710164 C39.4410984,14.1597049 39.3860164,12.1157705 39.3860164,12.1157705 L41.3881475,10.969377 Z M40.1453607,14.8364262 C41.4432295,14.1179016 42.1750328,12.6956066 42.1750328,12.6956066 C42.7278197,15.0297049 40.1453607,14.8364262 40.1453607,14.8364262 L40.1453607,14.8364262 Z M35.0768361,17.7636393 L35.5189672,17.7636393 C35.5189672,17.7636393 37.6538852,19.2051148 39.2291311,18.9552787 C39.3073279,18.9424918 39.3604426,19.0310164 39.3132295,19.094459 C38.9650328,19.5636393 37.9332295,20.7341311 36.5960164,20.2772459 C34.9391311,19.7111803 35.0768361,17.7636393 35.0768361,17.7636393 L35.0768361,17.7636393 Z M33.2709344,20.2772459 C31.9337213,20.7341311 30.9024098,19.5636393 30.5537213,19.094459 C30.5065082,19.0310164 30.559623,18.9424918 30.6378197,18.9552787 C32.2135574,19.2051148 34.3479836,17.7636393 34.3479836,17.7636393 L34.7901148,17.7636393 C34.7901148,17.7636393 34.9278197,19.7111803 33.2709344,20.2772459 L33.2709344,20.2772459 Z M34.6701148,17.4926557 C34.6701148,17.4926557 32.7186393,15.8721639 32.5342131,13.8464262 C32.3502787,11.8211803 34.8909344,10.0718361 34.8909344,10.0718361 C34.8909344,10.0718361 37.1930656,11.3972459 37.3032295,13.754459 C37.3878197,15.556918 35.2961803,17.4926557 35.2961803,17.4926557 L34.6701148,17.4926557 Z M42.7415902,14.5049508 C42.7415902,14.5049508 42.8797869,16.9354426 40.6007705,18.1088852 C38.3222459,19.2828197 35.8366721,17.4877377 35.8366721,17.4877377 C36.9692951,15.8854426 38.1014262,15.4438033 39.9658525,15.4300328 C41.8297869,15.4162623 42.7278197,14.5600328 42.7278197,14.5600328 L42.7415902,14.5049508 Z M43.7301148,17.686918 C43.5855246,17.9308525 43.2442131,18.3223279 42.4514262,18.6754426 C41.1810984,19.2415082 40.0897869,18.6611803 40.0897869,18.6611803 C41.1968361,18.4880656 42.0137213,17.5300328 42.3127377,17.1272459 C42.3909344,17.0224918 42.529623,16.9816721 42.6525738,17.0259344 L43.6101148,17.3672459 C43.7409344,17.4134754 43.8004426,17.5674098 43.7301148,17.686918 L43.7301148,17.686918 Z M61.0410984,0.294295082 L8.82536066,0.294295082 C8.82536066,0.294295082 8.43880328,33.4359344 8.82536066,39.3464262 C9.21240984,45.256918 15.4597869,53.4316721 23.9183115,57.1324918 C32.164377,60.7403607 34.7871639,65.1331475 34.9140492,65.352 L34.9278197,65.352 C35.1388033,64.9954426 37.8171639,60.6887213 45.929459,57.1433115 C54.3988033,53.4415082 60.6535574,45.2652787 61.0410984,39.3538033 C61.4286393,33.4423279 61.0410984,0.294295082 61.0410984,0.294295082 L61.0410984,0.294295082 Z" id="Fill-128" fill="#FEFEFE" mask="url(#mask-4)"></path>
                            <path d="M42.7643607,25.6314098 C42.1919016,25.5276393 38.4537049,24.9379672 36.3015738,26.7768197 L36.3015738,26.350918 C38.5402623,24.6561639 42.0069836,25.1578033 42.7643607,25.293541 L42.7643607,25.6314098 Z M42.7643607,26.8191148 C42.1919016,26.7153443 38.4537049,26.1256721 36.3015738,27.9645246 L36.3015738,27.538623 C38.5402623,25.843377 42.0069836,26.3455082 42.7643607,26.4812459 L42.7643607,26.8191148 Z M42.7643607,28.0068197 C42.1919016,27.9025574 38.4537049,27.313377 36.3015738,29.1522295 L36.3015738,28.7258361 C38.5402623,27.031082 42.0069836,27.5332131 42.7643607,27.6689508 L42.7643607,28.0068197 Z M42.7643607,29.1945246 C42.1919016,29.0907541 38.4537049,28.501082 36.3015738,30.3399344 L36.3015738,29.9140328 C38.5402623,28.2187869 42.0069836,28.720918 42.7643607,28.8566557 L42.7643607,29.1945246 Z M42.7643607,30.3817377 C42.1919016,30.2779672 38.4537049,29.6887869 36.3015738,31.5271475 L36.3015738,31.1017377 C38.5402623,29.4064918 42.0069836,29.908623 42.7643607,30.0443607 L42.7643607,30.3817377 Z M33.6768197,26.7768197 C31.5246885,24.9379672 27.786,25.5276393 27.213541,25.6314098 L27.213541,25.293541 C27.9714098,25.1578033 31.4381311,24.6561639 33.6768197,26.350918 L33.6768197,26.7768197 Z M33.6768197,27.9645246 C31.5246885,26.1256721 27.786,26.7153443 27.213541,26.8191148 L27.213541,26.4812459 C27.9714098,26.3455082 31.4381311,25.843377 33.6768197,27.538623 L33.6768197,27.9645246 Z M33.6768197,29.1522295 C31.5246885,27.313377 27.786,27.9025574 27.213541,28.0068197 L27.213541,27.6689508 C27.9714098,27.5332131 31.4381311,27.031082 33.6768197,28.7258361 L33.6768197,29.1522295 Z M33.6768197,30.3399344 C31.5246885,28.501082 27.786,29.0907541 27.213541,29.1945246 L27.213541,28.8566557 C27.9714098,28.720918 31.4381311,28.2187869 33.6768197,29.9140328 L33.6768197,30.3399344 Z M33.6768197,31.5271475 C31.5246885,29.6887869 27.786,30.2779672 27.213541,30.3817377 L27.213541,30.0443607 C27.9714098,29.908623 31.4381311,29.4064918 33.6768197,31.1017377 L33.6768197,31.5271475 Z M35.5274754,23.7738689 L35.5274754,31.2099344 L34.6068197,31.2099344 L34.6068197,23.8058361 C30.8671475,20.9332131 26.9445246,22.4155082 26.2102623,22.7346885 L26.2102623,34.7922295 C27.1928852,34.5537049 30.4978033,33.8573115 32.6779672,34.681082 C34.3692787,35.320918 34.7228852,35.440918 35.0415738,35.4841967 L35.0415738,35.4837049 C35.4168197,35.5348525 35.5373115,35.4738689 35.7364918,35.373541 C35.821082,35.3307541 35.9169836,35.2825574 36.0414098,35.2373115 C36.0728852,35.226 36.126,35.203377 36.1982951,35.1723934 C39.5376393,33.7579672 41.9425574,34.0437049 43.4450164,34.6028852 L43.4450164,22.7278033 C42.7938689,22.4150164 39.3915738,21.0153443 35.5274754,23.7738689 L35.5274754,23.7738689 Z" id="Fill-129" fill="#FEFEFE" mask="url(#mask-4)"></path>
                        </g>
                    </g>
                </g>
            </g>
        </g>
    </g>
</svg>