<?xml version="1.0" encoding="UTF-8"?>
<svg width="240px" height="73px" viewBox="0 0 240 73" version="1.1" xmlns="http://www.w3.org/2000/svg" xmlns:xlink="http://www.w3.org/1999/xlink">
    <!-- Generator: sketchtool 60.1 (101010) - https://sketch.com -->
    <title>9706B4AA-E4A2-451C-87EF-13075A1E65A5</title>
    <desc>Created with sketchtool.</desc>
    <defs>
        <radialGradient cx="51.0576343%" cy="44.9047475%" fx="51.0576343%" fy="44.9047475%" r="48.3984692%" gradientTransform="translate(0.510576,0.449047),scale(1.000000,0.807697),translate(-0.510576,-0.449047)" id="radialGradient-1">
            <stop stop-color="#67AB44" offset="0%"></stop>
            <stop stop-color="#49863F" offset="41%"></stop>
            <stop stop-color="#3F6D35" offset="75%"></stop>
            <stop stop-color="#395F2F" offset="100%"></stop>
        </radialGradient>
        <linearGradient x1="49.9322988%" y1="99.981219%" x2="49.9322988%" y2="-1.39638189e-12%" id="linearGradient-2">
            <stop stop-color="#BC202E" offset="0%"></stop>
            <stop stop-color="#EA2127" offset="100%"></stop>
        </linearGradient>
        <linearGradient x1="49.9692543%" y1="100%" x2="49.9692543%" y2="0%" id="linearGradient-3">
            <stop stop-color="#BC202E" offset="0%"></stop>
            <stop stop-color="#EA2127" offset="100%"></stop>
        </linearGradient>
        <linearGradient x1="49.9951491%" y1="100.324939%" x2="49.9951491%" y2="0.162469537%" id="linearGradient-4">
            <stop stop-color="#BC202E" offset="0%"></stop>
            <stop stop-color="#EA2127" offset="100%"></stop>
        </linearGradient>
        <linearGradient x1="50.5217066%" y1="100.120048%" x2="50.5217066%" y2="0%" id="linearGradient-5">
            <stop stop-color="#BC202E" offset="0%"></stop>
            <stop stop-color="#EA2127" offset="100%"></stop>
        </linearGradient>
        <linearGradient x1="49.9647701%" y1="99.3869249%" x2="49.9647701%" y2="-0.458004262%" id="linearGradient-6">
            <stop stop-color="#BC202E" offset="0%"></stop>
            <stop stop-color="#EA2127" offset="100%"></stop>
        </linearGradient>
        <linearGradient x1="50.4017148%" y1="100.162206%" x2="50.4017148%" y2="0.162206002%" id="linearGradient-7">
            <stop stop-color="#BC202E" offset="0%"></stop>
            <stop stop-color="#EA2127" offset="100%"></stop>
        </linearGradient>
        <linearGradient x1="48.8315183%" y1="100.120048%" x2="48.8315183%" y2="0%" id="linearGradient-8">
            <stop stop-color="#BC202E" offset="0%"></stop>
            <stop stop-color="#EA2127" offset="100%"></stop>
        </linearGradient>
        <linearGradient x1="49.9215577%" y1="99.3869249%" x2="49.9215577%" y2="-0.458004262%" id="linearGradient-9">
            <stop stop-color="#BC202E" offset="0%"></stop>
            <stop stop-color="#EA2127" offset="100%"></stop>
        </linearGradient>
        <linearGradient x1="49.9964812%" y1="99.981219%" x2="49.9964812%" y2="-1.39638189e-12%" id="linearGradient-10">
            <stop stop-color="#BC202E" offset="0%"></stop>
            <stop stop-color="#EA2127" offset="100%"></stop>
        </linearGradient>
        <linearGradient x1="49.9839898%" y1="100%" x2="49.9839898%" y2="0%" id="linearGradient-11">
            <stop stop-color="#49863F" stop-opacity="0" offset="0%"></stop>
            <stop stop-color="#67AB44" offset="100%"></stop>
        </linearGradient>
    </defs>
    <g id="Page-1" stroke="none" stroke-width="1" fill="none" fill-rule="evenodd">
        <g id="01-01-NavPathway" transform="translate(-140.000000, -40.000000)" fill-rule="nonzero">
            <g id="Group-31">
                <g id="Group-17" transform="translate(140.000000, 33.000000)">
                    <g id="logo-color" transform="translate(0.000000, 7.000000)">
                        <path d="M8.82295082,0 C8.82295082,0 8.43442623,33.142623 8.82295082,39.0491803 C9.21147541,44.9557377 15.452459,53.1344262 23.9114754,56.8377049 C32.1590164,60.442623 34.7803279,64.8393443 34.9081967,65.0557377 L34.9081967,65.0557377 C35.1196721,64.7016393 37.795082,60.3934426 45.9098361,56.847541 C54.3786885,53.1442623 60.6344262,44.9704918 61.0229508,39.0590164 C61.4114754,33.147541 61.0229508,0 61.0229508,0 L8.82295082,0 Z" id="Path" fill="url(#radialGradient-1)"></path>
                        <g id="Group" style="mix-blend-mode: multiply;" transform="translate(26.557377, 8.852459)" fill="#BC202E">
                            <path d="M0.0196721311,5.59180328 C0.806908529,6.2037911 1.78775055,6.51270398 2.78360656,6.46229508 C4.64754098,6.46229508 5.77868852,6.91967213 6.9147541,8.52295082 C6.9147541,8.52295082 4.42622951,10.3180328 2.14918033,9.14262295 C0.812829131,8.4410777 -0.0146002449,7.04681165 0.00983606557,5.53770492" id="Path"></path>
                            <path d="M7.77540984,1.09672131 C7.77540984,1.09672131 5.23278689,2.84754098 5.4147541,4.86885246 C5.59672131,6.89016393 7.55409836,8.51803279 7.55409836,8.51803279 L8.17868852,8.51803279 C8.17868852,8.51803279 10.2688525,6.58032787 10.1852459,4.78032787 C10.0770492,2.4295082 7.77540984,1.09672131 7.77540984,1.09672131 Z" id="Path"></path>
                            <path d="M5.06065574,0.304918033 L6.25081967,1.93278689 C5.00909894,3.0479735 4.63476276,4.8400084 5.32622951,6.35901639 C4.30420621,5.68825039 3.7145576,4.52580028 3.77704918,3.30491803 C3.86065574,1.20491803 5.06065574,0.304918033 5.06065574,0.304918033 Z" id="Path"></path>
                            <path d="M1.36229508,2.00163934 L3.36393443,3.14754098 C3.36393443,3.14754098 3.30983607,5.19344262 4.34754098,6.09836066 C3.39811368,5.97252326 2.54166266,5.46329712 1.97763482,4.6892688 C1.41360698,3.91524047 1.19123178,2.94396869 1.36229508,2.00163934 L1.36229508,2.00163934 Z" id="Path"></path>
                            <path d="M0.575409836,3.72786885 C1.05336927,4.60629524 1.75165172,5.34525433 2.60163934,5.87213115 C2.60163934,5.87213115 0.0196721311,6.06393443 0.575409836,3.72786885 Z" id="Path"></path>
                            <path d="M10.5688525,0.304918033 L9.39836066,1.93278689 C10.6386464,3.04879941 11.0127719,4.839826 10.3229508,6.35901639 C11.3431001,5.6870642 11.9307677,4.52483 11.8672131,3.30491803 C11.7688525,1.20491803 10.5688525,0.304918033 10.5688525,0.304918033 Z" id="Path"></path>
                            <path d="M14.2721311,2.00163934 L12.2655738,3.14754098 C12.2655738,3.14754098 12.3245902,5.19344262 11.2819672,6.09836066 C12.231664,5.9724022 13.0884746,5.46336542 13.6532757,4.6895507 C14.2180769,3.91573598 14.4416841,2.94452923 14.2721311,2.00163934 L14.2721311,2.00163934 Z" id="Path"></path>
                            <path d="M15.0590164,3.72786885 C14.5800631,4.60717106 13.87995,5.34627346 13.0278689,5.87213115 C13.0278689,5.87213115 15.6098361,6.06393443 15.0590164,3.72786885 Z" id="Path"></path>
                            <path d="M15.6098361,5.59180328 C14.8225997,6.2037911 13.8417576,6.51270398 12.8459016,6.46229508 C10.9819672,6.46229508 9.85081967,6.91967213 8.71967213,8.52295082 C8.71967213,8.52295082 11.1786885,10.3180328 13.4852459,9.14262295 C14.8215971,8.4410777 15.6490265,7.04681165 15.6245902,5.53770492" id="Path"></path>
                        </g>
                        <path d="M26.6114754,14.2622951 C27.4001426,14.8715492 28.3799478,15.1801355 29.3754098,15.1327869 C31.2393443,15.1327869 32.3704918,15.5901639 33.5016393,17.1934426 C33.5016393,17.1934426 31.042623,18.9885246 28.7409836,17.8131148 C27.4027263,17.1129182 26.5732334,15.7183809 26.5967213,14.2081967" id="Path" fill="url(#linearGradient-2)"></path>
                        <path d="M34.357377,9.77704918 C34.357377,9.77704918 31.8196721,11.5229508 32.0016393,13.5491803 C32.1836066,15.5754098 34.1360656,17.1983607 34.1360656,17.1983607 L34.7655738,17.1983607 C34.7655738,17.1983607 36.8557377,15.2606557 36.7721311,13.4606557 C36.6590164,11.1 34.357377,9.77704918 34.357377,9.77704918 Z" id="Path" fill="url(#linearGradient-3)"></path>
                        <path d="M31.647541,8.96557377 L32.8377049,10.5934426 C31.5957068,11.7082396 31.2195545,13.4994407 31.9081967,15.0196721 C30.8880474,14.3477199 30.3003799,13.1854857 30.3639344,11.9655738 C30.447541,9.87540984 31.647541,8.96557377 31.647541,8.96557377 Z" id="Path" fill="url(#linearGradient-4)"></path>
                        <path d="M27.9491803,10.6721311 L29.9508197,11.8180328 C29.9508197,11.8180328 29.8918033,13.8639344 30.9344262,14.7688525 C29.9849989,14.6430151 29.1285479,14.1337889 28.5645201,13.3597606 C28.0004922,12.5857323 27.778117,11.6144605 27.9491803,10.6721311 L27.9491803,10.6721311 Z" id="Path" fill="url(#linearGradient-5)"></path>
                        <path d="M27.1622951,12.4081967 C27.6383932,13.2879721 28.3370849,14.0273642 29.1885246,14.552459 C29.1885246,14.552459 26.6114754,14.7344262 27.1622951,12.4081967 Z" id="Path" fill="url(#linearGradient-6)"></path>
                        <path d="M37.1557377,8.96557377 L35.9557377,10.6032787 C37.1977359,11.7180757 37.5738881,13.5092767 36.8852459,15.0295082 C37.9053952,14.357556 38.4930628,13.1953218 38.4295082,11.9754098 C38.3557377,9.87540984 37.1557377,8.96557377 37.1557377,8.96557377 Z" id="Path" fill="url(#linearGradient-7)"></path>
                        <path d="M40.8737705,10.6721311 L38.8721311,11.8180328 C38.8721311,11.8180328 38.9311475,13.8639344 37.8885246,14.7688525 C38.8379519,14.6430151 39.6944029,14.1337889 40.2584308,13.3597606 C40.8224586,12.5857323 41.0448338,11.6144605 40.8737705,10.6721311 L40.8737705,10.6721311 Z" id="Path" fill="url(#linearGradient-8)"></path>
                        <path d="M41.6459016,12.4081967 C41.1669483,13.2874989 40.4668353,14.0266013 39.6147541,14.552459 C39.6147541,14.552459 42.1967213,14.7344262 41.6459016,12.4081967 Z" id="Path" fill="url(#linearGradient-9)"></path>
                        <path d="M42.1967213,14.2622951 C41.4080541,14.8715492 40.4282489,15.1801355 39.4327869,15.1327869 C37.5688525,15.1327869 36.4377049,15.5901639 35.3065574,17.1934426 C35.3065574,17.1934426 37.7901639,18.9885246 40.0672131,17.8131148 C41.4054705,17.1129182 42.2349633,15.7183809 42.2114754,14.2081967" id="Path" fill="url(#linearGradient-10)"></path>
                        <path d="M33.8163934,17.6901639 C33.8163934,17.6901639 31.6819672,19.1311475 30.1081967,18.8852459 C30.072912,18.8788033 30.0372268,18.8942889 30.0178309,18.9244604 C29.998435,18.9546319 29.999162,18.9935254 30.0196721,19.0229508 C30.3688525,19.4901639 31.4016393,20.6606557 32.7393443,20.2032787 C34.3967213,19.6377049 34.2590164,17.6901639 34.2590164,17.6901639 L33.8163934,17.6901639 Z" id="Path" fill="#395F2F"></path>
                        <path d="M27.0245902,17.0557377 C27.5500945,17.8247415 28.3421681,18.3714825 29.247541,18.5901639 C28.4956245,18.929966 27.6338837,18.929966 26.8819672,18.5901639 C26.3660679,18.3991641 25.9202193,18.0562036 25.6032787,17.6065574 C25.5704419,17.548892 25.5652139,17.479535 25.5890355,17.4175988 C25.6128571,17.3556626 25.663214,17.3076844 25.7262295,17.2868852 L26.6803279,16.942623 C26.807467,16.9022967 26.9461458,16.9478626 27.0245902,17.0557377 L27.0245902,17.0557377 Z" id="Path" fill="#395F2F"></path>
                        <path d="M34.9721311,17.6901639 C34.9721311,17.6901639 37.1065574,19.1311475 38.6803279,18.8852459 C38.7156126,18.8788033 38.7512977,18.8942889 38.7706937,18.9244604 C38.7900896,18.9546319 38.7893625,18.9935254 38.7688525,19.0229508 C38.4196721,19.4901639 37.3868852,20.6606557 36.0491803,20.2032787 C34.3918033,19.6377049 34.5295082,17.6901639 34.5295082,17.6901639 L34.9721311,17.6901639 Z" id="Path" fill="#395F2F"></path>
                        <path d="M41.7786885,17.0557377 C41.2531842,17.8247415 40.4611106,18.3714825 39.5557377,18.5901639 C40.3076542,18.929966 41.169395,18.929966 41.9213115,18.5901639 C42.4372108,18.3991641 42.8830594,18.0562036 43.2,17.6065574 C43.2328368,17.548892 43.2380648,17.479535 43.2142432,17.4175988 C43.1904216,17.3556626 43.1400647,17.3076844 43.0770492,17.2868852 L42.1229508,16.942623 C41.9958117,16.9022967 41.8571329,16.9478626 41.7786885,17.0557377 L41.7786885,17.0557377 Z" id="Path" fill="#395F2F"></path>
                        <path d="M33.8163934,17.4688525 C33.8163934,17.4688525 31.6819672,18.9098361 30.1081967,18.6590164 C30.072912,18.6525737 30.0372268,18.6680594 30.0178309,18.6982309 C29.998435,18.7284023 29.999162,18.7672959 30.0196721,18.7967213 C30.3688525,19.2885246 31.4016393,20.4393443 32.7393443,19.9819672 C34.3967213,19.4163934 34.2590164,17.4688525 34.2590164,17.4688525 L33.8163934,17.4688525 Z" id="Path" fill="#67AB44"></path>
                        <path d="M27.0245902,16.8344262 C27.5500945,17.60343 28.3421681,18.150171 29.247541,18.3688525 C28.4956245,18.7086545 27.6338837,18.7086545 26.8819672,18.3688525 C26.3651512,18.1795136 25.918849,17.8362042 25.6032787,17.3852459 C25.5704419,17.3275805 25.5652139,17.2582235 25.5890355,17.1962873 C25.6128571,17.1343511 25.663214,17.0863729 25.7262295,17.0655738 L26.6803279,16.7262295 C26.8063964,16.6832303 26.9457861,16.7270385 27.0245902,16.8344262 L27.0245902,16.8344262 Z" id="Path" fill="#67AB44"></path>
                        <path d="M34.9721311,17.4688525 C34.9721311,17.4688525 37.1065574,18.9098361 38.6803279,18.6590164 C38.7156126,18.6525737 38.7512977,18.6680594 38.7706937,18.6982309 C38.7900896,18.7284023 38.7893625,18.7672959 38.7688525,18.7967213 C38.4196721,19.2885246 37.3868852,20.4393443 36.0491803,19.9819672 C34.3918033,19.4163934 34.5295082,17.4688525 34.5295082,17.4688525 L34.9721311,17.4688525 Z" id="Path" fill="#67AB44"></path>
                        <path d="M41.7786885,16.8344262 C41.2531842,17.60343 40.4611106,18.150171 39.5557377,18.3688525 C40.3076542,18.7086545 41.169395,18.7086545 41.9213115,18.3688525 C42.4381275,18.1795136 42.8844297,17.8362042 43.2,17.3852459 C43.2328368,17.3275805 43.2380648,17.2582235 43.2142432,17.1962873 C43.1904216,17.1343511 43.1400647,17.0863729 43.0770492,17.0655738 L42.1229508,16.7262295 C41.9968823,16.6832303 41.8574926,16.7270385 41.7786885,16.8344262 Z" id="Path" fill="#67AB44"></path>
                        <path d="M36.1721311,5.79836066 C36.3786885,5.75409836 36.5459016,5.70983607 36.6639344,5.6704918 C36.7273469,5.65259808 36.7897348,5.63125483 36.8508197,5.60655738 L36.6639344,5.53770492 C36.5409836,5.50327869 36.3737705,5.45409836 36.1721311,5.4147541 C35.9704918,5.37540984 35.7540984,5.34098361 35.5131148,5.31639344 C35.4997132,5.27267924 35.4832799,5.22995268 35.4639344,5.18852459 C35.6065574,4.99672131 35.7393443,4.80983607 35.842623,4.64754098 C35.9459016,4.4852459 36.0344262,4.31311475 36.0885246,4.2 C36.142623,4.08688525 36.1672131,4.01803279 36.1672131,4.01803279 L35.9901639,4.10655738 C35.8819672,4.1704918 35.7344262,4.26393443 35.5622951,4.38196721 C35.3901639,4.5 35.2377049,4.62786885 35.0704918,4.77540984 L34.9672131,4.73114754 C34.9465681,4.52151448 34.9153811,4.31305385 34.8737705,4.10655738 C34.839533,3.94055646 34.7968546,3.77640899 34.7459016,3.6147541 C34.7280079,3.55134166 34.7066647,3.4889537 34.6819672,3.42786885 C34.6572698,3.4889537 34.6359265,3.55134166 34.6180328,3.6147541 C34.5670798,3.77640899 34.5244015,3.94055646 34.4901639,4.10655738 C34.4557377,4.28852459 34.4213115,4.49508197 34.3967213,4.72131148 C34.3382529,4.7369709 34.2820507,4.76011298 34.2295082,4.79016393 C34.052459,4.65737705 33.8803279,4.53442623 33.7377049,4.43606557 C33.595082,4.33770492 33.4032787,4.2442623 33.2901639,4.19016393 C33.1770492,4.13606557 33.1081967,4.11147541 33.1081967,4.11147541 C33.1081967,4.11147541 33.1377049,4.17540984 33.2016393,4.28360656 C33.2836603,4.43280117 33.3739654,4.57728932 33.4721311,4.71639344 C33.5929756,4.88699007 33.722661,5.05114877 33.8606557,5.20819672 C33.8437562,5.24670276 33.82898,5.28610612 33.8163934,5.32622951 C33.608386,5.34685554 33.4015617,5.37804333 33.1967213,5.41967213 C32.9901639,5.46393443 32.8229508,5.50819672 32.704918,5.54262295 L32.5131148,5.61147541 C32.5757255,5.63656956 32.6397729,5.6579187 32.704918,5.67540984 C32.8664975,5.72662498 33.0306586,5.76930688 33.1967213,5.80327869 C33.3836066,5.84262295 33.604918,5.87213115 33.8360656,5.89672131 C33.8540495,5.94494286 33.8771311,5.9911062 33.904918,6.03442623 C33.7696391,6.20541938 33.6448212,6.38443445 33.5311475,6.5704918 C33.4386544,6.71451484 33.3548969,6.86396437 33.2803279,7.01803279 C33.2262295,7.13114754 33.2016393,7.2 33.2016393,7.2 C33.2624137,7.1723037 33.3215295,7.14110371 33.3786885,7.10655738 C33.5264747,7.02303488 33.6693337,6.93107969 33.8065574,6.83114754 C33.9888686,6.70246798 34.164506,6.56458437 34.3327869,6.41803279 L34.4065574,6.41803279 C34.4311475,6.66393443 34.4655738,6.90983607 34.504918,7.09180328 C34.5442623,7.27377049 34.5934426,7.46557377 34.6327869,7.58360656 C34.5982329,7.61084343 34.5847281,7.65698115 34.599142,7.69855117 C34.6135558,7.74012119 34.6527233,7.76799552 34.6967213,7.76799552 C34.7407193,7.76799552 34.7798868,7.74012119 34.7943006,7.69855117 C34.8087145,7.65698115 34.7952097,7.61084343 34.7606557,7.58360656 C34.8,7.46557377 34.8442623,7.29344262 34.8885246,7.09180328 C34.9368253,6.86643749 34.9696886,6.63803792 34.9868852,6.40819672 L35.0901639,6.36393443 C35.270997,6.50580653 35.4598329,6.63717058 35.6557377,6.75737705 C35.7997607,6.84987023 35.9492103,6.93362766 36.1032787,7.00819672 C36.2163934,7.06229508 36.2852459,7.08688525 36.2852459,7.08688525 C36.2575496,7.0261109 36.2263496,6.96699512 36.1918033,6.90983607 C36.109581,6.7623446 36.0192797,6.61950435 35.9213115,6.48196721 C35.7891713,6.29359056 35.6463127,6.11296481 35.4934426,5.94098361 C35.4953823,5.92135929 35.4953823,5.90159153 35.4934426,5.88196721 C35.7442623,5.87213115 35.9557377,5.83770492 36.1721311,5.79836066 Z" id="Path" fill="#FFFFFF"></path>
                        <rect id="Rectangle" fill="#49863F" x="29.5081967" y="50.6606557" width="10.2245902" height="2.12459016"></rect>
                        <rect id="Rectangle" fill="#49863F" x="30.0245902" y="48.0737705" width="9.18688525" height="1.49016393"></rect>
                        <rect id="Rectangle" fill="#49863F" x="30.4672131" y="46.0081967" width="8.30655738" height="1.29836066"></rect>
                        <rect id="Rectangle" fill="#49863F" x="30.8852459" y="44.4245902" width="7.46557377" height="1"></rect>
                        <rect id="Rectangle" fill="#49863F" x="31.2540984" y="42.895082" width="6.73278689" height="1.05245902"></rect>
                        <rect id="Rectangle" fill="#49863F" x="31.5934426" y="41.6163934" width="6.04918033" height="1"></rect>
                        <rect id="Rectangle" fill="#49863F" x="31.8983607" y="40.3672131" width="5.45409836" height="1"></rect>
                        <rect id="Rectangle" fill="#49863F" x="32.1639344" y="39.3245902" width="4.90819672" height="1"></rect>
                        <polygon id="Path" fill="#67AB44" points="39.2213115 49.5590164 30.0245902 49.5590164 29.5131148 50.6606557 39.7327869 50.6606557"></polygon>
                        <polygon id="Path" fill="url(#linearGradient-11)" points="39.7377049 52.7852459 29.4983607 52.7852459 26.9655738 57.6983607 42.3245902 57.6983607"></polygon>
                        <polygon id="Path" fill="#67AB44" points="38.7639344 47.3065574 30.4770492 47.3065574 30.0147541 48.0786885 39.2262295 48.0786885"></polygon>
                        <polygon id="Path" fill="#67AB44" points="38.3557377 45.3393443 30.8803279 45.3393443 30.4622951 46.0081967 38.7737705 46.0081967"></polygon>
                        <polygon id="Path" fill="#67AB44" points="37.9819672 43.952459 31.3032787 43.952459 30.9295082 44.4245902 38.3508197 44.4245902"></polygon>
                        <polygon id="Path" fill="#67AB44" points="37.642623 42.3540984 31.5934426 42.3540984 31.2540984 42.9098361 37.9819672 42.9098361"></polygon>
                        <polygon id="Path" fill="#67AB44" points="37.352459 41.2180328 31.8983607 41.2180328 31.5983607 41.6163934 37.652459 41.6163934"></polygon>
                        <polygon id="Path" fill="#67AB44" points="37.0721311 39.9295082 32.1688525 39.9295082 31.8983607 40.3672131 37.347541 40.3672131"></polygon>
                        <polygon id="Path" fill="#67AB44" points="36.8262295 39.0295082 32.4098361 39.0295082 32.1639344 39.3245902 37.0721311 39.3245902"></polygon>
                        <path d="M27.6245902,69.0983607 C25.6967213,67.4803279 23.3409836,66.4327869 20.247541,64.8688525 C17.6029967,63.5979247 15.030268,62.1826776 12.5409836,60.6295082 C5.39016393,55.9770492 2.21311475,48.8704918 2.04098361,48.5557377 L6.14262295,45.604918 C6.17704918,45.6737705 9.63934426,52.1508197 15.5508197,55.9918033 C17.8733379,57.4287562 20.2701177,58.7420603 22.7311475,59.9262295 C26.1196721,61.647541 29.0704918,63.0098361 31.5,65.0311475 L31.1163934,65.4836066 L29.8672131,64.8590164 L27.6245902,69.0983607 Z" id="Path" fill="#395F2F"></path>
                        <path d="M1.69672131,47.6311475 L6.12295082,44.2819672 L8.00163934,46.6770492 C8.56607364,45.8555381 8.52202843,44.7604138 7.89344262,43.9868852 C7.2267978,43.1028336 6.44627368,42.3107339 5.57213115,41.6311475 L0.00983606557,46.0868852 L1.69672131,47.6311475 Z" id="Path" fill="#395F2F"></path>
                        <path d="M41.8819672,69.0983607 C43.8098361,67.4803279 46.1655738,66.4327869 49.2590164,64.8688525 C51.9051625,63.5979441 54.4795292,62.1826992 56.9704918,60.6295082 C64.1213115,55.9770492 67.2983607,48.8704918 67.4704918,48.5557377 L63.3688525,45.604918 C63.3344262,45.6737705 59.8672131,52.1508197 53.9606557,55.9918033 C51.6370485,57.4297856 49.2385763,58.7431174 46.7754098,59.9262295 C43.3770492,61.6377049 40.4163934,63 37.9967213,65.0311475 L38.3754098,65.4836066 L39.6295082,64.8590164 L41.8819672,69.0983607 Z" id="Path" fill="#395F2F"></path>
                        <path d="M67.8098361,47.6311475 L63.3836066,44.2819672 L61.5295082,46.6770492 C60.9650739,45.8555381 61.0091191,44.7604138 61.6377049,43.9868852 C62.3028461,43.1015368 63.0835552,42.3092494 63.9590164,41.6311475 L69.5213115,46.0868852 L67.8098361,47.6311475 Z" id="Path" fill="#395F2F"></path>
                        <path d="M7.4852459,52.7360656 L7.97704918,53.3311475 C7.90079337,53.4030171 7.84337128,53.492528 7.80983607,53.5918033 C7.77603471,53.7295767 7.80880617,53.8752276 7.89836066,53.9852459 C7.95553999,54.066411 8.03888729,54.1254487 8.13442623,54.152459 C8.2072743,54.1710691 8.28462089,54.156679 8.34590164,54.1131148 C8.40038795,54.065512 8.43395382,53.9983802 8.43934426,53.9262295 C8.42496618,53.7744398 8.37978322,53.6271768 8.30655738,53.4934426 C8.17218166,53.2399732 8.09812816,52.9589066 8.09016393,52.6721311 C8.10042678,52.4754726 8.20006762,52.2943075 8.36065574,52.1803279 C8.47080288,52.0944473 8.6047641,52.0446412 8.7442623,52.0377049 C8.90256601,52.0270328 9.06037098,52.0647688 9.19672131,52.1459016 C9.38940018,52.2662389 9.55651043,52.4233225 9.68852459,52.6081967 C9.87203162,52.8155031 9.98559904,53.0753316 10.0131149,53.3508197 C10.0132404,53.5916208 9.90705253,53.8201947 9.72295082,53.9754098 L9.23114754,53.3803279 C9.30465893,53.3117418 9.35167056,53.2194597 9.36393443,53.1196721 C9.3646532,53.0197459 9.32778988,52.9231991 9.26065574,52.8491803 C9.21833795,52.7830701 9.15380992,52.734238 9.07868852,52.7114754 C9.02222862,52.6953254 8.96143473,52.7082211 8.91639344,52.7459016 C8.88167106,52.7752173 8.86183593,52.8184939 8.86229508,52.8639344 C8.87142983,52.9626298 8.90161625,53.0582202 8.95081967,53.1442623 C9.07600999,53.3860543 9.17177466,53.6419772 9.23606557,53.9065574 C9.27213293,54.0585416 9.26185531,54.2178448 9.20655738,54.3639344 C9.15579866,54.49394 9.06873407,54.6066118 8.9557377,54.6885246 C8.81350877,54.795971 8.64201294,54.8577095 8.46393443,54.8655738 C8.29234198,54.8714335 8.12237324,54.830641 7.97213115,54.747541 C7.77996835,54.632682 7.61274742,54.4805109 7.48032787,54.3 C7.24671792,54.0527031 7.11651492,53.7254361 7.11639344,53.3852459 C7.15543418,53.1308929 7.28673197,52.8998088 7.4852459,52.7360656 L7.4852459,52.7360656 Z" id="Path" fill="#FFFFFF"></path>
                        <path d="M10.0672131,56.4934426 L9.39836066,55.8147541 L8.9852459,56.0311475 L8.39508197,55.4213115 L11.0311475,54.2754098 L11.6606557,54.9245902 L10.4360656,57.5213115 L9.82622951,56.8967213 L10.0672131,56.4934426 Z M10.3672131,55.9672131 L10.8590164,55.0770492 L9.95901639,55.5393443 L10.3672131,55.9672131 Z" id="Shape" fill="#FFFFFF"></path>
                        <path d="M12.3983607,55.642623 L13.5098361,56.4639344 C13.7162771,56.5956194 13.864186,56.8016353 13.9229508,57.0393443 C13.9532975,57.2639019 13.8871894,57.4908134 13.7409836,57.6639344 C13.6100434,57.8627968 13.4009438,57.996835 13.1655738,58.0327869 C12.8957669,58.0409654 12.6326469,57.9479964 12.4278689,57.7721311 L12.0639344,57.5016393 L11.4688525,58.3032787 L10.8,57.8114754 L12.3983607,55.642623 Z M12.3983607,57.0639344 L12.5606557,57.1819672 C12.6476006,57.2635061 12.7611998,57.3106935 12.8803279,57.3147541 C12.9628421,57.3105737 13.0389212,57.2689114 13.0868852,57.2016393 C13.1345698,57.1383412 13.1557369,57.0589646 13.1459016,56.9803279 C13.1138443,56.8711845 13.0418517,56.7781209 12.9442623,56.7196721 L12.752459,56.5819672 L12.3983607,57.0639344 Z" id="Shape" fill="#FFFFFF"></path>
                        <polygon id="Path" fill="#FFFFFF" points="14.4836066 57.0836066 15.2065574 57.5016393 13.8590164 59.8278689 13.1409836 59.4098361"></polygon>
                        <polygon id="Path" fill="#FFFFFF" points="15.6737705 57.7721311 17.6409836 58.8590164 17.3606557 59.3508197 16.1409836 58.6721311 15.9344262 59.0409836 17.0606557 59.6754098 16.795082 60.1672131 15.6688525 59.5377049 15.4081967 60 16.6622951 60.6983607 16.3622951 61.2295082 14.395082 60.1229508"></polygon>
                        <polygon id="Path" fill="#FFFFFF" points="18.0196721 59.0754098 18.6983607 59.4442623 18.8852459 61.2344262 19.5934426 59.9262295 20.2819672 60.3 19.0032787 62.6655738 18.3147541 62.2918033 18.1278689 60.5163934 17.4245902 61.8147541 16.7409836 61.4409836"></polygon>
                        <polygon id="Path" fill="#FFFFFF" points="20.5672131 60.452459 22.8 61.6327869 22.4901639 62.2229508 21.742623 61.8245902 20.7934426 63.6147541 20.0606557 63.2262295 21.0098361 61.4360656 20.257377 61.0377049"></polygon>
                        <polygon id="Path" fill="#FFFFFF" points="23.1688525 61.8196721 23.9065574 62.2032787 22.657377 64.5885246 21.9196721 64.2"></polygon>
                        <path d="M24.8409836,65.2278689 L24.004918,64.795082 L23.6852459,65.1295082 L22.9327869,64.7360656 L25.0672131,62.8180328 L25.8737705,63.2360656 L25.5295082,66.0885246 L24.757377,65.6852459 L24.8409836,65.2278689 Z M24.9590164,64.6327869 L25.1409836,63.6491803 L24.4327869,64.3721311 L24.9590164,64.6327869 Z" id="Shape" fill="#FFFFFF"></path>
                        <path d="M30.2704918,65.5672131 C31.714121,66.2345963 33.283397,66.5866774 34.8737705,66.6 C36.381821,66.613644 37.8671543,66.2321371 39.1819672,65.4934426 L42.2754098,70.9032787 C39.9509061,71.9576419 37.4261968,72.4978123 34.8737705,72.4868852 C32.3176567,72.495649 29.7785036,72.0716254 27.3639344,71.2327869 L30.2704918,65.5672131 Z" id="Path" fill="#395F2F"></path>
                        <path d="M30.0196721,69.2704918 C30.003345,68.9885466 30.0908184,68.7103809 30.2655738,68.4885246 C30.6551035,68.1169393 31.2678473,68.1169393 31.657377,68.4885246 C31.8341535,68.7035625 31.9221153,68.9780032 31.9032787,69.2557377 C31.9105808,69.4575222 31.8753941,69.6585889 31.8,69.8459016 C31.7328338,69.9925195 31.6253806,70.1170287 31.4901639,70.204918 C31.340803,70.2912159 31.1708401,70.3354062 30.9983607,70.3327869 C30.8276579,70.3357223 30.6588247,70.2968907 30.5065574,70.2196721 C30.3640155,70.1391789 30.2491509,70.0174567 30.1770492,69.8704918 C30.0753718,69.6867468 30.0212708,69.480487 30.0196721,69.2704918 Z M30.5803279,69.2704918 C30.5669359,69.4268138 30.6030682,69.583387 30.6836066,69.7180328 C30.7491181,69.8067632 30.8536658,69.85812 30.9639344,69.8557377 C31.0734951,69.8601072 31.1782382,69.810492 31.2442623,69.7229508 C31.3251474,69.5724169 31.3593884,69.4012116 31.342623,69.2311475 C31.3544954,69.0827324 31.3182837,68.9344369 31.2393443,68.8081967 C31.1711567,68.7248523 31.0691594,68.6765164 30.9614754,68.6765164 C30.8537915,68.6765164 30.7517941,68.7248523 30.6836066,68.8081967 C30.6009605,68.9474173 30.5647872,69.1093359 30.5803279,69.2704918 Z" id="Shape" fill="#FFFFFF"></path>
                        <path d="M32.1639344,70.2934426 L32.1639344,68.242623 L33.1032787,68.242623 C33.2381725,68.2379364 33.3728807,68.2562302 33.5016393,68.2967213 C33.596742,68.3281596 33.6760285,68.3951127 33.7229508,68.4836066 C33.7828085,68.5827509 33.8119051,68.6974257 33.8065574,68.8131148 C33.809901,68.9152423 33.7879376,69.0166118 33.742623,69.1081967 C33.7034384,69.1905219 33.6421401,69.2603338 33.5655738,69.3098361 C33.5045238,69.3462025 33.4381413,69.3727555 33.3688525,69.3885246 C33.4218353,69.4046328 33.4717172,69.4295737 33.5163934,69.4622951 C33.548521,69.4961357 33.5781095,69.5322993 33.604918,69.5704918 C33.6346256,69.6108741 33.6609447,69.6536426 33.6836066,69.6983607 L33.9590164,70.2934426 L33.3196721,70.2934426 L33.0196721,69.6688525 C32.9962651,69.608483 32.9611675,69.5533297 32.9163934,69.5065574 C32.876745,69.4767962 32.8282521,69.4612093 32.7786885,69.4622951 L32.7295082,69.4622951 L32.7295082,70.2934426 L32.1639344,70.2934426 Z M32.7295082,69.0737705 L32.9655738,69.0737705 C33.0173269,69.0695924 33.0684582,69.0596961 33.1180328,69.0442623 C33.1556147,69.0372556 33.1880902,69.0138011 33.2065574,68.9803279 C33.231786,68.9461145 33.2455565,68.904803 33.2459016,68.8622951 C33.2486374,68.8054223 33.2272006,68.7500439 33.1868852,68.7098361 C33.1268035,68.6674972 33.0534502,68.6482856 32.9803279,68.6557377 L32.7295082,68.6557377 L32.7295082,69.0737705 Z" id="Shape" fill="#FFFFFF"></path>
                        <path d="M33.9885246,69.6147541 L34.5245902,69.5754098 C34.5287998,69.6552972 34.5524338,69.7329517 34.5934426,69.8016393 C34.6498889,69.8835566 34.7449359,69.9301483 34.8442623,69.9245902 C34.9112544,69.9301598 34.9774437,69.9069041 35.0262295,69.8606557 C35.0699511,69.82414 35.0951794,69.7700794 35.095082,69.7131148 C35.0927654,69.6591537 35.06989,69.608124 35.0311475,69.5704918 C34.9441392,69.5105543 34.8451252,69.4702774 34.7409836,69.452459 C34.5476334,69.416212 34.3666025,69.3316182 34.2147541,69.2065574 C34.1097238,69.1010769 34.0527967,68.9569801 34.057377,68.8081967 C34.0565493,68.7045439 34.0837364,68.6025923 34.1360656,68.5131148 C34.1943744,68.4166756 34.27994,68.3396665 34.3819672,68.2918033 C34.5229729,68.230669 34.6759415,68.2020925 34.8295082,68.2081967 C35.0181863,68.1955214 35.2055462,68.2475658 35.3606557,68.3557377 C35.4937826,68.4736614 35.5735971,68.6403851 35.5819672,68.8180328 L35.0508197,68.857377 C35.0449218,68.7820974 35.0137212,68.7110293 34.9622951,68.6557377 C34.9110758,68.6102587 34.8437532,68.5872273 34.7754098,68.5918033 C34.7223099,68.5864507 34.6692537,68.6023676 34.6278689,68.6360656 C34.5949711,68.6663021 34.5769935,68.7094482 34.5786885,68.7540984 C34.5779099,68.7866071 34.5924873,68.817584 34.6180328,68.8377049 C34.6723825,68.8798127 34.7368177,68.9069433 34.804918,68.9163934 C34.9893765,68.9527691 35.1680525,69.0139822 35.3360656,69.0983607 C35.4333254,69.1498932 35.5136012,69.228461 35.5672131,69.3245902 C35.6169389,69.4166804 35.6423308,69.519941 35.6409836,69.6245902 C35.6416807,69.7525604 35.6076894,69.8783282 35.542623,69.9885246 C35.4821382,70.099325 35.3871748,70.187382 35.2721311,70.2393443 C35.1349463,70.3020206 34.9851853,70.3323094 34.8344262,70.3278689 C34.6235946,70.3678601 34.4059632,70.3107834 34.2418944,70.1724696 C34.0778257,70.0341558 33.9847653,69.8293121 33.9885246,69.6147541 L33.9885246,69.6147541 Z" id="Path" fill="#FFFFFF"></path>
                        <path d="M37.057377,68.242623 L37.6180328,68.242623 L37.6180328,69.457377 C37.619642,69.5739904 37.603049,69.6901411 37.5688525,69.8016393 C37.536375,69.9049733 37.4827836,70.000433 37.4114754,70.0819672 C37.3498224,70.1554727 37.2725313,70.2142811 37.1852459,70.2540984 C37.0597611,70.3021903 36.9261625,70.3255701 36.7918033,70.3229508 C36.7032787,70.3229508 36.604918,70.3229508 36.5016393,70.3229508 C36.3180174,70.3083628 36.1504031,70.2128407 36.0442623,70.0622951 C35.9895166,69.9922984 35.9493795,69.912024 35.9262295,69.8262295 C35.8935905,69.7125729 35.8754143,69.5952539 35.8721311,69.4770492 L35.8721311,68.257377 L36.447541,68.257377 L36.447541,69.5065574 C36.4425598,69.6022565 36.4722429,69.6965442 36.5311475,69.7721311 C36.5913603,69.834795 36.6754505,69.8687889 36.7622951,69.8655738 C36.84756,69.8680048 36.9298284,69.8340244 36.9885246,69.7721311 C37.0474292,69.6965442 37.0771123,69.6022565 37.0721311,69.5065574 L37.057377,68.242623 Z" id="Path" fill="#FFFFFF"></path>
                        <path d="M37.8442623,69.6147541 L38.3754098,69.5754098 C38.3841098,69.6551057 38.4092279,69.7321345 38.4491803,69.8016393 C38.5040437,69.8827627 38.5972653,69.9293735 38.695082,69.9245902 C38.7635747,69.9303338 38.8313451,69.9071492 38.8819672,69.8606557 C38.9244284,69.8236265 38.9479188,69.7694179 38.9459016,69.7131148 C38.9453986,69.6597337 38.9242483,69.6086204 38.8868852,69.5704918 C38.799378,69.5114845 38.7005708,69.4712918 38.5967213,69.452459 C38.4033711,69.416212 38.2223402,69.3316182 38.0704918,69.2065574 C37.962114,69.1029541 37.9030751,68.9580405 37.9081967,68.8081967 C37.9093389,68.7041528 37.9381988,68.6022944 37.9918033,68.5131148 C38.0501121,68.4166756 38.1356777,68.3396665 38.2377049,68.2918033 C38.3782937,68.2293172 38.5315799,68.2006813 38.6852459,68.2081967 C38.873924,68.1955214 39.061284,68.2475658 39.2163934,68.3557377 C39.350068,68.4727429 39.4285618,68.6404342 39.4327869,68.8180328 L38.9065574,68.857377 C38.9014161,68.7809214 38.8681252,68.7090832 38.8131148,68.6557377 C38.7624927,68.6092442 38.6947222,68.5860596 38.6262295,68.5918033 C38.5733357,68.5884139 38.5209819,68.60412 38.4786885,68.6360656 C38.4477475,68.6676354 38.4301378,68.7098987 38.4295082,68.7540984 C38.4306519,68.7872826 38.4469692,68.8181041 38.4737705,68.8377049 C38.5281203,68.8798127 38.5925554,68.9069433 38.6606557,68.9163934 C38.8451142,68.9527691 39.0237902,69.0139822 39.1918033,69.0983607 C39.2890631,69.1498932 39.3693389,69.228461 39.4229508,69.3245902 C39.4709697,69.4171337 39.4946632,69.5203695 39.4918033,69.6245902 C39.4942383,69.7521311 39.4619379,69.8779327 39.3983607,69.9885246 C39.3365096,70.098254 39.2419476,70.1859388 39.1278689,70.2393443 C38.990684,70.3020206 38.840923,70.3323094 38.6901639,70.3278689 C38.4566737,70.3535825 38.2230704,70.28047 38.0459016,70.1262295 C37.9212213,69.9843941 37.849913,69.8035147 37.8442623,69.6147541 Z" id="Path" fill="#FFFFFF"></path>
                        <path d="M40.8,64.8983607 L42.0295082,64.2639344 C42.2379768,64.1349749 42.4885983,64.0926164 42.7278689,64.1459016 C42.9478949,64.2129149 43.1275863,64.3728403 43.2196721,64.5836066 C43.3391093,64.789232 43.3659113,65.0358103 43.2934426,65.2622951 C43.1845217,65.5101525 42.9834602,65.7059229 42.7327869,65.8081967 L42.3295082,66.0147541 L42.7868852,66.904918 L42.0442623,67.2836066 L40.8,64.8983607 Z M42.0688525,65.5327869 L42.2508197,65.4393443 C42.3629985,65.3966809 42.4557049,65.3144695 42.5114754,65.2081967 C42.5482822,65.1355432 42.5482822,65.0497027 42.5114754,64.9770492 C42.4769339,64.9032817 42.4125036,64.8478 42.3344262,64.8245902 C42.2236066,64.8023294 42.1084873,64.8253532 42.0147541,64.8885246 L41.8032787,64.9967213 L42.0688525,65.5327869 Z" id="Shape" fill="#FFFFFF"></path>
                        <path d="M44.5229508,66.0147541 L43.2836066,63.6295082 L44.5131148,62.9901639 C44.68725,62.8933631 44.8744163,62.8221405 45.0688525,62.7786885 C45.2071915,62.7568495 45.3488746,62.7810393 45.4721311,62.847541 C45.6069573,62.922748 45.7151916,63.0378543 45.7819672,63.1770492 C45.8485974,63.2935752 45.8809865,63.4265409 45.8754098,63.5606557 C45.8696087,63.6881356 45.8306174,63.8118907 45.7622951,63.9196721 C45.7050716,64.0049309 45.6354534,64.0811793 45.5557377,64.1459016 C45.6340056,64.1343948 45.7135354,64.1343948 45.7918033,64.1459016 C45.8552293,64.1583098 45.9165222,64.1798452 45.9737705,64.2098361 C46.037509,64.2345746 46.0984944,64.2658915 46.1557377,64.3032787 L46.8688525,64.795082 L46.0377049,65.2278689 L45.2655738,64.7016393 C45.1982402,64.6466735 45.1191437,64.6079667 45.0344262,64.5885246 C44.9636662,64.5779377 44.8913704,64.589987 44.8278689,64.6229508 L44.7590164,64.657377 L45.2508197,65.6409836 L44.5229508,66.0147541 Z M44.5229508,64.2147541 L44.8327869,64.052459 C44.8948462,64.0124063 44.9540088,63.9680343 45.0098361,63.9196721 C45.0536578,63.8855844 45.0834149,63.8365727 45.0934426,63.7819672 C45.1029385,63.7266324 45.094314,63.6697104 45.0688525,63.6196721 C45.0368616,63.5498084 44.9756746,63.4976195 44.9016393,63.4770492 C44.7935681,63.4705966 44.6863877,63.4999848 44.5967213,63.5606557 L44.2721311,63.7278689 L44.5229508,64.2147541 Z" id="Shape" fill="#FFFFFF"></path>
                        <path d="M46.4065574,63.5114754 C46.197861,63.1930856 46.1431483,62.7978152 46.2575129,62.4347078 C46.3718774,62.0716004 46.6432332,61.7790288 46.9967213,61.6377049 C47.3225267,61.4395873 47.714987,61.3827605 48.0836066,61.4803279 C48.4337406,61.6062256 48.7177339,61.8689194 48.8704918,62.2081967 C49.0008657,62.4402566 49.0749823,62.699665 49.0869063,62.9655738 C49.0882698,63.1900054 49.0213765,63.4095526 48.895082,63.595082 C48.7465948,63.8075857 48.5447371,63.977214 48.3098361,64.0868852 C48.0859725,64.2163253 47.8351382,64.2920806 47.5770492,64.3081967 C47.3490458,64.3124301 47.1248857,64.2491177 46.9327869,64.1262295 C46.7078457,63.9695144 46.5267012,63.7578971 46.4065574,63.5114754 Z M47.1491803,63.1327869 C47.2260557,63.3252106 47.369051,63.4839006 47.552459,63.5803279 C47.6990798,63.6326242 47.860773,63.6221758 47.9994439,63.5514444 C48.1381148,63.4807129 48.2415014,63.3559528 48.2852459,63.2065574 C48.3043743,62.9865983 48.2489416,62.7666 48.1278689,62.5819672 C48.0515075,62.398478 47.9119238,62.2484254 47.7344262,62.1590164 C47.5870582,62.1031498 47.4222455,62.1176388 47.2868852,62.1983607 C47.145908,62.2632349 47.0438212,62.3908435 47.0114754,62.542623 C46.9877742,62.749348 47.0364361,62.9578991 47.1491803,63.1327869 Z" id="Shape" fill="#FFFFFF"></path>
                        <path d="M49.4213115,62.4590164 L50.095082,62.0459016 C50.1508866,62.1365829 50.2309552,62.2098371 50.3262295,62.257377 C50.4549405,62.3154079 50.6039934,62.3062071 50.7245902,62.2327869 C50.8154488,62.1925979 50.8887812,62.1210116 50.9311475,62.0311475 C50.963168,61.96257 50.963168,61.8833316 50.9311475,61.8147541 C50.8948335,61.7523899 50.8342892,61.707872 50.7639344,61.6918033 C50.6106526,61.6798287 50.4565573,61.6999281 50.3114754,61.7508197 C50.0411968,61.8428613 49.7526671,61.868171 49.4704918,61.8245902 C49.2768697,61.7804117 49.112893,61.6524739 49.0229508,61.4754098 C48.9591382,61.3511969 48.9334725,61.2108905 48.9491803,61.0721311 C48.9650507,60.9143572 49.0285124,60.7651363 49.1311475,60.6442623 C49.2839856,60.477705 49.4677144,60.3424138 49.6721311,60.2459016 C49.9068434,60.1026348 50.1795336,60.0340335 50.4540984,60.0491803 C50.6922218,60.0916305 50.9002915,60.2351268 51.0245902,60.442623 L50.3508197,60.8459016 C50.2959756,60.7593291 50.2095163,60.6975725 50.1098361,60.6737705 C50.0129229,60.6570172 49.913228,60.6762565 49.8295082,60.7278689 C49.7576223,60.7599768 49.6986968,60.815436 49.6622951,60.8852459 C49.6374278,60.93821 49.6374278,60.9994949 49.6622951,61.052459 C49.6876071,61.0899734 49.7263235,61.116371 49.7704918,61.1262295 C49.8708667,61.1323009 49.9713977,61.1172212 50.0655738,61.0819672 C50.3262963,61.0015368 50.5951676,60.9504018 50.8672131,60.9295082 C51.0218732,60.9244095 51.1749688,60.9618329 51.3098361,61.0377049 C51.4290319,61.108583 51.5247953,61.2128968 51.5852459,61.3377049 C51.6669955,61.4879266 51.7012901,61.6593999 51.6836066,61.8295082 C51.6668453,62.009859 51.5966355,62.1811026 51.4819672,62.3213115 C51.3383176,62.4894643 51.1606379,62.6252384 50.9606557,62.7196721 C50.6740366,62.9183019 50.3193571,62.9927846 49.9770492,62.9262295 C49.7409081,62.8436809 49.5431997,62.6774658 49.4213115,62.4590164 Z" id="Path" fill="#FFFFFF"></path>
                        <path d="M51.1672131,59.5081967 L52.3868852,58.8639344 C52.5943669,58.7325781 52.8446827,58.6867457 53.0852459,58.7360656 C53.3027158,58.804804 53.4812192,58.9618869 53.5770492,59.1688525 C53.6999692,59.3731335 53.7286557,59.6205541 53.6557377,59.847541 C53.5485026,60.0942713 53.3516483,60.2911255 53.104918,60.3983607 L52.6770492,60.604918 L53.1688525,61.4852459 L52.4311475,61.8737705 L51.1672131,59.5081967 Z M52.4409836,60.1327869 L52.6229508,60.0344262 C52.7332922,59.9907545 52.8241218,59.9086585 52.8786885,59.8032787 C52.9154953,59.7306252 52.9154953,59.6447846 52.8786885,59.5721311 C52.8426998,59.4994738 52.7788336,59.4444779 52.7016393,59.4196721 C52.5895477,59.401888 52.4749307,59.4283381 52.3819672,59.4934426 L52.1852459,59.6213115 L52.4409836,60.1327869 Z" id="Shape" fill="#FFFFFF"></path>
                        <polygon id="Path" fill="#FFFFFF" points="53.5868852 58.2344262 55.5295082 57.152459 55.8098361 57.6442623 54.5901639 58.3180328 54.8016393 58.6918033 55.9278689 58.0622951 56.1983607 58.5540984 55.0672131 59.1836066 55.3229508 59.6459016 56.5770492 58.947541 56.8721311 59.4786885 54.904918 60.5803279"></polygon>
                        <path d="M57.595082,58.9327869 L55.8,56.9262295 L56.8327869,56.0065574 C56.9784831,55.8677328 57.1442818,55.7516737 57.3245902,55.6622951 C57.452616,55.6040962 57.5968221,55.5919342 57.7327869,55.6278689 C57.8826339,55.6662825 58.0167446,55.7505315 58.1163934,55.8688525 C58.2079774,55.9663176 58.270937,56.087132 58.2983607,56.2180328 C58.3300107,56.3406129 58.3300107,56.4692232 58.2983607,56.5918033 C58.2636953,56.689158 58.2139042,56.7804417 58.1508197,56.8622951 C58.2243231,56.8287894 58.3021103,56.8056188 58.3819672,56.7934426 C58.4455379,56.7837979 58.5101998,56.7837979 58.5737705,56.7934426 C58.6404535,56.8027417 58.7062521,56.8175464 58.7704918,56.8377049 L59.5622951,57.1622951 L58.8590164,57.7868852 L57.9836066,57.4672131 C57.9041283,57.4336235 57.8190446,57.4152721 57.7327869,57.4131148 C57.6611552,57.4217933 57.594061,57.4527598 57.5409836,57.5016393 L57.4819672,57.5508197 L58.2098361,58.3672131 L57.595082,58.9327869 Z M57.152459,57.1819672 L57.4131148,56.9508197 C57.4628077,56.8965811 57.5088122,56.8390754 57.5508197,56.7786885 C57.5839206,56.7350916 57.5996902,56.6807743 57.595082,56.6262295 C57.5916125,56.5696449 57.5690762,56.5159045 57.5311475,56.4737705 C57.4841912,56.4130787 57.4111373,56.3783781 57.3344262,56.3803279 C57.2283988,56.3996008 57.1316367,56.4531656 57.0590164,56.5327869 L56.7885246,56.7737705 L57.152459,57.1819672 Z" id="Shape" fill="#FFFFFF"></path>
                        <polygon id="Path" fill="#FFFFFF" points="57.9196721 54.9344262 58.495082 54.3295082 60.4622951 56.1786885 59.8868852 56.7836066"></polygon>
                        <polygon id="Path" fill="#FFFFFF" points="58.7803279 54.0491803 60.3786885 52.0819672 60.895082 52.5 60.3590164 53.1590164 61.9229508 54.4377049 61.3967213 55.0819672 59.8327869 53.7983607 59.2918033 54.457377"></polygon>
                        <path d="M63.2213115,51.9147541 L62.6901639,52.6967213 L62.9852459,53.0508197 L62.4934426,53.7540984 L60.8360656,51.4032787 L61.3278689,50.6557377 L64.1213115,51.3344262 L63.6295082,52.052459 L63.2213115,51.9147541 Z M62.6459016,51.7278689 L61.6622951,51.4327869 L62.2967213,52.2196721 L62.6459016,51.7278689 Z" id="Shape" fill="#FFFFFF"></path>
                        <path d="M63.5508197,50.6016393 L63.8803279,49.8786885 C63.9752785,49.9235637 64.0810013,49.9406158 64.1852459,49.9278689 C64.3247905,49.9012808 64.4434256,49.8100231 64.504918,49.6819672 C64.5565303,49.5982474 64.5757697,49.4985525 64.5590164,49.4016393 C64.5481824,49.3265612 64.5026304,49.2609663 64.4360656,49.2245902 C64.3704088,49.1949233 64.295165,49.1949233 64.2295082,49.2245902 C64.0951751,49.2997986 63.9792595,49.4039548 63.8901639,49.5295082 C63.7151623,49.7557665 63.4894166,49.9377108 63.2311475,50.0606557 C63.0464397,50.1341696 62.8383237,50.119692 62.6655738,50.0213115 C62.5426854,49.954876 62.4418454,49.8540359 62.3754098,49.7311475 C62.3040673,49.5899243 62.2750349,49.4311 62.2918033,49.2737705 C62.3224145,49.0496253 62.3976689,48.8338959 62.5131148,48.6393443 C62.6288875,48.3894167 62.8174491,48.1802848 63.0540984,48.0393443 C63.272529,47.9384999 63.5241923,47.9384999 63.742623,48.0393443 L63.4131148,48.752459 C63.3181954,48.7156631 63.2129522,48.7156631 63.1180328,48.752459 C63.0282413,48.7924886 62.956423,48.8643069 62.9163934,48.9540984 C62.8726302,49.0190069 62.8550594,49.0980754 62.8672131,49.1754098 C62.8750773,49.2334119 62.9096622,49.2843791 62.9606557,49.3131148 C63.002751,49.3327021 63.0513473,49.3327021 63.0934426,49.3131148 C63.1800165,49.2654373 63.2541479,49.1980451 63.3098361,49.1163934 C63.4794638,48.9019762 63.6743109,48.7087804 63.8901639,48.5409836 C64.0158742,48.4499052 64.1635427,48.393893 64.3180328,48.3786885 C64.4568303,48.3731996 64.594514,48.4054958 64.7163934,48.4721311 C65.0272724,48.6417113 65.2071779,48.9802431 65.1737705,49.3327869 C65.1445556,49.5527523 65.072723,49.764909 64.9622951,49.957377 C64.8340975,50.2721692 64.5916757,50.5268877 64.2836066,50.6704918 C64.0390184,50.7364824 63.7788346,50.7120355 63.5508197,50.6016393 L63.5508197,50.6016393 Z" id="Path" fill="#FFFFFF"></path>
                        <path d="M43.4163934,23.2721311 L43.4163934,22.1704918 L43.3081967,22.1065574 C43.2688525,22.0819672 39.2655738,19.8639344 34.7065574,23.1885246 L34.6032787,23.2672131 L34.5,23.1934426 C30.1327869,19.7508197 25.4704918,22.0770492 25.4213115,22.1016393 L25.2983607,22.1606557 L25.2983607,23.2278689 C24.9269455,23.1866874 24.5522375,23.2678454 24.2311475,23.4590164 L24.2311475,36.4131148 L33.457377,36.4131148 C33.710239,36.8004404 34.1577538,37.0147165 34.6180328,36.9688525 C35.0986178,36.9977139 35.5630565,36.7902769 35.8622951,36.4131148 L44.7147541,36.4131148 L44.7147541,23.7491803 C44.7147541,23.7491803 44.5672131,23.4 43.4163934,23.2721311 Z M42.9786885,34.3081967 C41.4737705,33.747541 39.0688525,33.4622951 35.7295082,34.8786885 L35.5721311,34.942623 C35.4683056,34.9816854 35.3665347,35.026005 35.2672131,35.0754098 C35.0597674,35.2023885 34.8108148,35.2429978 34.5737705,35.1885246 L34.5737705,35.1885246 C33.7622146,34.9948244 32.9703163,34.7264681 32.2081967,34.3868852 C30.0295082,33.5606557 26.7245902,34.2590164 25.7409836,34.495082 L25.7409836,22.4409836 C28.5276718,21.2613375 31.733165,21.6688314 34.1360656,23.5081967 L34.1360656,30.9147541 L35.0606557,30.9147541 L35.0606557,23.4786885 C38.9213115,20.7196721 42.3245902,22.1213115 42.9786885,22.4311475 L42.9786885,34.3081967 Z" id="Shape" fill="#FFFFFF"></path>
                        <path d="M26.7442623,26.1786885 L26.7442623,26.5180328 C27.3196721,26.4147541 31.057377,25.8245902 33.2065574,27.6639344 L33.2065574,27.2360656 C30.9688525,25.5491803 27.5016393,26.0508197 26.7442623,26.1786885 Z" id="Path" fill="#FFFFFF"></path>
                        <path d="M26.7442623,28.5590164 L26.7442623,28.8983607 C27.3196721,28.795082 31.057377,28.204918 33.2065574,30.0442623 L33.2065574,29.6213115 C30.9688525,27.9245902 27.5016393,28.4262295 26.7442623,28.5590164 Z" id="Path" fill="#FFFFFF"></path>
                        <path d="M26.7442623,24.9983607 L26.7442623,25.3377049 C27.3196721,25.2295082 31.057377,24.6442623 33.2065574,26.4786885 L33.2065574,26.0557377 C30.9688525,24.3590164 27.5016393,24.8606557 26.7442623,24.9983607 Z" id="Path" fill="#FFFFFF"></path>
                        <path d="M26.7442623,27.3737705 L26.7442623,27.7131148 C27.3196721,27.604918 31.057377,27.0196721 33.2065574,28.8540984 L33.2065574,28.4311475 C30.9688525,26.7344262 27.5016393,27.2360656 26.7442623,27.3737705 Z" id="Path" fill="#FFFFFF"></path>
                        <path d="M26.7442623,29.7491803 L26.7442623,30.0836066 C27.3196721,29.9803279 31.057377,29.395082 33.2065574,31.2295082 L33.2065574,30.8065574 C30.9688525,29.1295082 27.5016393,29.6213115 26.7442623,29.7491803 Z" id="Path" fill="#FFFFFF"></path>
                        <path d="M35.8327869,27.2409836 L35.8327869,27.6540984 C37.9868852,25.8147541 41.7344262,26.404918 42.295082,26.5081967 L42.295082,26.1786885 C41.5377049,26.0508197 38.0704918,25.5491803 35.8327869,27.2409836 Z" id="Path" fill="#FFFFFF"></path>
                        <path d="M35.8327869,29.6213115 L35.8327869,30.0491803 C37.9868852,28.2098361 41.7344262,28.8 42.295082,28.9032787 L42.295082,28.5639344 C41.5377049,28.4262295 38.0704918,27.9245902 35.8327869,29.6213115 Z" id="Path" fill="#FFFFFF"></path>
                        <path d="M35.8327869,26.4786885 C37.9868852,24.6442623 41.7344262,25.2295082 42.295082,25.3377049 L42.295082,24.9983607 C41.5377049,24.8606557 38.0704918,24.3590164 35.8327869,26.0557377 L35.8327869,26.4786885 Z" id="Path" fill="#FFFFFF"></path>
                        <path d="M35.8327869,28.4311475 L35.8327869,28.8540984 C37.9868852,27.0196721 41.7344262,27.604918 42.295082,27.7131148 L42.295082,27.3737705 C41.5377049,27.2360656 38.0704918,26.7344262 35.8327869,28.4311475 Z" id="Path" fill="#FFFFFF"></path>
                        <path d="M35.8327869,30.8065574 L35.8327869,31.2295082 C37.9868852,29.395082 41.7344262,29.9803279 42.295082,30.0836066 L42.295082,29.7491803 C41.5377049,29.6213115 38.0704918,29.1295082 35.8327869,30.8065574 Z" id="Path" fill="#FFFFFF"></path>
                        <path d="M84.6442623,52.2442623 L84.6442623,54.1278689 C84.6442623,56.395082 83.5081967,57.6885246 81.3245902,57.6885246 C79.1409836,57.6885246 78.004918,56.395082 78.004918,54.1278689 L78.004918,46.7508197 C78.004918,44.4836066 79.1409836,43.1901639 81.3245902,43.1901639 C83.5081967,43.1901639 84.6442623,44.4836066 84.6442623,46.7508197 L84.6442623,48.1278689 L82.5393443,48.1278689 L82.5393443,46.6081967 C82.5393443,45.6245902 82.0918033,45.2163934 81.3836066,45.2163934 C80.6754098,45.2163934 80.2327869,45.6 80.2327869,46.6081967 L80.2327869,54.2606557 C80.2327869,55.2442623 80.6754098,55.6327869 81.3836066,55.6327869 C82.0918033,55.6327869 82.5393443,55.2688525 82.5393443,54.2606557 L82.5393443,52.2442623 L84.6442623,52.2442623 Z" id="Path" fill="#395F2F"></path>
                        <path d="M85.8196721,46.7606557 C85.8196721,44.4934426 87.0147541,43.2 89.2032787,43.2 C91.3918033,43.2 92.5819672,44.4934426 92.5819672,46.7606557 L92.5819672,54.1377049 C92.5819672,56.404918 91.3868852,57.6983607 89.2032787,57.6983607 C87.0196721,57.6983607 85.8196721,56.404918 85.8196721,54.1377049 L85.8196721,46.7606557 Z M88.047541,54.2704918 C88.047541,55.2540984 88.4901639,55.6672131 89.2032787,55.6672131 C89.9163934,55.6672131 90.3540984,55.2786885 90.3540984,54.2704918 L90.3540984,46.6180328 C90.3540984,45.6344262 89.9114754,45.2262295 89.2032787,45.2262295 C88.495082,45.2262295 88.047541,45.6098361 88.047541,46.6180328 L88.047541,54.2704918 Z" id="Shape" fill="#395F2F"></path>
                        <polygon id="Path" fill="#395F2F" points="94.0180328 43.3622951 96.2409836 43.3622951 96.2409836 55.504918 99.8901639 55.504918 99.8901639 57.5262295 93.9885246 57.5262295"></polygon>
                        <polygon id="Path" fill="#395F2F" points="100.87377 43.3622951 103.096721 43.3622951 103.096721 55.504918 106.77541 55.504918 106.77541 57.5262295 100.87377 57.5262295"></polygon>
                        <polygon id="Path" fill="#395F2F" points="109.962295 49.3327869 113.016393 49.3327869 113.016393 51.3540984 109.962295 51.3540984 109.962295 55.504918 113.808197 55.504918 113.808197 57.5262295 107.759016 57.5262295 107.759016 43.3622951 113.808197 43.3622951 113.808197 45.3836066 109.962295 45.3836066"></polygon>
                        <path d="M118.52459,49.6377049 L121.637705,49.6377049 L121.637705,54.1278689 C121.637705,56.395082 120.506557,57.6885246 118.318033,57.6885246 C116.129508,57.6885246 115.003279,56.395082 115.003279,54.1278689 L115.003279,46.7508197 C115.003279,44.4836066 116.134426,43.1901639 118.318033,43.1901639 C120.501639,43.1901639 121.637705,44.4836066 121.637705,46.7508197 L121.637705,48.1278689 L119.532787,48.1278689 L119.532787,46.6081967 C119.532787,45.6245902 119.090164,45.2163934 118.381967,45.2163934 C117.67377,45.2163934 117.22623,45.6 117.22623,46.6081967 L117.22623,54.2606557 C117.22623,55.2442623 117.67377,55.6327869 118.381967,55.6327869 C119.090164,55.6327869 119.532787,55.2688525 119.532787,54.2606557 L119.532787,51.6491803 L118.52459,51.6491803 L118.52459,49.6377049 Z" id="Path" fill="#395F2F"></path>
                        <polygon id="Path" fill="#395F2F" points="125.301639 49.3327869 128.355738 49.3327869 128.355738 51.3540984 125.301639 51.3540984 125.301639 55.504918 129.147541 55.504918 129.147541 57.5262295 123.07377 57.5262295 123.07377 43.3622951 129.147541 43.3622951 129.147541 45.3836066 125.301639 45.3836066"></polygon>
                        <path d="M133.47541,46.7606557 C133.47541,44.4934426 134.670492,43.2 136.854098,43.2 C139.037705,43.2 140.232787,44.4934426 140.232787,46.7606557 L140.232787,54.1377049 C140.232787,56.404918 139.042623,57.6983607 136.854098,57.6983607 C134.665574,57.6983607 133.47541,56.404918 133.47541,54.1377049 L133.47541,46.7606557 Z M135.703279,54.2704918 C135.703279,55.2540984 136.145902,55.6672131 136.854098,55.6672131 C137.562295,55.6672131 138.009836,55.2786885 138.009836,54.2704918 L138.009836,46.6180328 C138.009836,45.6344262 137.562295,45.2262295 136.854098,45.2262295 C136.145902,45.2262295 135.703279,45.6098361 135.703279,46.6180328 L135.703279,54.2704918 Z" id="Shape" fill="#395F2F"></path>
                        <polygon id="Path" fill="#395F2F" points="143.896721 49.657377 146.77377 49.657377 146.77377 51.6786885 143.896721 51.6786885 143.896721 57.5262295 141.693443 57.5262295 141.693443 43.3622951 147.595082 43.3622951 147.595082 45.3836066 143.931148 45.3836066"></polygon>
                        <polygon id="Path" fill="#395F2F" points="156.481967 53.4196721 158.001639 43.3622951 161.1 43.3622951 161.1 57.5262295 158.995082 57.5262295 158.995082 47.3704918 157.455738 57.5262295 155.35082 57.5262295 153.693443 47.5081967 153.693443 57.5262295 151.75082 57.5262295 151.75082 43.3622951 154.844262 43.3622951"></polygon>
                        <path d="M169.922951,57.5262295 L167.67541,57.5262295 L167.291803,54.9590164 L164.557377,54.9590164 L164.17377,57.5262295 L162.132787,57.5262295 L164.395082,43.3622951 L167.655738,43.3622951 L169.922951,57.5262295 Z M164.842623,53.0360656 L166.986885,53.0360656 L165.914754,45.8508197 L164.842623,53.0360656 Z" id="Shape" fill="#395F2F"></path>
                        <polygon id="Path" fill="#395F2F" points="172.937705 47.2672131 172.937705 57.5262295 170.931148 57.5262295 170.931148 43.3622951 173.72459 43.3622951 176.011475 51.8409836 176.011475 43.3622951 177.978689 43.3622951 177.978689 57.5262295 175.691803 57.5262295"></polygon>
                        <path d="M186.796721,57.5262295 L184.54918,57.5262295 L184.165574,54.9590164 L181.436066,54.9590164 L181.052459,57.5262295 L179.006557,57.5262295 L181.27377,43.3622951 L184.529508,43.3622951 L186.796721,57.5262295 Z M181.716393,53.0360656 L183.865574,53.0360656 L182.788525,45.8508197 L181.716393,53.0360656 Z" id="Shape" fill="#395F2F"></path>
                        <path d="M191.14918,49.6377049 L194.262295,49.6377049 L194.262295,54.1278689 C194.262295,56.395082 193.131148,57.6885246 190.947541,57.6885246 C188.763934,57.6885246 187.627869,56.395082 187.627869,54.1278689 L187.627869,46.7508197 C187.627869,44.4836066 188.759016,43.1901639 190.947541,43.1901639 C193.136066,43.1901639 194.262295,44.4836066 194.262295,46.7508197 L194.262295,48.1278689 L192.162295,48.1278689 L192.162295,46.6081967 C192.162295,45.6245902 191.714754,45.2163934 191.006557,45.2163934 C190.298361,45.2163934 189.855738,45.6 189.855738,46.6081967 L189.855738,54.2606557 C189.855738,55.2442623 190.298361,55.6327869 191.006557,55.6327869 C191.714754,55.6327869 192.162295,55.2688525 192.162295,54.2606557 L192.162295,51.6491803 L191.14918,51.6491803 L191.14918,49.6377049 Z" id="Path" fill="#395F2F"></path>
                        <polygon id="Path" fill="#395F2F" points="197.92623 49.3327869 200.980328 49.3327869 200.980328 51.3540984 197.92623 51.3540984 197.92623 55.504918 201.772131 55.504918 201.772131 57.5262295 195.703279 57.5262295 195.703279 43.3622951 201.772131 43.3622951 201.772131 45.3836066 197.92623 45.3836066"></polygon>
                        <polygon id="Path" fill="#395F2F" points="207.860656 53.4196721 209.380328 43.3622951 212.478689 43.3622951 212.478689 57.5262295 210.37377 57.5262295 210.37377 47.3704918 208.834426 57.5262295 206.729508 57.5262295 205.072131 47.5081967 205.072131 57.5262295 203.104918 57.5262295 203.104918 43.3622951 206.198361 43.3622951"></polygon>
                        <polygon id="Path" fill="#395F2F" points="216.319672 49.3327869 219.398361 49.3327869 219.398361 51.3540984 216.339344 51.3540984 216.339344 55.504918 220.185246 55.504918 220.185246 57.5262295 214.096721 57.5262295 214.096721 43.3622951 220.165574 43.3622951 220.165574 45.3836066 216.319672 45.3836066"></polygon>
                        <polygon id="Path" fill="#395F2F" points="223.52459 47.2672131 223.52459 57.5262295 221.522951 57.5262295 221.522951 43.3622951 224.316393 43.3622951 226.603279 51.8409836 226.603279 43.3622951 228.570492 43.3622951 228.570492 57.5262295 226.283607 57.5262295"></polygon>
                        <polygon id="Path" fill="#395F2F" points="229.534426 43.3622951 236.419672 43.3622951 236.419672 45.3836066 234.093443 45.3836066 234.093443 57.5262295 231.865574 57.5262295 231.865574 45.3836066 229.539344 45.3836066"></polygon>
                        <path d="M82.804918,2.13442623 C87.4032787,2.13442623 89.7639344,4.88360656 89.7639344,9.69836066 L89.7639344,10.642623 L85.2934426,10.642623 L85.2934426,9.39836066 C85.2934426,7.24918033 84.4377049,6.44754098 82.9327869,6.44754098 C81.4278689,6.44754098 80.5672131,7.26393443 80.5672131,9.39836066 C80.5672131,15.5852459 89.8081967,16.7459016 89.8081967,25.3377049 C89.8081967,30.152459 87.4032787,32.9016393 82.7606557,32.9016393 C78.1180328,32.9016393 75.7131148,30.152459 75.7131148,25.3377049 L75.7131148,23.4885246 L80.1836066,23.4885246 L80.1836066,25.6377049 C80.1836066,27.7868852 81.1278689,28.5590164 82.642623,28.5590164 C84.157377,28.5590164 85.1016393,27.7868852 85.1016393,25.6377049 C85.1016393,19.4508197 75.8606557,18.2901639 75.8606557,9.69836066 C75.8409836,4.88360656 78.2065574,2.13442623 82.804918,2.13442623 Z" id="Path" fill="#EA2127"></path>
                        <polygon id="Path" fill="#EA2127" points="96.6393443 22.5885246 90.6639344 2.47868852 95.5819672 2.47868852 99.1918033 16.1852459 102.840984 2.47868852 107.355738 2.47868852 101.365574 22.5885246 101.365574 32.5721311 96.6393443 32.5721311"></polygon>
                        <path d="M109.234426,2.47868852 L116.709836,2.47868852 C121.436066,2.47868852 123.757377,5.1 123.757377,9.90983607 L123.757377,25.1213115 C123.757377,29.9360656 121.436066,32.557377 116.709836,32.557377 L109.234426,32.557377 L109.234426,2.47868852 Z M113.960656,6.77213115 L113.960656,28.2590164 L116.611475,28.2590164 C118.116393,28.2590164 119.016393,27.4868852 119.016393,25.3377049 L119.016393,9.69836066 C119.016393,7.54918033 118.116393,6.74754098 116.611475,6.74754098 L113.960656,6.77213115 Z" id="Shape" fill="#EA2127"></path>
                        <polygon id="Path" fill="#EA2127" points="130.972131 10.7704918 130.972131 32.5721311 126.718033 32.5721311 126.718033 2.47868852 132.64918 2.47868852 137.503279 20.4836066 137.503279 2.47868852 141.693443 2.47868852 141.693443 32.5721311 136.839344 32.5721311"></polygon>
                        <polygon id="Path" fill="#EA2127" points="149.832787 15.152459 156.32459 15.152459 156.32459 19.4508197 149.832787 19.4508197 149.832787 28.2590164 157.996721 28.2590164 157.996721 32.5721311 145.106557 32.5721311 145.106557 2.47868852 157.996721 2.47868852 157.996721 6.77213115 149.832787 6.77213115"></polygon>
                        <polygon id="Path" fill="#EA2127" points="165.344262 22.5885246 159.398361 2.47868852 164.316393 2.47868852 167.92623 16.1852459 171.536066 2.47868852 176.045902 2.47868852 170.070492 22.5885246 170.070492 32.5721311 165.344262 32.5721311"></polygon>
                        <path d="M198.304918,21.3442623 L198.304918,25.3377049 C198.304918,30.152459 195.895082,32.9016393 191.257377,32.9016393 C186.619672,32.9016393 184.209836,30.152459 184.209836,25.3377049 L184.209836,9.69836066 C184.209836,4.88360656 186.614754,2.13442623 191.257377,2.13442623 C195.9,2.13442623 198.304918,4.88360656 198.304918,9.69836066 L198.304918,12.6196721 L193.82459,12.6196721 L193.82459,9.39836066 C193.82459,7.24918033 192.880328,6.44754098 191.365574,6.44754098 C189.85082,6.44754098 188.906557,7.26393443 188.906557,9.39836066 L188.906557,25.6278689 C188.906557,27.7770492 189.85082,28.5491803 191.365574,28.5491803 C192.880328,28.5491803 193.82459,27.7770492 193.82459,25.6278689 L193.82459,21.3344262 L198.304918,21.3442623 Z" id="Path" fill="#EA2127"></path>
                        <polygon id="Path" fill="#EA2127" points="201.201639 2.47868852 205.927869 2.47868852 205.927869 32.5721311 201.201639 32.5721311"></polygon>
                        <polygon id="Path" fill="#EA2127" points="207.968852 2.47868852 222.580328 2.47868852 222.580328 6.77213115 217.637705 6.77213115 217.637705 32.5721311 212.911475 32.5721311 212.911475 6.77213115 207.993443 6.77213115"></polygon>
                        <polygon id="Path" fill="#EA2127" points="229.067213 22.5885246 223.091803 2.47868852 228.009836 2.47868852 231.619672 16.1852459 235.229508 2.47868852 239.744262 2.47868852 233.793443 22.5885246 233.793443 32.5721311 229.067213 32.5721311"></polygon>
                        <rect id="Rectangle" fill="#395F2F" x="77.7540984" y="36.7081967" width="156.767213" height="1.20491803"></rect>
                        <path d="M78.1377049,63.2065574 L80.0754098,63.2065574 C80.459925,63.1662181 80.8418528,63.3033922 81.1128339,63.5791609 C81.383815,63.8549296 81.5142797,64.2392011 81.4672131,64.6229508 C81.4672131,65.3311475 81.152459,65.8770492 80.552459,65.9655738 L80.552459,65.9655738 C81.0983607,66.0147541 81.3836066,66.3147541 81.4131148,67.0868852 C81.4131148,67.4409836 81.4131148,67.8688525 81.442623,68.1983607 C81.4382161,68.3964344 81.5368901,68.5826118 81.7032787,68.6901639 L80.7196721,68.6901639 C80.6237801,68.5440339 80.5725131,68.3731438 80.5721311,68.1983607 C80.542623,67.8639344 80.547541,67.5590164 80.5327869,67.1606557 C80.5327869,66.5606557 80.3360656,66.3 79.7360656,66.3 L79.0180328,66.3 L79.0180328,68.6803279 L78.142623,68.6803279 L78.1377049,63.2065574 Z M79.7163934,65.6655738 C79.9573016,65.6876356 80.1953911,65.600398 80.3650163,65.4279139 C80.5346415,65.2554298 80.617888,65.0159157 80.5918033,64.7754098 C80.5918033,64.1901639 80.3360656,63.8852459 79.7606557,63.8852459 L79.0131148,63.8852459 L79.0131148,65.6655738 L79.7163934,65.6655738 Z" id="Shape" fill="#4D4E4E"></path>
                        <polygon id="Path" fill="#4D4E4E" points="83.0262295 63.9442623 81.7229508 63.9442623 81.7229508 63.2065574 85.1655738 63.2065574 85.1655738 63.9442623 83.8819672 63.9442623 83.8819672 68.695082 83.0065574 68.695082"></polygon>
                        <path d="M85.3278689,65.9508197 C85.3278689,63.9836066 85.8786885,63.1032787 87.1377049,63.1032787 C88.3967213,63.1032787 88.952459,63.9934426 88.952459,65.9508197 C88.952459,67.9081967 88.4016393,68.8032787 87.1377049,68.8032787 C85.8737705,68.8032787 85.3278689,67.9131148 85.3278689,65.9508197 Z M88.0770492,65.9508197 C88.0770492,64.1065574 87.6639344,63.7819672 87.1377049,63.7819672 C86.6114754,63.7819672 86.2032787,64.1065574 86.2032787,65.9508197 C86.2032787,67.795082 86.6163934,68.1639344 87.1377049,68.1639344 C87.6590164,68.1639344 88.0868852,67.8196721 88.0868852,65.9311475 L88.0770492,65.9508197 Z" id="Shape" fill="#4D4E4E"></path>
                        <path d="M94.9721311,66.7278689 L94.9721311,66.8459016 C94.9721311,67.8295082 94.5737705,68.8131148 93.2803279,68.8131148 C91.8983607,68.8131148 91.4704918,67.9229508 91.4704918,65.9606557 C91.4704918,63.9983607 91.8983607,63.1131148 93.2901639,63.1131148 C94.8491803,63.1131148 94.942623,64.2639344 94.942623,64.8344262 L94.942623,64.9327869 L94.0672131,64.9327869 L94.0672131,64.8393443 C94.0672131,64.347541 93.9098361,63.747541 93.2803279,63.7721311 C92.6508197,63.7967213 92.3459016,64.1704918 92.3459016,65.9409836 C92.3459016,67.7114754 92.6360656,68.1540984 93.2803279,68.1540984 C94.0131148,68.1540984 94.0967213,67.3377049 94.0967213,66.8311475 L94.0967213,66.7377049 L94.9721311,66.7278689 Z" id="Path" fill="#4D4E4E"></path>
                        <path d="M95.4344262,65.9508197 C95.4344262,63.9836066 95.9852459,63.1032787 97.2491803,63.1032787 C98.5131148,63.1032787 99.0590164,63.9934426 99.0590164,65.9508197 C99.0590164,67.9081967 98.5081967,68.8032787 97.2491803,68.8032787 C95.9901639,68.8032787 95.4344262,67.9131148 95.4344262,65.9508197 Z M98.1836066,65.9508197 C98.1836066,64.1065574 97.7704918,63.7819672 97.2491803,63.7819672 C96.7278689,63.7819672 96.3098361,64.1065574 96.3098361,65.9508197 C96.3098361,67.795082 96.7229508,68.1639344 97.2491803,68.1639344 C97.7754098,68.1639344 98.1836066,67.8196721 98.1836066,65.9311475 L98.1836066,65.9508197 Z" id="Shape" fill="#4D4E4E"></path>
                        <path d="M99.8360656,63.2065574 L101.395082,63.2065574 C103.116393,63.2065574 103.332787,64.3327869 103.332787,65.9508197 C103.332787,67.5688525 103.116393,68.695082 101.395082,68.695082 L99.8360656,68.695082 L99.8360656,63.2065574 Z M100.711475,68.0360656 L101.434426,68.0360656 C102.157377,68.0360656 102.457377,67.5442623 102.457377,65.9508197 C102.457377,64.357377 102.196721,63.8704918 101.434426,63.8704918 L100.711475,63.8704918 L100.711475,68.0360656 Z" id="Shape" fill="#4D4E4E"></path>
                        <polygon id="Path" fill="#4D4E4E" points="104.109836 63.2065574 107.060656 63.2065574 107.060656 63.9442623 104.970492 63.9442623 104.970492 65.4688525 106.937705 65.4688525 106.937705 66.2065574 104.970492 66.2065574 104.970492 67.9819672 107.12459 67.9819672 107.12459 68.7196721 104.095082 68.7196721"></polygon>
                        <path d="M107.837705,64.7606557 L108.837705,64.7606557 L108.837705,65.7737705 L107.837705,65.7737705 L107.837705,64.7606557 Z M107.837705,67.6819672 L108.837705,67.6819672 L108.837705,68.695082 L107.837705,68.695082 L107.837705,67.6819672 Z" id="Shape" fill="#4D4E4E"></path>
                        <path d="M110.921311,66.7229508 L112.804918,63.2557377 L113.695082,63.2557377 L113.695082,66.7721311 L114.285246,66.7721311 L114.285246,67.4901639 L113.695082,67.4901639 L113.695082,68.7098361 L112.863934,68.7098361 L112.863934,67.4901639 L110.896721,67.4901639 L110.921311,66.7229508 Z M112.888525,64.5295082 L112.888525,64.5295082 L111.668852,66.7721311 L112.903279,66.7721311 L112.888525,64.5295082 Z" id="Shape" fill="#4D4E4E"></path>
                        <path d="M114.693443,67.2295082 L115.52459,67.2295082 L115.52459,67.3721311 C115.503248,67.5723558 115.569368,67.7720485 115.705984,67.9199716 C115.842601,68.0678947 116.036418,68.1496506 116.237705,68.1442623 C116.847541,68.1442623 117.014754,67.5442623 117.014754,66.904918 C117.014754,66.2655738 116.847541,65.7442623 116.286885,65.7442623 C115.962164,65.7207858 115.6643,65.9248022 115.568852,66.2360656 L114.796721,66.2016393 L115.062295,63.3540984 L117.683607,63.3540984 L117.683607,64.047541 L115.716393,64.047541 L115.539344,65.4786885 L115.539344,65.4786885 C115.76982,65.2134734 116.102753,65.0595366 116.454098,65.0557377 C117.590164,65.0557377 117.87541,66.0147541 117.87541,66.8508197 C117.87541,67.942623 117.383607,68.7737705 116.203279,68.7737705 C115.219672,68.7737705 114.678689,68.2819672 114.678689,67.2983607 L114.693443,67.2295082 Z" id="Path" fill="#4D4E4E"></path>
                        <path d="M121.57377,68.695082 L118.391803,68.695082 C118.391803,66.3295082 120.67377,66.3836066 120.67377,64.6918033 C120.67377,64.2442623 120.481967,63.8704918 120,63.8704918 C119.345902,63.8704918 119.237705,64.4557377 119.237705,65.0065574 L118.406557,65.0065574 C118.406557,63.9245902 118.854098,63.2557377 120.014754,63.2557377 C121.17541,63.2557377 121.54918,63.9147541 121.54918,64.7311475 C121.54918,66.5360656 119.783607,66.6540984 119.370492,67.9819672 L121.57377,67.9819672 L121.57377,68.695082 Z" id="Path" fill="#4D4E4E"></path>
                        <path d="M123.67377,63.2557377 C124.716393,63.2557377 125.301639,63.9147541 125.301639,66.0295082 C125.301639,68.1442623 124.716393,68.8032787 123.67377,68.8032787 C122.631148,68.8032787 122.021311,68.1442623 122.021311,66.0147541 C122.021311,63.8852459 122.62623,63.2557377 123.67377,63.2557377 Z M123.67377,68.1737705 C124.27377,68.1737705 124.42623,67.5983607 124.42623,66.0147541 C124.42623,64.4311475 124.27377,63.8557377 123.67377,63.8557377 C123.07377,63.8557377 122.921311,64.4311475 122.921311,66.0147541 C122.921311,67.5983607 123.07377,68.1885246 123.67377,68.1885246 L123.67377,68.1737705 Z" id="Shape" fill="#4D4E4E"></path>
                        <path d="M126.585246,67.1803279 C126.585246,67.6721311 126.737705,68.1639344 127.332787,68.1639344 C127.927869,68.1639344 128.090164,67.7262295 128.090164,67.1803279 C128.090164,66.5114754 127.868852,66.1622951 127.209836,66.1622951 L126.870492,66.1622951 L126.870492,65.547541 L127.185246,65.547541 C127.770492,65.547541 127.967213,65.1491803 127.967213,64.6180328 C127.967213,64.2295082 127.790164,63.8360656 127.337705,63.8360656 C126.801639,63.8360656 126.64918,64.2983607 126.64918,64.7901639 L125.818033,64.7901639 C125.762689,64.359476 125.910086,63.9274575 126.217132,63.6204111 C126.524179,63.3133646 126.956197,63.1659673 127.386885,63.2213115 C127.776028,63.1737125 128.166162,63.3018166 128.45134,63.5708348 C128.736519,63.839853 128.887138,64.22186 128.862295,64.6131148 C128.900294,65.1671692 128.53553,65.6687206 127.996721,65.8032787 L127.996721,65.8278689 C128.294509,65.8634972 128.565787,66.016429 128.750426,66.2527667 C128.935065,66.4891043 129.017812,66.7893254 128.980328,67.0868852 C128.980328,68.1639344 128.444262,68.7688525 127.322951,68.7688525 C126.339344,68.7688525 125.768852,68.2770492 125.768852,67.1459016 L126.585246,67.1803279 Z" id="Path" fill="#4D4E4E"></path>
                        <polygon id="Path" fill="#4D4E4E" points="133.332787 63.2065574 134.163934 63.2065574 134.163934 68.695082 133.332787 68.695082"></polygon>
                        <path d="M142.121311,66.7278689 L142.121311,66.8459016 C142.121311,67.8295082 141.718033,68.8131148 140.429508,68.8131148 C139.047541,68.8131148 138.614754,67.9229508 138.614754,65.9606557 C138.614754,63.9983607 139.047541,63.1131148 140.434426,63.1131148 C141.998361,63.1131148 142.086885,64.2639344 142.086885,64.8344262 L142.086885,64.9327869 L141.201639,64.9327869 L141.201639,64.8393443 C141.201639,64.347541 141.04918,63.747541 140.419672,63.7721311 C139.790164,63.7967213 139.480328,64.1704918 139.480328,65.9409836 C139.480328,67.7114754 139.77541,68.1540984 140.419672,68.1540984 C141.147541,68.1540984 141.231148,67.3377049 141.231148,66.8311475 L141.231148,66.7377049 L142.121311,66.7278689 Z" id="Path" fill="#4D4E4E"></path>
                        <path d="M142.736066,63.2065574 L144.668852,63.2065574 C145.053368,63.1662181 145.435295,63.3033922 145.706277,63.5791609 C145.977258,63.8549296 146.107722,64.2392011 146.060656,64.6229508 C146.060656,65.3311475 145.745902,65.8770492 145.145902,65.9655738 L145.145902,65.9655738 C145.691803,66.0147541 145.977049,66.3147541 146.006557,67.0868852 C146.006557,67.4409836 146.006557,67.8688525 146.040984,68.1983607 C146.034613,68.3968944 146.133768,68.5839785 146.301639,68.6901639 L145.318033,68.6901639 C145.22437,68.5430044 145.173301,68.3727761 145.170492,68.1983607 C145.140984,67.8639344 145.170492,67.5590164 145.136066,67.1606557 C145.136066,66.5606557 144.934426,66.3 144.334426,66.3 L143.611475,66.3 L143.611475,68.6803279 L142.736066,68.6803279 L142.736066,63.2065574 Z M144.309836,65.6655738 C144.550744,65.6876356 144.788834,65.600398 144.958459,65.4279139 C145.128084,65.2554298 145.211331,65.0159157 145.185246,64.7754098 C145.185246,64.1901639 144.934426,63.8852459 144.354098,63.8852459 L143.611475,63.8852459 L143.611475,65.6655738 L144.309836,65.6655738 Z" id="Shape" fill="#4D4E4E"></path>
                        <polygon id="Path" fill="#4D4E4E" points="146.822951 63.2065574 147.698361 63.2065574 147.698361 68.695082 146.822951 68.695082"></polygon>
                        <path d="M151.942623,66.7278689 L151.942623,66.8459016 C151.942623,67.8295082 151.544262,68.8131148 150.25082,68.8131148 C148.868852,68.8131148 148.436066,67.9229508 148.436066,65.9606557 C148.436066,63.9983607 148.868852,63.1131148 150.260656,63.1131148 C151.819672,63.1131148 151.913115,64.2639344 151.913115,64.8344262 L151.913115,64.9327869 L151.037705,64.9327869 L151.037705,64.8393443 C151.037705,64.347541 150.885246,63.747541 150.255738,63.7721311 C149.62623,63.7967213 149.316393,64.1704918 149.316393,65.9409836 C149.316393,67.7114754 149.611475,68.1540984 150.255738,68.1540984 C150.988525,68.1540984 151.072131,67.3377049 151.072131,66.8311475 L151.072131,66.7377049 L151.942623,66.7278689 Z" id="Path" fill="#4D4E4E"></path>
                        <path d="M152.42459,65.9508197 C152.42459,63.9836066 152.980328,63.1032787 154.239344,63.1032787 C155.498361,63.1032787 156.054098,63.9934426 156.054098,65.9508197 C156.054098,67.9081967 155.498361,68.8032787 154.239344,68.8032787 C152.980328,68.8032787 152.42459,67.9131148 152.42459,65.9508197 Z M155.178689,65.9508197 C155.178689,64.1065574 154.760656,63.7819672 154.239344,63.7819672 C153.718033,63.7819672 153.304918,64.1065574 153.304918,65.9508197 C153.304918,67.795082 153.718033,68.1639344 154.239344,68.1639344 C154.760656,68.1639344 155.178689,67.8196721 155.178689,65.9311475 L155.178689,65.9508197 Z" id="Shape" fill="#4D4E4E"></path>
                        <path d="M157.504918,66.9983607 L157.504918,67.1360656 C157.504918,67.804918 157.8,68.1442623 158.404918,68.1442623 C158.624551,68.1597192 158.840431,68.0812753 158.998907,67.9284256 C159.157383,67.775576 159.243576,67.5626713 159.236066,67.342623 C159.277462,66.8592744 158.934334,66.4276673 158.454098,66.3590164 L157.854098,66.147541 C157.052459,65.842623 156.708197,65.4295082 156.708197,64.642623 C156.708197,63.6590164 157.381967,63.0934426 158.414754,63.0934426 C159.821311,63.0934426 159.963934,63.9688525 159.963934,64.5344262 L159.963934,64.657377 L159.088525,64.657377 L159.088525,64.5393443 C159.088525,64.047541 158.867213,63.747541 158.321311,63.747541 C158.112481,63.7355945 157.90917,63.8172251 157.766584,63.9702675 C157.623998,64.1233099 157.556936,64.33188 157.583607,64.5393443 C157.583607,65.0311475 157.82459,65.247541 158.404918,65.4688525 L159,65.6852459 C159.678196,65.8276004 160.15057,66.4441936 160.111475,67.1360656 C160.111475,68.3065574 159.403279,68.7885246 158.296721,68.7885246 C156.939344,68.7885246 156.629508,67.8836066 156.629508,67.1114754 L156.629508,66.9983607 L157.504918,66.9983607 Z" id="Path" fill="#4D4E4E"></path>
                        <path d="M162.663934,63.2065574 L164.4,63.2065574 C165.452459,63.2065574 165.914754,63.8704918 165.914754,64.804918 C165.960817,65.2443503 165.807515,65.6812964 165.496998,65.9956236 C165.186481,66.3099508 164.751437,66.4685693 164.311475,66.4278689 L163.539344,66.4278689 L163.539344,68.695082 L162.663934,68.695082 L162.663934,63.2065574 Z M163.539344,65.7688525 L164.163934,65.7688525 C164.413548,65.7864034 164.657668,65.6898853 164.82779,65.5063822 C164.997913,65.3228791 165.075708,65.0721641 165.039344,64.8245902 C165.039344,64.2295082 164.803279,63.8704918 164.1,63.8704918 L163.539344,63.8704918 L163.539344,65.7688525 Z" id="Shape" fill="#4D4E4E"></path>
                        <path d="M166.509836,63.2065574 L168.442623,63.2065574 C168.827138,63.1662181 169.209066,63.3033922 169.480047,63.5791609 C169.751028,63.8549296 169.881493,64.2392011 169.834426,64.6229508 C169.834426,65.3311475 169.519672,65.8770492 168.919672,65.9655738 L168.919672,65.9655738 C169.465574,66.0147541 169.75082,66.3147541 169.780328,67.0868852 C169.780328,67.4409836 169.780328,67.8688525 169.814754,68.1983607 C169.808384,68.3968944 169.907538,68.5839785 170.07541,68.6901639 L169.091803,68.6901639 C168.99814,68.5430044 168.947072,68.3727761 168.944262,68.1983607 C168.914754,67.8639344 168.944262,67.5590164 168.909836,67.1606557 C168.909836,66.5606557 168.708197,66.3 168.108197,66.3 L167.395082,66.3 L167.395082,68.6803279 L166.519672,68.6803279 L166.509836,63.2065574 Z M168.083607,65.6655738 C168.324515,65.6876356 168.562604,65.600398 168.732229,65.4279139 C168.901855,65.2554298 168.985101,65.0159157 168.959016,64.7754098 C168.959016,64.1901639 168.708197,63.8852459 168.127869,63.8852459 L167.385246,63.8852459 L167.385246,65.6655738 L168.083607,65.6655738 Z" id="Shape" fill="#4D4E4E"></path>
                        <path d="M170.503279,65.9508197 C170.503279,63.9836066 171.059016,63.1032787 172.318033,63.1032787 C173.577049,63.1032787 174.132787,63.9934426 174.132787,65.9508197 C174.132787,67.9081967 173.577049,68.8032787 172.318033,68.8032787 C171.059016,68.8032787 170.503279,67.9131148 170.503279,65.9508197 Z M173.257377,65.9508197 C173.257377,64.1065574 172.839344,63.7819672 172.318033,63.7819672 C171.796721,63.7819672 171.378689,64.1065574 171.378689,65.9508197 C171.378689,67.795082 171.796721,68.1639344 172.318033,68.1639344 C172.839344,68.1639344 173.257377,67.8196721 173.257377,65.9311475 L173.257377,65.9508197 Z" id="Shape" fill="#4D4E4E"></path>
                        <polygon id="Path" fill="#4D4E4E" points="174.270492 63.2065574 175.2 63.2065574 176.119672 67.5885246 176.119672 67.5885246 177.103279 63.2065574 178.032787 63.2065574 176.65082 68.695082 175.539344 68.695082"></polygon>
                        <polygon id="Path" fill="#4D4E4E" points="178.431148 63.2065574 179.306557 63.2065574 179.306557 68.695082 178.431148 68.695082"></polygon>
                        <path d="M180.172131,63.2065574 L181.736066,63.2065574 C183.457377,63.2065574 183.668852,64.3327869 183.668852,65.9508197 C183.668852,67.5688525 183.457377,68.695082 181.736066,68.695082 L180.172131,68.695082 L180.172131,63.2065574 Z M181.047541,68.0360656 L181.770492,68.0360656 C182.493443,68.0360656 182.793443,67.5442623 182.793443,65.9508197 C182.793443,64.357377 182.532787,63.8704918 181.770492,63.8704918 L181.037705,63.8704918 L181.047541,68.0360656 Z" id="Shape" fill="#4D4E4E"></path>
                        <polygon id="Path" fill="#4D4E4E" points="184.445902 63.2065574 187.396721 63.2065574 187.396721 63.9442623 185.306557 63.9442623 185.306557 65.4688525 187.27377 65.4688525 187.27377 66.2065574 185.306557 66.2065574 185.306557 67.9819672 187.460656 67.9819672 187.460656 68.7196721 184.431148 68.7196721"></polygon>
                        <path d="M188.144262,63.2065574 L190.081967,63.2065574 C190.466482,63.1662181 190.84841,63.3033922 191.119391,63.5791609 C191.390372,63.8549296 191.520837,64.2392011 191.47377,64.6229508 C191.47377,65.3311475 191.159016,65.8770492 190.559016,65.9655738 L190.559016,65.9655738 C191.104918,66.0147541 191.385246,66.3147541 191.419672,67.0868852 C191.419672,67.4409836 191.419672,67.8688525 191.44918,68.1983607 C191.444773,68.3964344 191.543447,68.5826118 191.709836,68.6901639 L190.72623,68.6901639 C190.63233,68.5433802 190.582806,68.3726075 190.583607,68.1983607 C190.554098,67.8639344 190.583607,67.5590164 190.544262,67.1606557 C190.544262,66.5606557 190.342623,66.3 189.742623,66.3 L189.029508,66.3 L189.029508,68.6803279 L188.154098,68.6803279 L188.144262,63.2065574 Z M189.718033,65.6655738 C189.958941,65.6876356 190.19703,65.600398 190.366656,65.4279139 C190.536281,65.2554298 190.619527,65.0159157 190.593443,64.7754098 C190.593443,64.1901639 190.342623,63.8852459 189.767213,63.8852459 L189.019672,63.8852459 L189.019672,65.6655738 L189.718033,65.6655738 Z" id="Shape" fill="#4D4E4E"></path>
                        <path d="M197.488525,66.7278689 L197.488525,66.8459016 C197.488525,67.8295082 197.090164,68.8131148 195.801639,68.8131148 C194.414754,68.8131148 193.986885,67.9229508 193.986885,65.9606557 C193.986885,63.9983607 194.414754,63.1131148 195.806557,63.1131148 C197.365574,63.1131148 197.459016,64.2639344 197.459016,64.8344262 L197.459016,64.9327869 L196.583607,64.9327869 L196.583607,64.8393443 C196.583607,64.347541 196.431148,63.747541 195.801639,63.7721311 C195.172131,63.7967213 194.862295,64.1704918 194.862295,65.9409836 C194.862295,67.7114754 195.152459,68.1540984 195.801639,68.1540984 C196.529508,68.1540984 196.613115,67.3377049 196.613115,66.8311475 L196.613115,66.7377049 L197.488525,66.7278689 Z" id="Path" fill="#4D4E4E"></path>
                        <path d="M197.97541,65.9508197 C197.97541,63.9836066 198.52623,63.1032787 199.790164,63.1032787 C201.054098,63.1032787 201.6,63.9934426 201.6,65.9508197 C201.6,67.9081967 201.04918,68.8032787 199.790164,68.8032787 C198.531148,68.8032787 197.97541,67.9131148 197.97541,65.9508197 Z M200.72459,65.9508197 C200.72459,64.1065574 200.311475,63.7819672 199.790164,63.7819672 C199.268852,63.7819672 198.85082,64.1065574 198.85082,65.9508197 C198.85082,67.795082 199.263934,68.1639344 199.790164,68.1639344 C200.316393,68.1639344 200.709836,67.8196721 200.709836,65.9311475 L200.72459,65.9508197 Z" id="Shape" fill="#4D4E4E"></path>
                        <path d="M202.377049,63.2065574 L203.940984,63.2065574 C205.662295,63.2065574 205.87377,64.3327869 205.87377,65.9508197 C205.87377,67.5688525 205.662295,68.695082 203.940984,68.695082 L202.377049,68.695082 L202.377049,63.2065574 Z M203.257377,68.0360656 L203.97541,68.0360656 C204.698361,68.0360656 204.998361,67.5442623 204.998361,65.9508197 C204.998361,64.357377 204.737705,63.8704918 203.97541,63.8704918 L203.257377,63.8704918 L203.257377,68.0360656 Z" id="Shape" fill="#4D4E4E"></path>
                        <polygon id="Path" fill="#4D4E4E" points="206.65082 63.2065574 209.601639 63.2065574 209.601639 63.9442623 207.511475 63.9442623 207.511475 65.4688525 209.478689 65.4688525 209.478689 66.2065574 207.511475 66.2065574 207.511475 67.9819672 209.660656 67.9819672 209.660656 68.7196721 206.631148 68.7196721"></polygon>
                        <path d="M210.378689,64.7606557 L211.378689,64.7606557 L211.378689,65.7737705 L210.378689,65.7737705 L210.378689,64.7606557 Z M210.378689,67.6819672 L211.378689,67.6819672 L211.378689,68.695082 L210.378689,68.695082 L210.378689,67.6819672 Z" id="Shape" fill="#4D4E4E"></path>
                        <path d="M215.144262,63.2557377 C216.191803,63.2557377 216.777049,63.9147541 216.777049,66.0295082 C216.777049,68.1442623 216.191803,68.8032787 215.144262,68.8032787 C214.096721,68.8032787 213.496721,68.1442623 213.496721,66.0147541 C213.496721,63.8852459 214.101639,63.2557377 215.144262,63.2557377 Z M215.144262,68.1737705 C215.744262,68.1737705 215.896721,67.5983607 215.896721,66.0147541 C215.896721,64.4311475 215.744262,63.8557377 215.144262,63.8557377 C214.544262,63.8557377 214.391803,64.4311475 214.391803,66.0147541 C214.391803,67.5983607 214.544262,68.1885246 215.144262,68.1885246 L215.144262,68.1737705 Z" id="Shape" fill="#4D4E4E"></path>
                        <path d="M218.060656,67.1803279 C218.060656,67.6721311 218.213115,68.1639344 218.803279,68.1639344 C219.393443,68.1639344 219.565574,67.7262295 219.565574,67.1803279 C219.565574,66.5114754 219.344262,66.1622951 218.680328,66.1622951 L218.345902,66.1622951 L218.345902,65.547541 L218.660656,65.547541 C219.240984,65.547541 219.442623,65.1491803 219.442623,64.6180328 C219.442623,64.2295082 219.265574,63.8360656 218.813115,63.8360656 C218.272131,63.8360656 218.119672,64.2983607 218.119672,64.7901639 L217.288525,64.7901639 C217.23318,64.359476 217.380578,63.9274575 217.687624,63.6204111 C217.994671,63.3133646 218.426689,63.1659673 218.857377,63.2213115 C219.246519,63.1737125 219.636654,63.3018166 219.921832,63.5708348 C220.20701,63.839853 220.35763,64.22186 220.332787,64.6131148 C220.370786,65.1671692 220.006021,65.6687206 219.467213,65.8032787 L219.467213,65.8278689 C219.765001,65.8634972 220.036279,66.016429 220.220918,66.2527667 C220.405556,66.4891043 220.488304,66.7893254 220.45082,67.0868852 C220.45082,68.1639344 219.914754,68.7688525 218.793443,68.7688525 C217.809836,68.7688525 217.239344,68.2770492 217.239344,67.1459016 L218.060656,67.1803279 Z" id="Path" fill="#4D4E4E"></path>
                        <path d="M223.2,64.5786885 C223.2,64.2639344 223.057377,63.8704918 222.614754,63.8704918 C221.793443,63.8704918 221.74918,64.952459 221.74918,65.7442623 L221.77377,65.7442623 C221.983773,65.3625834 222.39661,65.1379234 222.831148,65.1688525 C223.578689,65.1688525 224.178689,65.704918 224.178689,66.7918033 C224.178689,68.0409836 223.662295,68.7885246 222.511475,68.7885246 C221.134426,68.7885246 220.87377,67.7409836 220.87377,66.1819672 C220.87377,64.6229508 221.17377,63.2311475 222.609836,63.2311475 C223.563934,63.2311475 224.085246,63.6590164 224.085246,64.5540984 L223.2,64.5786885 Z M222.580328,68.1885246 C223.116393,68.1885246 223.303279,67.657377 223.303279,67.0180328 C223.303279,66.2655738 223.077049,65.842623 222.580328,65.842623 C221.940984,65.842623 221.827869,66.4032787 221.827869,67.057377 C221.827869,67.7114754 222.063934,68.1885246 222.580328,68.1885246 L222.580328,68.1885246 Z" id="Shape" fill="#4D4E4E"></path>
                        <path d="M227.803279,68.695082 L224.621311,68.695082 C224.621311,66.3295082 226.908197,66.3836066 226.908197,64.6918033 C226.908197,64.2442623 226.711475,63.8704918 226.229508,63.8704918 C225.57541,63.8704918 225.467213,64.4557377 225.467213,65.0065574 L224.640984,65.0065574 C224.640984,63.9245902 225.083607,63.2557377 226.244262,63.2557377 C227.404918,63.2557377 227.783607,63.9147541 227.783607,64.7311475 C227.783607,66.5360656 226.013115,66.6540984 225.6,67.9819672 L227.803279,67.9819672 L227.803279,68.695082 Z" id="Path" fill="#4D4E4E"></path>
                        <path d="M229.903279,63.2557377 C230.95082,63.2557377 231.531148,63.9147541 231.531148,66.0295082 C231.531148,68.1442623 230.95082,68.8032787 229.903279,68.8032787 C228.855738,68.8032787 228.27541,68.1442623 228.27541,66.0295082 C228.27541,63.9147541 228.860656,63.2557377 229.903279,63.2557377 Z M229.903279,68.1737705 C230.503279,68.1737705 230.655738,67.5983607 230.655738,66.0147541 C230.655738,64.4311475 230.503279,63.8557377 229.903279,63.8557377 C229.303279,63.8557377 229.15082,64.4311475 229.15082,66.0147541 C229.15082,67.5983607 229.303279,68.1885246 229.903279,68.1885246 L229.903279,68.1737705 Z" id="Shape" fill="#4D4E4E"></path>
                        <path d="M235.57377,66.7278689 L235.57377,66.8459016 C235.57377,67.8295082 235.17541,68.8131148 233.886885,68.8131148 C232.5,68.8131148 232.072131,67.9229508 232.072131,65.9606557 C232.072131,63.9983607 232.5,63.1131148 233.891803,63.1131148 C235.45082,63.1131148 235.544262,64.2639344 235.544262,64.8344262 L235.544262,64.9327869 L234.668852,64.9327869 L234.668852,64.8393443 C234.668852,64.347541 234.516393,63.747541 233.886885,63.7721311 C233.257377,63.7967213 232.947541,64.1704918 232.947541,65.9409836 C232.947541,67.7114754 233.237705,68.1540984 233.886885,68.1540984 C234.614754,68.1540984 234.698361,67.3377049 234.698361,66.8311475 L234.698361,66.7377049 L235.57377,66.7278689 Z" id="Path" fill="#4D4E4E"></path>
                    </g>
                </g>
            </g>
        </g>
    </g>
</svg>