<?xml version="1.0" encoding="UTF-8"?>
<svg width="265px" height="34px" viewBox="0 0 265 34" version="1.1" xmlns="http://www.w3.org/2000/svg" xmlns:xlink="http://www.w3.org/1999/xlink">
    <!-- Generator: sketchtool 60.1 (101010) - https://sketch.com -->
    <title>796BF6D4-0187-4BAC-89D4-D7C55CFBC2E1</title>
    <desc>Created with sketchtool.</desc>
    <g id="Page-1" stroke="none" stroke-width="1" fill="none" fill-rule="evenodd">
        <g id="12-00-Pathway-Partners" transform="translate(-170.000000, -1497.000000)" fill="#28B8CE" fill-rule="nonzero">
            <g id="Group-11" transform="translate(0.000000, 1161.000000)">
                <g id="Group-9" transform="translate(140.000000, 220.000000)">
                    <g id="mv-logo" transform="translate(30.000000, 116.000000)">
                        <path d="M22.9565282,8 C19.5555105,8 17.4899747,9.52717642 16.1470017,11.6588389 C15.1142338,9.37571529 13.0851326,8 10.0232633,8 C7.11292113,8 5.16349926,9.29658873 4.01529829,11.1687977 L4.01529829,8 L0,10.5137113 L0,27.51743 L4.1307313,24.9245922 L4.1307313,18.5296046 C4.1307313,14.7916391 5.27859177,11.8894266 9.02658941,11.8894266 C11.6696309,11.8894266 13.0490385,13.5313874 13.0490385,16.5490636 L13.0490385,27.5395039 L13.0561891,27.5395039 L17.1797697,24.953458 L17.1797697,18.5296046 C17.1797697,14.7556416 18.3637242,11.8894266 22.1188726,11.8894266 C24.7547634,11.8894266 26.0977363,13.5313874 26.0977363,16.5490636 L26.0977363,27.5249011 L30.2717124,24.9103289 L30.2717124,16.2393493 C30.2717124,11.2051347 27.8598775,8 22.9565282,8 M45.2344191,19.8258537 C45.2344191,22.0797718 43.2846568,24.3343692 40.1073545,24.3343692 C38.0421591,24.3343692 36.9661464,23.340363 36.9661464,21.8929925 C36.9661464,20.6324011 37.8470467,19.6387347 39.7246208,19.408147 L45.2344191,18.7238552 L45.2344191,19.8258537 Z M41.3709885,8 C36.9300523,8 34.214482,9.75029291 33.2542427,12.5805104 L36.5834127,14.6765151 C37.1609183,12.5805104 39.1106807,11.7379655 41.4431766,11.7379655 C43.9707851,11.7379655 45.2344191,12.767969 45.2344191,14.2588083 L45.2344191,14.6765151 C45.2344191,15.2093457 44.931365,15.475931 44.1223123,15.5550576 L38.8076264,16.0878882 C35.2836845,16.3976025 32.6838879,18.4936071 32.6838879,22.0077769 C32.6838879,25.4360281 35.1679111,27.9208735 39.1467748,27.9208735 C42.0210228,27.9208735 44.0862182,26.6606219 45.2344191,24.9031974 L45.2344191,27.5395039 L49.3651505,27.5395039 L49.3651505,15.4399335 C49.3651505,10.5568404 46.7653538,8 41.3709885,8 L41.3709885,8 Z M66.6314098,21.8929925 C65.4035294,23.03812 63.8007472,23.9886574 61.6919664,23.9886574 C58.4421354,23.9886574 55.9509615,21.6260677 55.9509615,17.9964343 C55.9509615,14.3308034 58.4421354,12.0045506 61.7280605,12.0045506 C63.1432216,12.0045506 64.2989137,12.4293889 65.2663038,13.0848148 L68.9278118,10.7870885 C67.2017647,9.06600106 64.8331745,8 61.8434934,8 C55.8355285,8 51.7047972,12.1556722 51.7047972,18.0324317 C51.7047972,23.9166625 55.719755,28 61.6919664,28 C64.9053627,28 67.3968771,26.7760855 69,25.1697826 L66.6314098,21.8929925" id="Shape"></path>
                        <polyline id="Path" points="72 2.57539992 72 26 76 26 76 0 72 2.57539992"></polyline>
                        <path d="M89.2799175,11.6588389 C92.1831654,11.6588389 93.7511446,13.49539 94.0113694,16.1310172 L84.1407248,16.1310172 C84.6190745,13.3799263 86.3342383,11.6588389 89.2799175,11.6588389 Z M98.4050262,19.2570255 L98.4050262,18.0755608 C98.4050262,12.1556722 95.1291761,8 89.3501948,8 C83.6136451,8 80,12.4653864 80,18.0755608 C80,23.95266 83.7681226,28 89.7227971,28 C93.2310263,28 95.6492944,26.5091608 97.1748421,24.9823239 L95.2766922,21.6624047 C93.9762308,23.03812 92.1483581,24.139779 89.6876585,24.139779 C87.0091654,24.139779 84.471227,22.5409472 84.0986247,19.2926834 L84.0986247,19.2570255 L98.4050262,19.2570255 L98.4050262,19.2570255 Z M112.978614,19.8258537 C112.978614,22.0797718 111.073503,24.3343692 107.980307,24.3343692 C105.969448,24.3343692 104.929212,23.340363 104.929212,21.8929925 C104.929212,20.6324011 105.786794,19.6387347 107.607705,19.408147 L112.978614,18.7238552 L112.978614,19.8258537 Z M109.210491,8 C104.893742,8 102.243757,9.75029291 101.315567,12.5805104 L104.55661,14.6765151 C105.111867,12.5805104 107.016978,11.7379655 109.28773,11.7379655 C111.748098,11.7379655 112.978614,12.767969 112.978614,14.2588083 L112.978614,14.6765151 C112.978614,15.2093457 112.676289,15.475931 111.895946,15.5550576 L106.714653,16.0878882 C103.290956,16.3976025 100.753349,18.4936071 100.753349,22.0077769 C100.753349,25.4360281 103.178578,27.9208735 107.052117,27.9208735 C109.842987,27.9208735 111.860807,26.6606219 112.978614,24.9031974 L112.978614,27.5395039 L117,27.5395039 L117,15.4399335 C117,10.5568404 114.469023,8 109.210491,8 L109.210491,8 Z" id="Shape"></path>
                        <polyline id="Path" points="132.632598 7 127.318389 18.3672415 121.854956 7 117 7 125.155914 23.0058462 120.48749 33 124.856178 33 137 7 132.632598 7"></polyline>
                        <path d="M162.57864,21.8929925 C161.379384,23.03812 159.806649,23.9886574 157.754345,23.9886574 C154.573292,23.9886574 152.147176,21.6260677 152.147176,17.9964343 C152.147176,14.3308034 154.573292,12.0045506 157.789266,12.0045506 C159.164785,12.0045506 160.293536,12.4293889 161.238706,13.0776833 L164.814191,10.7870885 C163.135699,9.06600106 160.815341,8 157.902341,8 C152.034434,8 148,12.1556722 148,18.0324317 C148,23.9166625 151.92136,28 157.754345,28 C160.892831,28 163.318946,26.7760855 164.892013,25.1697826 L162.57864,21.8929925 M175.097327,23.9886574 C171.733358,23.9886574 169.342496,21.5469411 169.342496,17.9964343 C169.342496,14.4459274 171.733358,12.0045506 175.097327,12.0045506 C178.461961,12.0045506 180.852824,14.4459274 180.852824,17.9964343 C180.852824,21.5469411 178.461961,23.9886574 175.097327,23.9886574 Z M175.097327,8 C169.419986,8 165.195318,12.1556722 165.195318,17.9964343 C165.195318,23.8371963 169.419986,28 175.097327,28 C180.782318,28 185,23.8371963 185,17.9964343 C185,12.1556722 180.782318,8 175.097327,8 L175.097327,8 Z" id="Shape"></path>
                        <polyline id="Path" points="189 2.56641482 189 26 193 26 193 0 189 2.56641482"></polyline>
                        <polyline id="Path" points="196 2.56854327 196 26 200 26 200 0 196 2.56854327"></polyline>
                        <path d="M212.425604,9.70245095 C215.384162,9.70245095 216.970597,11.560893 217.235115,14.227936 L207.201625,14.227936 C207.694606,11.4440531 209.438402,9.70245095 212.425604,9.70245095 Z M221.708334,17.3912051 L221.708334,16.1956578 C221.708334,10.2052063 218.371363,6 212.504117,6 C206.672925,6 203,10.5186122 203,16.1956578 C203,22.1428099 206.822876,26.2383927 212.882866,26.2383927 C216.44156,26.2383927 218.907139,24.7297832 220.457855,23.184747 L218.52839,19.8252556 C217.199059,21.2173689 215.341368,22.3321592 212.847147,22.3321592 C210.117389,22.3321592 207.544655,20.71427 207.165906,17.427288 L207.165906,17.3912051 L221.708334,17.3912051 L221.708334,17.3912051 Z M233.978266,22.2593062 C230.569521,22.2593062 228.218511,19.7451859 228.218511,16.1155881 C228.218511,12.4863339 230.569521,9.9794303 233.978266,9.9794303 C237.351293,9.9794303 239.545276,12.3698376 239.545276,16.1155881 C239.545276,19.8616822 237.351293,22.2593062 233.978266,22.2593062 Z M239.352195,6.45911217 L239.352195,9.12684251 C238.294796,7.42853988 236.058018,6 233.028023,6 C228.032843,6 224.016549,9.78252066 224.016549,16.0795052 C224.016549,22.376146 227.768325,26.0782533 233.106536,26.0782533 C235.986244,26.0782533 238.258741,24.8830497 239.466426,23.0682507 L239.466426,24.4967906 C239.466426,27.470023 238.330178,30.1738362 233.828315,30.1738362 C231.09822,30.1738362 229.204809,29.0518294 227.804044,27.0109108 L225.302747,30.1009832 C227.010826,32.4549639 229.468991,34 233.785521,34 C241.439023,34 243.482719,29.4013182 243.482719,24.6136305 L243.482719,6.45911217 L239.352195,6.45911217 L239.352195,6.45911217 Z M255.716933,9.70245095 C258.675491,9.70245095 260.261926,11.560893 260.526107,14.227936 L250.493291,14.227936 C250.986272,11.4440531 252.730069,9.70245095 255.716933,9.70245095 Z M265,17.3912051 L265,16.1956578 C265,10.2052063 261.662355,6 255.795445,6 C249.964591,6 246.291328,10.5186122 246.291328,16.1956578 C246.291328,22.1428099 250.114542,26.2383927 256.174196,26.2383927 C259.733226,26.2383927 262.191391,24.7297832 263.74952,23.184747 L261.812642,19.8252556 C260.490725,21.2173689 258.632697,22.3321592 256.131401,22.3321592 C253.408717,22.3321592 250.835985,20.71427 250.457235,17.427288 L250.457235,17.3912051 L265,17.3912051 L265,17.3912051 Z" id="Shape"></path>
                    </g>
                </g>
            </g>
        </g>
    </g>
</svg>