<?xml version="1.0" encoding="UTF-8"?>
<svg width="100px" height="100px" viewBox="0 0 100 100" version="1.1" xmlns="http://www.w3.org/2000/svg" xmlns:xlink="http://www.w3.org/1999/xlink">
    <!-- Generator: sketchtool 60.1 (101010) - https://sketch.com -->
    <title>21536225-799E-49B5-944C-CAEAB80EEBA0</title>
    <desc>Created with sketchtool.</desc>
    <g id="Page-1" stroke="none" stroke-width="1" fill="none" fill-rule="evenodd">
        <g id="12-01-Pathway-Partners(Macleay)" transform="translate(-360.000000, -2611.000000)">
            <g id="About" transform="translate(0.000000, 278.000000)">
                <g id="Group-9" transform="translate(340.000000, 2013.000000)">
                    <g id="Group-2-Copy-2" transform="translate(0.000000, 300.000000)">
                        <g id="icon-step3" transform="translate(20.000000, 20.000000)">
                            <rect id="Rectangle" fill="#E5F8FF" x="0" y="0" width="100" height="100" rx="5"></rect>
                            <g id="Group-19" transform="translate(12.000000, 8.000000)">
                                <g id="Group-3" transform="translate(11.000000, 48.000000)">
                                    <polyline id="Fill-1" fill="#FFFFFF" points="47.6106 13.2768 58.7746 2.1128 58.7746 0.7168 5.9796 0.7168 0.1636 18.8588"></polyline>
                                    <polyline id="Stroke-2" stroke="#333333" stroke-width="2" points="47.6106 13.2768 58.7746 2.1128 58.7746 0.7168 5.9796 0.7168 0.1636 18.8588"></polyline>
                                </g>
                                <g id="Group-18">
                                    <path d="M34.8875,34.7621 L34.8875,31.9711 L29.3055,26.3891 L-0.0005,26.3891 L-0.0005,82.2091 C-0.0005,83.7501 1.2495,85.0001 2.7905,85.0001 L48.4435,85.0001 C49.7125,85.0001 50.9235,84.1721 51.7855,83.2421 L73.9615,62.6721 L73.9615,58.4861 L48.8425,58.4861 L43.2605,62.6721 L25.3615,62.6721 L7.5335,79.4181 L5.5815,79.4181 L5.5815,34.7621 L34.8875,34.7621 Z" id="Fill-4" fill="#21A690"></path>
                                    <path d="M34.8875,34.7621 L34.8875,31.9711 L29.3055,26.3891 L-0.0005,26.3891 L-0.0005,82.2091 C-0.0005,83.7501 1.2495,85.0001 2.7905,85.0001 L48.4435,85.0001 C49.7125,85.0001 50.9235,84.1721 51.7855,83.2421 L73.9615,62.6721 L73.9615,58.4861 L48.8425,58.4861 L43.2605,62.6721 L25.3615,62.6721 L7.5335,79.4181 L5.5815,79.4181 L5.5815,34.7621 L34.8875,34.7621 Z" id="Stroke-6" stroke="#333333" stroke-width="2"></path>
                                    <g id="Group-11" transform="translate(27.000000, 34.000000)">
                                        <polyline id="Fill-8" fill="#FFFFFF" points="0.9099 0.7621 38.5879 0.7621 38.5879 2.1581 30.2149 14.7171"></polyline>
                                        <polyline id="Stroke-10" stroke="#333333" stroke-width="2" points="0.9099 0.7621 38.5879 0.7621 38.5879 2.1581 30.2149 14.7171"></polyline>
                                    </g>
                                    <polyline id="Stroke-12" stroke="#333333" stroke-width="2" stroke-linejoin="round" points="40.0291 19.3168 55.0531 19.3168 55.0531 27.9018 75.4431 13.9508 55.0531 0.0008 55.0531 8.5858 26.0781 8.5858"></polyline>
                                    <line x1="45.3948" y1="2.6303" x2="29.2978" y2="2.6303" id="Stroke-14" stroke="#333333" stroke-width="2" stroke-linejoin="round"></line>
                                    <line x1="23.9319" y1="8.5854" x2="21.7859" y2="8.5854" id="Stroke-16" stroke="#333333" stroke-width="2" stroke-linejoin="round"></line>
                                </g>
                            </g>
                        </g>
                    </g>
                </g>
            </g>
        </g>
    </g>
</svg>