<?xml version="1.0" encoding="UTF-8"?>
<svg width="100px" height="100px" viewBox="0 0 100 100" version="1.1" xmlns="http://www.w3.org/2000/svg" xmlns:xlink="http://www.w3.org/1999/xlink">
    <!-- Generator: sketchtool 60.1 (101010) - https://sketch.com -->
    <title>C86B9A88-FDD8-43AB-81EF-CE3B8DFD7FFA</title>
    <desc>Created with sketchtool.</desc>
    <defs>
        <polygon id="path-1" points="0 0.311045161 29.7349194 0.311045161 29.7349194 0.859432258 0 0.859432258"></polygon>
    </defs>
    <g id="Page-1" stroke="none" stroke-width="1" fill="none" fill-rule="evenodd">
        <g id="12-01-Pathway-Partners(Macleay)" transform="translate(-860.000000, -2761.000000)">
            <g id="About" transform="translate(0.000000, 278.000000)">
                <g id="Group-9" transform="translate(340.000000, 2013.000000)">
                    <g id="Group-2-Copy-7" transform="translate(500.000000, 450.000000)">
                        <g id="icon-step8" transform="translate(20.000000, 20.000000)">
                            <rect id="Rectangle" fill="#E5F8FF" x="0" y="0" width="100" height="100" rx="5"></rect>
                            <g id="Group-38" transform="translate(8.000000, 10.000000)">
                                <path d="M41.6291613,9.46878065 L59.4698387,9.46878065 L84.1291613,34.1275548 C85.2900968,35.2884903 85.2900968,37.1716516 84.1291613,38.3325871 L43.7316774,78.730071 C42.5707419,79.8910065 40.6875806,79.8910065 39.5266452,78.730071 L8.04977419,47.2532 C6.88829032,46.0922645 6.88829032,44.2091032 8.04977419,43.0481677 L41.6291613,9.46878065 Z" id="Fill-1" fill="#FFFFFF"></path>
                                <line x1="38.6558613" y1="67.4518871" x2="13.3807" y2="67.4518871" id="Stroke-3" stroke="#333333" stroke-width="2"></line>
                                <g id="Group-7" transform="translate(0.000000, 29.697903)">
                                    <mask id="mask-2" fill="white">
                                        <use xlink:href="#path-1"></use>
                                    </mask>
                                    <g id="Clip-6"></g>
                                    <line x1="29.7349194" y1="0.58523871" x2="-0.000274193548" y2="0.58523871" id="Stroke-5" stroke="#333333" stroke-width="2" mask="url(#mask-2)"></line>
                                </g>
                                <polygon id="Fill-8" fill="#21A690" points="41.6291613 10.9554032 50.5497742 19.8760161 59.4698387 10.9554032"></polygon>
                                <path d="M16.3540548,34.7435581 L8.04928065,43.0483323 C6.88834516,44.2092677 6.88834516,46.0918806 8.04928065,47.2533645 L28.2513129,67.4548484" id="Stroke-10" stroke="#333333" stroke-width="2"></path>
                                <path d="M32.707671,71.9112613 L39.5268645,78.7304548 C40.6878,79.8913903 42.5704129,79.8913903 43.7318968,78.7304548 L84.1293806,38.332971 C85.2903161,37.1714871 85.2903161,35.2888742 84.1293806,34.1279387 L59.4700581,9.46861613 L41.6293806,9.46861613 L20.8148,30.2831968" id="Stroke-12" stroke="#333333" stroke-width="2"></path>
                                <polyline id="Stroke-14" stroke="#333333" stroke-width="2" points="44.6024065 13.9289774 50.5496645 19.8756871 56.4963742 13.9289774"></polyline>
                                <line x1="46.8329161" y1="26.5665032" x2="63.1869161" y2="42.9205032" id="Stroke-16" stroke="#21A690"></line>
                                <line x1="42.3724452" y1="31.0264258" x2="58.7264452" y2="47.3809742" id="Stroke-18" stroke="#21A690"></line>
                                <line x1="37.912029" y1="35.4868968" x2="49.8054484" y2="47.3803161" id="Stroke-20" stroke="#21A690"></line>
                                <line x1="17.8412258" y1="0.548112903" x2="47.5764194" y2="0.548112903" id="Stroke-22" stroke="#333333" stroke-width="2"></line>
                                <line x1="65.4170419" y1="68.9390581" x2="83.2582677" y2="68.9390581" id="Stroke-24" stroke="#333333" stroke-width="2"></line>
                                <line x1="26.7616194" y1="12.4420806" x2="11.8942968" y2="12.4420806" id="Stroke-26" stroke="#333333" stroke-width="2"></line>
                                <line x1="8.92033871" y1="12.4420806" x2="5.94698387" y2="12.4420806" id="Stroke-28" stroke="#333333" stroke-width="2"></line>
                                <path d="M30.1349677,45.3011065 C30.6159032,44.837171 31.1478387,43.9005258 30.3126452,43.0658806 C29.5613548,42.3145903 28.5408065,42.6776226 27.9671935,43.1333323 L30.1349677,45.3011065 Z M27.4270323,43.6553968 C26.4399355,44.6764935 26.6675161,45.7310419 27.4100323,46.4741065 C27.9419677,47.0054935 28.3549032,47.2330742 28.7519355,47.3932032 L28.346129,48.0518161 C27.9666452,47.9086871 27.3842581,47.5966548 26.7349677,46.9468161 C25.4780645,45.6899129 25.5537419,44.1116548 26.7859677,42.879429 C28.0176452,41.6477516 29.7132581,41.403171 30.9032581,42.593171 C32.2363871,43.9257516 31.4181935,45.4530097 30.6669032,46.2043 C30.515,46.3562032 30.3795484,46.4571065 30.2956452,46.5240097 L27.4270323,43.6553968 Z" id="Fill-30" fill="#21A690"></path>
                                <path d="M33.5184613,53.1905871 C33.1137516,53.0556839 32.4386871,52.6509742 31.747171,51.9589097 C30.1436871,50.3554258 29.9495581,48.1361032 31.8146226,46.2715871 C33.5946871,44.4915226 36.0075903,44.4915226 37.7712032,46.2551355 C38.4797194,46.9636516 38.7758484,47.5624903 38.8679774,47.858071 L38.0920097,48.2797806 C37.9483323,47.8662968 37.6533,47.3689097 37.1805903,46.8956516 C35.8474613,45.563071 34.1090742,45.5285226 32.6158161,47.022329 C31.2229129,48.4146839 31.1307839,50.1108452 32.5143645,51.4944258 C32.9613,51.9419097 33.5102355,52.3043935 33.9489452,52.4557484 L33.5184613,53.1905871 Z" id="Fill-32" fill="#21A690"></path>
                                <path d="M37.332,51.7558968 C36.1173226,52.9705742 35.6868387,54.7171871 36.8428387,55.8737355 C38.0070645,57.0379613 39.7372258,56.6244774 41.028129,55.3330258 C42.1589032,54.2028 42.7495161,52.4304129 41.5255161,51.2069613 C40.3113871,49.9922839 38.5806774,50.5072194 37.332,51.7558968 M41.8380968,56.0755419 C39.8798065,58.0332839 37.6533548,57.8813806 36.2017742,56.4298 C34.6997419,54.9277677 34.8094194,52.7089935 36.5308065,50.9881548 C38.3360968,49.1828645 40.639871,49.1236387 42.1583548,50.6421226 C43.7108387,52.1946065 43.5254839,54.3881548 41.8380968,56.0755419" id="Fill-34" fill="#21A690"></path>
                                <polygon id="Fill-36" fill="#21A690" points="45.5000065 60.210929 43.2894581 58.0003806 41.2390387 60.0502516 43.7029419 62.5136065 43.0871032 63.1294452 39.8889097 59.9312516 45.5756839 54.2444774 48.6472 57.3165419 48.0313613 57.9323806 45.6941355 55.5951548 43.897071 57.3922194 46.1076194 59.6033161"></polygon>
                            </g>
                        </g>
                    </g>
                </g>
            </g>
        </g>
    </g>
</svg>