<?xml version="1.0" encoding="UTF-8"?>
<svg width="100px" height="100px" viewBox="0 0 100 100" version="1.1" xmlns="http://www.w3.org/2000/svg" xmlns:xlink="http://www.w3.org/1999/xlink">
    <!-- Generator: sketchtool 60.1 (101010) - https://sketch.com -->
    <title>17EC4FB3-7AD3-4B90-A7FA-08EB81043DB0</title>
    <desc>Created with sketchtool.</desc>
    <g id="Page-1" stroke="none" stroke-width="1" fill="none" fill-rule="evenodd">
        <g id="12-01-Pathway-Partners(Macleay)" transform="translate(-860.000000, -2611.000000)">
            <g id="About" transform="translate(0.000000, 278.000000)">
                <g id="Group-9" transform="translate(340.000000, 2013.000000)">
                    <g id="Group-2-Copy-6" transform="translate(500.000000, 300.000000)">
                        <g id="icon-step7" transform="translate(20.000000, 20.000000)">
                            <rect id="Rectangle" fill="#E5F8FF" x="0" y="0" width="100" height="100" rx="5"></rect>
                            <g id="Group-31" transform="translate(7.000000, 7.000000)">
                                <path d="M59.7241,64.3547 C54.9851,68.0937 49.0161,70.3437 42.5101,70.3437 C28.2481,70.3437 16.5091,59.6107 14.8861,45.7847 L0.0791,45.7847 C1.7531,67.7627 20.1031,85.0797 42.5101,85.0797 C53.0861,85.0797 62.7541,81.2127 70.1991,74.8297 L59.7241,64.3547 Z" id="Fill-1" fill="#FFFFFF"></path>
                                <path d="M59.7241,64.3547 C54.9851,68.0937 49.0161,70.3437 42.5101,70.3437 C28.2481,70.3437 16.5091,59.6107 14.8861,45.7847 L0.0791,45.7847 C1.7531,67.7627 20.1031,85.0797 42.5101,85.0797 C53.0861,85.0797 62.7541,81.2127 70.1991,74.8297 L59.7241,64.3547 Z" id="Stroke-3" stroke="#333333" stroke-width="2"></path>
                                <path d="M37.5981,47.4221 L37.5981,47.4221 C37.5981,49.2311 39.0641,50.6961 40.8731,50.6961 L44.1471,50.6961 C45.9561,50.6961 47.4221,49.2311 47.4221,47.4221 L47.4221,46.5071 C47.4221,45.0981 46.5201,43.8471 45.1831,43.4011 L39.8371,41.6191 C38.5001,41.1731 37.5981,39.9221 37.5981,38.5131 L37.5981,37.5981 C37.5981,35.7891 39.0641,34.3231 40.8731,34.3231 L44.1471,34.3231 C45.9561,34.3231 47.4221,35.7891 47.4221,37.5981" id="Stroke-5" stroke="#333333" stroke-width="2"></path>
                                <line x1="42.5102" y1="34.3235" x2="42.5102" y2="29.4125" id="Stroke-7" stroke="#333333" stroke-width="2"></line>
                                <line x1="42.5102" y1="50.6965" x2="42.5102" y2="55.6085" id="Stroke-9" stroke="#333333" stroke-width="2"></line>
                                <path d="M45.7846,0.0793 L45.7846,14.8863 C59.6106,16.5093 70.3436,28.2483 70.3436,42.5103 C70.3436,49.0163 68.0946,54.9853 64.3546,59.7243 L74.8286,70.1983 C81.2136,62.7543 85.0786,53.0863 85.0786,42.5103 C85.0786,20.1023 67.7636,1.7523 45.7846,0.0793" id="Fill-11" fill="#21A690"></path>
                                <path d="M45.7846,0.0793 L45.7846,14.8863 C59.6106,16.5093 70.3436,28.2483 70.3436,42.5103 C70.3436,49.0163 68.0946,54.9853 64.3546,59.7243 L74.8286,70.1983 C81.2136,62.7543 85.0786,53.0863 85.0786,42.5103 C85.0786,20.1023 67.7636,1.7523 45.7846,0.0793 Z" id="Stroke-13" stroke="#333333" stroke-width="2"></path>
                                <path d="M20.6655,25.2961 L10.1905,14.8211 C4.4725,21.4891 0.7865,29.9431 0.0795,39.2351 L14.8855,39.2351 C15.4995,34.0051 17.5635,29.2271 20.6655,25.2961" id="Fill-15" fill="#FFFFFF"></path>
                                <path d="M20.6655,25.2961 L10.1905,14.8211 C4.4725,21.4891 0.7865,29.9431 0.0795,39.2351 L14.8855,39.2351 C15.4995,34.0051 17.5635,29.2271 20.6655,25.2961 Z" id="Stroke-17" stroke="#333333" stroke-width="2"></path>
                                <path d="M39.2358,14.886 L39.2358,0.079 C29.9438,0.786 21.4898,4.473 14.8218,10.191 L25.2958,20.665 C29.2268,17.564 34.0058,15.5 39.2358,14.886" id="Fill-19" fill="#FFFFFF"></path>
                                <path d="M39.2358,14.886 L39.2358,0.079 C29.9438,0.786 21.4898,4.473 14.8218,10.191 L25.2958,20.665 C29.2268,17.564 34.0058,15.5 39.2358,14.886 Z" id="Stroke-21" stroke="#333333" stroke-width="2"></path>
                                <path d="M54.6142,57.6946 C51.2782,60.3286 46.9842,62.1576 42.4042,62.1576 C32.3612,62.1576 24.0062,54.9446 22.8632,45.1096" id="Stroke-23" stroke="#333333" stroke-width="2"></path>
                                <path d="M45.1098,22.8625 C54.9438,24.0065 62.1578,32.2715 62.1578,42.3135 C62.1578,46.8945 60.4508,51.0975 57.8178,54.4345" id="Stroke-25" stroke="#333333" stroke-width="2"></path>
                                <path d="M22.8627,39.4905 C23.2957,36.6795 24.7487,32.7015 26.9327,29.9335" id="Stroke-27" stroke="#333333" stroke-width="2"></path>
                                <path d="M29.8042,27.1125 C32.5722,24.9275 36.6802,23.2955 39.4902,22.8625" id="Stroke-29" stroke="#333333" stroke-width="2"></path>
                            </g>
                        </g>
                    </g>
                </g>
            </g>
        </g>
    </g>
</svg>