<?xml version="1.0" encoding="UTF-8"?>
<svg width="100px" height="100px" viewBox="0 0 100 100" version="1.1" xmlns="http://www.w3.org/2000/svg" xmlns:xlink="http://www.w3.org/1999/xlink">
    <!-- Generator: sketchtool 60.1 (101010) - https://sketch.com -->
    <title>C409166E-BDCF-46BA-AD2B-0704C33E3A5E</title>
    <desc>Created with sketchtool.</desc>
    <g id="Page-1" stroke="none" stroke-width="1" fill="none" fill-rule="evenodd">
        <g id="12-01-Pathway-Partners(Macleay)" transform="translate(-360.000000, -2911.000000)">
            <g id="About" transform="translate(0.000000, 278.000000)">
                <g id="Group-9" transform="translate(340.000000, 2013.000000)">
                    <g id="Group-2-Copy-4" transform="translate(0.000000, 600.000000)">
                        <g id="icon-step5" transform="translate(20.000000, 20.000000)">
                            <rect id="Rectangle" fill="#E5F8FF" x="0" y="0" width="100" height="100" rx="5"></rect>
                            <g id="Group-17" transform="translate(8.000000, 12.000000)">
                                <polygon id="Fill-1" fill="#FFFFFF" points="0.527950311 31.9927329 32.5206832 31.9927329 32.5206832 2.84217094e-14 0.527950311 2.84217094e-14"></polygon>
                                <polyline id="Stroke-2" stroke="#333333" stroke-width="2" stroke-linecap="round" stroke-linejoin="round" points="32.5203665 16.9372795 32.5203665 31.9928385 0.52763354 31.9928385 0.52763354 0.000105590062 24.992323 0.000105590062"></polyline>
                                <polyline id="Stroke-4" stroke="#333333" stroke-width="2" stroke-linecap="round" stroke-linejoin="round" points="8.49445652 15.9334348 15.5204193 24.8410124 32.5204193 3.76365217"></polyline>
                                <polygon id="Fill-5" fill="#FFFFFF" points="0.527950311 75.3348137 32.5206832 75.3348137 32.5206832 43.3426087 0.527950311 43.3426087"></polygon>
                                <g id="Group-16" transform="translate(0.000000, 1.421770)">
                                    <polyline id="Stroke-6" stroke="#333333" stroke-width="2" stroke-linecap="round" stroke-linejoin="round" points="32.5203665 66.3853696 32.5203665 73.913413 0.52763354 73.913413 0.52763354 41.9206801 24.992323 41.9206801"></polyline>
                                    <path d="M81.4310031,4.27080124 C84.1050714,6.94539752 84.9033323,9.09151553 84.9999472,10.2049627 L40.4493882,54.7497143 C36.4517484,58.7462981 23.674295,61.8369193 23.674295,61.8369193 C23.674295,61.8369193 26.765972,49.0599938 30.7630839,45.0644658 L75.3141708,0.519186335 C76.428146,0.615801242 78.574264,1.41406211 81.2483323,4.08813043 L81.4310031,4.27080124 Z" id="Fill-8" fill="#21A690"></path>
                                    <path d="M81.4310031,4.27080124 C84.1050714,6.94539752 84.9033323,9.09151553 84.9999472,10.2049627 L40.4493882,54.7497143 C36.4517484,58.7462981 23.674295,61.8369193 23.674295,61.8369193 C23.674295,61.8369193 26.765972,49.0599938 30.7630839,45.0644658 L75.3141708,0.519186335 C76.428146,0.615801242 78.574264,1.41406211 81.2483323,4.08813043 L81.4310031,4.27080124 Z" id="Stroke-10" stroke="#333333" stroke-width="2" stroke-linejoin="round"></path>
                                    <line x1="68.3570528" y1="7.47509006" x2="78.0433571" y2="17.1613944" id="Stroke-12" stroke="#333333" stroke-width="2"></line>
                                    <line x1="30.547205" y1="45.290059" x2="40.2229503" y2="54.9652764" id="Stroke-14" stroke="#333333" stroke-width="2"></line>
                                </g>
                            </g>
                        </g>
                    </g>
                </g>
            </g>
        </g>
    </g>
</svg>