<?xml version="1.0" encoding="UTF-8"?>
<svg width="100px" height="100px" viewBox="0 0 100 100" version="1.1" xmlns="http://www.w3.org/2000/svg" xmlns:xlink="http://www.w3.org/1999/xlink">
    <!-- Generator: sketchtool 60.1 (101010) - https://sketch.com -->
    <title>B7520E52-25A6-4082-86C8-50362EADAD5A</title>
    <desc>Created with sketchtool.</desc>
    <g id="Page-1" stroke="none" stroke-width="1" fill="none" fill-rule="evenodd">
        <g id="12-01-Pathway-Partners(Macleay)" transform="translate(-860.000000, -2911.000000)">
            <g id="About" transform="translate(0.000000, 278.000000)">
                <g id="Group-9" transform="translate(340.000000, 2013.000000)">
                    <g id="Group-2-Copy-8" transform="translate(500.000000, 600.000000)">
                        <g id="icon-step9" transform="translate(20.000000, 20.000000)">
                            <rect id="Rectangle" fill="#E5F8FF" x="0" y="0" width="100" height="100" rx="5"></rect>
                            <g id="Group-35" transform="translate(8.000000, 17.000000)">
                                <path d="M73.6775,9.9076 L84.9995,9.9076 C84.9995,4.2456 81.3595,0.0006 76.8685,0.0006 L63.7705,0.0006" id="Stroke-1" stroke="#333333" stroke-width="2"></path>
                                <path d="M77.4119,0.0004 C72.9249,0.0004 69.4319,3.7914 69.4319,8.3124 L69.4319,56.4584 C69.4319,60.9794 65.2109,65.1044 60.7229,65.1044 L26.9729,65.1044 L26.9729,45.6304 L26.9729,8.1364 C26.9729,3.6144 30.9769,0.0004 35.4649,0.0004 L77.4539,0.0004 L77.4119,0.0004 Z" id="Fill-3" fill="#FFFFFF"></path>
                                <path d="M77.4119,0.0004 C72.9249,0.0004 69.4319,3.7914 69.4319,8.3124 L69.4319,56.4584 C69.4319,60.9794 65.2109,65.1044 60.7229,65.1044 L26.9729,65.1044 L26.9729,45.6304 L26.9729,8.1364 C26.9729,3.6144 30.9769,0.0004 35.4649,0.0004 L77.4539,0.0004 L77.4119,0.0004 Z" id="Stroke-5" stroke="#333333" stroke-width="2"></path>
                                <path d="M52.7151,56.6127 L16.7491,56.6127 C17.9941,60.8577 22.1461,65.1037 25.9131,65.1037 L60.5651,65.1037 C56.7981,65.1037 53.6391,60.8577 52.7151,56.6127" id="Fill-7" fill="#21A690"></path>
                                <path d="M52.7151,56.6127 L16.7491,56.6127 C17.9941,60.8577 22.1461,65.1037 25.9131,65.1037 L60.5651,65.1037 C56.7981,65.1037 53.6391,60.8577 52.7151,56.6127 Z" id="Stroke-9" stroke="#333333" stroke-width="2"></path>
                                <line x1="35.4641" y1="14.1528" x2="60.9401" y2="14.1528" id="Stroke-11" stroke="#333333" stroke-width="2"></line>
                                <line x1="35.4641" y1="19.8139" x2="60.9401" y2="19.8139" id="Stroke-13" stroke="#333333" stroke-width="2"></line>
                                <line x1="35.4641" y1="25.476" x2="60.9401" y2="25.476" id="Stroke-15" stroke="#333333" stroke-width="2"></line>
                                <line x1="52.448" y1="48.1205" x2="60.94" y2="48.1205" id="Stroke-17" stroke="#333333" stroke-width="2"></line>
                                <path d="M41.2737,46.0981 C41.2737,46.0981 40.4617,39.2821 37.0237,35.8421 C33.5847,32.4041 9.6867,8.5061 9.6867,8.5061 C7.9857,6.8051 5.3117,6.6971 3.5917,8.4161 C1.8727,10.1351 1.9817,12.8101 3.6817,14.5111 C3.6817,14.5111 27.5797,38.4091 31.0187,41.8471 C34.4577,45.2861 41.2737,46.0981 41.2737,46.0981" id="Fill-19" fill="#21A690"></path>
                                <path d="M41.2737,46.0981 C41.2737,46.0981 40.4617,39.2821 37.0237,35.8421 C33.5847,32.4041 9.6867,8.5061 9.6867,8.5061 C7.9857,6.8051 5.3117,6.6971 3.5917,8.4161 C1.8727,10.1351 1.9817,12.8101 3.6817,14.5111 C3.6817,14.5111 27.5797,38.4091 31.0187,41.8471 C34.4577,45.2861 41.2737,46.0981 41.2737,46.0981 Z" id="Stroke-21" stroke="#333333" stroke-width="2" stroke-linecap="round"></path>
                                <line x1="13.01" y1="31.8451" x2="0" y2="18.8351" id="Stroke-23" stroke="#333333" stroke-width="2" stroke-linecap="round"></line>
                                <line x1="4.0032" y1="22.8383" x2="7.0052" y2="19.8353" id="Stroke-25" stroke="#333333" stroke-width="2" stroke-linecap="round"></line>
                                <line x1="41.032" y1="45.8559" x2="43.033" y2="47.8579" id="Stroke-27" stroke="#333333" stroke-width="2" stroke-linecap="round"></line>
                                <line x1="31.0242" y1="41.8529" x2="37.0292" y2="35.8479" id="Stroke-29" stroke="#333333" stroke-width="2" stroke-linecap="round"></line>
                                <line x1="8.0061" y1="18.8354" x2="14.0111" y2="12.8304" id="Stroke-31" stroke="#333333" stroke-width="2" stroke-linecap="round"></line>
                                <line x1="46.7869" y1="48.1205" x2="49.6179" y2="48.1205" id="Stroke-33" stroke="#333333" stroke-width="2"></line>
                            </g>
                        </g>
                    </g>
                </g>
            </g>
        </g>
    </g>
</svg>