<?xml version="1.0" encoding="UTF-8"?>
<svg width="100px" height="100px" viewBox="0 0 100 100" version="1.1" xmlns="http://www.w3.org/2000/svg" xmlns:xlink="http://www.w3.org/1999/xlink">
    <!-- Generator: sketchtool 60.1 (101010) - https://sketch.com -->
    <title>8D332950-5596-4B6F-91B5-CD255512108D</title>
    <desc>Created with sketchtool.</desc>
    <g id="Page-1" stroke="none" stroke-width="1" fill="none" fill-rule="evenodd">
        <g id="12-01-Pathway-Partners(Macleay)" transform="translate(-860.000000, -2461.000000)">
            <g id="About" transform="translate(0.000000, 278.000000)">
                <g id="Group-9" transform="translate(340.000000, 2013.000000)">
                    <g id="Group-2-Copy-5" transform="translate(500.000000, 150.000000)">
                        <g id="icon-step6" transform="translate(20.000000, 20.000000)">
                            <rect id="Rectangle" fill="#E5F8FF" x="0" y="0" width="100" height="100" rx="5"></rect>
                            <g id="Group-51" transform="translate(20.000000, 8.000000)">
                                <path d="M15.0803222,56.2095556 L15.0803222,34.2738889 L5.79076667,41.4327778 C3.85276667,43.2102222 2.7421,45.7734444 2.7421,48.4660556 L2.7421,61.404 L2.74304444,76.7738889 L28.7908222,76.7738889 L28.7908222,71.2904444 C28.7908222,71.2904444 34.2742667,67.9688333 34.2742667,61.6939444 L34.2742667,56.2095556 L15.0803222,56.2095556 Z" id="Fill-1" fill="#FFFFFF"></path>
                                <path d="M15.0803222,56.2095556 L15.0803222,34.2738889 L5.79076667,41.4327778 C3.85276667,43.2102222 2.7421,45.7734444 2.7421,48.4660556 L2.7421,61.404 L2.74304444,76.7738889 L28.7908222,76.7738889 L28.7908222,71.2904444 C28.7908222,71.2904444 34.2742667,67.9688333 34.2742667,61.6939444 L34.2742667,56.2095556 L15.0803222,56.2095556 Z" id="Stroke-3" stroke="#333333" stroke-width="2"></path>
                                <path d="M56.2097444,-9.44444444e-05 L23.3062444,-9.44444444e-05 L12.3384111,10.9677389 L12.3384111,57.5807944 L56.2097444,57.5807944 C57.7246333,57.5807944 58.9514667,56.3530167 58.9514667,54.8381278 L58.9514667,2.74162778 C58.9514667,1.22768333 57.7246333,-9.44444444e-05 56.2097444,-9.44444444e-05" id="Fill-5" fill="#FFFFFF"></path>
                                <polyline id="Fill-7" fill="#21A690" points="12.3382222 12.3385056 24.6773889 12.3385056 24.6773889 0.000283333333"></polyline>
                                <path d="M15.0803222,57.5805111 L56.2099333,57.5805111 C57.7238778,57.5805111 58.9516556,56.3527333 58.9516556,54.8387889 L58.9516556,2.74228889 C58.9516556,1.2274 57.7238778,-0.000377777778 56.2099333,-0.000377777778 L23.3064333,-0.000377777778 L12.3386,10.9674556 L12.3386,50.7257333" id="Stroke-9" stroke="#333333" stroke-width="2"></path>
                                <polyline id="Stroke-11" stroke="#333333" stroke-width="2" points="16.45175 12.3385056 24.6778611 12.3385056 24.6778611 4.11333889"></polyline>
                                <line x1="21.9358556" y1="22.7887833" x2="49.3549667" y2="22.7887833" id="Stroke-13" stroke="#21A690" stroke-width="2"></line>
                                <line x1="21.9358556" y1="28.2723222" x2="38.3871333" y2="28.2723222" id="Stroke-15" stroke="#21A690" stroke-width="2"></line>
                                <path d="M25.1104167,38.7229778 C21.9295278,41.9038667 9.50630556,54.0513111 9.50630556,54.0513111 L20.4543056,68.3549222 C20.4543056,68.3549222 25.0820833,62.7468111 22.0069722,55.8807 C22.0069722,55.8807 27.5414167,49.6832556 28.8976389,47.8066444 C31.9208056,43.3233667 28.2903611,35.5420889 25.1104167,38.7229778" id="Fill-17" fill="#FFFFFF"></path>
                                <path d="M9.50583333,54.0513111 C9.50583333,54.0513111 21.9290556,41.9038667 25.1099444,38.7229778 C28.2908333,35.5420889 31.9203333,43.3233667 28.8971667,47.8066444 C27.5418889,49.6832556 22.0065,55.8807 22.0065,55.8807 C25.0816111,62.7468111 20.4547778,68.3558667 20.4547778,68.3558667" id="Stroke-19" stroke="#333333" stroke-width="2"></path>
                                <g id="Group-24" transform="translate(0.000000, 74.611111)">
                                    <polyline id="Fill-21" fill="#21A690" points="-0.000377777778 10.3887944 -0.000377777778 0.792294444 32.9031222 0.792294444 32.9031222 10.3887944"></polyline>
                                    <polyline id="Stroke-23" stroke="#333333" stroke-width="2" points="-0.000377777778 10.3887944 -0.000377777778 0.792294444 32.9031222 0.792294444 32.9031222 10.3887944"></polyline>
                                </g>
                                <line x1="4.11315" y1="80.8873222" x2="8.22526111" y2="80.8873222" id="Stroke-25" stroke="#333333" stroke-width="2"></line>
                                <polyline id="Stroke-27" stroke="#333333" stroke-width="2" points="-0.000377777778 84.9999056 -0.000377777778 75.4034056 32.9031222 75.4034056 32.9031222 84.9999056"></polyline>
                                <path d="M33.8806222,44.9227833 C33.8806222,45.8502278 34.4718444,46.6813389 35.5107333,46.6813389 C36.5562333,46.6813389 37.1484,45.86345 37.1484,44.8783944 C37.1484,44.0151722 36.6166778,43.1122833 35.5173444,43.1122833 C34.4265111,43.1122833 33.8806222,43.9698389 33.8806222,44.9227833 M37.8454,44.85195 C37.8454,46.3470056 36.7762889,47.1393944 35.4729556,47.1393944 C34.1233444,47.1393944 33.1760667,46.2497278 33.1760667,44.9360056 C33.1760667,43.5571167 34.1837889,42.6551722 35.5485111,42.6551722 C36.9434556,42.6551722 37.8454,43.5637278 37.8454,44.85195" id="Fill-29" fill="#21A690"></path>
                                <polygon id="Fill-31" fill="#21A690" points="38.6988 42.7262889 41.4499667 42.7262889 41.4499667 43.1966222 39.3580222 43.1966222 39.3580222 44.6397333 41.2903556 44.6397333 41.2903556 45.1034556 39.3580222 45.1034556 39.3580222 47.0679 38.6988 47.0679"></polygon>
                                <polygon id="Fill-33" fill="#21A690" points="42.3879889 42.7262889 45.1391556 42.7262889 45.1391556 43.1966222 43.0472111 43.1966222 43.0472111 44.6397333 44.9795444 44.6397333 44.9795444 45.1034556 43.0472111 45.1034556 43.0472111 47.0679 42.3879889 47.0679"></polygon>
                                <polygon id="Fill-35" fill="#21A690" points="48.7215278 45.0325278 46.7353611 45.0325278 46.7353611 46.5974722 48.9491389 46.5974722 48.9491389 47.0678056 46.0761389 47.0678056 46.0761389 42.7261944 48.8348611 42.7261944 48.8348611 43.1965278 46.7353611 43.1965278 46.7353611 44.5688056 48.7215278 44.5688056"></polygon>
                                <path d="M50.4628,44.76185 L51.1371333,44.76185 C51.8416889,44.76185 52.2893556,44.4331833 52.2893556,43.93735 C52.2893556,43.3772944 51.8124111,43.1317389 51.1135222,43.1260722 C50.7961889,43.1260722 50.5685778,43.1515722 50.4628,43.1770722 L50.4628,44.76185 Z M49.8035778,42.7841833 C50.1360222,42.7265722 50.6139111,42.6944611 51.0691333,42.6944611 C51.7746333,42.6944611 52.2289111,42.8040167 52.5471889,43.0486278 C52.8040778,43.2422389 52.9485778,43.53785 52.9485778,43.8731278 C52.9485778,44.4464056 52.5245222,44.8260722 51.9861889,44.9809611 L51.9861889,44.99985 C52.3800222,45.1160167 52.6151889,45.4257944 52.7360778,45.8762944 C52.9032444,46.4816833 53.0250778,46.9010167 53.1308556,47.0681833 L52.4489667,47.0681833 C52.3658556,46.94635 52.2515778,46.57235 52.1070778,46.0311833 C51.9559667,45.4314611 51.6830222,45.2066833 51.0842444,45.18685 L50.4628,45.18685 L50.4628,47.0681833 L49.8035778,47.0681833 L49.8035778,42.7841833 Z" id="Fill-37" fill="#21A690"></path>
                                <polygon id="Fill-39" fill="#21A690" points="33.4794222 47.8824833 34.1386444 47.8824833 34.1386444 51.7537611 36.3222 51.7537611 36.3222 52.2240944 33.4794222 52.2240944"></polygon>
                                <polygon id="Fill-41" fill="#21A690" points="39.7003833 50.1887222 37.7142167 50.1887222 37.7142167 51.7536667 39.9279944 51.7536667 39.9279944 52.224 37.0549944 52.224 37.0549944 47.8823889 39.8137167 47.8823889 39.8137167 48.3527222 37.7142167 48.3527222 37.7142167 49.725 39.7003833 49.725"></polygon>
                                <polygon id="Fill-43" fill="#21A690" points="41.8733611 48.3593333 40.3188056 48.3593333 40.3188056 47.8823889 44.1013056 47.8823889 44.1013056 48.3593333 42.5401389 48.3593333 42.5401389 52.224 41.8733611 52.224"></polygon>
                                <polygon id="Fill-45" fill="#21A690" points="45.9259722 48.3593333 44.3714167 48.3593333 44.3714167 47.8823889 48.1539167 47.8823889 48.1539167 48.3593333 46.59275 48.3593333 46.59275 52.224 45.9259722 52.224"></polygon>
                                <polygon id="Fill-47" fill="#21A690" points="51.3648389 50.1887222 49.3786722 50.1887222 49.3786722 51.7536667 51.59245 51.7536667 51.59245 52.224 48.71945 52.224 48.71945 47.8823889 51.4781722 47.8823889 51.4781722 48.3527222 49.3786722 48.3527222 49.3786722 49.725 51.3648389 49.725"></polygon>
                                <path d="M53.1062056,49.9180444 L53.7805389,49.9180444 C54.4850944,49.9180444 54.9327611,49.5893778 54.9327611,49.0935444 C54.9327611,48.5334889 54.4558167,48.2879333 53.7569278,48.2822667 C53.4395944,48.2822667 53.2119833,48.3077667 53.1062056,48.3332667 L53.1062056,49.9180444 Z M52.4469833,47.9403778 C52.7794278,47.8827667 53.2573167,47.8506556 53.7125389,47.8506556 C54.4180389,47.8506556 54.8723167,47.9602111 55.1905944,48.2048222 C55.4474833,48.3984333 55.5919833,48.6940444 55.5919833,49.0293222 C55.5919833,49.6026 55.1679278,49.9822667 54.6295944,50.1371556 L54.6295944,50.1560444 C55.0234278,50.2722111 55.2585944,50.5819889 55.3794833,51.0324889 C55.54665,51.6378778 55.6684833,52.0572111 55.7742611,52.2243778 L55.0923722,52.2243778 C55.0092611,52.1025444 54.8949833,51.7285444 54.7504833,51.1873778 C54.5993722,50.5876556 54.3264278,50.3628778 53.72765,50.3430444 L53.1062056,50.3430444 L53.1062056,52.2243778 L52.4469833,52.2243778 L52.4469833,47.9403778 Z" id="Fill-49" fill="#21A690"></path>
                            </g>
                        </g>
                    </g>
                </g>
            </g>
        </g>
    </g>
</svg>