<?xml version="1.0" encoding="UTF-8"?>
<svg width="100px" height="100px" viewBox="0 0 100 100" version="1.1" xmlns="http://www.w3.org/2000/svg" xmlns:xlink="http://www.w3.org/1999/xlink">
    <!-- Generator: sketchtool 60.1 (101010) - https://sketch.com -->
    <title>5CE6AA79-7CE5-4287-9255-79A4445E77A9</title>
    <desc>Created with sketchtool.</desc>
    <g id="Page-1" stroke="none" stroke-width="1" fill="none" fill-rule="evenodd">
        <g id="12-01-Pathway-Partners(Macleay)" transform="translate(-360.000000, -2311.000000)">
            <g id="About" transform="translate(0.000000, 278.000000)">
                <g id="Group-9" transform="translate(340.000000, 2013.000000)">
                    <g id="Group-2">
                        <g id="icon-step1" transform="translate(20.000000, 20.000000)">
                            <rect id="Rectangle" fill="#E5F8FF" x="0" y="0" width="100" height="100" rx="5"></rect>
                            <g id="Group-17" transform="translate(10.000000, 8.000000)">
                                <path d="M78.3608665,0.527791925 L1.59900311,0.527791925 C0.716270186,0.527791925 -0.000158385093,1.24369255 -0.000158385093,2.12695342 L-0.000158385093,77.2896553 C-0.000158385093,78.1723882 0.716270186,78.8888168 1.59900311,78.8888168 L78.3608665,78.8888168 C79.2441273,78.8888168 79.960028,78.1723882 79.960028,77.2896553 L79.960028,2.12695342 C79.960028,1.24369255 79.2441273,0.527791925 78.3608665,0.527791925" id="Fill-1" fill="#FFFFFF"></path>
                                <path d="M78.3608665,0.527791925 L1.59900311,0.527791925 C0.716270186,0.527791925 -0.000158385093,1.24369255 -0.000158385093,2.12695342 L-0.000158385093,10.1232888 L79.960028,10.1232888 L79.960028,2.12695342 C79.960028,1.24369255 79.2441273,0.527791925 78.3608665,0.527791925" id="Fill-3" fill="#21A690"></path>
                                <path d="M79.9601863,56.4998168 L79.9601863,2.12727019 C79.9601863,1.24400932 79.2442857,0.527580745 78.3610248,0.527580745 L1.59916149,0.527580745 C0.715900621,0.527580745 0,1.24400932 0,2.12727019 L0,77.2894441 C0,78.172705 0.715900621,78.8886056 1.59916149,78.8886056 L43.1784161,78.8886056" id="Stroke-5" stroke="#333333" stroke-width="2"></path>
                                <line x1="3.19832298" y1="10.1231832" x2="76.7613354" y2="10.1231832" id="Stroke-7" stroke="#333333" stroke-width="2"></line>
                                <line x1="4.79764286" y1="5.32575155" x2="7.99596584" y2="5.32575155" id="Stroke-9" stroke="#333333" stroke-width="2"></line>
                                <line x1="11.1943944" y1="5.32575155" x2="14.3927174" y2="5.32575155" id="Stroke-11" stroke="#333333" stroke-width="2"></line>
                                <path d="M77.863854,66.0642702 L53.2201894,48.0960093 L53.2201894,78.5534627 C53.2381398,79.474736 53.9587919,79.793618 54.6958106,79.0782453 L61.5845062,72.3949224 L68.2435435,84.1576553 C68.8058106,85.0736491 70.1225186,85.2737422 71.1847547,84.6043012 L73.9702205,82.8499224 C75.0123944,82.1936801 75.4257795,80.941382 74.9031087,80.0248602 L68.4911522,68.9188975 L76.8818665,68.9188975 C78.8078292,68.8856366 79.1409658,66.8862888 77.863854,66.0642702" id="Fill-13" fill="#21A690"></path>
                                <path d="M77.863854,66.0642702 L53.2201894,48.0960093 L53.2201894,78.5534627 C53.2381398,79.474736 53.9587919,79.793618 54.6958106,79.0782453 L61.5845062,72.3949224 L68.2435435,84.1576553 C68.8058106,85.0736491 70.1225186,85.2737422 71.1847547,84.6043012 L73.9702205,82.8499224 C75.0123944,82.1936801 75.4257795,80.941382 74.9031087,80.0248602 L68.4911522,68.9188975 L76.8818665,68.9188975 C78.8078292,68.8856366 79.1409658,66.8862888 77.863854,66.0642702 Z" id="Stroke-15" stroke="#333333" stroke-width="2" stroke-linecap="round" stroke-linejoin="round"></path>
                            </g>
                        </g>
                    </g>
                </g>
            </g>
        </g>
    </g>
</svg>